<svg width="40" height="40" viewBox="0 0 40 40" fill="none" xmlns="http://www.w3.org/2000/svg">
<path d="M0 8C0 3.58172 3.58172 0 8 0H32C36.4183 0 40 3.58172 40 8V32C40 36.4183 36.4183 40 32 40H8C3.58172 40 0 36.4183 0 32V8Z" fill="#D2E823"/>
<path fill-rule="evenodd" clip-rule="evenodd" d="M20.001 9.99796C17.5845 9.99796 15.6255 11.9569 15.6255 14.3734V18.1238C15.6255 20.5403 17.5845 22.4993 20.001 22.4993C22.4175 22.4993 24.3765 20.5403 24.3765 18.1238V14.3734C24.3765 11.9569 22.4175 9.99796 20.001 9.99796ZM16.8757 14.3734C16.8757 12.6474 18.2749 11.2481 20.001 11.2481C21.7271 11.2481 23.1263 12.6474 23.1263 14.3734V18.1238C23.1263 19.8499 21.7271 21.2492 20.001 21.2492C18.2749 21.2492 16.8757 19.8499 16.8757 18.1238V14.3734Z" fill="black"/>
<path d="M13.1253 18.1238C13.1253 17.7786 12.8454 17.4988 12.5002 17.4988C12.155 17.4988 11.8751 17.7786 11.8751 18.1238C11.8751 22.4013 15.1802 25.9068 19.3759 26.226V28.7478H11.2501C10.9049 28.7478 10.625 29.0277 10.625 29.3729C10.625 29.7181 10.9049 29.998 11.2501 29.998H28.7519C29.0972 29.998 29.377 29.7181 29.377 29.3729C29.377 29.0277 29.0972 28.7478 28.7519 28.7478H20.6261V26.226C24.8218 25.9068 28.1269 22.4013 28.1269 18.1238C28.1269 17.7786 27.847 17.4988 27.5018 17.4988C27.1566 17.4988 26.8767 17.7786 26.8767 18.1238C26.8767 21.9212 23.7984 24.9996 20.001 24.9996C16.2036 24.9996 13.1253 21.9212 13.1253 18.1238Z" fill="black"/>
</svg>
