<svg width="40" height="40" viewBox="0 0 40 40" fill="none" xmlns="http://www.w3.org/2000/svg">
  <path d="M0 8C0 3.58172 3.58172 0 8 0H32C36.4183 0 40 3.58172 40 8V32C40 36.4183 36.4183 40 32 40H8C3.58172 40 0 36.4183 0 32V8Z" fill="white"/>
  <g clip-path="url(#clip0_106_711)">
  <path d="M28.257 12.3766C28.2386 12.266 28.1484 12.1813 28.0366 12.1707C27.9488 12.1562 26.0171 12.0238 26.0171 12.0238L24.5445 10.5512C24.4116 10.4043 24.1179 10.4473 24.007 10.4777C23.9925 10.4777 23.7132 10.5656 23.2562 10.7141C22.812 9.42891 22.0257 8.25078 20.6406 8.25078H20.5222C20.1253 7.73633 19.6394 7.5 19.2292 7.5C16.0042 7.51445 14.4675 11.5363 13.9816 13.5914L11.7277 14.2828C11.0363 14.5031 11.0109 14.5191 10.9179 15.1785L9.01672 29.834L23.262 32.5L30.982 30.8359C30.982 30.8215 28.271 12.5168 28.257 12.377V12.3766ZM22.4663 10.9609C22.1081 11.0793 21.6995 11.1973 21.2593 11.3301V11.0645C21.2723 10.4016 21.173 9.74138 20.9656 9.11172C21.6874 9.22266 22.1726 10.0324 22.4667 10.9605L22.4663 10.9609ZM20.096 9.28203C20.3316 9.97656 20.4409 10.7078 20.4187 11.441V11.5738L17.9284 12.3406C18.4159 10.5203 19.3152 9.62109 20.0964 9.28203H20.096ZM19.139 8.38633C19.2863 8.38946 19.4295 8.43548 19.5511 8.51875C18.512 9.00234 17.4136 10.2242 16.9425 12.6699L14.9718 13.2738C15.5277 11.418 16.8245 8.38281 19.1378 8.38281L19.139 8.38633Z" fill="#95BF47"/>
  <path d="M28.0367 12.1707C27.9488 12.1562 26.0172 12.0238 26.0172 12.0238L24.5445 10.5512C24.4898 10.4957 24.4156 10.4641 24.3387 10.4633L23.2637 32.5L30.9836 30.8359L28.257 12.3914C28.2482 12.3362 28.2221 12.2851 28.1826 12.2456C28.143 12.206 28.092 12.1799 28.0367 12.1711V12.1707Z" fill="#5E8E3E"/>
  <path d="M20.6409 16.4414L19.6824 19.2703C19.1031 18.9898 18.4698 18.8391 17.8261 18.8277C16.323 18.8277 16.2495 19.7699 16.2495 20.0066C16.2495 21.2949 19.623 21.7895 19.623 24.8242C19.623 27.2109 18.1054 28.7422 16.0683 28.7422C13.623 28.7422 12.3702 27.2246 12.3702 27.2246L13.0206 25.0566C13.0206 25.0566 14.3019 26.1621 15.3929 26.1621C15.5233 26.1671 15.6534 26.1455 15.7752 26.0988C15.8971 26.052 16.0082 25.9811 16.1018 25.8901C16.1955 25.7992 16.2697 25.6902 16.32 25.5698C16.3703 25.4494 16.3956 25.32 16.3945 25.1895C16.3945 23.4941 13.6249 23.4211 13.6249 20.6512C13.6249 18.3223 15.3038 16.0535 18.6773 16.0535C20.0031 16.0731 20.6374 16.4402 20.6374 16.4402L20.6409 16.4414Z" fill="white"/>
  </g>
  <path d="M8 0.833333H32V-0.833333H8V0.833333ZM39.1667 8V32H40.8333V8H39.1667ZM32 39.1667H8V40.8333H32V39.1667ZM0.833333 32V8H-0.833333V32H0.833333ZM8 39.1667C4.04196 39.1667 0.833333 35.958 0.833333 32H-0.833333C-0.833333 36.8785 3.12148 40.8333 8 40.8333V39.1667ZM39.1667 32C39.1667 35.958 35.958 39.1667 32 39.1667V40.8333C36.8785 40.8333 40.8333 36.8785 40.8333 32H39.1667ZM32 0.833333C35.958 0.833333 39.1667 4.04196 39.1667 8H40.8333C40.8333 3.12148 36.8785 -0.833333 32 -0.833333V0.833333ZM8 -0.833333C3.12148 -0.833333 -0.833333 3.12148 -0.833333 8H0.833333C0.833333 4.04196 4.04196 0.833333 8 0.833333V-0.833333Z" fill="#EBEEF1"/>
  <defs>
  <clipPath id="clip0_106_711">
    <rect width="25" height="25" fill="white" transform="translate(7.50012 7.5)"/>
  </clipPath>
  </defs>
</svg>
