<svg width="268" height="26" viewBox="0 0 268 26" fill="none" xmlns="http://www.w3.org/2000/svg">
<path d="M0 2.59035H3.38947V20.4471H12.7587V23.5867H0V2.59035ZM16.0931 2.59035C16.3681 2.58671 16.6412 2.63728 16.8967 2.73918C17.1522 2.84107 17.3851 2.9923 17.5821 3.18422C17.7791 3.37614 17.9364 3.60499 18.045 3.85771C18.1536 4.11043 18.2113 4.38207 18.2149 4.6571C18.2149 5.21985 17.9914 5.75956 17.5935 6.15748C17.1955 6.55541 16.6558 6.77896 16.0931 6.77896C15.5303 6.77896 14.9906 6.55541 14.5927 6.15748C14.1948 5.75956 13.9712 5.21985 13.9712 4.6571C13.9724 4.38135 14.0284 4.10859 14.1362 3.85476C14.2439 3.60092 14.4011 3.37109 14.5987 3.17868C14.7962 2.98628 15.0301 2.83516 15.2867 2.73415C15.5433 2.63313 15.8174 2.58425 16.0931 2.59035ZM14.4397 8.45992H17.6914V23.5867H14.4397V8.45992ZM19.5928 8.45992H22.8445V10.5542C23.8071 8.95594 25.4605 8.04657 27.6375 8.04657C31.1647 8.04657 33.3693 10.8022 33.3693 15.1837V23.5867H30.1176V15.4593C30.1176 12.621 28.8775 11.0227 26.6381 11.0227C24.1874 11.0227 22.8371 12.7036 22.8371 15.7349V23.5867H19.5854L19.5928 8.45992ZM35.0778 2.59035H38.3295V15.8727L44.3919 8.45992H48.4703L41.9945 16.038L48.4703 23.5867H44.3919L38.3295 16.2033V23.5867H35.0778V2.59035ZM49.7379 4.61117H53.0447V8.4691H56.9026V11.1697H53.0447V18.9663C53.0447 19.9602 53.651 20.5665 54.5879 20.5665H56.7667V23.5959H54.147C51.3086 23.5959 49.7379 21.9149 49.7379 18.9406V4.61117ZM58.3356 8.4691H61.5873V10.343C62.3864 8.91001 63.7367 8.05575 65.3901 8.05575C65.7717 8.03837 66.1536 8.08494 66.5199 8.19354V11.2248C66.122 11.1373 65.7146 11.1003 65.3074 11.1145C62.91 11.1145 61.5873 13.1354 61.5873 16.5983V23.5959H58.3356V8.4691ZM74.1237 8.05575C77.7061 8.05575 81.5916 10.2327 81.5916 16.3779V16.8188H69.9351C70.1849 19.5175 71.7538 21.0055 74.3717 21.0055C76.2456 21.0055 77.8438 19.9859 78.2021 18.5824H81.5089C81.1782 21.6118 78.0367 24.0092 74.3717 24.0092C69.6871 24.0092 66.7404 20.9504 66.7404 16.0196C66.7404 11.6289 69.5787 8.04657 74.1237 8.04657V8.05575ZM78.1194 14.1182C77.651 12.2444 76.1905 11.0594 74.1237 11.0594C72.1396 11.0594 70.7361 12.2719 70.1849 14.1182H78.1194ZM90.4097 8.05575C93.992 8.05575 97.8775 10.2327 97.8775 16.3779V16.8188H86.2211C86.4691 19.5175 88.0398 21.0055 90.6577 21.0055C92.5315 21.0055 94.1298 19.9859 94.4881 18.5824H97.7949C97.4642 21.6118 94.3227 24.0092 90.6577 24.0092C85.9731 24.0092 83.0245 20.9504 83.0245 16.0196C83.0245 11.6289 85.8628 8.04657 90.4097 8.04657V8.05575ZM94.4054 14.1182C93.9369 12.2444 92.4764 11.0594 90.4097 11.0594C88.4256 11.0594 87.0202 12.2719 86.4691 14.1182H94.4054Z" fill="black"/>
<path d="M98.6768 8.00061H104.491L100.358 4.06001L102.645 1.70851L106.586 5.75934V0H110.003V5.75934L113.943 1.7177L116.229 4.06001L112.097 7.99143H117.909V11.2431H112.064L116.223 15.2848L113.943 17.5811L108.294 11.9045L102.645 17.5811L100.358 15.2939L104.519 11.2523H98.6768V8.00061ZM106.576 15.9094H109.993V23.6252H106.576V15.9094Z" fill="black"/>
<path d="M133 8.52541e-05L132 0V23.9999L133 24V8.52541e-05Z" fill="black"/>
<path d="M146.84 21H148.96V8.24L153.88 21H156.42L161.32 8.28V21H163.44V5.76H160.14L155.16 18.94L150.16 5.76H146.84V21ZM169.034 21.3C170.794 21.3 172.274 20.52 173.234 19.22V21H175.274V14.74C175.274 11.62 173.294 9.74 170.274 9.74C167.554 9.74 165.634 11.42 165.314 13.42H167.414C167.694 12.24 168.714 11.58 170.114 11.58C172.094 11.58 173.174 12.66 173.234 14.56H169.614C166.714 14.56 164.994 15.8 164.994 18.04C164.994 20.06 166.534 21.3 169.034 21.3ZM167.014 17.88C167.014 16.82 167.894 16.24 169.994 16.24H173.174C172.834 18.3 171.074 19.5 169.294 19.5C167.914 19.5 167.014 18.86 167.014 17.88ZM177.443 21H179.483V15.7C179.483 13.24 180.523 11.66 182.483 11.66C183.103 11.66 183.663 11.86 183.923 12.1V10.04C183.523 9.84 183.143 9.74 182.463 9.74C181.223 9.74 180.103 10.46 179.483 11.58V10.04H177.443V21ZM185.27 21H187.31V18.2L189.65 15.82L193.25 21H195.61L190.97 14.48L195.37 10.04H192.71L187.31 15.56V5.76H185.27V21ZM201.263 21.3C203.863 21.3 206.023 19.58 206.363 17.4H204.283C203.923 18.62 202.703 19.44 201.263 19.44C199.203 19.44 197.883 18.12 197.723 15.98H206.483V15.6C206.483 11.62 203.903 9.74 201.083 9.74C197.843 9.74 195.743 12.26 195.743 15.52C195.743 19.02 197.943 21.3 201.263 21.3ZM197.843 14.28C198.243 12.66 199.443 11.58 201.083 11.58C202.803 11.58 204.023 12.64 204.283 14.28H197.843ZM211.65 21.3C212.47 21.3 213.27 20.98 213.65 20.5V18.82C213.27 19.18 212.75 19.42 212.17 19.42C211.27 19.42 210.91 18.94 210.91 17.78V11.74H213.77V10.04H210.91V7.28H208.87V10.04H207.03V11.74H208.87V18.24C208.87 20.16 209.91 21.3 211.65 21.3ZM220.918 21.3C224.018 21.3 226.118 18.8 226.118 15.5C226.118 12.2 224.018 9.74 220.918 9.74C219.378 9.74 218.118 10.36 217.218 11.4V10.04H215.178V25.76H217.218V19.62C218.118 20.66 219.378 21.3 220.918 21.3ZM217.218 15.5C217.218 13.2 218.598 11.56 220.658 11.56C222.738 11.56 224.178 13.26 224.178 15.5C224.178 17.76 222.738 19.46 220.658 19.46C218.598 19.46 217.218 17.82 217.218 15.5ZM227.907 21H229.947V5.76H227.907V21ZM235.837 21.3C237.597 21.3 239.077 20.52 240.037 19.22V21H242.077V14.74C242.077 11.62 240.097 9.74 237.077 9.74C234.357 9.74 232.437 11.42 232.117 13.42H234.217C234.497 12.24 235.517 11.58 236.917 11.58C238.897 11.58 239.977 12.66 240.037 14.56H236.417C233.517 14.56 231.797 15.8 231.797 18.04C231.797 20.06 233.337 21.3 235.837 21.3ZM233.817 17.88C233.817 16.82 234.697 16.24 236.797 16.24H239.977C239.637 18.3 237.877 19.5 236.097 19.5C234.717 19.5 233.817 18.86 233.817 17.88ZM249.168 21.3C251.808 21.3 253.828 19.64 254.308 17.22H252.228C251.888 18.6 250.668 19.44 249.168 19.44C247.148 19.44 245.648 17.82 245.648 15.5C245.648 13.22 247.128 11.58 249.168 11.58C250.628 11.58 251.848 12.4 252.208 13.74H254.308C253.828 11.3 251.748 9.74 249.168 9.74C245.948 9.74 243.688 12.24 243.688 15.5C243.688 18.92 246.048 21.3 249.168 21.3ZM260.981 21.3C263.581 21.3 265.741 19.58 266.081 17.4H264.001C263.641 18.62 262.421 19.44 260.981 19.44C258.921 19.44 257.601 18.12 257.441 15.98H266.201V15.6C266.201 11.62 263.621 9.74 260.801 9.74C257.561 9.74 255.461 12.26 255.461 15.52C255.461 19.02 257.661 21.3 260.981 21.3ZM257.561 14.28C257.961 12.66 259.161 11.58 260.801 11.58C262.521 11.58 263.741 12.64 264.001 14.28H257.561Z" fill="black"/>
</svg>
