<svg width="131" height="29" viewBox="0 0 131 29" fill="none" xmlns="http://www.w3.org/2000/svg">
<path d="M15.7613 6.829L20.4338 2.02583L23.1458 4.80317L18.2446 9.47565H25.1389V13.3313H18.2119L23.1458 18.1235L20.4338 20.8464L13.7355 14.1155L7.03718 20.8464L4.32519 18.1344L9.25906 13.3422H2.33203V9.47565H9.22638L4.32519 4.80317L7.03718 2.02583L11.7097 6.829V0H15.7613V6.829ZM11.7097 18.8533H15.7613V28.0022H11.7097V18.8533Z" fill="black"/>
<path d="M37 2.00009L36 2V25.9999L37 26V2.00009Z" fill="black"/>
<path d="M46.288 20H47.772V11.068L51.216 20H52.994L56.424 11.096V20H57.908V9.332H55.598L52.112 18.558L48.612 9.332H46.288V20ZM61.8235 20.21C63.0555 20.21 64.0915 19.664 64.7635 18.754V20H66.1915V15.618C66.1915 13.434 64.8055 12.118 62.6915 12.118C60.7875 12.118 59.4435 13.294 59.2195 14.694H60.6895C60.8855 13.868 61.5995 13.406 62.5795 13.406C63.9655 13.406 64.7215 14.162 64.7635 15.492H62.2295C60.1995 15.492 58.9955 16.36 58.9955 17.928C58.9955 19.342 60.0735 20.21 61.8235 20.21ZM60.4095 17.816C60.4095 17.074 61.0255 16.668 62.4955 16.668H64.7215C64.4835 18.11 63.2515 18.95 62.0055 18.95C61.0395 18.95 60.4095 18.502 60.4095 17.816ZM67.7097 20H69.1377V16.29C69.1377 14.568 69.8657 13.462 71.2377 13.462C71.6717 13.462 72.0637 13.602 72.2457 13.77V12.328C71.9657 12.188 71.6997 12.118 71.2237 12.118C70.3557 12.118 69.5717 12.622 69.1377 13.406V12.328H67.7097V20ZM73.1889 20H74.6169V18.04L76.2549 16.374L78.7749 20H80.4269L77.1789 15.436L80.2589 12.328H78.3969L74.6169 16.192V9.332H73.1889V20ZM84.3839 20.21C86.2039 20.21 87.7159 19.006 87.9539 17.48H86.4979C86.2459 18.334 85.3919 18.908 84.3839 18.908C82.9419 18.908 82.0179 17.984 81.9059 16.486H88.0379V16.22C88.0379 13.434 86.2319 12.118 84.2579 12.118C81.9899 12.118 80.5199 13.882 80.5199 16.164C80.5199 18.614 82.0599 20.21 84.3839 20.21ZM81.9899 15.296C82.2699 14.162 83.1099 13.406 84.2579 13.406C85.4619 13.406 86.3159 14.148 86.4979 15.296H81.9899ZM91.6551 20.21C92.2291 20.21 92.7891 19.986 93.0551 19.65V18.474C92.7891 18.726 92.4251 18.894 92.0191 18.894C91.3891 18.894 91.1371 18.558 91.1371 17.746V13.518H93.1391V12.328H91.1371V10.396H89.7091V12.328H88.4211V13.518H89.7091V18.068C89.7091 19.412 90.4371 20.21 91.6551 20.21ZM98.1424 20.21C100.312 20.21 101.782 18.46 101.782 16.15C101.782 13.84 100.312 12.118 98.1424 12.118C97.0644 12.118 96.1824 12.552 95.5524 13.28V12.328H94.1244V23.332H95.5524V19.034C96.1824 19.762 97.0644 20.21 98.1424 20.21ZM95.5524 16.15C95.5524 14.54 96.5184 13.392 97.9604 13.392C99.4164 13.392 100.424 14.582 100.424 16.15C100.424 17.732 99.4164 18.922 97.9604 18.922C96.5184 18.922 95.5524 17.774 95.5524 16.15ZM103.035 20H104.463V9.332H103.035V20ZM108.586 20.21C109.818 20.21 110.854 19.664 111.526 18.754V20H112.954V15.618C112.954 13.434 111.568 12.118 109.454 12.118C107.55 12.118 106.206 13.294 105.982 14.694H107.452C107.648 13.868 108.362 13.406 109.342 13.406C110.728 13.406 111.484 14.162 111.526 15.492H108.992C106.962 15.492 105.758 16.36 105.758 17.928C105.758 19.342 106.836 20.21 108.586 20.21ZM107.172 17.816C107.172 17.074 107.788 16.668 109.258 16.668H111.484C111.246 18.11 110.014 18.95 108.768 18.95C107.802 18.95 107.172 18.502 107.172 17.816ZM117.918 20.21C119.766 20.21 121.18 19.048 121.516 17.354H120.06C119.822 18.32 118.968 18.908 117.918 18.908C116.504 18.908 115.454 17.774 115.454 16.15C115.454 14.554 116.49 13.406 117.918 13.406C118.94 13.406 119.794 13.98 120.046 14.918H121.516C121.18 13.21 119.724 12.118 117.918 12.118C115.664 12.118 114.082 13.868 114.082 16.15C114.082 18.544 115.734 20.21 117.918 20.21ZM126.186 20.21C128.006 20.21 129.518 19.006 129.756 17.48H128.3C128.048 18.334 127.194 18.908 126.186 18.908C124.744 18.908 123.82 17.984 123.708 16.486H129.84V16.22C129.84 13.434 128.034 12.118 126.06 12.118C123.792 12.118 122.322 13.882 122.322 16.164C122.322 18.614 123.862 20.21 126.186 20.21ZM123.792 15.296C124.072 14.162 124.912 13.406 126.06 13.406C127.264 13.406 128.118 14.148 128.3 15.296H123.792Z" fill="black"/>
</svg>
