<svg width="48" height="48" viewBox="0 0 48 48" fill="none" xmlns="http://www.w3.org/2000/svg">
  <path d="M0 8C0 3.58172 3.58172 0 8 0H40C44.4183 0 48 3.58172 48 8V40C48 44.4183 44.4183 48 40 48H8C3.58172 48 0 44.4183 0 40V8Z" fill="#02A95C"/>
  <path fill-rule="evenodd" clip-rule="evenodd" d="M23.9939 25.3727C28.8687 25.3727 33.1214 27.932 35.3991 31.7334H12.5893C14.8669 27.932 19.1196 25.3727 23.9939 25.3727ZM37.0947 19.2731C37.9397 18.457 39.3219 18.457 40.1665 19.2731C41.0114 20.0889 41.0114 21.4239 40.1665 22.24L36.8926 25.4021C36.048 26.2178 34.6658 26.2178 33.8208 25.4021L33.7464 25.3265C32.977 24.5055 33.0019 23.2262 33.8208 22.4352L37.0947 19.2731ZM7.91187 19.2012C8.76187 18.4578 10.0864 18.4817 10.9054 19.2731L14.1797 22.4352C15.0242 23.2509 15.0242 24.586 14.1797 25.4021C13.3347 26.2178 11.9525 26.2178 11.1079 25.4021L7.83361 22.24C6.98906 21.4239 6.98906 20.0889 7.83361 19.2731L7.91187 19.2012ZM23.9666 13.6001L24.0604 13.602C25.2122 13.6499 26.1386 14.5746 26.1386 15.6984V20.1699C26.1386 21.324 25.1615 22.2681 23.9666 22.2681C22.7721 22.2681 21.7946 21.324 21.7946 20.1699V15.6984C21.7946 14.5443 22.7721 13.6001 23.9666 13.6001Z" fill="white"/>
</svg>
