<svg width="40" height="40" viewBox="0 0 40 40" fill="none" xmlns="http://www.w3.org/2000/svg">
<path d="M0 8C0 3.58172 3.58172 0 8 0H32C36.4183 0 40 3.58172 40 8V32C40 36.4183 36.4183 40 32 40H8C3.58172 40 0 36.4183 0 32V8Z" fill="#2181E2"/>
<path d="M33.3333 23.34V24.7333C33.3333 24.8133 33.2844 24.8844 33.2133 24.9155C32.7778 25.1022 31.2866 25.7867 30.6666 26.6489C29.0844 28.8511 27.8755 32 25.1733 32H13.8999C9.90442 32 6.66663 28.7511 6.66663 24.7422V24.6133C6.66663 24.5067 6.75327 24.42 6.85995 24.42H13.1444C13.2688 24.42 13.3599 24.5356 13.3489 24.6578C13.3044 25.0667 13.38 25.4844 13.5733 25.8644C13.9466 26.6222 14.72 27.0956 15.5555 27.0956H18.6666V24.6667H15.5911C15.4333 24.6667 15.34 24.4844 15.4311 24.3556C15.4644 24.3044 15.5022 24.2511 15.5422 24.1911C15.8333 23.7778 16.2489 23.1356 16.6622 22.4045C16.9444 21.9111 17.2177 21.3845 17.4377 20.8556C17.4822 20.76 17.5177 20.6622 17.5533 20.5666C17.6133 20.3978 17.6755 20.24 17.72 20.0822C17.7644 19.9489 17.7999 19.8089 17.8355 19.6778C17.94 19.2289 17.9844 18.7533 17.9844 18.26C17.9844 18.0667 17.9755 17.8644 17.9578 17.6711C17.9488 17.46 17.9222 17.2489 17.8955 17.0378C17.8777 16.8511 17.8444 16.6666 17.8089 16.4733C17.7644 16.1911 17.7022 15.9111 17.6311 15.6289L17.6066 15.5222C17.5533 15.3289 17.5089 15.1445 17.4466 14.9511C17.2711 14.3444 17.0689 13.7533 16.8555 13.2C16.7777 12.98 16.6888 12.7689 16.5999 12.5578C16.4689 12.24 16.3355 11.9511 16.2133 11.6778C16.1511 11.5533 16.0978 11.44 16.0444 11.3244C15.9844 11.1933 15.9222 11.0622 15.86 10.9378C15.8155 10.8422 15.7644 10.7533 15.7288 10.6644L15.3489 9.96221C15.2955 9.86666 15.3844 9.75332 15.4888 9.78221L17.8666 10.4266H17.8733C17.8777 10.4266 17.88 10.4289 17.8822 10.4289L18.1955 10.5155L18.54 10.6133L18.6666 10.6489V9.23555C18.6666 8.55332 19.2133 7.99999 19.8889 7.99999C20.2266 7.99999 20.5333 8.13777 20.7533 8.3622C20.9733 8.58667 21.1111 8.89333 21.1111 9.23555V11.3333L21.3644 11.4044C21.3844 11.4111 21.4044 11.42 21.4222 11.4333C21.4844 11.48 21.5733 11.5489 21.6866 11.6333C21.7755 11.7044 21.8711 11.7911 21.9866 11.88C22.2155 12.0644 22.4889 12.3022 22.7889 12.5756C22.8688 12.6444 22.9466 12.7156 23.0177 12.7867C23.4044 13.1467 23.8378 13.5689 24.2511 14.0356C24.3666 14.1667 24.48 14.3 24.5955 14.44C24.7111 14.5822 24.8333 14.7222 24.9399 14.8622C25.08 15.0489 25.2311 15.2422 25.3622 15.4445C25.4244 15.54 25.4955 15.6378 25.5555 15.7333C25.7244 15.9889 25.8733 16.2534 26.0155 16.5178C26.0755 16.64 26.1377 16.7733 26.1911 16.9044C26.3488 17.2578 26.4733 17.6178 26.5533 17.9778C26.5777 18.0556 26.5955 18.14 26.6044 18.2156V18.2334C26.6311 18.34 26.64 18.4533 26.6488 18.5689C26.6844 18.9378 26.6666 19.3066 26.5866 19.6778C26.5533 19.8356 26.5089 19.9844 26.4555 20.1422C26.4022 20.2933 26.3488 20.4511 26.28 20.6C26.1467 20.9089 25.9888 21.2178 25.8022 21.5067C25.7422 21.6133 25.6711 21.7267 25.6 21.8334C25.5222 21.9466 25.4422 22.0533 25.3711 22.1578C25.2733 22.2911 25.1689 22.4311 25.0622 22.5556C24.9666 22.6867 24.8689 22.8178 24.7622 22.9333C24.6133 23.1089 24.4711 23.2756 24.3222 23.4356C24.2333 23.54 24.1378 23.6467 24.0399 23.7422C23.9444 23.8489 23.8466 23.9444 23.7577 24.0333C23.6089 24.1822 23.4844 24.2978 23.3799 24.3933L23.1355 24.6178C23.1 24.6489 23.0533 24.6667 23.0044 24.6667H21.1111V27.0956H23.4933C24.0266 27.0956 24.5333 26.9067 24.9422 26.56C25.0822 26.4378 25.6933 25.9089 26.4155 25.1111C26.44 25.0844 26.4711 25.0644 26.5067 25.0556L33.0866 23.1534C33.2089 23.1178 33.3333 23.2111 33.3333 23.34Z" fill="white"/>
</svg>
