<svg width="48" height="48" viewBox="0 0 48 48" fill="none" xmlns="http://www.w3.org/2000/svg">
<path d="M0 8C0 3.58172 3.58172 0 8 0H40C44.4183 0 48 3.58172 48 8V40C48 44.4183 44.4183 48 40 48H8C3.58172 48 0 44.4183 0 40V8Z" fill="#FF5500"/>
<path d="M41.8061 27.2212C41.7304 28.5029 41.1633 29.706 40.2227 30.5799C39.2821 31.4538 38.0407 31.9312 36.7569 31.9125H24.6071C24.3407 31.9104 24.0859 31.8031 23.8982 31.614C23.7106 31.4248 23.6053 31.1692 23.6053 30.9027V17.8544C23.5984 17.6327 23.6584 17.414 23.7775 17.2268C23.8967 17.0396 24.0694 16.8926 24.2732 16.8049C25.3309 16.2188 26.5326 15.9432 27.74 16.0097C29.1865 16.0049 30.6072 16.3923 31.8509 17.1309C32.8132 17.6949 33.6488 18.4513 34.3055 19.353C34.9622 20.2546 35.4259 21.2819 35.6676 22.3709C36.0853 22.2457 36.5196 22.184 36.9557 22.188C37.6083 22.1875 38.2544 22.3188 38.8551 22.5739C39.4558 22.829 39.9989 23.2027 40.4517 23.6726C40.9046 24.1426 41.258 24.6991 41.4907 25.3088C41.7234 25.9186 41.8307 26.569 41.8061 27.2212Z" fill="white"/>
<path d="M22.0628 18.6734C22.0628 18.568 22.021 18.4669 21.9464 18.3923C21.8718 18.3178 21.7707 18.2759 21.6653 18.2759C21.5598 18.2759 21.4587 18.3178 21.3842 18.3923C21.3096 18.4669 21.2677 18.568 21.2677 18.6734C20.8105 22.9577 20.8105 27.2784 21.2677 31.5627C21.2677 31.6681 21.3096 31.7693 21.3842 31.8438C21.4587 31.9184 21.5598 31.9603 21.6653 31.9603C21.7707 31.9603 21.8718 31.9184 21.9464 31.8438C22.021 31.7693 22.0628 31.6681 22.0628 31.5627C22.7149 27.1417 22.4525 23.1103 22.0628 18.6734Z" fill="white"/>
<path d="M19.6771 20.2001C19.6524 20.1137 19.6003 20.0377 19.5285 19.9836C19.4568 19.9294 19.3694 19.9002 19.2795 19.9002C19.1897 19.9002 19.1023 19.9294 19.0305 19.9836C18.9588 20.0377 18.9066 20.1137 18.8819 20.2001C18.4446 23.9803 18.4446 27.7983 18.8819 31.5786C18.9004 31.6704 18.9501 31.753 19.0226 31.8124C19.095 31.8717 19.1858 31.9042 19.2795 31.9042C19.3732 31.9042 19.464 31.8717 19.5365 31.8124C19.6089 31.753 19.6586 31.6704 19.6771 31.5786C20.1661 27.8015 20.1661 23.9771 19.6771 20.2001Z" fill="white"/>
<path d="M17.1725 19.8105C17.1725 19.7051 17.1306 19.6039 17.056 19.5294C16.9815 19.4548 16.8803 19.4129 16.7749 19.4129C16.6694 19.4129 16.5683 19.4548 16.4938 19.5294C16.4192 19.6039 16.3773 19.7051 16.3773 19.8105C15.9081 23.7165 15.9081 27.6646 16.3773 31.5706C16.3773 31.6761 16.4192 31.7772 16.4938 31.8518C16.5683 31.9263 16.6694 31.9682 16.7749 31.9682C16.8803 31.9682 16.9815 31.9263 17.056 31.8518C17.1306 31.7772 17.1725 31.6761 17.1725 31.5706C17.6615 27.6658 17.6615 23.7153 17.1725 19.8105Z" fill="white"/>
<path d="M14.7235 20.9555C14.6988 20.8691 14.6466 20.7931 14.5749 20.739C14.5031 20.6849 14.4157 20.6556 14.3259 20.6556C14.236 20.6556 14.1486 20.6849 14.0769 20.739C14.0051 20.7931 13.953 20.8691 13.9283 20.9555C13.4751 24.4847 13.4751 28.0573 13.9283 31.5865C13.9468 31.6784 13.9965 31.761 14.0689 31.8203C14.1414 31.8797 14.2322 31.9121 14.3259 31.9121C14.4196 31.9121 14.5104 31.8797 14.5828 31.8203C14.6553 31.761 14.705 31.6784 14.7235 31.5865C15.2085 28.0594 15.2085 24.4826 14.7235 20.9555Z" fill="white"/>
<path d="M12.2428 23.6033C12.2244 23.5114 12.1747 23.4288 12.1022 23.3695C12.0297 23.3101 11.9389 23.2777 11.8453 23.2777C11.7516 23.2777 11.6608 23.3101 11.5883 23.3695C11.5158 23.4288 11.4662 23.5114 11.4477 23.6033C10.8593 26.3386 11.1376 28.8512 11.4477 31.6024C11.4477 31.7079 11.4896 31.809 11.5641 31.8835C11.6387 31.9581 11.7398 32 11.8453 32C11.9507 32 12.0518 31.9581 12.1264 31.8835C12.201 31.809 12.2428 31.7079 12.2428 31.6024C12.5768 28.8035 12.8631 26.3465 12.2428 23.6033Z" fill="white"/>
<path d="M9.78563 23.166C9.75669 23.0837 9.70289 23.0124 9.63168 22.9619C9.56046 22.9115 9.47534 22.8844 9.38806 22.8844C9.30079 22.8844 9.21566 22.9115 9.14445 22.9619C9.07323 23.0124 9.01944 23.0837 8.99049 23.166C8.54972 25.8302 8.54972 28.5487 8.99049 31.2129C9.00895 31.3047 9.05864 31.3873 9.13112 31.4467C9.20359 31.506 9.29438 31.5385 9.38806 31.5385C9.48174 31.5385 9.57253 31.506 9.64501 31.4467C9.71748 31.3873 9.76717 31.3047 9.78563 31.2129C10.2707 28.5525 10.2707 25.8264 9.78563 23.166Z" fill="white"/>
<path d="M7.3049 24.5495C7.27596 24.4672 7.22216 24.3959 7.15095 24.3454C7.07973 24.2949 6.99461 24.2679 6.90733 24.2679C6.82006 24.2679 6.73494 24.2949 6.66372 24.3454C6.59251 24.3959 6.53871 24.4672 6.50976 24.5495C6.08431 26.2945 6.08431 28.1161 6.50976 29.861C6.50976 29.9665 6.55165 30.0676 6.62621 30.1422C6.70077 30.2167 6.80189 30.2586 6.90733 30.2586C7.01278 30.2586 7.1139 30.2167 7.18846 30.1422C7.26302 30.0676 7.3049 29.9665 7.3049 29.861C7.81381 28.1271 7.81381 26.2834 7.3049 24.5495Z" fill="white"/>
</svg>
