<svg width="101" height="28" viewBox="0 0 101 28" fill="none" xmlns="http://www.w3.org/2000/svg">
<path d="M29.9352 1.28641L30.365 4.06505L30.6228 6.07025L32.2555 3.49214L34.0316 1.28641L36.2086 2.51817L34.5759 4.92442L31.8545 8.10409L34.805 11.1119L37.068 13.3749L35.5784 15.1796L32.8285 12.6874L30.2218 10.8254L30.3363 13.5181L30.279 15.5806L28.1879 15.8098L27.6436 10.1093L27.3285 5.15359L27.2426 1.94526L29.9352 1.28641Z" fill="black"/>
<path d="M49.2138 1.02861L49.5862 2.48954L49.9013 3.89318H45.805H42.5394L43.0263 6.58588L45.6617 6.84369H47.2086L47.1514 9.02076L44.5159 8.82024L43.2841 8.76295L43.4847 10.539L43.5133 12.5728L47.3232 12.6874L49.2997 12.8306L49.6435 15.3228H47.581L43.2555 15.2082L40.7634 15.5233L40.4196 9.02076L40.1332 4.92443L39.5316 1.91663L42.9691 1.60152L47.2946 1.17184L49.2138 1.02861Z" fill="black"/>
<path d="M0.487549 1.28646L3.55264 1L3.58129 3.46353L3.52399 8.53382L3.8391 11.8567L7.16199 12.2864L10.1125 12.2578L10.1412 15.065L10.1125 15.953L6.64638 15.7526L3.58129 15.5806L1.51879 15.6093L0.94588 8.41924L0.716714 3.09113L0.487549 1.28646Z" fill="black"/>
<path d="M12.5473 1.83068C13.2921 1.74474 14.0369 1.68746 14.7816 1.60152L14.9248 3.69265L15.326 6.87232C15.3832 7.93221 15.6124 8.76295 15.8416 9.33585C16.0707 9.96607 16.2999 10.539 16.7869 11.0832C17.1306 11.4843 17.9327 12.3437 18.9353 12.2004C19.766 12.0859 20.2816 11.3411 20.3962 11.1692C20.7686 10.6249 20.8259 10.0806 20.8546 8.82024C20.8832 6.90096 20.8259 5.29681 20.7972 4.40879C20.7686 3.46348 20.74 2.7187 20.7114 2.23172L23.1462 2.08849L23.404 5.15359C23.5473 6.41399 23.5759 7.44524 23.5759 8.21868C23.5759 8.84888 23.5759 9.19263 23.5472 9.59366C23.4613 10.3098 23.5473 10.8254 23.003 12.4869C22.3442 14.4348 22.029 14.6066 21.5994 14.979C21.0838 15.466 20.4822 15.6093 20.1957 15.6666C18.2765 16.1249 16.1853 15.0077 14.9822 13.7473C13.5786 12.315 13.2061 10.5963 12.977 9.53638C12.8624 9.0494 12.8051 8.59107 12.7192 7.10149C12.6046 5.81243 12.5473 4.00775 12.5473 1.83068Z" fill="black"/>
<path d="M59.2399 1.11452L56.6331 1.45827L56.8051 4.78117L56.9197 8.33323C56.9197 9.04939 56.8909 9.67959 56.8623 10.1666C56.8337 10.9114 56.7763 11.4843 56.5759 12.1718C56.3467 12.8879 56.1748 13.0598 56.0602 13.1171C55.516 13.4608 54.7138 13.0598 54.628 13.0025C54.141 12.7447 53.9404 12.3723 53.5108 11.6275C53.2816 11.2551 52.9952 10.7108 52.7373 9.99468L50.7035 10.8827C50.7321 11.0832 50.8181 11.3697 50.9039 11.7134C51.1905 12.8306 51.3051 13.3749 51.5055 13.7759C52.0498 14.9218 53.3676 15.4087 54.2842 15.7239C55.2868 16.0963 56.2035 16.4113 57.2061 16.0389C58.6383 15.5233 59.154 14.005 59.2685 13.6613C59.4691 13.0311 59.4691 12.4582 59.4404 12.0858L59.4691 8.76292L59.3258 5.72648L59.2399 1.11452Z" fill="black"/>
<path d="M77.8309 2.03117L80.2658 1.63013L80.4663 5.21084V7.64572H83.1876L83.073 4.46605L83.1876 2.31762L86.2241 2.28897L86.3959 8.07541L86.5679 15.0363L84.534 15.5233L84.2475 12.6587L83.9897 10.1952L81.87 10.3671H80.4663L80.3803 13.2316L80.2944 15.2369L78.0887 15.3515L77.8309 10.0806V2.03117Z" fill="black"/>
<path d="M90.1771 2.26038L92.8985 1.94528L93.9298 4.17965L95.5912 7.50255L97.2239 10.9687L96.8229 6.5286L96.6797 2.03122V1.40101L99.3151 1.54424L99.7734 5.29682L100.146 9.67962L100.031 15.7525L97.6823 15.6666L95.5912 11.9426L93.2136 7.87494L92.2683 6.41401L92.7552 9.88014L93.0704 12.5156L93.5287 15.7525L90.5495 15.6666L90.1771 8.44786L90.0912 6.41401L90.1771 2.26038Z" fill="black"/>
<path d="M0.573486 26.3226L2.00577 26.5518V24.2602L2.17765 22.1117L3.23754 23.8878L3.69587 24.5753L4.61252 23.4295L5.67243 21.9971L6.01617 24.2888L6.44586 26.4659L7.8495 26.38L7.53439 23.1717L6.96149 20.0492L6.38857 17.4425L5.07086 19.7056L4.09691 21.5961L3.63857 22.3123L2.72191 20.2212L1.11775 18.2446L0.774006 21.1092L0.573486 24.4607V26.3226Z" fill="black"/>
<path d="M15.6698 17.9009L15.813 19.763H17.2739L18.4197 19.6484V22.1978L18.2765 26.2942L19.852 26.3801V24.2031L19.9953 21.9114L20.2244 20.0781L22.6593 19.9062V17.9009L19.7661 18.0155L15.6698 17.9009Z" fill="black"/>
<path d="M24.2635 17.8149V20.0206L26.4406 19.8774L26.5264 22.6847L26.326 26.294L28.102 26.5518L28.016 22.5987L28.0446 19.9634L30.8807 20.0206L30.7661 17.9868L27.5864 17.9582L25.0083 17.7863L24.2635 17.8149Z" fill="black"/>
<path d="M32.4561 17.8151L34.003 17.9297V20.0208L34.0889 21.0234L36.2946 20.8802L36.18 19.0755V18.0443L38.0421 18.1589L38.1567 21.9114V26.1509H36.4666L36.352 24.1171L36.266 22.427L34.3468 22.341L34.1462 24.3463L34.0603 26.2369L32.4561 26.3515V22.0832V17.8151Z" fill="black"/>
<path d="M45.5759 18.2447V19.7342L42.7686 19.7056L41.4508 19.6197L41.5368 21.1092L43.7712 21.052L43.8857 22.4556L41.9664 22.5416V24.2317L44.8025 24.6613L45.6331 24.7186L45.7763 26.466L41.365 26.3801L40.3337 26.3228L40.1045 21.2812L40.0759 17.8723L43.3701 18.2447H45.5759Z" fill="black"/>
<path d="M47.2946 18.3593L49.271 17.9869L49.3284 21.2812L49.4143 22.7708L50.9325 21.0806L52.7085 23.3437L52.7659 19.9348L52.9377 17.9009L54.8284 18.5025L54.2554 21.94L54.1695 26.4374L52.1069 24.7473L50.9899 23.6015L49.7294 25.0911L47.982 26.4374L47.6382 21.6536L47.2946 18.3593Z" fill="black"/>
<path d="M70.6695 26.2942L72.1877 26.2368L72.1591 23.1431L72.2163 20.8228L73.9352 23.6015L75.6538 26.38L77.6305 26.5806L77.6019 21.8254L77.4013 17.8437L75.6826 17.7577L75.5392 20.6222L75.3674 23.0285L74.3362 21.3098L72.732 18.2733L70.8127 18.216L70.8415 21.5676L70.7269 24.5753L70.6695 26.2942Z" fill="black"/>
<path d="M87.9142 17.8437L89.6615 17.7577L89.6329 21.2811L89.4897 24.0597L91.9531 24.1743L93.3282 24.0311L93.185 26.4374L89.948 26.1222L88 26.1796L87.9714 22.1118L87.9142 17.8437Z" fill="black"/>
<path d="M57.0915 26.4089L57.5211 25.3203L58.0653 24.0026L59.5836 24.1744L59.7842 22.8282L58.7243 22.8854H58.0653L58.6097 20.6225L58.2087 17.7006L57.8649 18.8177L57.3779 20.2501L57.0915 21.0521L56.2893 24.5755L56.0889 25.2344L55.8024 26.2657L57.0915 26.4089Z" fill="black"/>
<path d="M62.1904 26.1511L60.6148 26.6667L59.5836 24.1744L59.7841 22.8282L58.6097 20.6225L58.1513 19.7057L58.1799 17.987L58.2085 17.7006L59.87 20.6225L61.5314 24.2032L62.1904 26.1511Z" fill="black"/>
<path d="M68.9794 1.60152C68.9508 2.4036 68.8934 3.20567 68.8648 4.0364C68.9221 4.06505 69.008 4.09369 69.1226 4.15098C69.2372 4.20828 69.4664 4.32286 69.7814 4.60931C70.2398 5.039 70.5262 5.52598 70.5549 5.58326C70.7554 5.95567 70.87 6.32805 71.0992 7.10149C71.271 7.70305 71.357 7.98951 71.3856 8.24732C71.4429 8.64835 71.5289 9.33585 71.2997 10.1379C71.2424 10.3671 70.9273 11.3411 69.982 12.0859C69.6956 12.315 69.3232 12.6015 68.7502 12.6874C68.3206 12.7733 67.9481 12.6874 67.719 12.6301L67.5757 15.552C67.6903 15.5806 67.8622 15.6093 68.0627 15.6093C69.008 15.6665 69.7528 15.4374 70.297 15.2655C70.784 15.1223 71.2424 14.979 71.7867 14.6353C72.1877 14.4062 72.8753 14.005 73.4195 13.203C74.0211 12.3437 74.1357 11.4556 74.2215 10.5963C74.2789 10.1952 74.2789 9.85147 74.2789 9.10669C74.2789 8.50513 74.2502 7.84627 74.1643 6.52857C74.1356 6.12754 74.1357 5.89837 74.0783 5.61192C74.0211 5.32545 73.9351 4.83848 73.7059 4.32286C73.6487 4.17964 73.3621 3.60672 72.7319 3.0338C71.9872 2.3463 71.2138 2.0885 70.6982 1.91662C70.3258 1.77339 69.7242 1.63016 68.9794 1.60152Z" fill="black"/>
<path d="M68.9794 1.60155C68.9507 2.40363 68.8934 3.23435 68.8648 4.03644C68.8361 4.03644 68.8074 4.00779 68.7502 4.00779C68.6928 3.97915 68.4924 3.95049 68.2632 3.95049C68.0054 3.97914 67.8048 4.06508 67.6902 4.15102C67.4612 4.2656 67.318 4.40883 67.2034 4.55205C67.146 4.60935 66.9455 4.83852 66.6877 5.26819C66.4872 5.5833 66.4012 5.84111 66.258 6.15622C66.0861 6.58591 65.9715 6.9583 65.8856 7.21611C65.771 7.58851 65.7137 7.76038 65.6565 8.01819C65.6277 8.19006 65.5705 8.50517 65.5705 8.90622C65.5705 9.13537 65.5705 9.45048 65.6565 9.85151C65.7423 10.3098 65.9143 10.625 66.0002 10.8541C66.0861 11.026 66.2293 11.2838 66.4585 11.5989C66.6304 11.8281 66.8309 12.0859 67.2034 12.3437C67.4324 12.4869 67.6044 12.5729 67.7476 12.6301L67.6044 15.552C67.5184 15.5234 67.4038 15.5234 67.2892 15.4947C67.1746 15.466 66.8882 15.4088 66.659 15.3228C66.3153 15.2082 66.0575 15.0364 65.8569 14.9218C65.771 14.8646 65.4273 14.6354 65.0549 14.2916C64.9975 14.2344 64.6825 13.9192 64.3387 13.4322C64.0523 13.0025 63.8804 12.6588 63.7659 12.3723C63.5939 11.9999 63.4793 11.6562 63.3935 11.427C63.1929 10.8255 63.107 10.3671 63.0783 10.1666C62.9924 9.56506 62.9637 9.07808 62.9637 8.76298C62.9637 8.53381 62.9924 8.07549 63.0783 7.50257C63.1643 7.0156 63.2502 6.70049 63.4221 6.07029C63.5939 5.46873 63.7372 5.06768 63.7945 4.9531C63.9663 4.49477 64.0523 4.23696 64.2241 3.95049C64.3101 3.77863 64.5107 3.46352 64.8543 3.09113C64.9689 2.97654 65.3699 2.5755 66.0288 2.23175C66.5445 1.97394 66.9742 1.85936 67.2606 1.80207C67.633 1.65884 68.2632 1.57291 68.9794 1.60155Z" fill="black"/>
<path d="M68.8648 4.03644H68.8362C68.8362 4.03644 68.8362 4.03644 68.8362 4.00779C68.8362 3.95051 68.8362 3.89321 68.8648 3.83592C68.8648 3.77863 68.8648 3.72134 68.8648 3.69269V3.66404V3.6354C68.8362 3.52082 68.8648 3.37759 68.8934 3.26301C68.9222 3.14843 68.8648 3.03384 68.8934 2.91926L68.9222 2.89062C68.9222 2.83332 68.9222 2.77603 68.9222 2.71874C68.9222 2.69009 68.9222 2.69009 68.9222 2.66144V2.63281C68.9222 2.60415 68.9222 2.54685 68.9508 2.51821C68.9508 2.54685 68.9508 2.57551 68.9222 2.60415C68.9222 2.60415 68.9222 2.60415 68.9222 2.57551C68.9222 2.43228 68.9222 2.28905 68.9222 2.14582C69.008 2.14582 69.1226 2.11718 69.2086 2.14582C69.2946 2.17447 69.3804 2.23176 69.4378 2.28905C69.495 2.34634 69.5236 2.40364 69.5524 2.48958C69.6096 2.63281 69.6096 2.77603 69.6096 2.91926C69.6096 2.91926 69.6096 2.91926 69.581 2.91926C69.5524 2.97656 69.5236 3.03384 69.495 3.09113C69.4664 3.17707 69.495 3.29165 69.4664 3.37758C69.4378 3.43488 69.4092 3.46352 69.3804 3.52082C69.2086 3.66404 69.0368 3.83592 68.8648 4.03644C68.8648 4.00779 68.8934 4.00779 68.8648 4.03644Z" fill="black"/>
<path d="M9.31042 26.38L10.7714 26.2654L11.2297 24.8332L12.5474 24.7186V23.4295L11.5734 23.4867L12.175 20.6508L12.0604 17.7863L10.9719 20.6508L10.1698 23.6013L9.31042 26.38Z" fill="black"/>
<path d="M12.5473 24.7186V23.4295L13.1202 23.3723L12.7192 22.1977L12.1749 20.6508L12.0604 17.7863L12.3755 18.4165L12.9197 19.4478L14.3806 22.8279L15.3546 26.2082L14.2088 26.38L14.0656 26.2082L13.4068 24.7472L12.5473 24.7186Z" fill="black"/>
<path d="M65.6565 21.138L65.1409 21.2526L65.1123 20.3072L65.1409 18.8463H65.4275L65.5133 17.8437C65.4561 17.8437 65.3701 17.8151 65.2555 17.8151C65.1123 17.7865 64.7113 17.7577 64.1957 17.7865C64.0524 17.7865 63.8519 17.8151 63.6228 17.8723V18.4739L63.6514 20.4504L63.68 21.2812L63.766 24.3463L63.6228 25.9504L65.2843 26.3801L65.0837 24.1457V23.0286L65.7425 21.9114L65.6565 21.138Z" fill="black"/>
<path d="M67.5472 26.2369L66.6305 25.0911L65.7712 23.9739L65.0551 23.0572L65.3415 21.7394L65.5993 21.1666C65.6279 21.1666 65.6566 21.1666 65.6853 21.138C65.7425 21.1094 65.9431 21.052 66.1149 20.9374C66.3441 20.7656 66.4587 20.565 66.4587 20.5078C66.4873 20.4504 66.5733 20.2213 66.5733 19.9348C66.5733 19.8489 66.5447 19.6197 66.4013 19.3905C66.2869 19.2473 66.1723 19.1614 66.1149 19.1041C65.8571 18.9323 65.5707 18.8749 65.3988 18.8463H65.3701L65.2842 18.7031L65.3988 17.8723L65.4847 17.8437C65.5134 17.8437 65.5421 17.8723 65.5707 17.8723C65.6567 17.9009 65.7425 17.9297 65.7712 17.9297C66.2869 18.0729 66.4301 18.1015 66.6305 18.1875C66.8597 18.2733 67.0029 18.3307 67.1749 18.4739C67.4327 18.6744 67.5472 18.8749 67.6045 18.9895C67.6618 19.0755 67.8337 19.3905 67.891 19.8489C67.9196 20.0208 67.9483 20.3072 67.8337 20.651C67.6905 21.1094 67.4899 21.453 67.404 21.539C67.1461 21.8828 66.6593 22.2264 66.6019 22.2552L67.0029 22.7994L68.1488 24.3177L69.0941 25.9791L67.5472 26.2369Z" fill="black"/>
<path d="M82.7006 26.5807C82.7292 25.8931 82.7866 25.2057 82.8152 24.5181C82.8438 24.5181 82.8725 24.5181 82.9012 24.5181C82.987 24.5181 83.1876 24.5469 83.4168 24.4895C83.4454 24.4895 83.5886 24.4323 83.7319 24.3749C84.047 24.2031 84.2189 23.9166 84.3048 23.7161C84.5053 23.315 84.534 22.9426 84.5626 22.7134C84.5913 22.3984 84.5626 22.1406 84.5339 22.0832C84.5053 21.8542 84.4194 21.6822 84.3907 21.539C84.3335 21.4244 84.2475 21.224 84.047 20.8229C84.0183 20.7656 83.9324 20.5937 83.7892 20.3645C83.7319 20.25 83.6746 20.164 83.5886 20.0494C83.5027 19.9349 83.4454 19.8489 83.3595 19.7916C83.2449 19.7057 83.1303 19.6771 83.0444 19.6484L83.2162 17.8151C83.2449 17.8151 83.2736 17.8151 83.3308 17.8437C83.4168 17.8723 83.6746 17.9297 83.9897 18.1301C84.2761 18.3021 84.448 18.5025 84.5913 18.6745C84.7345 18.8463 84.8491 19.0181 85.0495 19.3905C85.2501 19.7343 85.3933 19.9635 85.4219 20.0494C85.6225 20.4218 85.7371 20.6224 85.8517 20.9374C85.9375 21.1666 86.0521 21.4244 86.1095 21.7968C86.1381 21.9114 86.1667 22.2266 86.1667 22.6562C86.1381 23.2004 86.0235 23.6302 85.9375 23.9453C85.7943 24.3749 85.6225 24.6615 85.5365 24.7759C85.3075 25.1483 85.0496 25.4061 84.9923 25.4635C84.8777 25.5781 84.6199 25.8359 84.1902 26.0651C83.7892 26.2942 83.4454 26.4088 83.3595 26.4088C83.1303 26.552 82.9012 26.5807 82.7006 26.5807Z" fill="black"/>
<path d="M83.3595 25.3493L82.8152 24.5472C82.7866 24.5472 82.7294 24.5186 82.672 24.5186C82.586 24.4899 82.185 24.404 81.784 24.0889C81.698 24.003 81.297 23.6878 81.0679 23.0862C80.9246 22.6566 80.9246 22.3128 80.9246 22.227C80.9533 21.74 81.1252 21.3962 81.2398 21.167C81.469 20.7087 81.7268 20.4509 81.9272 20.2503C82.2424 19.9353 82.4142 19.8493 82.5288 19.8207C82.586 19.7921 82.758 19.7347 82.9585 19.7347C82.9872 19.7347 82.9872 19.7347 83.0158 19.7347L83.0731 19.5915V19.5055L83.3022 18.1019L83.1876 17.9014C83.159 17.9014 83.1304 17.9014 83.0731 17.9014C83.0158 17.9014 82.7866 17.8728 82.5002 17.9301C82.185 17.9874 81.9558 18.0733 81.8126 18.1306C81.469 18.2738 81.2112 18.4171 81.0392 18.5603C80.9246 18.6463 80.7242 18.7895 80.5236 19.0187C80.2658 19.3051 80.1512 19.5343 80.0366 19.7061C79.7788 20.1357 79.6642 20.5081 79.6069 20.766C79.4637 21.2243 79.4065 21.5967 79.4065 21.7113C79.3491 22.2556 79.3777 22.6852 79.3777 22.7712C79.4065 23.1722 79.4923 23.4874 79.5783 23.7452C79.6929 24.1748 79.8361 24.4899 79.9221 24.6905C80.0366 24.9196 80.1512 25.2061 80.3804 25.5212C80.495 25.6645 80.6096 25.8363 80.8387 26.0655C80.9533 26.1513 81.0966 26.2947 81.3544 26.4379C81.4402 26.4951 81.7268 26.6383 82.0992 26.6957C82.3282 26.7243 82.5002 26.7243 82.6434 26.7243L82.672 26.6957L83.3595 25.3493Z" fill="black"/>
<path d="M95.3048 26.3801C95.7344 25.8645 96.1642 25.3489 96.5652 24.8333C96.6225 24.8047 96.7371 24.776 96.8517 24.7187C97.1381 24.6041 97.6825 24.375 98.1121 23.8594C98.2553 23.6874 98.4845 23.3724 98.5705 22.8854C98.6277 22.5416 98.5417 22.2552 98.4845 22.0546C98.4559 21.9401 98.3127 21.4531 97.9115 20.9661C97.5965 20.5937 97.2814 20.3932 97.1955 20.3359C96.9376 20.1927 96.6798 20.1067 96.508 20.0495L95.0756 17.7292C95.133 17.7292 95.1902 17.7578 95.2762 17.7578C95.849 17.9011 96.2501 18.0729 96.4793 18.1875C97.3959 18.6172 98.0549 19.1901 98.1121 19.2473C98.1121 19.2473 98.8283 19.8775 99.4011 20.7656C99.6876 21.1953 99.8022 21.5104 99.8595 21.625C99.9168 21.7396 100.003 21.9401 100.06 22.198C100.232 22.8854 100.06 23.487 99.9741 23.7448C99.8022 24.3463 99.4871 24.776 99.2579 25.0339C99.1433 25.1771 98.6563 25.7213 97.8543 26.0365C97.3673 26.2369 96.9376 26.2943 96.5366 26.3229C96.0496 26.4375 95.62 26.4089 95.3048 26.3801Z" fill="black"/>
<path d="M96.508 25.4635L96.5652 24.8334L96.508 24.0886L96.422 22.1693L96.508 20.0781L96.7944 19.2475L95.0756 17.7578L95.133 19.1042L95.2476 22.3412L95.3048 24.6901V26.3803L96.508 25.4635Z" fill="black"/>
</svg>
