<svg width="600" height="376" viewBox="0 0 600 376" fill="none" xmlns="http://www.w3.org/2000/svg">
<g clip-path="url(#clip0_181_30849)">
<path d="M731.819 380.378L730.803 407.138L264 401.873L315.987 258.863C338.271 227.362 390.049 163.504 418.896 160.077C447.743 156.65 471.467 163.957 479.723 168.039C496.522 171.782 533.068 180.239 544.863 184.121C556.657 188.002 616.733 200.772 645.297 206.672C649.43 210.143 657.645 218.446 657.438 223.882C657.18 230.676 684.174 240.494 683.63 254.815C683.195 266.271 692.537 282.335 697.262 288.935L732.549 361.144L731.819 380.378Z" fill="#1E2330"/>
<path d="M466.419 -62.6906C467.04 -63.6952 467.495 -64.794 467.766 -65.9469C467.9 -66.7631 468.325 -67.4982 468.964 -68.0224C469.503 -68.368 470.087 -68.8754 470.753 -68.3501C471.419 -67.8249 470.686 -67.3101 470.494 -66.8108C469.922 -65.7285 469.486 -64.5786 469.196 -63.386C469.137 -62.5287 469.306 -62.1498 470.305 -62.3701C471.734 -62.8003 473.246 -62.9332 474.747 -62.7605C475.112 -62.7071 475.48 -62.7868 475.782 -62.9844C476.083 -63.182 476.298 -63.4838 476.384 -63.8325C476.811 -64.5713 475.998 -64.759 475.372 -64.933C474.745 -65.1071 474.678 -65.662 475.309 -66.0008C475.601 -66.2019 475.94 -66.3282 476.297 -66.3686C478.288 -66.6265 480.171 -67.3689 482.145 -67.6829C483.78 -67.7787 485.37 -68.191 486.825 -68.8962C488.28 -69.6015 489.571 -70.5858 490.625 -71.7931C491.397 -73.1299 493.186 -72.2842 493.925 -71.717C494.364 -71.3571 494.883 -71.1047 495.436 -70.9813C495.99 -70.8579 496.561 -70.8671 497.102 -71.0083C497.808 -71.0923 498.521 -71.12 499.234 -71.0909C500.135 -70.9797 501.039 -71.1591 501.811 -71.6022C502.583 -72.0453 503.18 -72.7278 503.511 -73.5465C503.755 -73.9687 503.984 -74.8685 504.44 -74.6518C504.897 -74.4352 504.523 -73.6193 504.424 -73.1132C504.345 -71.9172 504.677 -70.7181 505.366 -69.708C505.818 -68.9785 509.243 -70.3781 509.569 -71.3626C509.923 -72.3665 510.031 -73.4446 509.884 -74.5108C509.748 -75.199 509.781 -75.5083 510.764 -75.3632C511.746 -75.2181 512.773 -76.408 513.216 -77.5121C513.66 -78.6163 513.995 -80.205 514.411 -81.5128C514.594 -81.8294 514.899 -82.3571 515.178 -82.3367C515.457 -82.3163 515.5 -81.6349 515.41 -81.3115C514.659 -78.8366 515.814 -76.3875 515.565 -73.8576C515.503 -73.3305 515.988 -72.9102 516.419 -72.567C516.878 -72.281 517.301 -71.9424 517.679 -71.5584C519.603 -69.603 519.603 -69.603 521.578 -71.5119C522.401 -72.4624 523.512 -73.1288 524.756 -73.4189C526.001 -73.7091 527.317 -73.6085 528.522 -73.1311C531.666 -72.0958 534.628 -70.56 537.288 -68.5863C537.615 -68.3974 538.16 -68.0826 537.973 -67.6746C537.786 -67.2667 537.144 -67.4969 536.78 -67.7068C535.757 -68.3509 534.572 -68.6923 533.373 -68.689C531.962 -68.9105 530.635 -69.5297 529.555 -70.471C529.119 -70.7228 528.319 -71.1845 528.055 -70.7272C527.791 -70.2699 528.656 -70.005 529.072 -69.718C531.18 -68.5008 533.5 -67.8181 535.572 -66.6218C536.898 -65.703 538.521 -65.3212 540.096 -65.5582C540.811 -65.5791 541.488 -65.8554 541.999 -66.3358C543.501 -67.6428 545.302 -68.5783 547.259 -69.0678C547.753 -69.2517 548.421 -69.5696 548.711 -68.9801C549.001 -68.3907 548.264 -68.2062 547.847 -68.0717C545.523 -66.7611 543.563 -64.9193 542.127 -62.6967C541.518 -61.6414 541.415 -61.0439 542.68 -60.5483C543.116 -60.2964 543.913 -60.1649 543.733 -59.5181C543.553 -58.8713 542.891 -59.0664 542.385 -59.03C541.879 -58.9936 541.305 -59.0905 540.763 -59.0751C540.576 -59.0879 540.389 -59.0605 540.216 -58.9948C540.043 -58.9291 539.887 -58.8267 539.76 -58.6946C539.633 -58.5626 539.538 -58.4042 539.481 -58.2303C539.424 -58.0564 539.406 -57.8713 539.429 -57.6877C539.459 -56.7323 540.41 -57.121 540.883 -56.8482C541.658 -56.7111 542.45 -56.8127 543.151 -57.1391C543.852 -57.4655 544.426 -58.0006 544.795 -58.6706C545.978 -59.8028 546.879 -61.1908 547.43 -62.731C547.572 -62.9773 547.795 -63.3643 548.122 -63.1754C550.016 -61.7539 550.385 -63.6518 551.28 -64.4479C551.443 -64.7294 551.707 -65.1867 552.034 -64.9978C552.361 -64.8089 552.061 -64.3726 551.898 -64.0912C551.119 -62.8497 550.162 -61.7284 549.055 -60.7609C548.13 -59.7469 546.594 -58.4292 547.38 -57.2719C548.165 -56.1147 549.75 -57.2638 550.964 -57.6884C551.447 -57.8833 551.982 -57.9334 552.502 -57.8327C553.306 -57.7025 554.125 -57.7542 554.896 -57.9838C555.667 -58.2135 556.37 -58.615 556.95 -59.1576C557.436 -59.666 558.052 -60.0378 558.736 -60.237C558.87 -60.2785 559.012 -60.2915 559.153 -60.2749C559.294 -60.2583 559.43 -60.2125 559.553 -60.1407C559.953 -59.9098 559.673 -59.5087 559.454 -59.2131C559.235 -58.9174 558.825 -58.544 558.581 -58.1218C558.338 -57.6997 558.074 -57.2424 559.133 -57.1467C560.193 -57.051 561.884 -57.2941 563.013 -55.8917C563.449 -55.6399 564.809 -55.9805 565.743 -56.0039C566.678 -56.0274 566.548 -56.0552 566.616 -55.5003C566.683 -54.9454 566.27 -54.9022 565.967 -54.7961C563.425 -53.9186 561.107 -52.2547 558.164 -52.7813C557.803 -52.8265 557.439 -52.7969 557.096 -52.6943C555.817 -52.4944 553.953 -52.5389 554.191 -50.8533C554.43 -49.1678 556.006 -50.5557 556.948 -50.3403C558.673 -49.8723 560.494 -50.0394 562.066 -50.8098C562.066 -50.8098 562.284 -50.6839 562.572 -50.8462C562.859 -51.0085 562.607 -50.4036 562.505 -50.2277C562.39 -49.9516 562.24 -49.6916 562.059 -49.4537C561.815 -49.0316 561.126 -48.6786 561.55 -48.1528C561.973 -47.6269 562.637 -47.8534 563.074 -48.0231C565.08 -48.7415 567.162 -49.2528 569.287 -49.5491C569.608 -49.6304 569.946 -49.6432 570.278 -49.5867C570.406 -49.1374 569.932 -48.9886 569.831 -48.8128C568.353 -48.3524 567.947 -46.054 565.8 -46.4491C565.8 -46.4491 565.497 -46.343 565.658 -46.2028C565.65 -44.4253 564.055 -43.8452 563.227 -42.9157C563.105 -42.7047 562.841 -42.2473 562.841 -42.2473C562.841 -42.2473 563.351 -42.3751 563.546 -42.5442C565.451 -43.7211 567.228 -45.0834 568.851 -46.6113C569.128 -46.8237 569.438 -46.9926 569.77 -47.1123C570.074 -47.2185 570.527 -47.3321 570.752 -46.9673C570.978 -46.6025 570.702 -46.2926 570.285 -46.1581C568.19 -44.7545 566.324 -43.0503 564.748 -41.0999C564.282 -40.7123 563.743 -40.3667 563.915 -39.6575C564.087 -38.9483 564.875 -38.6342 565.554 -38.383C566.274 -38.2242 567.02 -38.3052 567.674 -38.6131C568.848 -38.9673 569.869 -39.6443 570.369 -37.573C570.597 -36.4564 572.111 -36.8958 573.081 -36.8982C574.052 -36.9006 575.351 -37.1358 576.471 -37.1456C577.592 -37.1554 577.85 -37.0998 577.889 -36.3271C577.928 -35.5543 577.402 -35.4828 576.783 -35.418C575.934 -35.1499 575.161 -34.6994 574.518 -34.0985C573.469 -33.2036 573.386 -32.6414 574.918 -32.2728C575.136 -32.1469 575.572 -31.8951 575.609 -31.8741C575.645 -31.8531 575.018 -31.6056 574.823 -31.4365C573.207 -30.2661 571.181 -29.7585 569.157 -30.0173C568.83 -30.2061 568.069 -29.8951 568.116 -29.305C568.163 -28.715 568.879 -28.8643 569.243 -28.6544C572.238 -28.0058 575.088 -26.7753 577.622 -25.036C577.949 -24.8472 578.531 -24.5114 578.231 -24.075C577.93 -23.6387 577.564 -24.1787 577.257 -24.4028C575.553 -25.3163 573.661 -25.8132 571.743 -25.8504C570.25 -25.9055 568.759 -25.8242 567.29 -25.6075C566.934 -25.5785 566.424 -25.4508 566.358 -25.2539C566.293 -25.057 566.867 -24.9601 567.02 -24.6373C567.173 -24.3145 567.734 -23.9434 566.994 -23.6676C566.253 -23.3917 565.4 -23.5091 565.676 -22.6457C565.953 -21.7822 567.131 -21.8061 567.838 -21.7728C569.485 -22.0102 571.106 -22.3761 572.686 -22.8668C573.731 -23.2488 573.933 -23.179 574.104 -22.0483C574.554 -19.656 574.778 -17.234 574.774 -14.8135C574.697 -12.9119 574.15 -11.0704 573.179 -9.44889C572.955 -9.06192 572.752 -8.71017 573.051 -8.30342C573.172 -8.12757 573.345 -7.99279 573.547 -7.91872C573.748 -7.84465 573.967 -7.83518 574.17 -7.89171C575.489 -8.0107 576.826 -7.77361 578.039 -7.20581C579.689 -6.80682 581.407 -6.87197 582.994 -7.39379C584.692 -7.66246 586.408 -7.83098 588.132 -7.89843C588.314 -7.7935 588.783 -7.85088 588.799 -7.79471C588.815 -7.73854 588.555 -7.37258 588.199 -7.34359C586.794 -6.41972 585.019 -6.78759 583.602 -6.01122C583.124 -5.77116 582.012 -5.94407 582.357 -4.94727C582.411 -4.74189 582.506 -4.54811 582.636 -4.3777C582.767 -4.2073 582.931 -4.06383 583.118 -3.95592C583.305 -3.848 583.511 -3.77792 583.724 -3.74992C583.936 -3.72193 584.152 -3.73661 584.356 -3.79304C587.255 -4.59387 590.33 -4.6715 593.308 -4.01908C594.197 -3.88078 596.439 -4.32194 594.783 -2.04147C594.194 -1.02127 595.901 0.808162 597.067 0.215093C598.233 -0.377977 600.015 0.228834 601.366 0.492444C602.598 0.992536 603.918 1.2265 605.235 1.17828C605.838 1.05734 605.889 1.55606 605.613 1.86588L604.476 3.83591C604.151 4.39878 602.913 4.52833 603.562 5.41897C603.861 5.8442 604.3 6.15624 604.802 6.30018C605.304 6.44413 605.837 6.41078 606.306 6.20605L608.659 4.98471C609.003 4.80821 609.397 4.37871 609.768 4.82743C610.139 5.27615 609.677 5.57237 609.458 5.86799L609.356 6.0439C607.235 8.2904 607.256 8.25517 610.189 9.38602C613.123 10.5169 616.715 11.9341 619.939 13.2329C620.231 13.3925 620.551 13.4937 620.879 13.5303C621.208 13.5669 621.539 13.5382 621.852 13.446C624.233 12.4283 626.873 12.6395 629.302 11.7904C629.853 11.5923 630.852 11.372 631.041 12.1373C631.229 12.9027 630.206 12.8279 629.712 13.0118C626.094 14.1967 622.809 16.16 620.091 18.7618C619.888 19.1136 619.156 19.2067 619.462 19.8523C619.573 20.0317 619.729 20.1816 619.913 20.2881C620.097 20.3945 620.305 20.454 620.516 20.4609C623.185 21.1951 625.914 21.6708 628.662 21.8809C629.653 21.8433 630.895 22.044 629.633 23.4733C628.984 24.1775 629.557 24.696 630.139 25.0318C631.448 25.7873 632.878 26.3317 634.207 27.052C634.57 27.2619 635.261 27.6607 635.155 27.9279C635.049 28.1952 634.338 27.8316 633.955 27.6569C631.041 26.033 627.762 25.1922 624.456 25.2216C624.045 25.2587 623.64 25.3398 623.25 25.4635C623.487 25.9758 623.904 25.8412 624.337 25.7629C626.124 26.2783 627.951 26.7234 629.696 27.3092C630.169 27.582 631.095 27.7413 630.875 28.4585C630.654 29.1757 629.936 28.5733 629.435 28.5183C626.61 27.8002 623.653 27.9623 620.976 28.982C620.575 29.1727 619.908 29.069 619.914 29.7294C619.921 30.3898 620.479 30.4306 620.879 30.6614C622.432 31.1824 623.868 32.0113 625.095 33.0958C625.459 33.3057 626.041 33.6415 625.659 34.2185C625.277 34.7956 624.797 34.2839 624.527 34.0808C623.163 33.356 621.602 33.0999 620.1 33.3542C618.737 33.3646 618.767 34.32 618.635 35.1353C618.504 35.9506 619.235 36.279 619.999 36.2982C621.734 36.3149 623.723 36.9002 625.152 36.2713C626.582 35.6424 629.28 35.4179 630.659 33.8688C632.038 32.3197 635.026 31.0898 636.726 29.0692C636.848 28.8581 637.03 28.5415 637.478 28.9408C637.926 29.3402 637.489 29.5099 637.404 29.742C636.478 32.1175 634.634 34.016 632.266 35.0311C631.181 35.4835 630.112 35.992 629.043 36.5005C627.974 37.009 627.728 36.6794 628.05 37.3812C628.371 38.083 629.121 37.6244 629.546 37.3072C631.69 36.0473 633.938 34.961 636.268 34.0586L637.24 33.6346C637.621 33.4791 638.038 33.3446 638.413 33.702C638.536 33.8748 638.61 34.0759 638.626 34.2838C638.643 34.4917 638.602 34.6985 638.507 34.882C638.353 35.4191 638.072 35.9097 637.687 36.3144C637.302 36.7192 636.823 37.0269 636.289 37.2131C633.18 38.7874 630.278 40.7161 627.639 42.9606C626.424 43.8067 627.247 44.5635 628.043 44.695C630.95 45.2006 633.774 46.69 636.83 45.5934C638.101 45.1547 639.364 44.8986 640.262 46.449C640.262 46.449 640.771 46.7428 641.025 46.8897C641.28 47.0366 642.538 46.8719 642.516 47.7502C642.493 48.6285 641.825 48.9463 641.105 49.187C641.011 49.2595 640.899 49.3079 640.781 49.3283C640.278 49.6949 639.082 49.3325 639.27 50.0979C639.458 50.8632 640.487 50.425 641.174 50.4936C641.862 50.5621 642.315 50.4485 642.403 50.9682C642.49 51.4879 641.783 51.4546 641.382 51.6453C640.981 51.836 640.629 51.7736 640.394 52.0131C640.159 52.2525 638.523 52.903 638.703 53.851C638.882 54.799 639.975 54.5855 640.869 54.6325C641.579 54.7432 642.282 54.8987 642.975 55.098C643.665 55.4967 644.854 55.6202 643.683 56.7262C643.62 56.7662 643.567 56.819 643.527 56.8811C643.486 56.9433 643.46 57.0134 643.45 57.087C643.439 57.1605 643.445 57.2358 643.466 57.3081C643.487 57.3803 643.523 57.4478 643.571 57.5063C644.715 59.3863 643.05 59.0814 642.233 58.9851C640.769 58.7498 639.339 58.2054 638.009 57.9066C636.679 57.6078 636.71 58.1417 637.257 59.2083C637.805 60.2748 639.541 61.4648 640.76 62.5437C641.232 62.8166 641.996 63.2573 641.651 63.8553C641.305 64.4534 640.49 63.9355 639.96 63.6769C639.431 63.4182 638.252 62.6905 637.289 62.9318C637.154 63.0345 637.067 63.1859 637.045 63.3539C637.324 63.7487 637.688 64.0797 638.109 64.3229C638.53 64.5662 638.999 64.7155 639.48 64.76C642.251 65.7279 645.11 66.4038 648.01 66.7762C648.279 66.7243 648.562 66.7727 648.803 66.9121C649.045 67.0515 649.228 67.2721 649.318 67.5317C649.458 68.1286 648.892 68.2705 648.418 68.4192C647.944 68.5679 647.619 69.1308 647.646 69.756C647.723 71.3015 647.352 72.4476 645.419 72.2698C645.165 72.1229 644.566 72.1524 644.561 72.6653C644.642 72.7756 644.746 72.8682 644.865 72.9369C644.984 73.0057 645.116 73.049 645.252 73.064C646.909 73.5517 648.341 74.8479 650.174 74.7801C650.413 74.7642 650.655 74.807 650.877 74.9049C651.859 75.4715 653.735 75.6635 653.355 76.9923C652.976 78.3211 651.523 77.0601 650.52 76.9502C648.995 76.6848 647.452 76.5476 645.91 76.5402C644.729 76.6555 645.301 77.5955 645.652 78.0794C647.564 79.8556 648.79 82.2262 649.109 84.7663C649.227 86.2414 648.766 86.1162 647.788 85.8797C645.865 85.3947 643.902 85.1099 641.93 85.0301C640.208 85.0554 638.542 85.5562 637.121 86.4754C635.744 87.1814 635.758 88.0807 637.078 88.9837C637.587 89.2775 638.132 89.5923 638.641 89.8861C639.15 90.1799 639.713 90.1294 639.533 90.7762C639.353 91.423 638.779 91.326 638.278 91.2711C637.777 91.2161 636.746 90.9026 635.986 90.7921C635.843 90.7711 635.699 90.7831 635.564 90.8274C635.429 90.8717 635.307 90.9469 635.209 91.0469C635.046 91.3283 635.26 91.5456 635.453 91.798C636.411 92.8623 637.688 93.5993 639.088 93.8967C639.974 94.1263 640.911 94.4331 640.876 95.5854C640.841 96.7377 639.704 96.6914 638.854 96.9043C638.038 97.072 637.181 96.9576 636.424 96.5801C634.63 95.8258 632.832 95.1629 631.034 94.4999C630.271 94.0592 629.312 94.2091 628.788 95.0324C628.264 95.8557 628.638 96.6347 629.264 97.2303C630.656 98.5968 632.109 99.8579 633.541 101.154C633.716 101.266 633.911 101.342 634.115 101.379C634.318 101.416 634.526 101.412 634.726 101.369C635.139 101.326 635.738 100.875 636.028 101.464C636.318 102.053 635.581 102.238 635.358 102.625C635.134 103.012 634.632 103.378 635.031 104.031C635.227 104.296 635.357 104.601 635.409 104.922C635.461 105.243 635.434 105.569 635.33 105.873C635.226 106.177 635.048 106.449 634.812 106.667C634.575 106.885 634.287 107.042 633.971 107.125C631.94 108.234 629.565 108.617 627.238 108.21C626.875 108 626.28 107.938 626.037 108.36C625.793 108.782 626.334 109.188 626.657 109.469C627.228 109.934 627.686 110.519 627.995 111.18C628.265 111.804 628.235 112.444 627.482 112.572C626.73 112.7 626.437 113.375 626.762 114.407C627.565 116.794 629.077 118.793 630.147 121.052C630.364 121.6 630.747 122.196 630.163 122.703C629.579 123.211 629.188 122.797 628.618 122.609C626.565 121.799 625.873 122.243 625.827 124.421C625.809 125.208 625.993 126.065 626.047 126.894C626.119 127.154 626.084 127.429 625.952 127.659C625.819 127.89 625.598 128.057 625.336 128.125C624.754 128.211 624.5 127.642 624.173 127.454C623.846 127.265 623.828 126.457 623.647 125.93C623.466 125.404 622.923 124.246 621.793 124.86C620.663 125.474 620.334 124.533 619.976 123.811C619.618 123.088 619.623 122.575 619.024 122.605C618.426 122.634 618.537 123.449 618.293 123.871C618.049 124.293 618.246 124.876 617.724 124.856C617.203 124.836 617.123 124.134 617.068 123.727C616.492 121.048 615.079 118.591 613.029 116.704C612.439 116.129 611.702 115.141 611.066 115.571C610.43 116.001 611.09 117.039 611.582 117.698C612.525 118.879 613.212 120.234 613.599 121.677C613.787 122.442 613.825 123.215 612.786 123.084C611.747 122.953 611.843 123.29 611.559 123.783C611.275 124.275 611.173 124.451 610.869 124.557C607.375 126.245 607.772 128.914 608.958 131.897C609.091 132.255 609.546 132.893 608.939 133.105C608.332 133.317 608.321 132.748 608.177 132.243C607.814 131.769 607.547 131.233 607.392 130.664C607.175 128.522 606.078 128.827 604.685 129.476C602.78 130.135 601.029 131.145 599.525 132.454C598.565 133.146 597.422 133.557 596.221 133.643C595.655 133.785 595.141 134.004 595.074 134.622C595.008 135.241 595.671 135.436 596.107 135.688C597 136.067 597.973 136.207 598.925 136.095C600.252 136.064 601.579 136.032 602.901 136.092C604.604 136.028 606.304 136.452 607.795 137.312C609.285 138.172 610.502 139.433 611.298 140.94C611.838 141.786 612.579 142.493 613.454 142.998C614.329 143.503 615.312 143.791 616.314 143.836C618.039 143.965 619.69 144.642 621.018 145.764C622.346 146.886 623.279 148.393 623.676 150.057C623.871 150.689 624.308 151.228 624.894 151.557C626.693 152.788 628.275 154.305 629.574 156.042C630.04 156.591 630.684 156.963 631.392 157.091C633.18 157.864 634.773 159.031 636.045 160.498C637.318 161.965 638.235 163.693 638.724 165.546C639.064 166.552 639.09 167.628 638.796 168.631C638.503 169.633 637.904 170.517 637.08 171.164C636.508 171.611 636.072 172.204 635.817 172.882C635.562 173.559 635.498 174.296 635.631 175.017C635.791 175.803 635.749 176.611 635.508 177.365C635.267 178.119 634.836 178.797 634.253 179.334C633.473 180.05 632.919 180.972 632.653 181.996C632.387 183.02 632.421 184.105 632.75 185.127C632.707 186.92 632.164 188.653 631.18 190.136C630.195 191.619 628.807 192.796 627.168 193.537C626.691 193.783 626.18 193.961 625.65 194.068C624.253 194.387 622.623 194.525 624.799 196.297C624.799 196.297 625.113 196.76 625.032 196.901C624.951 197.041 624.388 197.092 624.053 197.086C621.836 196.979 621.836 196.979 622.6 199.015C623.145 200.183 623.446 201.442 623.486 202.715C623.526 203.987 623.303 205.248 622.832 206.419C622.345 207.682 621.418 208.724 620.212 209.362C619.117 209.834 618.145 210.537 617.366 211.423C616.586 212.31 616.017 213.358 615.698 214.495C615.173 216.005 614.09 217.253 612.659 217.995C612.065 218.311 611.564 218.769 611.199 219.327C610.835 219.886 610.618 220.528 610.568 221.197C610.587 221.839 610.469 222.475 610.22 223.062C609.972 223.649 609.6 224.175 609.127 224.605C608.655 225.035 608.093 225.361 607.478 225.56C606.863 225.759 606.209 225.828 605.558 225.762C603.349 225.894 600.973 226.82 598.961 225.94C595.942 225.076 592.83 224.621 589.71 224.586C587.878 224.17 585.98 224.24 584.213 224.789C582.921 225.07 581.574 225.061 580.271 224.763C578.967 224.465 577.739 223.885 576.678 223.066C575.504 222.304 574.196 221.774 572.827 221.507C571.459 221.24 570.058 221.242 568.705 221.512C567.318 221.486 565.946 221.155 564.689 220.543C563.432 219.931 562.322 219.053 561.442 217.975C560.667 217.152 559.934 216.291 559.248 215.395C558.978 215.024 558.599 214.743 558.163 214.592C557.727 214.442 557.258 214.43 556.823 214.558C556.115 214.946 556.557 215.858 556.77 216.497C557.292 218.822 557.958 221.118 558.763 223.37C559.037 223.872 559.205 224.421 559.256 224.983C559.307 225.545 559.239 226.108 559.058 226.637C558.545 228.164 558.572 229.831 559.136 231.372C559.729 233.45 558.555 233.804 557.216 234.109C554.236 235.113 550.984 235.156 547.923 234.231C544.862 233.306 542.149 231.461 540.172 228.96C536.121 224.979 532.03 221.069 527.743 217.328C527.086 216.581 526.186 216.081 525.205 215.919C524.224 215.757 523.226 215.942 522.391 216.442C518.268 218.378 513.961 219.878 509.657 221.708C502.658 224.548 495.174 226.148 487.541 226.436C481.821 226.912 476.059 226.957 470.307 226.57C469.134 226.503 468.47 226.729 468.292 228.128C468.07 230.71 467.27 233.196 465.951 235.409C464.631 237.622 462.823 239.508 460.657 240.933C456.631 243.509 453.02 246.654 449.935 250.269C449.769 250.403 449.635 250.573 449.543 250.765C449.452 250.958 449.405 251.169 449.405 251.384C449.406 251.598 449.454 251.812 449.547 252.009C449.64 252.206 449.774 252.382 449.942 252.525C451.985 255.047 453.635 257.851 454.836 260.838C455.704 263.028 457.394 264.801 458.161 267.167C458.513 267.987 458.676 268.868 458.638 269.748C458.6 270.627 458.362 271.481 457.942 272.247C457.373 273.232 457.61 273.744 458.677 274.079C459.491 274.313 460.268 274.666 460.98 275.127C462.136 275.974 463.52 276.454 464.942 276.503C466.364 276.551 467.754 276.164 468.919 275.395C469.185 275.188 469.494 275.039 469.825 274.956C470.156 274.874 470.503 274.86 470.844 274.916C471.185 274.972 471.513 275.096 471.806 275.281C472.1 275.466 472.353 275.707 472.55 275.99C475.575 279.144 478.682 282.158 481.688 285.347C482.862 286.587 483.82 286.859 485.246 285.9C487.43 284.617 489.501 283.163 491.441 281.55C493.81 279.341 496.676 277.707 499.821 276.772C500.832 276.334 501.936 276.129 503.053 276.173C504.169 276.216 505.268 276.507 506.268 277.023C507.926 277.908 509.77 278.382 511.635 278.403C513.5 278.424 515.328 277.992 516.957 277.144C521.896 275.305 524.466 276.226 526.882 280.857C527.65 282.417 528.978 283.652 530.602 284.319C533.201 285.754 535.477 287.707 537.278 290.049C537.474 290.279 537.615 290.548 537.692 290.836C537.769 291.124 537.78 291.424 537.723 291.713C537.766 292.367 537.685 293.02 537.483 293.638C536.715 295.113 536.522 296.827 536.939 298.464C537.357 300.1 538.356 301.551 539.754 302.549C541.329 304.16 542.322 306.229 542.575 308.425C542.828 310.621 542.325 312.816 541.148 314.657C540.827 315.352 540.31 315.938 539.657 316.347C539.005 316.756 538.242 316.972 537.458 316.97C536.674 316.969 535.9 316.749 535.226 316.337C534.551 315.925 534.003 315.337 533.645 314.641C532.766 313.571 532.245 312.265 532.157 310.908C532.07 309.552 532.42 308.215 533.158 307.09C533.93 305.753 533.52 304.953 532.178 304.506C528.888 303.405 525.887 301.719 522.72 300.406C514.547 297.056 505.588 296.26 497.086 298.13C496.334 298.259 496.341 298.498 496.518 299.115C499.891 306.405 504.676 313.009 510.597 318.549C511.265 319.256 512.073 319.822 512.968 320.21C513.863 320.597 514.825 320.797 515.793 320.798C517.043 320.816 518.272 320.869 519.554 320.999C523.638 321.481 525.106 323.22 524.526 327.247C524.032 330.62 523.279 333.938 522.749 337.291C522.469 338.799 522.506 340.356 522.859 341.866C523.212 343.377 523.873 344.809 524.802 346.075C526.084 347.8 527.172 349.694 528.3 351.518C529.083 352.531 529.481 353.776 529.423 355.028C529.325 355.799 529.409 356.587 529.668 357.331C529.928 358.074 530.357 358.754 530.921 359.317C534.095 363.085 535.921 367.756 536.106 372.583C536.086 375.808 535.673 379.041 535.839 382.279C536.204 388.306 536.446 394.324 536.563 400.334C536.759 401.979 537.22 403.59 537.926 405.108C541.321 414.474 543.562 424.178 544.601 434.009C544.672 434.411 544.696 434.819 544.674 435.224C544.553 435.435 544.604 435.934 544.268 435.928C543.933 435.921 543.723 435.613 543.432 435.445L542.84 434.54C536.364 424.938 529.682 415.358 523.607 405.565C521.048 401.602 517.861 398.307 515.104 394.605C507.893 384.766 500.661 374.962 493.798 364.855C491.98 362.211 490.147 359.51 488.268 356.972C487.977 356.804 487.688 356.214 487.518 356.257C487.348 356.299 487.172 356.855 487.264 357.283C485.876 369.006 492.704 377.075 500.564 384.615C501.669 385.723 502.288 387.253 503.824 387.951C504.187 388.161 504.259 388.625 504.144 389.075C504.03 389.525 503.718 389.814 503.047 389.801C501.791 390.029 500.492 389.994 499.236 389.697C497.98 389.4 496.793 388.848 495.754 388.077C492.324 386.208 489.165 383.879 486.372 381.159C484.832 379.637 483.672 377.786 482.988 375.76C482.304 373.734 482.115 371.59 482.437 369.506C482.518 368.987 482.46 368.452 482.267 367.954C480.154 360.838 477.647 353.831 474.756 346.966C473.947 345.234 472.779 343.681 471.329 342.407C468.8 340.416 466.763 337.881 465.384 335.008C464.004 332.134 463.32 329.001 463.386 325.861C463.219 324.454 462.727 323.095 461.948 321.888C459.197 315.795 456.771 309.572 454.681 303.245C453.951 301.356 452.807 299.638 451.333 298.216C449.641 296.474 448.392 294.367 447.689 292.076C446.987 289.784 446.854 287.375 447.301 285.053C448.083 281.096 447.729 277.092 448.232 273.114C448.68 270.992 448.999 268.843 449.187 266.676C449.27 263.781 448.418 260.908 446.752 258.469C446.139 257.6 445.545 257.538 444.96 258.467C440.245 264.942 434.499 270.616 427.935 275.279C425.832 276.933 423.316 278.014 420.63 278.418C417.943 278.822 415.177 278.536 412.596 277.587C403.675 274.722 395.283 270.369 387.794 264.722C385.153 262.916 382.671 260.919 380.01 259.148C375.728 256.25 372.447 252.123 370.631 247.355C368.391 241.797 366.85 236.008 366.043 230.118C365.753 227.934 366.211 227.307 368.396 227.302C374.705 227.286 380.971 227.01 387.246 226.552C394.989 226.072 402.781 227.654 409.803 231.133C413.501 232.906 417.299 234.457 421.177 235.777C421.442 235.864 421.714 235.927 421.99 235.964C421.846 235.775 421.693 235.592 421.53 235.417C417.88 232.841 414.251 230.23 410.601 227.653C409.923 227.221 409.117 227.039 408.329 227.139C405.713 227.284 403.095 226.612 400.845 225.221C398.594 223.829 396.827 221.787 395.794 219.386C394.902 217.817 393.663 216.46 392.171 215.418C385.998 210.916 379.708 206.534 373.815 201.63C372.965 200.952 371.89 200.617 370.816 200.696C369.262 200.785 367.693 200.817 366.144 200.813C365.911 200.871 365.662 200.835 365.451 200.713C365.24 200.591 365.084 200.393 365.017 200.163C364.958 199.425 365.637 199.677 366.086 199.654C366.535 199.632 367.991 199.628 368.946 199.57C369.901 199.511 369.67 199.659 369.687 199.294C369.704 198.929 369.214 199.021 368.996 198.895C366.982 198.858 364.915 198.744 362.913 198.854C358.088 198.868 353.28 199.228 348.528 199.93C348.208 199.98 347.816 199.988 347.476 200.073C347.136 200.158 346.63 200.195 346.649 200.581C346.669 200.967 347.304 200.959 347.594 201.127C350.307 200.829 353.037 200.668 355.774 200.643C356.137 200.852 356.919 200.506 356.864 201.272C356.81 202.038 356.196 201.59 355.784 201.633C349.283 202.393 342.726 202.729 336.156 202.638C335.578 202.632 334.995 202.718 334.417 202.712C333.839 202.707 333.859 202.671 333.835 202.376C333.332 201.57 333.384 201.647 332.166 201.741C328.097 202.201 323.981 202.275 319.874 201.962C319.403 201.858 318.922 201.816 318.443 201.839C314.93 202.525 311.264 202.232 307.855 200.993C304.446 199.753 301.427 197.616 299.135 194.819C298.316 193.971 297.027 193.602 296.483 192.444C295.244 189.805 295.992 188.173 299.3 186.894C303.279 185.237 307.385 183.877 311.586 182.823C314.065 182.387 316.624 182.473 319.096 183.078C319.423 183.267 320.163 183.413 320.114 183.666C319.651 185.979 321.397 184.97 322.222 184.883C327.412 184.877 332.633 184.984 337.88 184.542C345.055 184.026 352.023 182.158 358.408 179.039C361.996 177.358 365.737 176 369.429 174.473C369.81 174.327 370.203 174.209 370.603 174.119C376.539 172.511 379.44 174.733 379.306 180.785C379.26 184.98 379.28 184.945 383.566 185.496C386.479 185.493 389.319 186.563 391.526 188.497C392.707 189.458 394.158 190.033 395.668 190.138C398.41 190.861 401.062 191.904 403.568 193.245C403.895 193.434 404.513 193.79 404.655 193.544C404.797 193.298 404.2 192.906 403.877 192.626C403.669 192.482 403.45 192.356 403.222 192.248C402.823 192.017 402.277 191.702 402.509 191.133C402.741 190.563 403.42 190.814 403.897 190.996C406.829 191.922 409.568 193.392 411.963 195.324C413.937 196.709 416.11 197.789 418.403 198.526C419.74 199.064 419.367 197.863 419.154 197.225C418.703 193.571 418.85 189.887 419.59 186.312C419.964 182.993 419.801 179.622 419.105 176.323C418.683 173.628 417.37 171.121 415.369 169.194C409.46 162.64 402.497 157.072 396.203 150.764C394.175 149.432 391.881 148.557 389.491 148.203C382.127 145.737 374.937 142.761 367.975 139.299C358.847 134.334 350.559 127.965 343.435 120.44C342.58 119.571 342.282 118.742 343.037 117.771C344.455 115.822 346.144 114.083 348.057 112.601C348.949 111.897 349.616 112 350.471 112.869C357.151 120.084 364.688 126.484 372.912 131.923C374.631 132.901 376.476 133.634 378.391 134.102C382.473 135.426 386.057 137.026 390.083 137.944C392.701 138.347 395.357 138.293 397.93 137.784C400.337 137.372 402.713 136.817 405.045 136.122C405.508 136.016 405.921 135.766 406.223 135.409C406.525 135.052 406.701 134.606 406.724 134.136C407.634 128.276 409.102 122.529 411.111 116.969C412.928 112.914 415.504 109.249 418.709 106.158L420.822 104.094C421.151 103.879 421.378 103.544 421.455 103.159C421.533 102.775 421.454 102.371 421.235 102.035C421.04 101.696 420.741 101.424 420.383 101.259C420.025 101.094 419.625 101.045 419.243 101.119C417.454 101.591 415.866 102.587 414.686 103.976C413.032 105.414 411.564 106.865 409.943 108.414C409.76 108.731 409.557 109.083 409.012 108.768C408.466 108.453 408.71 108.031 408.84 107.637C409.264 106.484 409.882 105.414 410.668 104.471C410.99 104.216 411.284 103.931 411.548 103.619C412.056 102.739 413.231 101.963 412.833 100.889C412.435 99.8156 411.161 99.9241 410.097 99.9197C407.163 99.3642 404.155 99.903 401.664 101.43C401.522 101.677 400.959 102.149 400.649 101.594C400.339 101.04 400.994 100.996 401.452 100.791C404.646 97.945 408.657 98.3848 412.501 98.0239C413.587 98.0825 414.672 97.9635 415.709 97.6716C416.266 97.5214 416.737 97.1624 417.021 96.6703C417.305 96.1781 417.381 95.5912 417.232 95.0332C416.916 93.8185 415.96 94.2987 415.126 94.5677C414.292 94.8368 413.715 94.4097 413.527 93.6443L412.65 88.4475C412.176 85.4065 410.346 84.6311 407.89 86.4499C405.921 88.4536 404.317 90.7779 403.145 93.3259C402.718 94.0646 402.371 95.5058 401.583 95.1916C400.795 94.8774 401.437 93.5128 401.569 92.6975C401.943 90.2868 401.995 90.3639 399.657 90.4681C398.459 90.4908 397.258 90.4398 396.062 90.3156C395.597 90.2816 394.987 90.1637 394.935 89.665C394.884 89.1663 395.321 88.9964 395.956 88.9878C397.81 88.7355 399.602 88.1852 401.259 87.3587C403.64 85.6 405.319 83.0781 406.017 80.2088C406.069 80.0413 406.084 79.8635 406.06 79.6877C406.036 79.512 405.974 79.3423 405.878 79.1903C405.109 78.1166 404.455 76.969 403.929 75.7667C403.671 75.2896 403.32 74.8057 402.62 75.0112C402.346 75.0511 402.095 75.1776 401.904 75.3718C401.713 75.566 401.593 75.8175 401.562 76.0887C400.714 78.828 400.334 81.6986 400.436 84.5857C400.502 84.9326 400.511 85.286 400.462 85.6324C400.461 86.054 400.44 86.5107 399.914 86.5823C399.388 86.6538 399.223 86.1835 399.131 85.7552C398.944 85.1322 398.842 84.4897 398.828 83.845C399.254 78.7432 399.804 73.7606 400.436 68.6372C400.678 67.0418 400.385 66.1222 398.48 66.148C396.575 66.1738 394.881 66.0867 393.105 66.1403C391.329 66.1939 390.595 67.1301 391.561 68.8139C392.528 70.4976 393.544 71.5069 394.431 72.9098C394.912 73.5395 395.225 74.2754 395.339 75.0476C395.454 75.8198 395.365 76.6023 395.083 77.3203C394.9 77.6369 394.636 78.0942 394.212 77.9899C393.788 77.8856 393.995 77.4425 394.012 77.0771C394.045 76.1747 393.884 75.2701 393.537 74.4232C393.191 73.5763 392.667 72.8063 392.002 72.1641C391.162 71.5231 390.462 70.7213 389.946 69.8096C389.429 68.8978 389.108 67.896 389.002 66.8672C388.976 65.8204 388.111 65.5556 387.323 65.2414C386.535 64.9272 386.742 64.9056 386.868 64.6032C386.994 64.3008 387.232 64.3915 387.459 64.3348C388.466 63.9345 389.367 63.3199 390.097 62.5342C390.826 61.7484 391.368 60.8104 391.685 59.7856C391.76 58.9845 391.546 58.7672 390.681 58.5024C387.682 57.5684 386.892 59.6921 385.598 61.4307C382.875 64.9714 384.279 68.0803 386.443 71.2997C386.668 71.6645 387.294 72.2602 386.909 72.507C386.524 72.7539 386.073 72.0244 385.709 71.8145C384.629 70.1591 383.627 68.4544 382.567 66.7638C381.507 65.0732 381.479 65.2911 380.557 66.6353C380.47 66.74 380.359 66.8239 380.234 66.8812C380.109 66.9386 379.972 66.968 379.832 66.9673C379.652 67.0122 379.459 66.9844 379.295 66.89C379.132 66.7956 379.011 66.6423 378.96 66.4637C378.711 65.8039 378.749 64.9817 379.34 64.7133C382.199 63.4556 381.058 60.3109 382.382 58.3545C382.666 57.862 382.558 57.3775 381.776 57.7237C380.085 58.152 378.463 58.7912 376.946 59.6257C375.206 60.8812 373.023 61.4172 370.847 61.1232C369.25 60.9515 368.587 59.1617 367.197 58.5469C367.197 58.5469 367.319 58.3358 367.34 58.3006C367.36 58.2654 368.116 58.4673 368.479 58.6772C369.892 59.5356 371.542 59.9113 373.168 59.7443C374.793 59.5772 376.299 58.8769 377.445 57.7555C378.561 56.9012 379.786 56.1902 381.09 55.6387C381.618 55.513 382.088 55.2269 382.435 54.8204C382.719 54.3279 383.444 53.9959 383.247 53.4132C383.051 52.8306 382.253 53.1206 381.74 52.9181C381.227 52.7157 380.384 53.1674 380.358 52.5421C380.331 51.9169 381.268 52.2237 381.738 52.1664C382.207 52.109 383.194 52.1627 383.906 52.1048C384.618 52.0468 385.014 51.9475 385.04 51.3994C385.062 48.9263 386.898 49.1886 388.504 49.1776C388.828 49.2008 389.15 49.1304 389.429 48.975C389.708 48.8195 389.933 48.5858 390.075 48.3025C390.988 46.6668 392.009 45.0942 393.133 43.5947C393.762 42.5042 393.675 41.9844 392.191 41.7844C390.707 41.5843 389.217 40.3024 389.787 38.8958C390.072 38.4033 390.397 37.8404 391.011 37.8669C391.626 37.8935 391.762 38.5817 391.793 39.1156L391.912 40.1691C391.924 40.302 391.969 40.4309 392.043 40.5445C392.116 40.6582 392.217 40.7532 392.335 40.8214C392.453 40.8896 392.585 40.9289 392.721 40.936C392.856 40.943 392.99 40.9175 393.111 40.8617C393.771 40.7266 394.103 40.4026 393.781 39.7009C393.451 38.7603 393.474 37.7437 393.846 36.838C394.217 35.9322 394.913 35.1981 395.804 34.7707C395.966 34.4892 396.581 34.5159 396.453 34.0666C396.324 33.6173 395.762 33.6679 395.435 33.479C394.901 33.5193 394.406 33.7503 394.042 34.1288C393.839 34.4806 393.622 35.5279 392.839 34.7008C392.057 33.8737 391.69 33.3337 392.642 32.5234C393.595 31.713 394.105 31.5853 393.658 30.7644C393.211 29.9435 392.344 30.5218 391.677 30.4181C389.413 30.1427 387.338 30.2111 386.042 32.3712C385.9 32.6175 385.717 32.9341 385.305 32.5557C384.894 32.1773 385.508 32.2039 385.61 32.028C385.712 31.8521 385.813 31.6762 385.874 31.5707C385.576 27.9743 389.147 27.8318 391.04 26.4852C393.756 24.5752 397.045 23.5828 400.43 23.6515C401.324 23.6985 402.763 24.0603 403.012 23.1252C403.153 22.5165 403.148 21.8801 402.999 21.2652C402.85 20.6504 402.56 20.0735 402.151 19.5793C401.141 18.4899 400.339 17.2319 399.786 15.8686C399.138 14.5564 398.463 14.6354 397.756 15.7753C397.13 17.0141 396.69 18.3403 396.452 19.713C396.35 19.8889 396.229 20.0999 396.127 20.2758C396.025 20.4517 395.885 19.8549 395.894 19.6722C396.04 17.7398 395.762 15.703 397.364 14.1885C397.636 13.9674 397.816 13.6554 397.871 13.309C397.769 10.7168 399.079 10.6292 401.258 11.1366C403.437 11.6441 404.607 11.3812 406.248 11.8127C406.797 11.9973 407.384 12.0217 407.937 11.883C408.491 11.7444 408.987 11.4487 409.364 11.0321C410.715 9.27937 412.713 9.26033 414.647 9.01664C415.135 9.02083 415.613 8.90957 416.041 8.69227C416.469 8.47497 416.835 8.15799 417.108 7.76808C417.38 7.37817 417.552 6.92677 417.607 6.45199C417.663 5.97721 417.601 5.493 417.428 5.04018C416.909 3.50316 416.908 1.85616 417.423 0.347002C417.958 -1.5021 417.143 -2.44156 415.51 -3.05575C414.684 -3.2703 413.879 -3.56241 413.106 -3.92799C412.197 -4.45265 411.288 -4.97731 412.21 -6.32152C412.535 -6.88439 412.375 -7.44603 412.235 -8.04287C411.944 -10.2099 412.104 -12.3999 412.703 -14.4796C412.703 -14.4796 412.947 -14.9018 412.968 -14.937C412.988 -14.9721 413.152 -14.5018 413.087 -14.3049C412.727 -12.8242 412.642 -11.2843 412.837 -9.75864C412.935 -8.9024 413.224 -8.07267 413.683 -7.32915C414.142 -6.58563 414.76 -5.94675 415.492 -5.45845C415.783 -5.29055 416.025 -4.86966 416.328 -4.9758C416.632 -5.08194 416.653 -5.53868 416.411 -5.95962C416.17 -6.38056 415.962 -7.53228 415.815 -8.36797C415.667 -9.20366 415.571 -9.54063 416.061 -9.63318C416.55 -9.72574 416.609 -8.98822 416.721 -8.59506C417.004 -6.70373 417.945 -4.94961 419.383 -3.63445C421.51 -2.03086 422.109 -2.06048 423.918 -4.01814C425 -5.22224 425.992 -6.85464 428.202 -6.23486C429.253 -5.95645 429.425 -6.8422 429.5 -7.64332C429.65 -10.0776 430.588 -12.3789 432.178 -14.212C432.34 -14.4934 432.625 -14.9859 432.915 -14.818C433.206 -14.6502 432.954 -14.0453 432.735 -13.7497C431.888 -12.4138 431.282 -10.9393 430.944 -9.38932C430.918 -8.77421 431.026 -8.15692 431.26 -7.57861C431.494 -7.0003 431.849 -6.47422 432.302 -6.03533C432.755 -5.59645 433.294 -5.25484 433.886 -5.03325C434.477 -4.81166 435.105 -4.71514 435.73 -4.75017C436.276 -4.85692 436.095 -5.38339 436.298 -5.73518C436.645 -8.34962 437.565 -10.8671 437.689 -13.5161C437.827 -14.5103 438.177 -15.4589 438.715 -16.3008C439.467 -17.6025 439.158 -18.5784 437.728 -19.5444C434.929 -21.1603 431.829 -21.9184 429.152 -23.7454C425.659 -26.0903 425.618 -26.0199 423.486 -22.3261C423.364 -22.115 423.161 -21.7632 422.939 -21.7978C422.716 -21.8324 422.737 -22.2891 422.807 -22.5774L423.152 -23.1754C425.547 -26.4835 424.02 -27.3649 421.149 -29.0228C417.658 -31.1396 413.666 -32.2754 409.617 -32.3032C409.075 -32.2877 408.241 -32.0187 408.11 -32.7983C407.978 -33.5778 408.901 -33.7487 409.52 -33.8135C414.299 -34.6133 419.255 -33.9311 423.708 -31.8606C424.726 -31.2729 425.651 -31.1137 426.189 -32.6326C426.977 -34.0935 428.291 -35.2041 429.881 -35.7541C431.145 -36.4318 431.232 -37.0854 430.616 -38.2852C429.258 -40.9513 428.387 -43.8207 428.044 -46.7589C427.973 -47.2224 427.78 -47.8964 428.31 -48.0593C428.841 -48.2223 429.255 -47.5137 429.404 -47.0995C430.616 -43.8497 432.59 -40.9091 435.163 -38.5214C435.786 -37.649 436.69 -37.0058 437.723 -36.6997C438.755 -36.3936 439.853 -36.4432 440.832 -36.8402C441.811 -37.2372 442.612 -37.9575 443.101 -38.8801C443.59 -39.8028 443.736 -40.8717 443.515 -41.9076C443.504 -42.1777 443.53 -42.447 443.59 -42.7087C445.423 -43.1981 444.721 -45.3392 445.912 -46.0588C446.083 -46.1842 446.196 -46.3718 446.227 -46.5817C446.258 -46.7917 446.204 -47.0074 446.076 -47.1832C444.609 -51.3702 443.861 -55.7503 443.864 -60.1402C443.658 -61.7134 443.301 -63.2793 443.059 -64.8735C443.16 -65.0494 442.903 -65.5265 443.242 -65.6117C443.582 -65.6968 443.715 -65.3388 443.933 -65.2129C444.595 -64.4251 445.075 -63.5072 445.338 -62.5256C445.975 -60.1876 446.649 -57.8286 447.379 -55.4838C448.11 -53.1391 448.732 -52.8737 450.832 -53.4902C452.933 -54.1066 451.533 -55.2906 451.673 -56.2886C451.484 -57.0539 451.706 -58.1926 450.569 -58.2389C449.433 -58.2853 449.64 -57.1335 449.472 -56.3392C449.305 -55.5449 449.661 -55.5739 449.026 -55.5653C448.391 -55.5567 448.732 -56.0634 448.651 -56.3442C448.383 -56.9113 448.315 -57.5457 448.458 -58.1442C448.601 -58.7427 448.947 -59.2702 449.44 -59.6412C450.948 -60.741 449.758 -62.0378 449.312 -63.2802C448.866 -64.5227 448.077 -64.4153 448.883 -64.888C449.689 -65.3608 450.046 -64.2164 450.591 -63.9016C450.838 -63.4788 451.054 -63.0404 451.239 -62.5895C451.361 -62.2551 451.577 -61.9593 451.861 -61.7372C452.145 -61.515 452.485 -61.3757 452.842 -61.3359C453.776 -61.3593 453.209 -62.3906 453.614 -62.6727C455.668 -64.3008 455.173 -66.885 455.907 -68.9946C456.191 -69.4871 456.189 -70.2388 457.064 -69.4049C457.94 -68.571 457.712 -69.6876 457.931 -69.9832C459.349 -71.6106 460.912 -73.1095 462.602 -74.4631C462.805 -74.8149 463.287 -75.1464 463.683 -74.8242C464.078 -74.502 463.628 -74.0583 463.445 -73.7417L462.309 -72.1932C461.504 -71.2706 460.925 -70.175 460.618 -68.9882C460.31 -67.8013 460.281 -66.5537 460.533 -65.3387C460.973 -64.0987 461.11 -62.7816 460.932 -61.4966C460.842 -60.8395 460.99 -60.1657 461.347 -59.591C461.705 -59.0164 462.252 -58.5765 462.894 -58.3469C464.02 -57.6964 464.643 -59.0257 465.291 -59.7299C465.767 -60.6749 466.145 -61.6667 466.419 -62.6906ZM473.61 176.693C474.911 177.21 475.628 178.234 475.047 179.493C474.465 180.752 473.166 180.987 471.817 180.302C468.182 178.203 464.526 176.561 460.882 174.645C453.679 171.212 447.167 166.482 441.693 160.705C441.226 160.225 440.633 159.883 439.984 159.718C436.262 158.695 432.568 157.454 428.832 156.704C419.381 154.859 409.789 154.012 400.489 151.316C400.234 151.169 399.871 150.959 399.684 151.367C399.497 151.775 399.998 151.83 400.253 151.977C402.514 153.517 405.014 154.726 407.523 156.174C414.157 159.947 421.548 162.175 429.113 162.682C435.18 163.122 441.025 165.337 445.895 169.041C455.926 176.85 460.507 187.468 464.451 198.517C466.558 205.202 467.938 212.068 468.57 219C468.569 219.299 468.668 219.592 468.853 219.835C469.037 220.077 469.297 220.255 469.59 220.34C475.08 222.267 480.888 223.048 486.637 222.63C492.468 221.858 498.171 220.429 503.635 218.372C508.041 217.063 512.144 214.965 515.74 212.18C516.733 211.3 516.835 210.702 515.527 209.947C507.904 205.493 501.128 199.737 495.528 192.959C491.682 188.338 489.072 182.859 487.947 177.044C487.237 174.393 487.092 171.642 487.522 168.965C489.062 163.422 489.586 157.627 489.07 151.847C488.435 149.115 488.561 146.286 489.434 143.661C490.003 142.254 489.362 141.602 488.117 141.072C483.451 139.081 478.805 137.055 474.158 135.029C473.515 134.754 472.823 134.618 472.129 134.631C471.436 134.643 470.758 134.804 470.142 135.102C462.619 138.396 454.677 140.729 446.504 142.046C436.751 144.228 426.487 143.592 416.93 140.216C415.18 139.5 413.28 139.255 411.429 139.506C409.578 139.758 407.845 140.498 406.41 141.648C405.248 142.84 403.661 143.545 401.963 143.625C400.265 143.705 398.581 143.153 397.244 142.078C396.833 141.72 396.349 141.454 395.827 141.298C395.305 141.143 394.758 141.102 394.225 141.179C393.97 141.032 393.408 141.083 393.35 141.519C393.292 141.954 393.664 141.982 393.899 142.164C394.181 142.397 394.501 142.581 394.844 142.709C401.001 145.01 407.319 146.838 413.739 148.177C420.756 149.208 427.698 150.769 434.501 152.847C436.821 153.69 439.24 154.218 441.688 154.417C442.419 154.427 443.14 154.626 443.778 154.995C444.416 155.363 444.949 155.888 445.323 156.515C448.933 161.496 453.595 165.662 458.976 168.713C463.511 171.519 468.621 174.001 473.573 176.672L473.61 176.693ZM405.455 205.17C400.578 201.697 393.415 201.596 386.632 200.165C386.268 199.955 385.722 200.062 385.567 200.582C385.412 201.103 385.812 201.333 386.135 201.614C389.282 204.557 393.009 207.084 396.27 209.998C399.531 212.913 402.766 214.781 406.032 217.182C407.234 218.199 408.719 218.827 410.278 218.977C410.611 218.963 410.942 219.045 411.233 219.213C411.524 219.381 411.76 219.627 411.914 219.922C412.52 221.026 413.342 222.005 414.33 222.802C415.319 223.598 416.455 224.195 417.67 224.558C420.463 225.487 423.204 226.569 425.881 227.798C426.754 228.301 426.868 227.851 426.712 227.198C426.434 223.993 425.102 220.935 422.919 218.489C417.562 213.461 411.696 208.99 405.419 205.149L405.455 205.17ZM508.39 117.878C508.39 117.878 508.756 117.245 508.776 117.21C508.797 117.175 508.064 117.268 507.72 117.444C505.764 118.566 503.799 119.871 501.81 120.881C494.926 124.411 487.897 127.435 480.916 130.628C480.495 130.854 479.694 130.814 479.773 131.516C479.852 132.219 480.536 131.957 480.972 132.209C483.974 133.473 487.017 134.667 489.958 136.036C491.194 136.75 492.008 136.516 492.755 135.306C493.715 133.62 495.022 132.156 496.596 131.004C501.089 127.151 505.052 122.741 508.39 117.878ZM608.679 13.3453C608.363 13.7254 608.193 14.2043 608.197 14.7018C608.201 15.1993 608.379 15.6853 608.7 16.0783C609.293 16.9831 610.28 16.6153 610.985 16.3185C612.371 15.7956 613.866 15.5854 615.363 15.7033C616.758 15.8052 617.856 15.0788 619.102 14.7666C619.216 14.6944 619.311 14.5962 619.378 14.4801C619.445 14.3639 619.483 14.2331 619.488 14.0982C619.691 13.7464 619.142 13.5229 618.689 13.6365C616.081 13.1161 613.51 12.6166 610.898 12.1875C610.46 12.1565 610.028 12.2619 609.662 12.4886C609.296 12.7153 609.016 13.0518 608.861 13.4502L608.679 13.3453ZM531.267 -67.5596C530.14 -68.2101 529.037 -68.5657 527.954 -68.9565C524.608 -70.0441 523.08 -68.9092 523.718 -65.3979L523.834 -64.6745C523.91 -64.3024 523.977 -63.7475 524.503 -63.8191C525.029 -63.8906 524.869 -64.4523 525.052 -64.7689C525.234 -65.0855 524.909 -66.1175 525.553 -66.3088C526.197 -66.5001 526.122 -65.6989 526.404 -65.3483C526.686 -64.9978 526.658 -65.2015 526.695 -65.1805C528.088 -65.8303 529.707 -64.9421 531.137 -65.571C531.538 -65.7617 532.064 -65.8332 532.11 -66.4165C532.107 -66.6302 532.044 -66.8406 531.927 -67.024C531.81 -67.2075 531.645 -67.3566 531.449 -67.4547L531.267 -67.5596ZM597.774 13.4287C599.489 13.7473 601.149 14.3262 602.696 15.1447C604.586 16.236 605.818 15.4461 606.95 13.9889C608.082 12.5318 607.707 12.1744 606.159 11.7497C603.152 10.9984 600.486 12.5086 597.622 12.6844C597.205 12.8189 597.281 13.1911 597.774 13.4287ZM429.861 -4.57398C429.165 -4.95574 428.38 -5.13884 427.595 -5.10206C426.81 -5.06529 426.059 -4.81012 425.427 -4.36617C424.775 -3.99218 423.594 -3.87686 423.842 -2.79552C424.09 -1.71417 425.223 -1.99803 425.877 -1.62027C428.477 -1.77971 431.069 -0.954288 433.124 0.687235C433.23 0.770649 433.352 0.831699 433.482 0.86647C433.612 0.901242 433.748 0.908936 433.88 0.889072C434.144 0.431741 433.683 0.306437 433.392 0.138545C432.917 -0.230588 432.563 -0.729405 432.376 -1.2922C431.799 -2.5544 430.938 -3.67728 429.861 -4.57398ZM392.459 62.3902C392.114 62.9882 391.505 63.622 392.188 64.2035C392.459 64.4041 392.786 64.5165 393.121 64.5245C393.456 64.5325 393.782 64.4357 394.052 64.248C394.396 64.0715 394.656 63.7056 395.037 63.55C396.475 62.6184 397.986 61.7973 399.556 61.0938C399.709 61.0803 399.856 61.0362 399.988 60.9642C400.121 60.8921 400.237 60.7938 400.328 60.6751C400.419 60.5564 400.484 60.4199 400.519 60.274C400.554 60.1281 400.558 59.9759 400.53 59.8267C400.455 59.033 399.784 59.0207 399.149 59.0293C397.827 59.0457 396.534 59.3603 395.371 59.949C394.207 60.5377 393.204 61.3849 392.439 62.4254L392.459 62.3902ZM570.869 -17.5368C570.487 -17.7974 570.086 -18.029 569.67 -18.2294C569.39 -18.4776 569.027 -18.6139 568.656 -18.6104C568.284 -18.6069 567.932 -18.4637 567.672 -18.2103C567.408 -17.753 566.703 -17.4562 566.839 -16.768C566.975 -16.0798 567.937 -15.8995 568.62 -15.7397C569.303 -15.5798 569.679 -15.644 570.197 -15.5328C570.714 -15.4217 571.075 -15.542 571.033 -15.0501C570.991 -14.5582 570.458 -14.7255 570.154 -14.6194C569.851 -14.5132 568.291 -15.0855 568.119 -14.1998C567.947 -13.3141 569.391 -13.4653 570.045 -13.0875C570.229 -12.9332 570.438 -12.8123 570.663 -12.7307C571.826 -12.0591 572.717 -12.3424 572.882 -13.8885C573.048 -15.4345 572.842 -17.0077 570.808 -17.4312L570.869 -17.5368ZM536.303 -64.2771C536.386 -65.2609 535.71 -65.1819 535.261 -65.1597C533.113 -64.9284 531.125 -63.9962 529.612 -62.511C529.43 -62.4199 529.28 -62.2789 529.179 -62.1043C529.079 -61.9298 529.032 -61.7291 529.044 -61.5259C529.241 -60.9433 529.843 -61.0642 530.171 -60.8754C533.179 -60.5456 533.866 -63.6668 536.242 -64.1715L536.303 -64.2771ZM487.894 -64.88C487.649 -64.0363 486.574 -63.0149 488.126 -62.26C489.677 -61.5051 490.423 -62.2938 490.855 -63.5455C491.287 -64.7971 491.841 -66.2598 490.782 -66.7771C489.724 -67.2943 488.895 -65.9434 487.894 -64.88ZM454.248 -52.6907C454.471 -52.5575 454.73 -52.497 454.986 -52.5179C455.242 -52.5387 455.483 -52.6399 455.672 -52.8067C456.329 -53.272 456.876 -53.8003 456.728 -54.636C456.112 -56.053 455.198 -57.3324 454.048 -58.3881C454.012 -58.4406 453.963 -58.4837 453.907 -58.5133C453.85 -58.5429 453.787 -58.5579 453.723 -58.5571C453.66 -58.5562 453.598 -58.5395 453.543 -58.5084C453.489 -58.4774 453.444 -58.4329 453.413 -58.3795C453.353 -58.2837 453.314 -58.1761 453.299 -58.0636C453.284 -57.951 453.294 -57.836 453.326 -57.7259C453.711 -56.376 453.953 -54.9945 454.048 -53.6036C454.163 -53.2779 454.305 -52.9611 454.471 -52.6562L454.248 -52.6907ZM408.76 19.5488C408.853 19.6522 408.968 19.7351 409.095 19.7918C409.223 19.8486 409.36 19.8778 409.499 19.8775C409.637 19.8771 409.773 19.8472 409.897 19.7898C410.021 19.7325 410.13 19.649 410.216 19.5452C410.582 18.9119 411.404 18.4953 411.018 17.5689C410.632 16.6425 410.597 16.1999 409.897 16.4054C409.196 16.6109 406.623 15.3598 406.146 16.7731C405.669 18.1865 408.05 18.7637 408.922 19.6889L408.76 19.5488ZM424.858 6.60944C424.865 7.18649 425.069 7.74999 425.436 8.20988C426.157 9.56405 427.696 10.1714 428.442 11.3991C428.769 11.588 428.746 12.4662 429.459 11.9867C430.172 11.5072 429.704 11.143 429.483 10.6869C428.553 9.02127 427.333 7.52319 425.882 6.26261C425.555 6.07373 425.142 6.11693 424.858 6.60944ZM608.268 25.7257C609.07 26.1001 609.941 26.2965 610.819 26.3003C611.697 26.3042 612.56 26.1156 613.344 25.7481C613.466 25.537 613.862 25.4377 613.75 25.0445C613.746 24.8941 613.685 24.7489 613.58 24.6365C613.476 24.5241 613.334 24.4523 613.181 24.4347C611.589 24.0033 609.92 23.9953 608.348 24.4117C608.206 24.6579 607.643 24.7085 607.881 25.2208C608.118 25.7331 608.252 25.6695 608.268 25.7257ZM404.852 26.4859C403.736 26.4044 402.584 26.3019 401.39 26.2697C400.197 26.2376 399.999 26.0765 399.997 26.9196C399.995 27.7627 400.796 27.8029 401.415 27.7381C402.031 27.6517 402.662 27.6884 403.27 27.8462C403.878 28.004 404.452 28.2796 404.956 28.6566C405.12 28.794 405.33 28.8658 405.542 28.8574C405.754 28.8491 405.952 28.7612 406.097 28.6116C406.361 28.1543 406.244 27.8525 405.942 27.537C405.639 27.2216 405.28 26.9204 404.852 26.4859ZM415.647 89.8029C415.393 89.656 415.042 89.1721 414.604 89.7633C414.166 90.3546 414.236 93.2561 414.692 93.4727C415.149 93.6894 416.483 93.8969 416.723 93.1446C416.874 92.8619 416.966 92.5512 416.993 92.2302C417.02 91.9092 416.983 91.5843 416.883 91.2739C416.783 90.9636 416.623 90.674 416.411 90.4216C416.199 90.1692 415.939 89.9589 415.647 89.8029ZM635.002 79.9046C633.785 79.5774 632.459 79.1873 631.129 78.8885C630.875 78.7416 630.317 78.7008 630.457 79.2977C630.637 79.7584 630.919 80.1764 631.282 80.5211C631.645 80.8658 632.079 81.1284 632.553 81.2896C633.027 81.4508 633.529 81.5065 634.021 81.4527C634.514 81.3989 634.985 81.2369 635.399 80.9786C636.112 80.499 635.49 80.2336 635.002 79.9046ZM540.065 -62.9024C540.329 -63.3597 541.107 -64.0361 540.57 -64.5336C540.034 -65.0311 539.469 -64.1374 538.951 -63.827L536.909 -62.473C536.726 -62.1564 536.196 -61.9934 536.36 -61.5231C536.525 -61.0528 537.16 -61.0614 537.524 -60.8515C538.887 -60.862 539.455 -61.847 540.065 -62.9024ZM508.689 -67.3206C508.715 -67.8687 509.481 -68.6926 508.564 -69.0345C508.111 -69.2074 507.616 -69.219 507.165 -69.0675C506.714 -68.916 506.336 -68.611 506.099 -68.2064C506.017 -68.0334 505.972 -67.8449 505.966 -67.6523C505.961 -67.4596 505.995 -67.2667 506.067 -67.0852C506.138 -66.9037 506.246 -66.7372 506.383 -66.5958C506.521 -66.4544 506.685 -66.3409 506.866 -66.2622C507.755 -65.7024 508.222 -66.5114 508.649 -67.2502L508.689 -67.3206ZM396.399 26.4368C396.561 26.1554 396.182 25.8893 395.672 26.017C394.14 26.1451 392.648 26.519 391.252 27.1241C391.252 27.1241 390.988 27.5814 390.948 27.6517C391.007 27.7433 391.087 27.82 391.182 27.8748C391.277 27.9297 391.384 27.9612 391.493 27.9666C392.374 28.1172 393.273 28.0636 394.118 27.8101C394.963 27.5567 395.73 27.1105 396.358 26.5071L396.399 26.4368ZM572.183 -18.8891C572.51 -18.7002 573.006 -18.1323 573.186 -18.7791C573.362 -19.301 573.398 -19.8624 573.29 -20.4096C573.181 -20.9568 572.932 -21.4715 572.567 -21.904C572.021 -22.2188 570.8 -22.0331 570.547 -21.4283C569.969 -19.839 571.886 -19.7173 572.288 -18.7347L572.183 -18.8891Z" fill="#2665D6"/>
<path d="M275.805 -46.3213L289.531 -42.5118L289.24 -42.1041C290.641 -41.1437 292.105 -40.2778 293.622 -39.5122C294.058 -39.3222 294.935 -40.1265 295.706 -40.5287C297.148 -38.8138 301.546 -37.6911 303.883 -38.8529C306.358 -40.0707 308.7 -41.5621 311.193 -42.763C312.017 -43.0192 312.909 -42.9513 313.685 -42.5732C315.921 -41.5677 318.156 -41.3946 320.571 -41.0818C325.422 -40.3833 330.172 -39.108 334.721 -37.2833C336.252 -36.6912 336.957 -34.0604 338.153 -32.4349C338.885 -31.4295 339.198 -28.6757 341.187 -31.7926C342.26 -33.4684 347.011 -33.2168 348.682 -31.6137C350.604 -29.7704 352.253 -27.6422 354.081 -25.6984C354.986 -24.7432 356.031 -23.9219 357.311 -22.7712L353.913 -22.1066C358.132 -21.224 361.687 -20.7883 365.023 -19.6878C367.695 -18.8053 370.925 -18.1797 371.696 -14.5768C371.763 -14.2808 372.171 -13.8117 372.389 -13.8284C374.183 -13.9457 375.994 -12.5493 377.106 -12.6052C379.956 -12.7448 380.661 -10.46 382.399 -9.47129C383.282 -8.96856 384.075 -8.35429 385.098 -7.69516C383.583 -5.85742 384.383 -4.49442 386.149 -3.87998C388.859 -2.93039 388.306 -1.12068 387.965 0.895815C387.853 1.5326 388.356 2.70586 388.893 2.94605C390.64 3.74258 392.469 4.34557 394.347 4.74455C397.142 5.30313 396.723 8.04596 397.907 9.67144C399.584 12.0063 400.752 14.7434 402.283 17.2123C402.73 17.9441 403.686 18.3574 404.72 19.1562C404.452 19.4523 403.971 19.9995 403.496 20.5358C405.91 24.4459 408.23 28.3559 407.235 33.3273C407.09 34.0702 407.526 34.9194 407.637 35.7294C407.861 37.3549 408.727 39.3041 408.14 40.5554C406.017 45.0241 408.889 48.1522 410.56 51.6322C411.164 52.8778 411.946 54.0455 412.472 55.3246C412.639 55.738 412.231 56.3857 412.092 56.9275C411.566 56.7097 410.84 56.6372 410.555 56.2462C409.899 55.234 409.311 54.1798 408.794 53.0903C406.793 55.8832 406.877 56.4416 409.219 57.5197L407.766 58.827C408.671 59.0504 409.51 59.0727 410.13 59.4469C411.376 60.2066 412.924 60.9104 413.589 62.0778C415.484 65.4573 415.897 69.2443 415.663 73.1042C415.604 74.0353 415.626 74.9698 415.73 75.8971C415.903 77.45 415.428 78.0924 413.723 77.9751C411.248 77.802 410.745 78.6398 411.454 80.8742C411.717 81.7009 411.41 82.6951 411.566 83.5776C411.79 84.8121 412.198 86.0189 412.65 87.7002L409.61 91.8001C408.917 97.0788 408.135 103.374 405.698 109.312C403.066 115.696 400.283 122.025 397.756 128.449C397.164 130.001 397.009 131.686 397.309 133.32C398.857 140.738 395.281 145 388.468 148.698C387.474 149.182 386.611 149.898 385.953 150.787C382.097 156.931 378.067 162.953 374.642 169.315C371.166 175.756 368.904 182.78 367.968 190.039C367.533 193.39 365.454 196.501 364.146 199.736C363.902 200.318 363.749 200.934 363.693 201.562C363.52 204.5 363.403 207.45 363.28 209.941C365.951 212.51 368.913 214.868 371.249 217.761C373.876 220.984 373.753 224.732 371.903 228.497C370.349 231.648 369.047 234.921 367.65 238.144C367.175 239.209 366.977 240.377 367.075 241.539C367.172 242.701 367.562 243.82 368.209 244.791C370.86 249.285 372.438 254.329 372.82 259.532C372.892 260.403 374.261 261.504 375.262 261.895C377.318 262.699 379.582 262.956 381.666 263.688C391.106 266.989 393.828 273.927 393.146 283.507C393.079 284.434 392.922 285.35 392.766 286.266C391.682 292.444 393.325 297.209 398.153 301.789C404.01 307.308 409.387 313.262 415.897 318.161C419.893 321.178 422.816 325.591 426.371 329.232C436.285 339.41 446.647 349.09 457.914 357.793C467.321 365.094 475.643 373.693 482.632 383.332C487.746 390.331 491.893 398.039 496.459 405.44C499.527 410.4 502.607 415.35 505.596 420.366C506.489 421.87 507.186 423.483 507.67 425.164C511.241 437.453 515.013 449.647 518.166 462.03C520.675 471.895 522.955 481.888 524.341 491.965C525.984 503.891 526.817 515.951 527.51 527.983C527.996 536.311 527.65 544.69 527.672 553.046H150.315C149.46 549.756 148.74 546.422 147.717 543.176C144.425 532.714 142.81 522.034 143.453 511.063C143.702 507.062 142.932 503.063 141.217 499.439C139.635 496.043 140.099 493.507 143.313 491.434C148.466 488.083 149.785 483.329 149.181 477.716C147.868 465.628 146.107 453.579 145.196 441.463C144.637 433.716 144.934 425.857 145.386 418.081C145.906 409.283 147.029 400.519 147.896 391.744C148.618 384.145 150.7 376.738 154.043 369.875C155.904 366.065 157.821 362.278 159.761 358.508C162.51 353.14 167.585 350.235 172.179 346.778C177.65 342.661 183.082 338.471 188.693 334.544C191.851 332.267 195.219 330.297 198.753 328.663C207.634 324.702 216.687 321.122 225.624 317.29C231.581 314.732 237.455 311.983 243.385 309.363C245.313 308.514 245.805 307.403 245.341 305.202C244.782 302.638 245.139 299.896 244.938 297.242C244.821 295.65 244.698 293.947 244.061 292.522C242.384 288.796 242.233 285.216 244.111 281.552C245.888 278.088 247.593 274.586 249.454 270.838C246.017 268.296 243.144 265.358 243.049 260.901C242.971 257.303 241.932 254.097 240.607 250.768C239.417 247.779 239.445 244.305 238.886 240.713L234.364 241.456C227.898 242.518 221.426 242.937 215.022 241.116C206.767 238.77 202.168 233.111 200.424 224.866C199.429 220.158 198.434 215.432 197.149 210.795C196.73 209.298 195.579 207.869 194.433 206.74C191.829 204.171 190.152 201.003 190.521 197.563C191.08 192.748 189.772 188.352 188.682 183.9C186.782 176.152 184.178 168.572 182.495 160.785C179.925 148.86 180.662 137.157 186.681 126.187C186.95 125.701 187.196 125.198 187.419 124.69C188.336 122.617 190.035 120.489 186.894 118.875C189.073 115.227 189.073 115.227 186.117 113.434C186.486 112.714 186.866 111.976 187.397 110.954C184.999 111.01 182.434 112.166 181.461 109.239C181.299 108.748 182.328 107.859 182.808 107.15C180.685 105.659 180.891 104.234 183.63 102.547C183.278 98.6371 182.596 94.727 182.708 90.884C182.815 88.4139 183.571 86.0157 184.899 83.9298C188.151 78.9025 189.045 73.2495 190.303 67.6637C191.834 60.888 193.097 54.0452 194.696 47.292C195.445 44.1415 196.819 41.1475 197.797 38.0417C197.976 37.4552 197.607 36.7012 197.104 36.1538C197.507 34.8635 197.837 33.5564 198.317 32.2996C198.798 31.0428 199.127 29.5067 200.038 28.6688C202.743 26.1217 203.14 24.7586 200.228 22.1221C198.194 20.3011 195.444 19.2119 192.918 18.0109C188.833 16.0727 187.849 13.2239 190.035 9.20205C190.42 8.48706 190.549 7.63238 190.94 6.92297C191.383 6.02523 191.947 5.19277 192.617 4.44861C194.092 2.96836 195.69 1.61094 197.25 0.192129L195.081 -3.15938L195.707 -3.94135L199.005 -1.80765C203.068 -4.45535 205.236 -8.1084 204.286 -9.38756L207.667 -14.1243C208.025 -17.1407 208.382 -20.1571 208.751 -23.2573C206.37 -23.1847 205.398 -21.4419 205.644 -19.4255C205.867 -17.6045 206.963 -15.8839 207.673 -14.1243C204.839 -15.0795 204.264 -17.4089 204.448 -19.9281C204.627 -22.3412 206.03 -24.0001 208.449 -24.7263C212.116 -25.8435 215.765 -27.011 219.426 -28.1337C220.074 -28.2425 220.73 -28.3058 221.387 -28.3235L219.873 -27.1562L220.029 -26.6366L225.68 -27.888L227.915 -24.1734L228.927 -24.732L227.529 -27.3741L230.324 -29.9827L233.554 -29.2342L233.934 -29.9044L232.017 -31.7255L232.235 -32.217L235.901 -30.7199C237.142 -32.3957 238.422 -34.3564 239.936 -36.1047C240.691 -36.965 241.825 -37.8698 242.887 -38.0151C245.33 -38.3502 247.844 -38.0988 250.304 -38.3669C251.328 -38.5381 252.246 -39.1011 252.863 -39.9366C254.618 -42.5172 257.334 -42.8077 260.179 -43.7517C259.312 -41.8414 259.966 -41.121 261.431 -41.4058C263.023 -41.7187 264.549 -42.372 265.952 -42.277C266.785 -42.1094 267.908 -41.5229 268.4 -41.8581C269.997 -43.0669 271.518 -44.3727 272.955 -45.7682C272.994 -45.1537 273.044 -44.5395 273.094 -43.9307L276.207 -44.7964L275.805 -46.3213Z" fill="#254F1A"/>
<path fill-rule="evenodd" clip-rule="evenodd" d="M326.017 137.783L50.6924 119.323L8.99987 408.089L68.0294 412.046C67.9786 411.607 67.9335 411.165 67.8884 410.724C67.7878 409.739 67.6871 408.754 67.5223 407.782C66.7548 403.246 66.7182 398.666 67.6656 394.028C68.0174 392.336 67.9334 390.616 67.4214 389.029C66.9527 387.542 67.3067 386.478 68.8089 385.691C71.2195 384.416 72.0753 382.436 72.1611 380.035C72.2228 378.252 72.2614 376.469 72.3 374.686C72.3734 371.301 72.4467 367.917 72.6778 364.532C72.9134 361.227 73.5219 357.899 74.1922 354.611C74.7266 352.001 75.3871 349.407 76.0474 346.814C76.3283 345.71 76.6092 344.607 76.8804 343.503C77.655 340.298 79.0002 337.213 80.8516 334.395C81.8816 332.832 82.934 331.279 83.995 329.734C85.232 327.927 87.0384 326.871 88.8513 325.81C89.2453 325.58 89.6396 325.349 90.0284 325.111C90.5592 324.785 91.0895 324.458 91.62 324.131C93.6814 322.861 95.7444 321.589 97.8457 320.391C99.3365 319.515 100.899 318.776 102.511 318.183C104.941 317.326 107.388 316.529 109.836 315.732C111.462 315.203 113.087 314.673 114.708 314.126C116.323 313.58 117.93 313.004 119.537 312.428C120.622 312.04 121.707 311.651 122.794 311.271C123.671 310.966 123.95 310.508 123.886 309.561C123.835 308.875 123.94 308.169 124.045 307.462C124.109 307.031 124.173 306.599 124.202 306.17L124.203 306.16C124.25 305.484 124.3 304.761 124.116 304.141C123.627 302.511 123.782 300.987 124.81 299.486C125.514 298.458 126.203 297.421 126.919 296.344C127.192 295.933 127.47 295.515 127.753 295.091C126.438 293.913 125.389 292.583 125.621 290.688C125.808 289.159 125.56 287.768 125.197 286.317C124.972 285.42 125.009 284.442 125.047 283.416C125.065 282.953 125.083 282.479 125.077 281.999L123.096 282.185C120.264 282.45 117.469 282.442 114.839 281.485C111.451 280.253 109.829 277.719 109.588 274.169L109.584 274.1C109.448 272.095 109.312 270.084 109.049 268.101C108.961 267.454 108.556 266.814 108.135 266.302C107.178 265.136 106.655 263.744 107.024 262.294C107.502 260.479 107.32 258.764 107.137 257.047C107.116 256.845 107.095 256.643 107.074 256.441C106.927 254.99 106.722 253.549 106.516 252.108C106.248 250.229 105.981 248.35 105.843 246.451C105.474 241.315 106.507 236.368 109.755 231.884C109.9 231.685 110.036 231.479 110.163 231.269C110.236 231.149 110.316 231.028 110.396 230.908C110.882 230.176 111.363 229.452 110.294 228.786C111.451 227.3 111.451 227.3 110.295 226.454C110.497 226.158 110.705 225.856 110.995 225.438C110.771 225.428 110.541 225.44 110.315 225.452C109.502 225.494 108.745 225.534 108.56 224.539C108.533 224.394 108.756 224.185 108.979 223.976C109.082 223.879 109.186 223.782 109.265 223.691C108.447 222.997 108.623 222.398 109.898 221.761C109.925 221.267 109.939 220.773 109.953 220.279C109.986 219.102 110.019 217.93 110.218 216.783C110.416 215.738 110.886 214.741 111.582 213.894C113.059 212.122 113.803 210.098 114.55 208.067C114.663 207.759 114.776 207.451 114.892 207.144C115.367 205.887 115.82 204.624 116.273 203.36C116.842 201.776 117.41 200.191 118.021 198.622C118.334 197.82 118.743 197.049 119.152 196.277C119.414 195.783 119.677 195.288 119.915 194.784C120.027 194.54 119.916 194.209 119.734 193.963C119.814 193.792 119.891 193.62 119.968 193.448C120.133 193.081 120.297 192.715 120.489 192.361C120.555 192.241 120.617 192.115 120.681 191.987C120.892 191.562 121.109 191.123 121.448 190.869C122.762 189.866 123.016 189.298 121.931 188.096C121.3 187.404 120.426 186.913 119.57 186.433C119.397 186.336 119.224 186.239 119.055 186.141C117.425 185.201 117.179 183.963 118.36 182.319C118.464 182.174 118.542 182.013 118.62 181.853C118.701 181.688 118.781 181.524 118.888 181.377C119.132 181.009 119.425 180.671 119.757 180.375C120.268 179.96 120.801 179.574 121.336 179.186C121.558 179.025 121.78 178.864 122 178.701L121.278 177.216L121.594 176.902L122.874 177.902C124.775 176.895 125.927 175.406 125.599 174.836L127.336 172.922L127.336 172.921C126.184 172.434 126.081 171.429 126.314 170.366C126.539 169.347 127.241 168.683 128.321 168.444C129.197 168.246 130.073 168.043 130.948 167.839C131.707 167.662 132.467 167.485 133.227 167.312C133.511 167.285 133.796 167.277 134.078 167.288L133.358 167.74L133.393 167.965L135.888 167.596L136.617 169.237L137.084 169.029L136.648 167.867L138.004 166.84L139.341 167.251L139.544 166.977L138.836 166.149L138.959 165.947L140.436 166.687C140.625 166.486 140.817 166.274 141.013 166.057C141.475 165.546 141.963 165.008 142.493 164.517C142.869 164.174 143.41 163.822 143.873 163.791C144.438 163.753 145.002 163.785 145.566 163.817C146.066 163.846 146.566 163.875 147.068 163.854C147.517 163.811 147.945 163.598 148.26 163.261C148.993 162.418 149.903 162.226 150.896 162.015C151.135 161.965 151.378 161.913 151.624 161.852C151.137 162.638 151.372 162.962 152.016 162.883C152.251 162.854 152.484 162.809 152.713 162.764C153.169 162.675 153.609 162.59 154.005 162.643C154.113 162.673 154.23 162.721 154.348 162.768C154.607 162.874 154.868 162.98 155.027 162.891C155.784 162.424 156.515 161.913 157.215 161.362C157.195 161.624 157.178 161.886 157.163 162.146L158.548 161.868L158.469 161.209L164.11 163.22L163.96 163.385C164.501 163.833 165.074 164.242 165.677 164.611C165.795 164.674 166.029 164.549 166.279 164.415C166.396 164.352 166.517 164.287 166.631 164.239C167.143 165.009 168.956 165.611 170.027 165.185C170.574 164.97 171.111 164.728 171.649 164.485C172.226 164.223 172.805 163.962 173.395 163.735C173.764 163.65 174.141 163.704 174.45 163.887C175.235 164.317 176.058 164.476 176.932 164.645C177.056 164.669 177.18 164.693 177.306 164.718C179.339 165.154 181.294 165.831 183.129 166.736C183.531 166.928 183.731 167.476 183.935 168.035C184.045 168.336 184.156 168.64 184.3 168.893C184.355 168.991 184.396 169.124 184.438 169.258C184.588 169.739 184.744 170.242 185.559 169.253C186.121 168.572 188.139 168.815 188.756 169.544C189.186 170.051 189.566 170.601 189.947 171.15C190.195 171.507 190.442 171.864 190.703 172.21C190.924 172.499 191.174 172.764 191.459 173.065C191.599 173.214 191.749 173.371 191.906 173.545L190.411 173.73C190.963 173.886 191.489 174.021 191.993 174.151C193.091 174.433 194.086 174.69 195.018 175.075C195.131 175.122 195.246 175.168 195.362 175.214C196.372 175.613 197.462 176.045 197.56 177.436C197.571 177.564 197.717 177.775 197.811 177.774C198.248 177.775 198.657 177.98 199.017 178.16C199.296 178.3 199.545 178.425 199.755 178.429C200.568 178.444 200.914 178.883 201.253 179.315C201.426 179.535 201.597 179.752 201.828 179.911C202.038 180.055 202.231 180.216 202.44 180.389C202.575 180.502 202.717 180.62 202.874 180.742C202.113 181.479 202.372 182.081 203.09 182.392C204.11 182.837 203.887 183.515 203.635 184.285C203.615 184.346 203.594 184.409 203.574 184.472C203.487 184.739 203.631 185.251 203.846 185.368C204.545 185.757 205.29 186.065 206.07 186.288C206.843 186.5 206.948 187.082 207.051 187.661C207.103 187.951 207.155 188.24 207.291 188.482C207.629 189.093 207.883 189.759 208.138 190.425C208.316 190.892 208.494 191.359 208.702 191.809C208.799 192.023 209 192.185 209.24 192.377C209.361 192.474 209.493 192.58 209.625 192.704C209.533 192.786 209.388 192.917 209.229 193.062C209.16 193.125 209.089 193.19 209.017 193.255C209.811 194.984 210.564 196.71 209.833 198.792C209.764 198.99 209.794 199.214 209.824 199.44C209.842 199.568 209.859 199.698 209.858 199.823C209.857 200.036 209.879 200.263 209.902 200.491C209.954 201.009 210.005 201.529 209.778 201.886C208.826 203.363 209.311 204.564 209.799 205.772C209.917 206.065 210.036 206.359 210.134 206.658C210.209 206.882 210.297 207.102 210.386 207.321C210.513 207.636 210.64 207.951 210.726 208.28C210.758 208.403 210.668 208.564 210.579 208.726C210.537 208.802 210.495 208.878 210.465 208.95C210.399 208.916 210.323 208.888 210.248 208.86C210.082 208.798 209.916 208.736 209.849 208.617C209.631 208.168 209.443 207.704 209.289 207.226C208.262 208.355 208.263 208.594 209.199 209.119L208.497 209.632C208.619 209.671 208.739 209.702 208.854 209.73C209.092 209.79 209.308 209.844 209.471 209.963C209.564 210.032 209.662 210.099 209.761 210.168C210.18 210.459 210.618 210.763 210.79 211.179C211.394 212.668 211.339 214.288 211.002 215.919C210.919 216.313 210.872 216.71 210.859 217.107C210.838 217.771 210.596 218.03 209.873 217.932C208.824 217.787 208.558 218.128 208.725 219.097C208.759 219.295 208.716 219.509 208.672 219.724C208.637 219.9 208.601 220.078 208.607 220.248C208.62 220.608 208.671 220.964 208.73 221.383C208.759 221.582 208.789 221.795 208.818 222.029L207.266 223.682L207.219 223.851C206.609 226.037 205.89 228.615 204.518 231.004C203.957 231.979 203.387 232.95 202.817 233.921C201.846 235.574 200.876 237.228 199.947 238.9C199.598 239.542 199.428 240.253 199.457 240.955C199.665 244.149 197.873 245.855 194.731 247.229C194.275 247.406 193.862 247.686 193.526 248.044C193.051 248.63 192.572 249.213 192.093 249.795C190.53 251.696 188.97 253.593 187.55 255.585C185.667 258.22 184.269 261.137 183.424 264.191C183.158 265.149 182.574 266.038 181.989 266.928C181.713 267.349 181.437 267.769 181.194 268.198C181.054 268.438 180.95 268.695 180.888 268.96C180.715 269.804 180.553 270.651 180.403 271.437C180.332 271.809 180.263 272.167 180.197 272.505C180.494 272.857 180.804 273.201 181.114 273.546C181.832 274.346 182.554 275.148 183.129 276.054C184.055 277.497 183.773 279.085 182.75 280.63C182.13 281.565 181.562 282.53 180.994 283.496C180.777 283.865 180.559 284.235 180.339 284.603C180.07 285.042 179.914 285.532 179.885 286.028C179.855 286.524 179.954 287.01 180.171 287.441C181.03 289.425 181.396 291.611 181.241 293.831C181.218 294.203 181.737 294.709 182.141 294.904C182.586 295.118 183.066 295.268 183.546 295.418C183.962 295.547 184.378 295.677 184.772 295.849C188.609 297.521 189.349 300.544 188.47 304.592C188.384 304.983 188.261 305.368 188.138 305.752C187.295 308.344 187.706 310.413 189.492 312.496C190.132 313.237 190.751 313.992 191.37 314.747C192.85 316.553 194.329 318.358 196.082 319.956C197.054 320.845 197.805 321.962 198.557 323.082C198.986 323.719 199.415 324.358 199.886 324.956C203.505 329.561 207.346 333.968 211.634 337.985C215.212 341.355 218.247 345.244 220.647 349.536C221.875 351.711 222.88 354.019 223.885 356.328C224.32 357.328 224.756 358.328 225.209 359.318C225.331 359.582 225.453 359.847 225.574 360.111C226.462 362.04 227.35 363.968 228.205 365.916C228.495 366.581 228.694 367.285 228.798 368.013C228.994 369.358 229.196 370.702 229.398 372.045C229.994 376.01 230.59 379.97 231.03 383.964C231.499 388.224 231.863 392.531 231.838 396.849C231.81 401.959 231.428 407.102 230.987 412.23C230.777 414.689 230.395 417.148 230.013 419.606C229.844 420.695 229.674 421.784 229.52 422.874L284.324 426.548L326.017 137.783ZM127.337 172.918L127.369 172.798C127.696 171.569 128.023 170.339 128.36 169.076C127.336 169.039 126.813 169.751 126.795 170.614C126.784 171.155 126.956 171.688 127.128 172.22C127.203 172.453 127.278 172.685 127.337 172.918Z" fill="#D717E7"/>
</g>
<defs>
<clipPath id="clip0_181_30849">
<rect width="600" height="376" fill="white"/>
</clipPath>
</defs>
</svg>
