<svg width="343" height="200" viewBox="0 0 343 200" fill="none" xmlns="http://www.w3.org/2000/svg">
<g clip-path="url(#clip0_181_31253)">
<path d="M387.673 199.268L387.136 213.423L140.227 210.638L167.725 134.995C179.512 118.333 206.899 84.5561 222.157 82.7434C237.415 80.9306 249.964 84.7957 254.331 86.9548C263.216 88.9347 282.547 93.4079 288.785 95.4609C295.024 97.5138 326.8 104.268 341.909 107.389C344.095 109.225 348.44 113.617 348.331 116.492C348.194 120.086 362.472 125.279 362.185 132.854C361.954 138.913 366.896 147.41 369.395 150.901L388.059 189.095L387.673 199.268Z" fill="#1E2330"/>
<path d="M340.173 10.4323C340.873 10.2395 341.536 9.93453 342.14 9.52851C342.542 9.21689 343.04 9.06314 343.547 9.0944C343.934 9.16388 344.409 9.17925 344.49 9.69416C344.57 10.2091 344.025 10.1345 343.73 10.2794C343.02 10.5277 342.343 10.8634 341.714 11.2793C341.329 11.6408 341.247 11.8821 341.789 12.2006C342.613 12.6039 343.349 13.1759 343.953 13.8809C344.095 14.0573 344.294 14.1752 344.513 14.2123C344.731 14.2494 344.954 14.203 345.138 14.0819C345.639 13.9274 345.352 13.5034 345.142 13.1632C344.933 12.823 345.134 12.5449 345.56 12.6563C345.776 12.6875 345.981 12.7724 346.159 12.9034C347.163 13.6191 348.322 14.0714 349.342 14.755C350.118 15.3949 351.007 15.8736 351.957 16.164C352.907 16.4543 353.9 16.5505 354.879 16.4471C355.785 16.1675 356.238 17.2963 356.334 17.8605C356.381 18.2062 356.509 18.5366 356.707 18.8234C356.905 19.1101 357.166 19.3448 357.469 19.5074C357.822 19.7644 358.154 20.0498 358.463 20.361C358.822 20.7874 359.305 21.0845 359.838 21.2075C360.37 21.3304 360.924 21.2724 361.416 21.0422C361.702 20.9539 362.181 20.6442 362.296 20.9326C362.411 21.2209 361.902 21.432 361.646 21.6189C361.11 22.1244 360.759 22.8031 360.647 23.5462C360.546 24.0634 362.673 24.8643 363.232 24.5571C363.811 24.2527 364.31 23.8123 364.689 23.2708C364.916 22.9041 365.06 22.7787 365.442 23.2546C365.824 23.7304 366.783 23.6234 367.444 23.3114C368.105 22.9995 368.92 22.4241 369.654 22.0088C369.869 21.9426 370.226 21.8322 370.344 21.958C370.461 22.0838 370.195 22.4086 370.02 22.5168C368.648 23.3179 368.144 24.9036 366.975 25.939C366.727 26.1505 366.769 26.5422 366.82 26.8772C366.907 27.1975 366.956 27.5268 366.966 27.8578C367.016 29.5426 367.016 29.5426 368.703 29.5079C369.471 29.4238 370.25 29.5878 370.931 29.9771C371.613 30.3664 372.164 30.9617 372.507 31.6805C373.491 33.4603 374.183 35.3897 374.556 37.3904C374.625 37.6122 374.739 37.9818 374.484 38.0874C374.229 38.1929 374.036 37.8208 373.96 37.5743C373.768 36.8564 373.378 36.2079 372.836 35.7082C372.293 35.0188 371.954 34.1856 371.861 33.3103C371.77 33.0146 371.603 32.4725 371.293 32.5681C370.983 32.6638 371.262 33.1445 371.329 33.4475C371.77 34.8768 372.529 36.1537 372.963 37.5582C373.176 38.5259 373.748 39.3763 374.556 39.9274C374.887 40.2171 375.307 40.3752 375.738 40.3724C376.96 40.4113 378.163 40.7427 379.249 41.3401C379.548 41.4637 379.982 41.5997 379.866 41.9863C379.75 42.3728 379.341 42.1481 379.097 42.0345C377.503 41.6537 375.851 41.6642 374.275 42.0651C373.56 42.2859 373.264 42.5121 373.626 43.2638C373.717 43.5595 374.021 43.9516 373.67 44.1678C373.319 44.3841 373.102 44.0193 372.859 43.8244C372.616 43.6295 372.398 43.3459 372.147 43.1264C372.068 43.0424 371.973 42.9766 371.867 42.9339C371.762 42.8911 371.649 42.8723 371.537 42.8787C371.424 42.8852 371.315 42.9166 371.217 42.9711C371.118 43.0255 371.033 43.1014 370.967 43.1937C370.581 43.6366 371.172 43.8591 371.271 44.1795C371.563 44.5651 371.962 44.8504 372.414 44.9962C372.866 45.1419 373.348 45.1409 373.794 44.9932C374.8 44.9779 375.786 44.7291 376.678 44.2654C376.845 44.2139 377.107 44.133 377.175 44.3548C377.434 45.7862 378.393 45.0855 379.129 45.1012C379.32 45.0424 379.63 44.9467 379.699 45.1685C379.767 45.3902 379.449 45.4612 379.259 45.5201C378.389 45.7538 377.489 45.8587 376.586 45.8318C375.746 45.9022 374.504 45.8537 374.374 46.7033C374.244 47.553 375.438 47.6974 376.162 48.0137C376.461 48.1277 376.723 48.3284 376.915 48.5911C377.223 48.986 377.614 49.305 378.057 49.5237C378.5 49.7424 378.984 49.8551 379.472 49.8531C379.904 49.8273 380.336 49.917 380.728 50.1134C380.806 50.1506 380.875 50.204 380.931 50.2703C380.988 50.3367 381.03 50.4143 381.056 50.4981C381.139 50.7692 380.846 50.8328 380.623 50.8744C380.401 50.916 380.061 50.9131 379.774 51.0014C379.488 51.0897 379.178 51.1853 379.615 51.6711C380.053 52.1569 380.916 52.7542 380.839 53.8576C380.93 54.1533 381.685 54.568 382.115 54.9479C382.546 55.3278 382.499 55.2612 382.298 55.5393C382.096 55.8174 381.892 55.6644 381.711 55.5854C380.199 54.9183 378.46 54.6993 377.355 53.2322C377.211 53.0613 377.035 52.9226 376.837 52.8251C376.178 52.3809 375.357 51.5817 374.76 52.4406C374.163 53.2994 375.453 53.3332 375.787 53.8238C376.368 54.7552 377.259 55.441 378.288 55.7508C378.288 55.7508 378.334 55.8986 378.531 55.9457C378.729 55.9927 378.362 56.1598 378.243 56.1966C378.076 56.2728 377.9 56.3272 377.718 56.3585C377.432 56.4468 376.975 56.3181 376.946 56.7318C376.917 57.1456 377.31 57.321 377.578 57.4272C378.782 57.9419 379.933 58.5815 381.014 59.3358C381.193 59.4338 381.35 59.5692 381.476 59.733C381.346 59.989 381.071 59.8581 380.951 59.8949C380.093 59.4849 378.95 60.3504 378.148 59.2754C378.148 59.2754 377.967 59.1963 377.981 59.3269C377.235 60.124 376.274 59.7188 375.513 59.7916C375.37 59.8358 375.06 59.9314 375.06 59.9314C375.06 59.9314 375.343 60.087 375.501 60.0921C376.851 60.358 378.22 60.4869 379.59 60.4769C379.804 60.4972 380.014 60.5507 380.213 60.6354C380.394 60.7144 380.646 60.8527 380.595 61.1113C380.544 61.3698 380.291 61.3941 380.047 61.2805C378.517 61.0372 376.964 61.0252 375.439 61.2448C375.067 61.2246 374.68 61.1551 374.461 61.5465C374.242 61.9378 374.466 62.4086 374.667 62.8054C374.925 63.1776 375.294 63.453 375.718 63.5876C376.394 63.9186 377.137 64.0402 376.497 65.1823C376.133 65.7804 376.999 66.2151 377.437 66.6196C377.875 67.0242 378.558 67.461 379.067 67.9247C379.576 68.3885 379.669 68.5217 379.363 68.8858C379.058 69.2499 378.791 69.0624 378.485 68.8329C377.991 68.599 377.454 68.4788 376.914 68.4811C376.067 68.4455 375.795 68.6643 376.331 69.4705C376.377 69.6183 376.468 69.914 376.476 69.9387C376.483 69.9633 376.097 69.8126 375.939 69.8074C374.722 69.6594 373.597 69.0413 372.794 68.079C372.726 67.8573 372.253 67.6793 372.027 67.9647C371.802 68.2502 372.187 68.4822 372.263 68.7286C373.341 70.2725 374.11 72.0174 374.525 73.8599C374.594 74.0817 374.715 74.4759 374.398 74.5469C374.08 74.618 374.141 74.2215 374.096 73.9924C373.71 72.8692 373.066 71.8545 372.218 71.0366C371.568 70.3879 370.863 69.8014 370.11 69.2849C369.938 69.1492 369.655 68.9936 369.543 69.0551C369.431 69.1165 369.649 69.4 369.583 69.6093C369.517 69.8186 369.615 70.2203 369.166 70.0349C368.717 69.8496 368.382 69.4402 368.146 69.9448C367.91 70.4495 368.45 70.9306 368.755 71.2413C369.596 71.8224 370.479 72.335 371.396 72.7744C372.026 73.0388 372.088 73.1547 371.692 73.7355C370.895 75.001 369.984 76.1855 368.971 77.2739C368.142 78.0985 367.126 78.6992 366.011 79.0237C365.748 79.1047 365.51 79.1782 365.474 79.4861C365.455 79.6158 365.477 79.7492 365.537 79.8667C365.597 79.9842 365.691 80.0797 365.806 80.1393C366.45 80.6369 366.953 81.3025 367.262 82.0649C367.839 82.9341 368.64 83.6225 369.573 84.0508C370.45 84.6394 371.293 85.2804 372.098 85.9705C372.136 86.0937 372.371 86.264 372.355 86.296C372.339 86.328 372.069 86.3842 371.896 86.2485C370.877 86.0772 370.231 85.17 369.269 84.9273C368.953 84.8358 368.524 84.2933 368.264 84.8866C368.202 85.0014 368.164 85.1283 368.151 85.2597C368.139 85.3911 368.153 85.5241 368.192 85.6508C368.231 85.7775 368.294 85.8952 368.379 85.9968C368.463 86.0984 368.566 86.1818 368.682 86.2418C370.322 87.0922 371.739 88.3422 372.808 89.8805C373.151 90.3144 374.345 91.0525 372.646 91.3877C371.954 91.6011 371.959 93.1381 372.732 93.3584C373.505 93.5786 374.054 94.5966 374.552 95.2796C374.898 96.0196 375.395 96.6766 376.008 97.2052C376.33 97.4027 376.145 97.6488 375.891 97.6731L374.556 98.0851C374.174 98.2028 373.562 97.7439 373.483 98.4162C373.44 98.7328 373.507 99.057 373.673 99.3315C373.839 99.6061 374.093 99.8135 374.39 99.9175L375.96 100.351C376.189 100.415 376.545 100.386 376.525 100.743C376.505 101.1 376.173 101.041 375.951 101.082L375.831 101.119C373.937 101.245 373.961 101.237 374.81 102.972C375.659 104.708 376.684 106.847 377.594 108.779C377.659 108.973 377.76 109.152 377.893 109.306C378.026 109.46 378.187 109.585 378.366 109.674C379.864 110.211 380.965 111.409 382.414 112.042C382.745 112.183 383.287 112.501 383.052 112.925C382.817 113.348 382.387 112.887 382.088 112.763C379.963 111.785 377.663 111.297 375.352 111.333C375.114 111.407 374.745 111.143 374.613 111.561C374.588 111.689 374.595 111.821 374.634 111.946C374.673 112.071 374.741 112.184 374.833 112.276C375.729 113.722 376.759 115.076 377.909 116.319C378.371 116.717 378.847 117.326 377.681 117.442C377.095 117.488 377.136 117.961 377.258 118.356C377.531 119.243 377.948 120.086 378.246 120.965C378.322 121.212 378.466 121.68 378.307 121.756C378.147 121.832 377.979 121.371 377.879 121.132C377.246 119.184 376.12 117.435 374.619 116.066C374.418 115.911 374.202 115.779 373.974 115.671C373.867 116.001 374.111 116.115 374.339 116.26C374.928 117.239 375.565 118.203 376.107 119.196C376.206 119.517 376.556 119.975 376.157 120.206C375.758 120.437 375.686 119.866 375.483 119.632C374.511 118.128 373.112 116.965 371.48 116.306C371.22 116.224 370.963 115.899 370.69 116.199C370.416 116.499 370.651 116.751 370.734 117.022C371.216 117.905 371.517 118.879 371.616 119.88C371.692 120.127 371.814 120.521 371.401 120.621C370.988 120.722 370.986 120.291 370.949 120.086C370.637 119.19 370.041 118.422 369.258 117.909C368.64 117.344 368.254 117.787 367.854 118.099C367.454 118.412 367.647 118.865 367.983 119.193C368.757 119.926 369.408 121.02 370.315 121.334C371.222 121.648 372.531 122.675 373.799 122.553C375.068 122.432 376.927 123.126 378.537 122.926C378.68 122.882 378.895 122.816 378.93 123.183C378.965 123.55 378.697 123.444 378.561 123.513C377.152 124.196 375.528 124.281 374.037 123.748C373.36 123.498 372.665 123.281 371.971 123.063C371.277 122.845 371.304 122.594 371.156 123.045C371.008 123.495 371.537 123.602 371.861 123.637C373.353 123.965 374.82 124.415 376.246 124.983L376.861 125.198C377.098 125.287 377.342 125.4 377.361 125.718C377.344 125.847 377.294 125.969 377.214 126.069C377.135 126.17 377.03 126.246 376.911 126.289C376.617 126.466 376.285 126.57 375.943 126.591C375.6 126.613 375.256 126.551 374.937 126.412C372.879 125.822 370.766 125.478 368.64 125.386C367.739 125.259 367.793 125.944 368.097 126.336C369.195 127.779 369.845 129.629 371.679 130.413C372.435 130.746 373.111 131.159 372.868 132.232C372.868 132.232 372.974 132.577 373.027 132.75C373.081 132.922 373.716 133.374 373.339 133.76C372.962 134.146 372.528 134.01 372.103 133.817C372.03 133.811 371.96 133.786 371.898 133.746C371.519 133.701 371.131 133.038 370.896 133.461C370.661 133.884 371.307 134.117 371.588 134.435C371.869 134.753 372.121 134.891 371.943 135.162C371.766 135.433 371.461 135.122 371.201 135.04C370.94 134.959 370.808 134.784 370.602 134.793C370.396 134.803 369.388 134.412 369.072 134.914C368.757 135.416 369.338 135.777 369.721 136.171C369.995 136.518 370.247 136.882 370.475 137.261C370.62 137.729 371.104 138.282 370.114 138.29C370.069 138.282 370.023 138.284 369.979 138.295C369.935 138.306 369.894 138.327 369.858 138.356C369.823 138.384 369.794 138.421 369.773 138.462C369.752 138.503 369.74 138.549 369.738 138.595C369.467 139.92 368.845 139.087 368.517 138.702C367.956 137.985 367.539 137.142 367.065 136.451C366.591 135.761 366.382 136.014 366.183 136.723C365.984 137.433 366.268 138.694 366.367 139.689C366.465 140.01 366.625 140.527 366.22 140.652C365.814 140.777 365.663 140.203 365.533 139.866C365.403 139.528 365.176 138.707 364.641 138.414C364.537 138.404 364.435 138.435 364.355 138.502C364.316 138.796 364.341 139.097 364.429 139.383C364.517 139.669 364.666 139.932 364.864 140.153C365.707 141.746 366.713 143.246 367.863 144.625C368.006 144.714 368.114 144.854 368.164 145.018C368.215 145.182 368.205 145.358 368.137 145.512C367.951 145.84 367.636 145.667 367.361 145.536C367.085 145.405 366.704 145.523 366.454 145.815C365.843 146.544 365.197 146.905 364.401 146.017C364.348 145.845 364.066 145.608 363.849 145.837C363.84 145.92 363.847 146.005 363.872 146.086C363.897 146.166 363.939 146.241 363.994 146.305C364.536 147.217 364.64 148.399 365.493 149.134C365.608 149.227 365.699 149.348 365.758 149.485C365.963 150.15 366.728 151.02 366.002 151.46C365.276 151.9 365.148 150.725 364.743 150.257C364.166 149.5 363.529 148.793 362.838 148.146C362.257 147.704 362.122 148.366 362.078 148.731C362.197 150.33 361.759 151.91 360.841 153.188C360.278 153.901 360.123 153.652 359.781 153.137C359.117 152.115 358.352 151.166 357.497 150.306C356.711 149.598 355.751 149.127 354.727 148.948C353.812 148.69 353.443 149.101 353.66 150.06C353.766 150.405 353.88 150.774 353.987 151.119C354.093 151.464 354.368 151.676 354.017 151.893C353.665 152.109 353.447 151.825 353.245 151.591C353.042 151.357 352.708 150.785 352.412 150.418C352.357 150.349 352.287 150.294 352.207 150.257C352.128 150.221 352.042 150.204 351.956 150.208C351.765 150.267 351.77 150.454 351.752 150.648C351.739 151.528 352.006 152.393 352.512 153.112C352.815 153.586 353.109 154.116 352.612 154.62C352.115 155.124 351.622 154.629 351.15 154.369C350.713 154.104 350.374 153.694 350.191 153.208C349.698 152.119 349.166 151.069 348.633 150.019C348.473 149.501 347.978 149.168 347.398 149.32C346.818 149.472 346.661 149.979 346.694 150.509C346.75 151.706 346.878 152.881 346.981 154.063C347.014 154.187 347.07 154.303 347.146 154.404C347.222 154.506 347.317 154.591 347.425 154.655C347.629 154.808 348.088 154.855 347.972 155.242C347.856 155.629 347.447 155.404 347.185 155.485C346.923 155.566 346.543 155.521 346.45 155.981C346.428 156.183 346.359 156.375 346.248 156.541C346.138 156.707 345.989 156.843 345.815 156.936C345.641 157.03 345.447 157.078 345.25 157.077C345.052 157.077 344.857 157.027 344.68 156.932C343.302 156.583 342.072 155.763 341.194 154.607C341.118 154.361 340.876 154.085 340.59 154.173C340.304 154.261 340.378 154.67 340.406 154.931C340.469 155.38 340.431 155.835 340.294 156.261C340.155 156.655 339.874 156.931 339.481 156.674C339.089 156.417 338.675 156.599 338.39 157.2C337.754 158.61 337.6 160.142 337.138 161.607C337.007 161.945 336.93 162.373 336.455 162.358C335.98 162.342 335.977 161.992 335.799 161.669C335.213 160.447 334.715 160.358 333.784 161.32C333.447 161.666 333.172 162.129 332.85 162.525C332.774 162.673 332.643 162.782 332.487 162.83C332.331 162.878 332.162 162.861 332.016 162.783C331.717 162.578 331.841 162.216 331.772 161.994C331.704 161.772 332.033 161.401 332.172 161.088C332.31 160.776 332.55 160.027 331.784 159.832C331.019 159.636 331.263 159.075 331.404 158.6C331.545 158.124 331.761 157.896 331.479 157.659C331.197 157.422 330.907 157.835 330.621 157.924C330.335 158.012 330.18 158.356 329.953 158.13C329.726 157.903 329.984 157.553 330.129 157.347C330.989 155.899 331.379 154.202 331.245 152.496C331.219 151.991 331.3 151.237 330.834 151.165C330.368 151.093 330.232 151.837 330.178 152.339C330.109 153.265 329.852 154.163 329.423 154.974C329.188 155.397 328.883 155.761 328.469 155.268C328.056 154.775 327.959 154.967 327.625 155.07C327.291 155.173 327.172 155.21 326.991 155.13C324.711 154.43 323.775 155.799 323.063 157.638C322.973 157.854 322.911 158.332 322.549 158.174C322.187 158.016 322.42 157.755 322.566 157.467C322.601 157.102 322.705 156.749 322.872 156.428C323.67 155.372 323.048 155.051 322.149 154.762C321.016 154.262 319.806 153.986 318.581 153.947C317.86 153.857 317.173 153.565 316.596 153.102C316.282 152.929 315.959 152.813 315.67 153.064C315.382 153.315 315.599 153.679 315.69 153.975C315.934 154.519 316.314 154.989 316.79 155.336C317.4 155.876 318.011 156.417 318.581 156.996C319.376 157.679 319.964 158.58 320.276 159.591C320.588 160.601 320.609 161.677 320.338 162.688C320.228 163.295 320.266 163.923 320.449 164.516C320.632 165.11 320.954 165.65 321.387 166.089C322.11 166.868 322.571 167.863 322.7 168.923C322.829 169.983 322.62 171.052 322.103 171.967C321.927 172.333 321.899 172.759 322.025 173.152C322.321 174.458 322.4 175.802 322.259 177.128C322.239 177.569 322.374 178.006 322.639 178.36C323.121 179.455 323.352 180.646 323.312 181.838C323.272 183.031 322.963 184.192 322.409 185.232C322.142 185.827 321.703 186.322 321.152 186.651C320.601 186.98 319.962 187.128 319.321 187.075C318.876 187.037 318.432 187.122 318.034 187.321C317.636 187.52 317.299 187.825 317.058 188.205C316.802 188.626 316.445 188.972 316.022 189.211C315.598 189.45 315.12 189.575 314.633 189.574C313.983 189.57 313.348 189.754 312.8 190.104C312.253 190.454 311.815 190.957 311.536 191.555C310.767 192.344 309.799 192.898 308.736 193.154C307.672 193.411 306.555 193.361 305.507 193.01C305.19 192.921 304.885 192.788 304.602 192.615C303.839 192.175 303.047 191.556 303.287 193.263C303.287 193.263 303.235 193.603 303.14 193.633C303.044 193.662 302.77 193.45 302.621 193.307C301.668 192.333 301.668 192.332 301.161 193.568C300.918 194.322 300.528 195.015 300.014 195.605C299.5 196.195 298.873 196.67 298.172 197C297.425 197.366 296.572 197.448 295.762 197.231C295.071 196.986 294.34 196.897 293.618 196.97C292.897 197.044 292.202 197.278 291.583 197.657C290.716 198.118 289.707 198.227 288.753 197.963C288.353 197.858 287.936 197.854 287.538 197.953C287.141 198.053 286.775 198.251 286.473 198.532C286.213 198.829 285.894 199.066 285.537 199.226C285.18 199.387 284.792 199.468 284.4 199.465C284.007 199.461 283.618 199.373 283.258 199.206C282.898 199.039 282.574 198.796 282.308 198.494C281.258 197.631 279.801 197.055 279.263 195.818C278.264 194.168 277.052 192.662 275.662 191.342C275.01 190.39 274.126 189.628 273.101 189.137C272.402 188.724 271.799 188.157 271.336 187.478C270.874 186.799 270.563 186.024 270.427 185.212C270.217 184.378 269.849 183.593 269.344 182.901C268.839 182.209 268.208 181.624 267.486 181.181C266.872 180.59 266.392 179.867 266.081 179.066C265.771 178.265 265.638 177.406 265.692 176.553C265.687 175.858 265.717 175.164 265.782 174.474C265.816 174.194 265.762 173.909 265.629 173.659C265.495 173.409 265.289 173.208 265.04 173.084C264.558 172.962 264.376 173.558 264.205 173.935C263.469 175.2 262.81 176.512 262.231 177.863C262.145 178.204 261.991 178.521 261.779 178.796C261.567 179.07 261.302 179.295 260.999 179.458C260.13 179.931 259.445 180.694 259.055 181.623C258.454 182.807 257.778 182.476 257.047 182.054C255.285 181.261 253.802 179.921 252.81 178.226C251.818 176.53 251.367 174.565 251.522 172.612C251.361 169.127 251.152 165.656 250.784 162.18C250.801 161.569 250.604 160.968 250.23 160.485C249.856 160.001 249.329 159.668 248.744 159.544C246.078 158.693 243.511 157.569 240.808 156.595C236.469 154.95 232.429 152.543 228.871 149.483C226.096 147.307 223.482 144.92 221.053 142.342C220.553 141.821 220.159 141.646 219.495 142.202C218.315 143.272 216.916 144.057 215.397 144.503C213.878 144.948 212.276 145.042 210.704 144.779C207.815 144.257 204.874 144.164 201.974 144.504C201.843 144.495 201.712 144.515 201.59 144.563C201.469 144.612 201.359 144.687 201.27 144.784C201.18 144.881 201.113 144.997 201.072 145.125C201.032 145.252 201.019 145.388 201.035 145.522C200.901 147.512 200.473 149.465 199.765 151.312C199.241 152.661 199.261 154.166 198.618 155.552C198.434 156.068 198.139 156.533 197.755 156.913C197.37 157.294 196.906 157.579 196.397 157.748C195.729 157.954 195.622 158.284 195.963 158.881C196.231 159.326 196.433 159.81 196.562 160.315C196.728 161.179 197.151 161.974 197.771 162.59C198.392 163.206 199.179 163.612 200.025 163.753C200.232 163.771 200.433 163.833 200.617 163.934C200.801 164.035 200.962 164.174 201.093 164.342C201.223 164.51 201.318 164.702 201.373 164.908C201.428 165.114 201.442 165.329 201.412 165.538C201.457 168.223 201.597 170.879 201.618 173.571C201.628 174.62 201.946 175.143 202.989 175.307C204.509 175.642 206.05 175.852 207.598 175.936C209.588 175.931 211.562 176.393 213.368 177.286C214.007 177.511 214.59 177.881 215.074 178.367C215.559 178.853 215.933 179.443 216.167 180.093C216.545 181.185 217.177 182.169 218.008 182.957C218.839 183.746 219.843 184.315 220.931 184.614C223.924 185.85 224.697 187.339 223.85 190.434C223.544 191.457 223.626 192.569 224.079 193.547C224.65 195.28 224.859 197.11 224.691 198.918C224.683 199.103 224.635 199.284 224.549 199.446C224.463 199.608 224.343 199.747 224.196 199.853C223.943 200.166 223.633 200.427 223.284 200.621C222.322 200.964 221.519 201.655 221.023 202.567C220.527 203.478 220.371 204.549 220.584 205.583C220.62 206.966 220.202 208.313 219.399 209.408C218.595 210.503 217.451 211.281 216.152 211.619C215.717 211.798 215.239 211.845 214.774 211.757C214.309 211.669 213.876 211.447 213.523 211.119C213.171 210.791 212.914 210.368 212.782 209.901C212.651 209.433 212.65 208.94 212.779 208.476C212.83 207.627 213.141 206.821 213.669 206.174C214.196 205.526 214.913 205.07 215.715 204.872C216.622 204.592 216.771 204.06 216.353 203.299C215.332 201.428 214.685 199.415 213.807 197.5C211.525 192.575 207.823 188.474 203.212 185.763C202.819 185.507 202.723 185.617 202.544 185.969C201.018 190.663 200.413 195.636 200.765 200.606C200.77 201.203 200.898 201.796 201.139 202.344C201.38 202.893 201.73 203.385 202.166 203.79C202.721 204.32 203.253 204.858 203.776 205.452C205.414 207.376 205.348 208.772 203.404 210.343C201.772 211.657 200.047 212.837 198.407 214.125C197.651 214.687 197.017 215.404 196.545 216.232C196.072 217.06 195.772 217.981 195.661 218.94C195.518 220.252 195.216 221.56 194.962 222.853C194.891 223.636 194.551 224.363 194.001 224.903C193.635 225.209 193.343 225.599 193.149 226.042C192.956 226.486 192.865 226.971 192.884 227.461C192.739 230.484 191.609 233.351 189.676 235.602C188.319 237.046 186.782 238.33 185.504 239.858C183.15 242.725 180.744 245.537 178.285 248.292C177.687 249.115 177.221 250.033 176.905 251.012C174.52 256.649 171.474 261.957 167.834 266.818C167.698 267.029 167.539 267.223 167.36 267.397C167.216 267.441 167.031 267.687 166.883 267.544C166.734 267.401 166.769 267.174 166.708 266.977L166.819 266.322C167.915 259.291 168.908 252.184 170.264 245.235C170.768 242.38 170.709 239.565 171.014 236.745C171.877 229.3 172.717 221.862 173.849 214.442C174.135 212.492 174.438 210.51 174.653 208.581C174.592 208.384 174.708 207.997 174.613 207.946C174.519 207.894 174.208 208.071 174.07 208.302C168.547 213.002 168.25 219.489 168.639 226.17C168.675 227.131 168.314 228.079 168.714 229.035C168.79 229.281 168.628 229.52 168.389 229.675C168.149 229.83 167.888 229.829 167.591 229.543C166.93 229.121 166.36 228.563 165.918 227.904C165.476 227.245 165.172 226.501 165.027 225.719C164.262 223.444 163.813 221.075 163.691 218.683C163.634 217.354 163.885 216.036 164.424 214.837C164.962 213.639 165.773 212.594 166.788 211.79C167.042 211.59 167.239 211.325 167.361 211.02C169.383 206.932 171.181 202.728 172.748 198.428C173.107 197.31 173.23 196.122 173.109 194.943C172.802 192.989 172.944 190.997 173.523 189.126C174.103 187.255 175.104 185.558 176.446 184.171C176.958 183.468 177.305 182.65 177.458 181.781C178.765 177.887 180.273 174.071 181.975 170.348C182.435 169.192 182.638 167.94 182.568 166.683C182.535 165.192 182.852 163.721 183.493 162.395C184.135 161.07 185.081 159.929 186.253 159.07C188.259 157.614 189.772 155.663 191.661 154.082C192.75 153.313 193.791 152.478 194.781 151.581C196.029 150.311 196.845 148.661 197.114 146.867C197.201 146.219 196.96 145.943 196.308 146.117C191.478 147.063 186.519 147.218 181.614 146.575C179.976 146.441 178.391 145.877 177.012 144.936C175.633 143.996 174.507 142.711 173.741 141.205C170.92 136.187 168.959 130.719 167.946 125.046C167.511 123.13 167.227 121.193 166.769 119.284C166.052 116.189 166.298 112.959 167.473 110.053C168.786 106.613 170.511 103.362 172.609 100.372C173.391 99.2669 173.859 99.1764 174.845 100.087C177.694 102.716 180.631 105.21 183.649 107.626C187.337 110.645 190.185 114.613 191.895 119.115C192.819 121.459 193.882 123.745 195.077 125.959C195.16 126.109 195.256 126.251 195.365 126.383C195.379 126.238 195.387 126.091 195.386 125.945C194.819 123.259 194.275 120.566 193.708 117.881C193.583 117.403 193.296 116.984 192.9 116.7C191.661 115.672 190.762 114.276 190.33 112.708C189.898 111.141 189.955 109.483 190.493 107.97C190.747 106.891 190.756 105.762 190.52 104.669C189.621 100.062 188.619 95.4593 188.013 90.7883C187.914 90.1276 187.57 89.5275 187.053 89.1146C186.316 88.5053 185.596 87.8639 184.9 87.2151C184.771 87.1437 184.674 87.0233 184.63 86.8802C184.585 86.7371 184.598 86.5829 184.664 86.4512C184.946 86.0944 185.146 86.4913 185.358 86.6689C185.57 86.8466 186.227 87.4533 186.681 87.8259C187.136 88.1984 186.97 88.1686 187.13 88.0112C187.291 87.8538 187.032 87.6909 186.986 87.5431C186.094 86.6847 185.211 85.7697 184.263 84.9827C182.084 82.9726 179.768 81.1255 177.334 79.456C177.17 79.345 176.989 79.1846 176.801 79.0809C176.612 78.9772 176.369 78.7823 176.216 78.9644C176.064 79.1465 176.353 79.4079 176.414 79.605C177.76 80.6046 179.057 81.6726 180.3 82.8049C180.376 83.0513 180.873 83.222 180.528 83.5442C180.184 83.8664 180.095 83.4081 179.891 83.2551C176.645 80.881 173.552 78.2924 170.631 75.506C170.373 75.2618 170.074 75.057 169.816 74.8128C169.558 74.5686 169.582 74.5612 169.695 74.4185C169.805 73.8448 169.796 73.9014 169.208 73.4351C167.183 71.9416 165.298 70.2548 163.58 68.3979C163.411 68.1541 163.211 67.9343 162.986 67.7444C161.117 66.5856 159.589 64.9221 158.571 62.9392C157.553 60.9563 157.087 58.732 157.223 56.5146C157.209 55.7904 156.782 55.0854 157.021 54.3369C157.566 52.6306 158.585 52.2083 160.609 53.014C163.094 53.9305 165.512 55.0337 167.844 56.3144C169.143 57.1535 170.259 58.2621 171.12 59.5676C171.188 59.7894 171.461 60.1641 171.333 60.2576C170.158 61.1058 171.366 61.3808 171.774 61.6868C174.113 63.8526 176.421 66.0823 178.969 68.0759C182.416 70.8414 186.335 72.9118 190.514 74.1752C192.833 74.9172 195.085 75.8685 197.386 76.7238C197.619 76.8177 197.845 76.9282 198.063 77.0548C201.408 78.8113 201.786 81.0245 199.197 83.6945C197.423 85.5641 197.447 85.5568 199.147 87.596C200.461 88.812 201.293 90.481 201.479 92.2742C201.609 93.2004 202.022 94.0654 202.659 94.7439C203.591 96.2151 204.35 97.7932 204.918 99.4442C204.987 99.6659 205.116 100.085 205.283 100.033C205.45 99.9818 205.345 99.5555 205.316 99.2944C205.283 99.1431 205.237 98.9948 205.179 98.8509C205.096 98.5798 204.982 98.2102 205.324 98.0505C205.667 97.8909 205.867 98.2877 206.006 98.5687C206.94 100.211 207.56 102.018 207.831 103.889C208.141 105.338 208.668 106.732 209.393 108.022C209.771 108.823 210.104 108.126 210.276 107.75C211.599 105.916 213.205 104.318 215.031 103.017C216.587 101.678 217.922 100.092 218.987 98.315C219.923 96.925 220.379 95.2469 220.284 93.5431C220.361 88.1218 219.551 82.7042 219.352 77.2332C218.995 75.7856 218.328 74.4328 217.399 73.2748C215.113 69.087 213.118 64.7423 211.429 60.2737C209.392 54.2235 208.321 47.8912 208.257 41.5249C208.235 40.7761 208.447 40.2788 209.193 40.1566C210.645 39.8714 212.133 39.7938 213.614 39.926C214.31 39.9811 214.567 40.3066 214.589 41.0554C214.583 47.0962 215.304 53.1283 216.735 59.0147C217.1 60.173 217.625 61.2745 218.292 62.2853C219.577 64.5876 220.523 66.8058 221.953 68.9014C222.964 70.1769 224.183 71.2625 225.554 72.1082C226.811 72.9286 228.113 73.6715 229.453 74.3327C229.706 74.4788 229.996 74.5389 230.282 74.5043C230.567 74.4697 230.832 74.3421 231.039 74.1402C233.898 71.881 236.961 69.9059 240.189 68.2408C242.701 67.1739 245.393 66.5995 248.128 66.5468L249.942 66.4999C250.181 66.5406 250.423 66.4844 250.619 66.3435C250.814 66.2026 250.947 65.988 250.989 65.7451C251.043 65.5109 251.022 65.2636 250.929 65.0397C250.837 64.8157 250.677 64.6267 250.475 64.5005C249.471 63.9652 248.34 63.75 247.228 63.8829C245.883 63.8393 244.615 63.8795 243.237 63.8998C243.023 63.966 242.784 64.0396 242.67 63.67C242.556 63.3004 242.842 63.212 243.065 63.0892C243.738 62.7468 244.463 62.523 245.212 62.4269C245.463 62.4463 245.715 62.4409 245.964 62.4108C246.56 62.2268 247.414 62.3683 247.683 61.7184C247.953 61.0685 247.334 60.5848 246.856 60.1384C245.767 58.6622 244.187 57.6479 242.427 57.295C242.26 57.3465 241.809 57.3237 241.901 56.9445C241.993 56.5653 242.306 56.8194 242.598 56.9183C245.226 56.9711 246.849 58.8453 248.731 60.2887C249.196 60.7693 249.734 61.1687 250.323 61.4707C250.637 61.636 250.999 61.6709 251.333 61.568C251.666 61.465 251.946 61.2323 252.112 60.9188C252.477 60.2395 251.846 60.0564 251.358 59.8291C250.87 59.6019 250.788 59.1683 251.023 58.7449L252.8 56.0377C253.857 54.4701 253.357 53.3561 251.491 53.1491C249.767 53.2288 248.073 53.6054 246.48 54.2632C245.979 54.4178 245.221 54.9218 244.997 54.451C244.774 53.9802 245.633 53.634 246.033 53.3217C247.209 52.3922 247.2 52.4489 246.104 51.5188C245.554 51.0282 245.035 50.5036 244.548 49.9478C244.353 49.7381 244.127 49.4299 244.312 49.1839C244.498 48.9378 244.766 49.044 245.055 49.3055C245.996 49.9666 247.032 50.4673 248.124 50.7875C249.932 50.9905 251.742 50.556 253.255 49.5553C253.349 49.5018 253.429 49.4278 253.492 49.3386C253.555 49.2495 253.598 49.1471 253.618 49.0385C253.72 48.2336 253.906 47.4437 254.171 46.682C254.254 46.3594 254.298 45.995 253.897 45.7949C253.757 45.6983 253.591 45.6503 253.424 45.6581C253.257 45.6658 253.097 45.729 252.97 45.838C251.444 46.7175 250.073 47.8516 248.913 49.1949C248.797 49.3785 248.653 49.5413 248.487 49.6771C248.31 49.8665 248.11 50.0633 247.843 49.8758C247.576 49.6882 247.698 49.4076 247.836 49.1762C248.012 48.8175 248.235 48.4856 248.498 48.1893C250.821 46.0692 253.151 44.0549 255.576 42.0112C256.352 41.394 256.605 40.8574 255.736 40.073C254.867 39.2885 254.14 38.5412 253.318 37.8233C252.496 37.1055 251.774 37.2203 251.506 38.3825C251.237 39.5448 251.274 40.4242 251.087 41.4265C251.04 41.9113 250.874 42.3735 250.602 42.769C250.331 43.1645 249.965 43.4801 249.537 43.6856C249.323 43.7518 249.013 43.8475 248.865 43.6231C248.718 43.3988 248.996 43.2859 249.157 43.1284C249.549 42.736 249.854 42.2609 250.052 41.7347C250.249 41.2084 250.336 40.6429 250.304 40.0756C250.194 39.4361 250.213 38.7824 250.362 38.1559C250.51 37.5295 250.784 36.9439 251.166 36.4362C251.592 35.954 251.313 35.4733 251.09 35.0025C250.866 34.5318 250.968 34.6083 251.151 34.5248C251.334 34.4413 251.404 34.5818 251.53 34.6509C252.151 34.8916 252.813 34.991 253.47 34.9421C254.127 34.8932 254.763 34.6972 255.334 34.3678C255.702 34.0382 255.697 33.851 255.418 33.3703C254.457 31.6966 253.214 32.323 251.905 32.5651C249.199 33.0221 248.532 35.009 248.161 37.3633C248.111 37.6219 248.143 38.1515 247.867 38.1019C247.59 38.0522 247.692 37.5351 247.616 37.2887C247.821 36.0919 248.082 34.905 248.311 33.7008C248.54 32.4966 248.436 32.5827 247.46 32.803C247.376 32.8137 247.292 32.8054 247.211 32.7789C247.131 32.7525 247.057 32.7084 246.994 32.6497C246.894 32.5946 246.819 32.5014 246.785 32.3906C246.751 32.2797 246.76 32.1602 246.812 32.0584C246.975 31.6571 247.336 31.3029 247.715 31.429C249.528 32.057 250.328 30.1639 251.742 29.8357C252.075 29.7327 252.229 29.4693 251.733 29.2987C250.792 28.785 249.794 28.3948 248.762 28.1371C247.454 27.9753 246.246 27.3044 245.39 26.263C244.742 25.5183 245.191 24.4351 244.822 23.5775C244.822 23.5775 244.965 23.5333 244.989 23.526C245.013 23.5186 245.269 23.9254 245.345 24.1718C245.622 25.1486 246.209 26.0076 247.011 26.6115C247.813 27.2154 248.784 27.5293 249.768 27.503C250.628 27.5849 251.477 27.7763 252.295 28.0728C252.585 28.2369 252.916 28.3045 253.242 28.2662C253.576 28.1632 254.041 28.3165 254.196 27.9719C254.351 27.6273 253.871 27.4246 253.724 27.119C253.578 26.8134 253.01 26.6648 253.259 26.372C253.508 26.0792 253.802 26.6092 254.037 26.7795C254.273 26.9498 254.695 27.3863 255.04 27.6577C255.385 27.9291 255.605 28.0501 255.845 27.814C256.889 26.7094 257.606 27.5946 258.334 28.2606C258.47 28.4067 258.645 28.5094 258.835 28.556C259.026 28.6027 259.225 28.5912 259.407 28.5231C260.502 28.1676 261.619 27.886 262.751 27.6803C263.491 27.4522 263.668 27.1814 263.084 26.4712C262.499 25.7611 262.364 24.5614 263.208 24.1659C263.542 24.0629 263.924 23.9452 264.189 24.214C264.455 24.4829 264.229 24.8496 264.02 25.103L263.633 25.6271C263.583 25.6921 263.549 25.7689 263.535 25.8509C263.521 25.9329 263.526 26.0176 263.551 26.0977C263.576 26.1778 263.619 26.2509 263.677 26.3106C263.735 26.3703 263.806 26.4148 263.884 26.4403C264.237 26.6551 264.523 26.6481 264.671 26.1975C264.915 25.636 265.35 25.1876 265.896 24.9349C266.442 24.6822 267.062 24.6421 267.642 24.822C267.833 24.7632 268.098 25.0321 268.228 24.7761C268.358 24.5201 268.084 24.3079 268.015 24.0861C267.758 23.8811 267.438 23.7782 267.117 23.7967C266.878 23.8703 266.343 24.2514 266.336 23.5518C266.329 22.8523 266.389 22.4558 267.157 22.4888C267.925 22.5219 268.208 22.6774 268.349 22.1209C268.491 21.5645 267.859 21.4626 267.602 21.1371C266.697 20.0669 265.734 19.2307 264.248 19.6622C264.081 19.7137 263.866 19.7799 263.839 19.4375C263.812 19.0951 264.077 19.3639 264.197 19.3271C264.316 19.2903 264.435 19.2536 264.507 19.2315C265.875 17.4869 267.543 18.9153 268.958 19.0994C270.98 19.3744 272.876 20.3017 274.372 21.7471C274.755 22.1417 275.252 22.906 275.755 22.5889C276.072 22.3736 276.336 22.0851 276.526 21.7458C276.716 21.4065 276.826 21.0254 276.849 20.6321C276.849 19.7194 277.014 18.8177 277.334 17.9726C277.591 17.1108 277.253 16.864 276.459 17.0822C275.659 17.3784 274.907 17.7922 274.226 18.3108C274.107 18.3476 273.964 18.3917 273.844 18.4285C273.725 18.4653 273.911 18.138 273.992 18.0593C274.865 17.25 275.591 16.2164 276.945 16.2035C277.16 16.2177 277.372 16.1525 277.541 16.0195C278.578 14.809 279.205 15.3173 279.974 16.4563C280.744 17.5953 281.38 17.9656 281.939 18.8457C282.109 19.1582 282.363 19.4145 282.671 19.5834C282.978 19.7523 283.325 19.8263 283.669 19.7963C285.01 19.5715 285.918 20.3978 286.891 21.0962C287.109 21.3018 287.37 21.4514 287.654 21.5325C287.938 21.6136 288.235 21.6237 288.521 21.562C288.806 21.5003 289.072 21.3686 289.296 21.178C289.519 20.9875 289.694 20.7436 289.805 20.467C290.213 19.5581 290.901 18.8157 291.764 18.3513C292.777 17.7418 292.803 16.9782 292.324 16.0194C292.042 15.5776 291.801 15.1096 291.606 14.6218C291.416 14.0058 291.225 13.3897 292.202 13.1693C292.584 13.0516 292.746 12.7317 292.933 12.4043C293.707 11.307 294.694 10.3872 295.833 9.7011C295.833 9.7011 296.12 9.61281 296.144 9.60545C296.167 9.59809 296.045 9.87876 295.933 9.94019C295.152 10.4565 294.471 11.1148 293.921 11.8834C293.607 12.3098 293.391 12.8042 293.287 13.3309C293.183 13.8576 293.194 14.4036 293.32 14.9296C293.381 15.1267 293.314 15.4172 293.495 15.4963C293.676 15.5754 293.876 15.3786 293.943 15.088C294.01 14.7975 294.398 14.192 294.681 13.7539C294.964 13.3159 295.061 13.1239 295.32 13.2868C295.58 13.4498 295.298 13.8065 295.184 14.0305C294.521 15.0004 294.212 16.1837 294.31 17.3768C294.598 18.9881 294.88 19.2249 296.513 19.099C297.504 19.0092 298.632 18.688 299.369 19.891C299.726 20.4556 300.174 20.1285 300.542 19.7989C301.627 18.7652 303.011 18.1207 304.493 17.9593C304.684 17.9005 305.018 17.7974 305.079 17.9945C305.139 18.1917 304.773 18.3587 304.551 18.4002C303.611 18.648 302.722 19.0591 301.922 19.616C301.653 19.8821 301.444 20.2051 301.308 20.5634C301.172 20.9217 301.112 21.307 301.132 21.6939C301.153 22.0808 301.253 22.4602 301.427 22.807C301.6 23.1538 301.843 23.46 302.139 23.7052C302.43 23.8854 302.568 23.5727 302.807 23.4991C304.055 22.4663 305.522 21.717 306.685 20.5756C307.162 20.1857 307.716 19.9045 308.31 19.7502C309.193 19.4779 309.461 18.9092 309.221 17.8768C308.636 15.9794 307.556 14.3425 307.114 12.4009C306.52 9.88526 306.473 9.89998 303.969 10.6726C303.826 10.7167 303.587 10.7903 303.501 10.6818C303.416 10.5733 303.616 10.3765 303.768 10.2757L304.173 10.1506C306.634 9.66123 306.315 8.62633 305.714 6.67963C305.027 4.26787 303.703 2.0879 301.891 0.383665C301.641 0.164117 301.153 -0.0631918 301.419 -0.469255C301.686 -0.875331 302.173 -0.566771 302.478 -0.337282C304.965 1.2996 306.913 3.67775 308.053 6.4709C308.266 7.16087 308.616 7.61944 309.493 7.15998C310.458 6.83133 311.514 6.88009 312.46 7.29697C313.313 7.51977 313.625 7.26157 313.849 6.4638C314.351 4.69558 315.158 3.03928 316.231 1.57264C316.393 1.33391 316.588 0.949927 316.895 1.09812C317.202 1.24631 317.092 1.7388 316.986 1.98743C316.174 3.9576 315.835 6.10701 315.995 8.25738C315.912 8.91099 316.05 9.57838 316.387 10.1476C316.724 10.7168 317.24 11.1533 317.846 11.3837C318.453 11.6141 319.115 11.6244 319.721 11.413C320.326 11.2015 320.839 10.7811 321.172 10.2224C321.28 10.0963 321.404 9.98554 321.541 9.89284C322.571 10.4386 323.149 9.18063 323.987 9.35415C324.116 9.36925 324.245 9.33199 324.347 9.25028C324.449 9.16856 324.514 9.04888 324.531 8.91651C325.619 6.41743 327.113 4.13205 328.948 2.15605C329.513 1.3612 330.007 0.507111 330.563 -0.312387C330.683 -0.349176 330.766 -0.671711 330.955 -0.568011C331.143 -0.464297 331.054 -0.247661 331.099 -0.0998137C331.068 0.531744 330.901 1.14568 330.609 1.69762C329.919 3.01696 329.237 4.36098 328.586 5.72224C327.935 7.08351 328.104 7.46301 329.308 8.06315C330.512 8.66329 330.376 7.5448 330.856 7.1538C331.091 6.73044 331.666 6.31004 331.174 5.81429C330.681 5.31854 330.294 5.92397 329.886 6.21162C329.479 6.49926 329.651 6.63498 329.361 6.37349C329.072 6.11202 329.437 6.02633 329.518 5.86633C329.634 5.49875 329.869 5.18451 330.183 4.97476C330.498 4.76502 330.874 4.67208 331.251 4.71093C332.39 4.84545 332.396 3.76412 332.714 3.01822C333.032 2.2723 332.632 1.99098 333.193 2.11488C333.753 2.23879 333.436 2.90342 333.55 3.27306C333.485 3.5665 333.399 3.8544 333.294 4.13475C333.209 4.33625 333.182 4.55962 333.217 4.77835C333.253 4.99709 333.348 5.20211 333.492 5.3691C333.922 5.749 334.098 5.04722 334.398 5.08949C336.004 5.21478 336.86 3.84392 338.072 3.20017C338.406 3.09716 338.719 2.7577 338.765 3.49917C338.811 4.24064 339.175 3.64252 339.397 3.60094C340.716 3.46054 342.046 3.43847 343.373 3.53486C343.612 3.46128 343.967 3.51345 344.011 3.82386C344.054 4.13429 343.666 4.14604 343.451 4.21227L342.293 4.4349C341.544 4.51379 340.826 4.76565 340.192 5.17168C339.557 5.57774 339.023 6.12746 338.628 6.77985C338.309 7.52251 337.82 8.17291 337.202 8.6771C336.888 8.93582 336.672 9.30072 336.593 9.70914C336.515 10.1175 336.577 10.544 336.77 10.9155C337.006 11.6794 337.841 11.3407 338.428 11.2946C339.037 11.0677 339.622 10.7788 340.173 10.4323ZM243.382 121.257C243.752 122.033 243.647 122.794 242.859 123.119C242.071 123.443 241.388 123.006 241.067 122.133C240.306 119.669 239.346 117.402 238.505 115.016C236.696 110.46 235.739 105.609 235.687 100.719C235.677 100.308 235.553 99.9061 235.33 99.5608C234.081 97.5443 232.936 95.4417 231.567 93.5432C228.081 88.7625 224.114 84.3729 221.052 79.2725C220.999 79.1001 220.923 78.8536 220.668 78.9592C220.413 79.0648 220.616 79.299 220.67 79.4715C221.044 81.11 221.666 82.6996 222.19 84.3999C223.602 88.8712 226 92.9633 229.195 96.353C231.744 99.0863 233.451 102.526 234.097 106.229C235.352 113.938 232.978 120.635 230.138 127.26C228.293 131.151 226.046 134.821 223.433 138.207C223.308 138.341 223.23 138.514 223.212 138.701C223.194 138.887 223.237 139.075 223.333 139.236C225 142.398 227.29 145.177 230.054 147.391C233.003 149.48 236.169 151.219 239.489 152.576C242.021 153.828 244.746 154.597 247.529 154.845C248.344 154.864 248.64 154.637 248.366 153.75C246.794 148.559 246.147 143.135 246.457 137.742C246.656 134.054 247.77 130.496 249.693 127.406C250.481 125.916 251.565 124.616 252.878 123.59C255.887 121.737 258.545 119.345 260.728 116.526C261.583 115.031 262.822 113.809 264.312 112.991C265.157 112.596 265.14 112.034 264.801 111.275C263.531 108.429 262.285 105.575 261.039 102.721C260.864 102.328 260.609 101.977 260.292 101.693C259.974 101.409 259.601 101.198 259.199 101.075C254.435 99.4154 249.883 97.1475 245.651 94.3254C240.347 91.2324 235.989 86.6575 233.095 81.1433C232.607 80.0895 231.853 79.1852 230.915 78.5251C229.976 77.8651 228.886 77.4738 227.759 77.3922C226.738 77.4435 225.728 77.0981 224.93 76.4245C224.132 75.751 223.604 74.7984 223.451 73.7558C223.415 73.4229 223.309 73.1007 223.138 72.8126C222.968 72.5245 222.739 72.2774 222.466 72.0894C222.413 71.9169 222.139 71.7047 221.931 71.8768C221.723 72.049 221.879 72.2167 221.908 72.3965C221.938 72.6195 222.005 72.8362 222.106 73.0372C223.918 76.6466 225.999 80.11 228.331 83.3956C231.062 86.792 233.536 90.3958 235.732 94.1744C236.424 95.5239 237.293 96.7724 238.313 97.8849C238.638 98.1949 238.879 98.5858 239.012 99.0184C239.146 99.4509 239.167 99.9099 239.073 100.349C238.618 104.101 238.977 107.925 240.125 111.548C240.996 114.707 242.26 117.96 243.374 121.233L243.382 121.257ZM200.785 105.604C200.04 102.002 196.856 98.963 194.398 95.4842C194.322 95.2378 194.032 95.0576 193.745 95.2272C193.457 95.3968 193.541 95.6678 193.569 95.929C193.757 98.5697 194.38 101.265 194.631 103.941C194.882 106.616 195.558 108.809 196.026 111.256C196.142 112.215 196.549 113.119 197.188 113.838C197.344 113.971 197.459 114.146 197.52 114.343C197.58 114.54 197.584 114.75 197.53 114.947C197.342 115.698 197.303 116.482 197.415 117.254C197.528 118.026 197.79 118.77 198.185 119.441C199.055 121.026 199.838 122.659 200.53 124.331C200.712 124.922 200.952 124.768 201.155 124.408C202.369 122.848 203.047 120.915 203.086 118.901C202.774 114.398 202 109.932 200.778 105.579L200.785 105.604ZM283.624 109.3C283.624 109.3 284.053 109.168 284.077 109.16C284.101 109.153 283.732 108.889 283.504 108.825C282.154 108.512 280.723 108.279 279.406 107.903C274.83 106.616 270.4 105.041 265.922 103.562C265.637 103.488 265.294 103.135 265.036 103.485C264.778 103.834 265.195 104.002 265.287 104.298C266.111 106.122 266.982 107.931 267.734 109.777C267.993 110.614 268.457 110.849 269.299 110.616C270.436 110.258 271.637 110.145 272.827 110.283C276.461 110.426 280.088 110.095 283.624 109.3ZM372.475 104.124C372.174 104.164 371.898 104.309 371.691 104.534C371.485 104.76 371.362 105.053 371.343 105.364C371.232 106.019 371.83 106.267 372.271 106.427C373.114 106.771 373.875 107.301 374.5 107.98C375.086 108.608 375.884 108.74 376.576 109.12C376.658 109.135 376.741 109.131 376.82 109.106C376.899 109.082 376.97 109.039 377.029 108.98C377.268 108.907 377.114 108.577 376.862 108.438C375.905 107.114 374.956 105.815 373.959 104.53C373.774 104.334 373.536 104.2 373.276 104.15C373.017 104.099 372.75 104.133 372.513 104.248L372.475 104.124ZM371.416 35.3369C371.18 34.573 370.832 33.9518 370.507 33.3233C369.454 31.4351 368.292 31.3079 367.112 33.1562L366.862 33.5303C366.741 33.7296 366.539 34.0077 366.806 34.1952C367.073 34.3828 367.235 34.0628 367.45 33.9966C367.665 33.9304 367.949 33.3297 368.319 33.5125C368.689 33.6953 368.321 34.0249 368.301 34.3007C368.282 34.5766 368.354 34.4732 368.362 34.4978C369.261 34.7872 369.619 35.8641 370.526 36.1781C370.786 36.2597 371.053 36.4473 371.317 36.2038C371.405 36.1064 371.465 35.9852 371.489 35.8538C371.513 35.7224 371.501 35.586 371.454 35.4601L371.416 35.3369ZM367.529 99.6054C368.168 100.465 368.674 101.42 369.029 102.435C369.424 103.716 370.309 103.875 371.428 103.692C372.546 103.509 372.527 103.191 372.007 102.353C370.966 100.758 369.135 100.324 367.771 99.2067C367.527 99.0931 367.406 99.2924 367.529 99.6054ZM299.422 21.332C299.268 20.8695 298.991 20.4588 298.622 20.1475C298.253 19.8362 297.808 19.637 297.338 19.573C296.888 19.469 296.308 19.0273 295.968 19.618C295.628 20.2087 296.257 20.5544 296.394 20.9979C297.631 22.0126 298.454 23.4674 298.693 25.0652C298.706 25.1471 298.736 25.2257 298.78 25.2957C298.824 25.3658 298.882 25.4258 298.949 25.472C299.259 25.3763 299.104 25.1273 299.043 24.9302C298.984 24.5655 299.033 24.1929 299.184 23.8613C299.451 23.0517 299.533 22.1863 299.422 21.332ZM254.594 35.8644C254.189 35.9895 253.65 36.0208 253.714 36.5677C253.753 36.7715 253.853 36.9587 254 37.1023C254.148 37.2459 254.335 37.3385 254.535 37.3668C254.764 37.4311 255.034 37.3749 255.27 37.4639C256.308 37.6453 257.331 37.9068 258.333 38.2463C258.407 38.3038 258.492 38.3454 258.581 38.3683C258.671 38.3913 258.764 38.3953 258.855 38.38C258.946 38.3646 259.032 38.3303 259.109 38.2791C259.185 38.228 259.251 38.1611 259.301 38.0825C259.599 37.6937 259.301 37.4076 259.012 37.1462C258.409 36.6009 257.696 36.2025 256.926 35.9815C256.156 35.7606 255.35 35.7231 254.57 35.8717L254.594 35.8644ZM368.35 74.4158C368.287 74.1389 368.203 73.8669 368.099 73.6026C368.077 73.3738 367.97 73.1608 367.802 73.0072C367.633 72.8536 367.414 72.771 367.191 72.7762C366.881 72.8719 366.44 72.7112 366.213 73.0779C365.987 73.4446 366.345 73.9279 366.586 74.2854C366.827 74.6428 367.023 74.7711 367.21 75.0374C367.396 75.3037 367.609 75.4 367.385 75.6042C367.16 75.8083 366.99 75.5101 366.809 75.431C366.628 75.3519 366.164 74.4424 365.717 74.7694C365.269 75.0964 365.983 75.6319 366.12 76.0754C366.138 76.2215 366.182 76.3635 366.249 76.4944C366.492 77.2829 367.012 77.5274 367.732 76.9003C368.453 76.2731 369.017 75.4783 368.278 74.4379L368.35 74.4158ZM372.312 38.9195C372.761 38.5112 372.423 38.2644 372.212 38.0868C371.148 37.2934 369.863 36.8826 368.561 36.9194C368.441 36.8843 368.314 36.8851 368.196 36.9216C368.077 36.9581 367.972 37.0288 367.893 37.1254C367.738 37.4701 368.06 37.6675 368.129 37.8893C369.346 39.2949 370.96 38.1763 372.24 38.9416L372.312 38.9195ZM350.76 18.4196C350.297 18.6973 349.387 18.7084 349.77 19.6966C350.153 20.6849 350.819 20.6414 351.536 20.2581C352.254 19.8748 353.114 19.4474 352.854 18.7722C352.593 18.0969 351.656 18.3592 350.76 18.4196ZM330.513 9.85057C330.557 10.0038 330.649 10.1391 330.773 10.2368C330.897 10.3345 331.047 10.3893 331.202 10.3934C331.692 10.4581 332.16 10.4488 332.442 10.0108C332.757 9.11499 332.88 8.15687 332.803 7.20079C332.809 7.1621 332.805 7.12236 332.792 7.0853C332.778 7.04823 332.756 7.01501 332.727 6.98885C332.698 6.9627 332.664 6.94443 332.626 6.93575C332.589 6.92707 332.55 6.92832 332.513 6.93929C332.446 6.95732 332.384 6.98965 332.33 7.03411C332.277 7.07857 332.233 7.13419 332.201 7.1975C331.81 7.96608 331.342 8.68937 330.804 9.35581C330.72 9.55065 330.651 9.75237 330.598 9.95903L330.513 9.85057ZM279.838 23.3801C279.837 23.4655 279.854 23.5506 279.887 23.6294C279.921 23.7082 279.971 23.7789 280.033 23.8366C280.096 23.8943 280.17 23.9376 280.249 23.9635C280.329 23.9895 280.413 23.9974 280.496 23.9869C280.925 23.8544 281.469 24.0103 281.682 23.4317C281.896 22.8532 282.065 22.6391 281.664 22.439C281.262 22.239 280.626 20.6001 279.821 21.0375C279.015 21.4749 279.847 22.7298 279.852 23.5106L279.838 23.3801ZM292.496 24.2786C292.258 24.5416 292.114 24.8805 292.087 25.2412C291.846 26.1522 292.286 27.0691 292.108 27.9335C292.177 28.1552 291.8 28.5414 292.321 28.6234C292.843 28.7054 292.784 28.3457 292.875 28.0478C293.152 26.9088 293.229 25.7246 293.102 24.5504C293.033 24.3286 292.829 24.1756 292.496 24.2786ZM367.117 109.529C367.321 110.033 367.632 110.485 368.026 110.854C368.42 111.223 368.887 111.498 369.394 111.66C369.537 111.616 369.757 111.737 369.871 111.513C369.931 111.443 369.965 111.353 369.965 111.258C369.964 111.164 369.93 111.072 369.869 111.001C369.332 110.141 368.584 109.44 367.702 108.971C367.535 109.022 367.261 108.81 367.153 109.14C367.046 109.47 367.133 109.497 367.117 109.529ZM275.179 24.8715C274.711 24.3684 274.234 23.8406 273.71 23.3276C273.186 22.8146 273.165 22.6593 272.811 23.0382C272.458 23.4171 272.802 23.7698 273.108 23.9993C273.421 24.2177 273.69 24.4979 273.898 24.8231C274.106 25.1483 274.249 25.512 274.319 25.8925C274.335 26.023 274.4 26.1429 274.499 26.2278C274.598 26.3127 274.724 26.356 274.851 26.349C275.161 26.2533 275.235 26.0687 275.231 25.8002C275.226 25.5317 275.19 25.2459 275.179 24.8715ZM253.584 57.9009C253.53 57.7284 253.575 57.3639 253.13 57.4471C252.686 57.5302 251.505 58.8662 251.62 59.1546C251.735 59.4429 252.249 60.0939 252.672 59.8555C252.858 59.7912 253.029 59.6895 253.175 59.5564C253.322 59.4233 253.441 59.2614 253.526 59.0799C253.61 58.8984 253.659 58.7008 253.669 58.4985C253.679 58.2962 253.65 58.0931 253.584 57.9009ZM356.519 145.103C356.107 144.447 355.673 143.717 355.199 143.027C355.146 142.854 354.911 142.603 354.725 142.93C354.614 143.213 354.566 143.519 354.586 143.826C354.605 144.133 354.691 144.433 354.837 144.703C354.983 144.974 355.186 145.209 355.43 145.39C355.674 145.572 355.954 145.696 356.249 145.753C356.77 145.835 356.601 145.455 356.519 145.103ZM373.432 41.1107C373.742 41.0151 374.375 41.0356 374.341 40.5873C374.308 40.139 373.68 40.3056 373.317 40.2288L371.831 39.9854C371.617 40.0516 371.31 39.9034 371.187 40.1841C371.065 40.4647 371.354 40.7262 371.431 40.9726C372.049 41.5375 372.717 41.3315 373.432 41.1107ZM361.146 26.0101C361.387 25.7739 362.077 25.7231 361.806 25.1858C361.675 24.9188 361.456 24.7066 361.19 24.5863C360.923 24.4661 360.626 24.4456 360.35 24.5286C360.241 24.5723 360.142 24.6384 360.059 24.7229C359.976 24.8073 359.91 24.9084 359.867 25.0202C359.823 25.1319 359.802 25.2519 359.805 25.373C359.808 25.4942 359.834 25.6139 359.883 25.7251C360.049 26.3485 360.598 26.1793 361.099 26.0248L361.146 26.0101ZM271.392 21.317C271.583 21.2582 271.523 20.9797 271.24 20.8242C270.497 20.2419 269.668 19.7866 268.787 19.476C268.787 19.476 268.477 19.5717 268.429 19.5864C268.418 19.6523 268.422 19.7206 268.442 19.785C268.462 19.8494 268.497 19.9082 268.543 19.9561C268.877 20.3922 269.305 20.7437 269.791 20.9826C270.278 21.2215 270.81 21.3411 271.345 21.3317L271.392 21.317ZM369.507 74.3557C369.575 74.5775 369.561 75.0405 369.913 74.8243C370.21 74.6629 370.461 74.425 370.641 74.1332C370.82 73.8414 370.923 73.5056 370.939 73.1581C370.825 72.7884 370.197 72.3615 369.831 72.5285C368.907 73.0027 369.719 73.8585 369.49 74.469L369.507 74.3557Z" fill="#2665D6"/>
<path d="M167.88 1L174.961 2.96508L174.811 3.17542C175.533 3.6708 176.289 4.11749 177.071 4.51244C177.296 4.6104 177.748 4.19553 178.146 3.98807C178.89 4.87266 181.159 5.45183 182.364 4.85249C183.641 4.22434 184.849 3.45501 186.135 2.8355C186.56 2.70338 187.02 2.73837 187.42 2.93342C188.574 3.45208 189.727 3.54138 190.972 3.70274C193.475 4.06306 195.925 4.72092 198.272 5.66219C199.062 5.96762 199.425 7.32468 200.042 8.16318C200.42 8.68183 200.581 10.1023 201.607 8.49451C202.161 7.63008 204.611 7.75984 205.473 8.58681C206.465 9.53768 207.315 10.6355 208.258 11.6382C208.725 12.1309 209.264 12.5545 209.924 13.1481L208.172 13.491C210.348 13.9463 212.182 14.171 213.903 14.7387C215.281 15.1939 216.947 15.5166 217.345 17.3751C217.38 17.5279 217.59 17.7699 217.703 17.7612C218.628 17.7007 219.562 18.421 220.136 18.3922C221.606 18.3202 221.969 19.4988 222.866 20.0088C223.321 20.2681 223.731 20.585 224.258 20.925C223.477 21.873 223.889 22.5761 224.8 22.893C226.198 23.3829 225.913 24.3164 225.737 25.3566C225.679 25.6851 225.939 26.2903 226.216 26.4142C227.117 26.8251 228.061 27.1361 229.029 27.3419C230.471 27.6301 230.255 29.0449 230.866 29.8834C231.731 31.0879 232.333 32.4998 233.123 33.7734C233.354 34.1508 233.847 34.364 234.38 34.7761C234.242 34.9288 233.994 35.2111 233.749 35.4877C234.994 37.5047 236.191 39.5217 235.677 42.0862C235.602 42.4694 235.827 42.9074 235.885 43.3252C236 44.1637 236.447 45.1693 236.144 45.8147C235.049 48.1198 236.531 49.7335 237.393 51.5286C237.704 52.1711 238.108 52.7735 238.379 53.4333C238.465 53.6465 238.255 53.9807 238.183 54.2602C237.912 54.1478 237.537 54.1104 237.39 53.9087C237.052 53.3865 236.748 52.8427 236.482 52.2807C235.45 53.7214 235.493 54.0095 236.701 54.5656L235.951 55.24C236.418 55.3552 236.851 55.3667 237.171 55.5598C237.814 55.9516 238.612 56.3147 238.955 56.9169C239.933 58.6602 240.146 60.6137 240.025 62.6047C239.994 63.0851 240.006 63.5671 240.059 64.0455C240.149 64.8465 239.904 65.1779 239.024 65.1174C237.747 65.0281 237.488 65.4603 237.854 66.6128C237.99 67.0393 237.831 67.5521 237.912 68.0074C238.027 68.6442 238.237 69.2667 238.471 70.134L236.903 72.2489C236.545 74.9719 236.142 78.2193 234.885 81.2822C233.527 84.5757 232.091 87.8403 230.788 91.1539C230.482 91.9545 230.402 92.8237 230.557 93.6666C231.356 97.4931 229.511 99.6916 225.997 101.599C225.484 101.849 225.039 102.218 224.699 102.677C222.71 105.846 220.632 108.952 218.864 112.234C217.071 115.557 215.904 119.18 215.422 122.925C215.197 124.653 214.125 126.258 213.45 127.927C213.324 128.227 213.246 128.545 213.217 128.869C213.127 130.385 213.067 131.906 213.003 133.191C214.381 134.516 215.909 135.732 217.114 137.225C218.469 138.888 218.406 140.821 217.452 142.763C216.65 144.388 215.979 146.077 215.258 147.739C215.013 148.289 214.911 148.891 214.961 149.491C215.011 150.09 215.213 150.667 215.546 151.168C216.914 153.486 217.728 156.088 217.925 158.772C217.962 159.222 218.668 159.789 219.184 159.991C220.245 160.406 221.413 160.539 222.488 160.916C227.357 162.619 228.761 166.198 228.41 171.139C228.375 171.618 228.294 172.09 228.214 172.563C227.654 175.75 228.502 178.208 230.993 180.57C234.014 183.417 236.787 186.489 240.146 189.016C242.207 190.572 243.715 192.848 245.548 194.727C250.663 199.977 256.008 204.97 261.82 209.459C266.672 213.226 270.965 217.661 274.571 222.633C277.209 226.244 279.348 230.22 281.703 234.038C283.286 236.597 284.874 239.15 286.417 241.737C286.877 242.513 287.237 243.345 287.486 244.212C289.328 250.551 291.274 256.841 292.9 263.23C294.195 268.318 295.371 273.473 296.086 278.671C296.933 284.823 297.363 291.044 297.72 297.251C297.971 301.547 297.792 305.869 297.804 310.179H103.147C102.706 308.482 102.334 306.762 101.807 305.088C100.109 299.691 99.2756 294.182 99.6072 288.523C99.7356 286.459 99.3389 284.396 98.454 282.526C97.6381 280.775 97.8774 279.466 99.5351 278.397C102.193 276.669 102.873 274.216 102.562 271.321C101.885 265.085 100.977 258.87 100.507 252.62C100.218 248.624 100.371 244.57 100.605 240.559C100.873 236.02 101.452 231.499 101.899 226.973C102.272 223.053 103.346 219.232 105.07 215.692C106.03 213.727 107.019 211.773 108.02 209.828C109.438 207.059 112.056 205.561 114.425 203.777C117.248 201.654 120.05 199.492 122.944 197.467C124.573 196.292 126.311 195.276 128.134 194.433C132.714 192.39 137.385 190.543 141.995 188.566C145.068 187.247 148.098 185.829 151.156 184.477C152.151 184.039 152.405 183.466 152.165 182.331C151.877 181.008 152.062 179.593 151.958 178.225C151.897 177.404 151.834 176.525 151.505 175.79C150.64 173.868 150.563 172.021 151.531 170.131C152.448 168.344 153.327 166.538 154.287 164.604C152.514 163.293 151.032 161.778 150.983 159.478C150.943 157.623 150.407 155.969 149.724 154.251C149.11 152.71 149.124 150.917 148.836 149.065L146.503 149.448C143.168 149.995 139.829 150.212 136.526 149.272C132.268 148.062 129.895 145.143 128.996 140.89C128.482 138.461 127.969 136.023 127.306 133.632C127.09 132.86 126.496 132.122 125.905 131.54C124.562 130.215 123.697 128.581 123.887 126.806C124.175 124.322 123.501 122.054 122.939 119.758C121.958 115.761 120.615 111.851 119.747 107.834C118.421 101.683 118.802 95.6461 121.906 89.987C122.045 89.7363 122.172 89.4769 122.287 89.2147C122.76 88.1457 123.636 87.048 122.016 86.2152C123.14 84.3337 123.14 84.3336 121.615 83.4087C121.806 83.037 122.002 82.6566 122.275 82.1293C121.039 82.1581 119.715 82.7547 119.214 81.2448C119.13 80.9912 119.661 80.533 119.909 80.1671C118.813 79.3977 118.92 78.6629 120.332 77.7927C120.151 75.7757 119.799 73.7588 119.857 71.7763C119.912 70.5022 120.302 69.2651 120.987 68.189C122.665 65.5958 123.126 62.6797 123.775 59.7983C124.564 56.3032 125.216 52.7733 126.041 49.2897C126.427 47.6646 127.136 46.1201 127.641 44.5181C127.733 44.2155 127.543 43.8265 127.283 43.5442C127.491 42.8786 127.661 42.2043 127.909 41.556C128.157 40.9077 128.327 40.1153 128.797 39.6831C130.192 38.3692 130.397 37.666 128.895 36.306C127.845 35.3667 126.427 34.8048 125.124 34.1853C123.016 33.1855 122.509 31.7159 123.636 29.6413C123.835 29.2725 123.901 28.8316 124.103 28.4657C124.332 28.0026 124.623 27.5732 124.968 27.1893C125.729 26.4257 126.554 25.7255 127.358 24.9936L126.239 23.2648L126.562 22.8614L128.263 23.962C130.359 22.5962 131.478 20.7118 130.988 20.052L132.732 17.6086C132.916 16.0526 133.101 14.4966 133.291 12.8974C132.063 12.9349 131.561 13.8338 131.688 14.874C131.803 15.8134 132.369 16.7009 132.735 17.6086C131.273 17.1158 130.976 15.9142 131.071 14.6147C131.163 13.3699 131.887 12.5142 133.135 12.1396C135.027 11.5633 136.909 10.9611 138.797 10.3819C139.132 10.3258 139.47 10.2931 139.809 10.284L139.028 10.8862L139.109 11.1542L142.023 10.5087L143.177 12.4248L143.698 12.1367L142.978 10.7738L144.419 9.42816L146.085 9.81423L146.281 9.46854L145.293 8.52912L145.405 8.27559L147.296 9.04786C147.936 8.18344 148.596 7.17202 149.378 6.27013C149.767 5.82639 150.352 5.35963 150.9 5.28471C152.16 5.11182 153.457 5.24152 154.725 5.10321C155.254 5.01488 155.728 4.7245 156.046 4.29352C156.951 2.9623 158.352 2.81244 159.82 2.32548C159.373 3.31093 159.71 3.68255 160.465 3.5356C161.287 3.37424 162.074 3.03723 162.798 3.08622C163.227 3.17266 163.807 3.47521 164.06 3.30232C164.884 2.67875 165.669 2.00515 166.41 1.28533C166.43 1.60228 166.456 1.91911 166.482 2.23319L168.088 1.78662L167.88 1Z" fill="#254F1A"/>
<path fill-rule="evenodd" clip-rule="evenodd" d="M213.685 68.7797L43.7344 57.3853L17.9987 235.633L54.436 238.076C54.4046 237.804 54.3768 237.532 54.349 237.259C54.2869 236.652 54.2247 236.043 54.123 235.444C53.6492 232.644 53.6266 229.817 54.2115 226.953C54.4286 225.909 54.3768 224.848 54.0607 223.868C53.7714 222.95 53.9899 222.293 54.9172 221.807C56.4052 221.02 56.9334 219.798 56.9864 218.316C57.0245 217.215 57.0483 216.115 57.0722 215.014C57.1174 212.925 57.1627 210.836 57.3053 208.746C57.4508 206.706 57.8264 204.652 58.2402 202.622C58.57 201.011 58.9777 199.41 59.3853 197.809C59.5587 197.128 59.7321 196.447 59.8995 195.765C60.3777 193.787 61.208 191.883 62.3508 190.144C62.9866 189.179 63.6362 188.22 64.2912 187.266C65.0547 186.151 66.1698 185.499 67.2888 184.844C67.532 184.702 67.7754 184.56 68.0154 184.413C68.3431 184.212 68.6704 184.01 68.9978 183.808C70.2703 183.024 71.5437 182.239 72.8408 181.5C73.7611 180.959 74.7255 180.502 75.7208 180.136C77.2203 179.607 78.7312 179.115 80.242 178.623C81.2456 178.297 82.2491 177.97 83.2492 177.632C84.2465 177.295 85.2385 176.94 86.2304 176.584C86.9 176.344 87.5697 176.104 88.241 175.87C88.7824 175.681 88.9544 175.399 88.9151 174.814C88.8837 174.39 88.9482 173.955 89.013 173.519C89.0525 173.252 89.0921 172.986 89.11 172.721L89.1104 172.715C89.1395 172.297 89.1706 171.851 89.0568 171.469C88.7548 170.463 88.8504 169.522 89.4851 168.595C89.9198 167.961 90.3452 167.321 90.7872 166.655C90.9558 166.402 91.1269 166.144 91.3018 165.882C90.49 165.155 89.8424 164.334 89.9859 163.165C90.1013 162.221 89.948 161.362 89.7241 160.466C89.5854 159.912 89.6081 159.309 89.6318 158.676C89.6425 158.389 89.6534 158.097 89.6498 157.801L88.4273 157.916C86.6791 158.079 84.9536 158.074 83.3306 157.484C81.2388 156.723 80.2379 155.159 80.0892 152.967L80.0863 152.925C80.0026 151.687 79.9187 150.446 79.7564 149.222C79.7023 148.822 79.4523 148.427 79.1923 148.111C78.6016 147.392 78.2785 146.532 78.5061 145.637C78.8012 144.517 78.6889 143.459 78.5764 142.399C78.5631 142.274 78.5499 142.149 78.5373 142.024C78.4467 141.129 78.3199 140.239 78.1931 139.35C78.0277 138.19 77.8623 137.03 77.7775 135.858C77.5496 132.687 78.1872 129.634 80.1923 126.866C80.2815 126.743 80.3655 126.616 80.4438 126.487C80.4891 126.412 80.5386 126.338 80.588 126.263C80.888 125.812 81.185 125.365 80.525 124.954C81.2388 124.036 81.2388 124.036 80.5257 123.514C80.6504 123.332 80.7786 123.145 80.9576 122.887C80.8195 122.881 80.6773 122.888 80.5379 122.896C80.0357 122.922 79.5689 122.946 79.4546 122.333C79.438 122.243 79.5752 122.114 79.7129 121.985C79.7767 121.925 79.8407 121.865 79.8894 121.809C79.3848 121.381 79.4934 121.011 80.2806 120.617C80.2968 120.313 80.3054 120.007 80.3141 119.703C80.3346 118.976 80.355 118.253 80.4782 117.545C80.6 116.899 80.8904 116.284 81.3201 115.761C82.2314 114.667 82.6908 113.418 83.1518 112.164C83.2217 111.974 83.2916 111.784 83.3631 111.595C83.6563 110.819 83.936 110.039 84.2157 109.259C84.5665 108.281 84.9172 107.303 85.2943 106.334C85.4875 105.839 85.7399 105.363 85.9927 104.887C86.1547 104.582 86.3168 104.276 86.4636 103.965C86.533 103.815 86.4641 103.611 86.3519 103.458C86.4014 103.353 86.4489 103.247 86.4964 103.141C86.598 102.914 86.6993 102.688 86.8181 102.47C86.8584 102.396 86.8972 102.318 86.9363 102.239C87.0665 101.976 87.2007 101.705 87.4102 101.549C88.2211 100.929 88.3775 100.579 87.7081 99.8368C87.3185 99.41 86.779 99.107 86.2507 98.8104C86.1437 98.7503 86.0373 98.6905 85.9326 98.63C84.9267 98.0498 84.7747 97.2858 85.5041 96.2707C85.5677 96.1815 85.6161 96.0823 85.6645 95.9831C85.7141 95.8816 85.7636 95.7801 85.8295 95.6895C85.9804 95.4621 86.1609 95.2539 86.366 95.0708C86.6813 94.815 87.0104 94.5763 87.3409 94.3367C87.4776 94.2376 87.6146 94.1382 87.7509 94.0375L87.3049 93.1209L87.4998 92.927L88.2901 93.5446C89.4636 92.9227 90.1746 92.0039 89.972 91.6519L91.0444 90.4705L91.0446 90.47C90.3335 90.1693 90.2697 89.5491 90.4137 88.8927C90.5522 88.2635 90.9855 87.8537 91.6522 87.7062C92.1933 87.5843 92.7337 87.4585 93.274 87.3327C93.7429 87.2235 94.2117 87.1143 94.6807 87.0078C94.8562 86.9908 95.0317 86.9858 95.2061 86.9928L94.7618 87.2718L94.7835 87.4108L96.3234 87.1829L96.7734 88.1959L97.0618 88.0674L96.7927 87.3503L97.6295 86.7163L98.4545 86.9696L98.5803 86.8007L98.1428 86.2896L98.2189 86.1646L99.1308 86.6219C99.2473 86.4977 99.3656 86.3669 99.4867 86.2331C99.7722 85.9176 100.073 85.5852 100.4 85.2823C100.632 85.0703 100.966 84.8532 101.252 84.834C101.601 84.8104 101.949 84.8303 102.298 84.8503C102.606 84.868 102.915 84.8857 103.225 84.8731C103.502 84.8464 103.766 84.7152 103.96 84.5072C104.413 83.9868 104.974 83.8679 105.588 83.7381C105.735 83.7069 105.885 83.6751 106.037 83.637C105.736 84.1222 105.881 84.3226 106.279 84.2739C106.424 84.2559 106.568 84.2279 106.709 84.2003C106.991 84.1454 107.262 84.0926 107.506 84.1257C107.573 84.144 107.645 84.1734 107.718 84.2029C107.878 84.268 108.039 84.3333 108.137 84.2788C108.605 83.9903 109.056 83.6751 109.488 83.3349C109.475 83.4966 109.465 83.6584 109.456 83.8189L110.311 83.6471L110.262 83.2404L113.744 84.4818L113.652 84.5835C113.985 84.8599 114.339 85.1128 114.711 85.3402C114.784 85.3793 114.929 85.3018 115.083 85.2193C115.155 85.1803 115.23 85.1402 115.3 85.1108C115.616 85.5857 116.736 85.9578 117.397 85.6947C117.734 85.5621 118.066 85.4122 118.397 85.2623C118.754 85.1011 119.111 84.9398 119.476 84.7996C119.703 84.7471 119.936 84.7806 120.127 84.8935C120.611 85.159 121.119 85.2571 121.659 85.3612C121.735 85.376 121.812 85.3908 121.889 85.4062C123.144 85.6752 124.351 86.0935 125.484 86.6522C125.732 86.7708 125.856 87.109 125.982 87.4541C126.049 87.6396 126.118 87.8271 126.207 87.9835C126.241 88.0438 126.266 88.1258 126.292 88.2087C126.384 88.5056 126.481 88.8163 126.984 88.2055C127.331 87.7854 128.576 87.9355 128.957 88.3851C129.223 88.6985 129.458 89.0374 129.693 89.3765C129.845 89.5969 129.998 89.8174 130.159 90.0308C130.295 90.209 130.45 90.3727 130.626 90.5586C130.713 90.6504 130.805 90.7478 130.902 90.855L129.979 90.969C130.32 91.0653 130.644 91.1489 130.955 91.229C131.633 91.4034 132.247 91.5615 132.823 91.7996C132.892 91.8284 132.963 91.8566 133.035 91.8851C133.658 92.1318 134.332 92.3983 134.392 93.2571C134.399 93.3358 134.489 93.466 134.547 93.4655C134.816 93.466 135.069 93.5927 135.291 93.704C135.464 93.7903 135.617 93.8673 135.747 93.8696C136.249 93.8788 136.462 94.1501 136.672 94.4165C136.778 94.5522 136.884 94.6867 137.026 94.7845C137.156 94.8737 137.275 94.9731 137.404 95.08C137.488 95.1496 137.575 95.2224 137.672 95.2977C137.202 95.7524 137.362 96.1238 137.805 96.316C138.435 96.5909 138.298 97.0093 138.142 97.4844C138.129 97.5225 138.117 97.5609 138.104 97.5997C138.051 97.7645 138.139 98.0809 138.272 98.1533C138.703 98.393 139.164 98.5834 139.645 98.7212C140.122 98.8517 140.187 99.2108 140.251 99.5682C140.283 99.7473 140.315 99.9261 140.399 100.075C140.607 100.453 140.764 100.863 140.921 101.275C141.031 101.563 141.141 101.851 141.269 102.129C141.329 102.261 141.454 102.361 141.601 102.479C141.677 102.54 141.758 102.605 141.84 102.681C141.782 102.732 141.693 102.813 141.595 102.902C141.553 102.941 141.508 102.981 141.464 103.021C141.954 104.089 142.419 105.154 141.968 106.439C141.925 106.562 141.944 106.7 141.962 106.839C141.973 106.919 141.984 106.998 141.983 107.076C141.982 107.207 141.996 107.347 142.01 107.488C142.042 107.808 142.074 108.129 141.933 108.349C141.346 109.261 141.646 110.002 141.947 110.748C142.02 110.929 142.093 111.111 142.154 111.295C142.2 111.433 142.254 111.569 142.309 111.704C142.387 111.899 142.466 112.093 142.519 112.296C142.538 112.372 142.483 112.472 142.428 112.571C142.402 112.618 142.376 112.665 142.358 112.71C142.317 112.689 142.27 112.671 142.224 112.654C142.121 112.616 142.019 112.578 141.978 112.504C141.843 112.227 141.727 111.94 141.632 111.646C140.998 112.342 140.999 112.49 141.577 112.814L141.143 113.131C141.219 113.155 141.293 113.174 141.364 113.191C141.51 113.228 141.643 113.261 141.744 113.335C141.802 113.377 141.862 113.419 141.923 113.461C142.182 113.641 142.452 113.829 142.559 114.086C142.931 115.005 142.897 116.004 142.689 117.012C142.638 117.255 142.609 117.5 142.601 117.745C142.588 118.155 142.438 118.315 141.993 118.254C141.345 118.164 141.181 118.375 141.284 118.973C141.304 119.095 141.278 119.227 141.251 119.36C141.229 119.469 141.207 119.578 141.211 119.684C141.219 119.906 141.25 120.126 141.287 120.384C141.305 120.507 141.323 120.639 141.341 120.783L140.383 121.804L140.354 121.907C139.978 123.257 139.533 124.848 138.687 126.323C138.34 126.925 137.989 127.524 137.637 128.123C137.038 129.144 136.439 130.165 135.865 131.197C135.65 131.593 135.545 132.032 135.563 132.466C135.691 134.437 134.585 135.49 132.645 136.338C132.364 136.448 132.109 136.62 131.902 136.841C131.608 137.203 131.313 137.563 131.017 137.923C130.052 139.096 129.09 140.267 128.213 141.496C127.051 143.122 126.188 144.923 125.666 146.808C125.502 147.4 125.141 147.949 124.78 148.498C124.61 148.758 124.439 149.017 124.289 149.282C124.203 149.43 124.139 149.589 124.101 149.752C123.994 150.273 123.894 150.796 123.801 151.281C123.757 151.511 123.715 151.732 123.674 151.941C123.858 152.158 124.049 152.37 124.24 152.583C124.684 153.077 125.129 153.572 125.484 154.131C126.056 155.022 125.881 156.002 125.25 156.956C124.867 157.533 124.517 158.129 124.166 158.725C124.032 158.953 123.898 159.181 123.762 159.408C123.596 159.679 123.5 159.982 123.481 160.288C123.463 160.594 123.524 160.894 123.658 161.16C124.188 162.384 124.414 163.734 124.318 165.104C124.305 165.334 124.625 165.647 124.874 165.767C125.149 165.899 125.445 165.991 125.741 166.084C125.998 166.164 126.255 166.244 126.498 166.35C128.867 167.382 129.323 169.248 128.781 171.747C128.728 171.988 128.652 172.226 128.576 172.463C128.056 174.063 128.31 175.34 129.412 176.626C129.806 177.083 130.189 177.549 130.571 178.016C131.485 179.13 132.398 180.244 133.48 181.23C134.08 181.779 134.543 182.469 135.007 183.16C135.272 183.554 135.537 183.948 135.828 184.317C138.061 187.16 140.432 189.88 143.079 192.36C145.288 194.439 147.161 196.84 148.643 199.49C149.401 200.832 150.021 202.257 150.641 203.682C150.91 204.3 151.179 204.917 151.459 205.528C151.534 205.691 151.61 205.855 151.685 206.018C152.233 207.209 152.781 208.398 153.308 209.601C153.487 210.011 153.61 210.446 153.674 210.895C153.795 211.726 153.92 212.555 154.045 213.384C154.413 215.832 154.78 218.276 155.052 220.741C155.342 223.371 155.566 226.03 155.551 228.695C155.534 231.849 155.298 235.024 155.025 238.189C154.896 239.707 154.66 241.225 154.424 242.742C154.32 243.414 154.215 244.087 154.12 244.759L187.949 247.027L213.685 68.7797ZM91.0452 90.4677L91.0676 90.3835C91.2685 89.6284 91.4696 88.8725 91.6764 88.0965C91.0447 88.0734 90.7219 88.5128 90.7106 89.0456C90.7037 89.3798 90.8099 89.7088 90.9159 90.0373C90.9621 90.1807 91.0084 90.3241 91.0452 90.4677Z" fill="#D717E7"/>
</g>
<defs>
<clipPath id="clip0_181_31253">
<rect width="343" height="200" fill="white"/>
</clipPath>
</defs>
</svg>
