<svg width="840" height="169" viewBox="0 0 840 169" fill="none" xmlns="http://www.w3.org/2000/svg">
<path d="M0 18.1327H23.7263V143.13H89.3111V165.107H0V18.1327ZM112.652 18.1327C114.577 18.1072 116.488 18.4612 118.277 19.1745C120.065 19.8878 121.695 20.9463 123.075 22.2898C124.454 23.6332 125.555 25.2352 126.315 27.0042C127.075 28.7733 127.479 30.6747 127.505 32.5999C127.505 36.5392 125.94 40.3171 123.154 43.1026C120.369 45.8881 116.591 47.453 112.652 47.453C108.712 47.453 104.934 45.8881 102.149 43.1026C99.3634 40.3171 97.7985 36.5392 97.7985 32.5999C97.8066 30.6697 98.1991 28.7604 98.9533 26.9835C99.7074 25.2067 100.808 23.5979 102.191 22.251C103.573 20.9042 105.211 19.8464 107.007 19.1393C108.803 18.4322 110.722 18.09 112.652 18.1327ZM101.078 59.2197H123.84V165.107H101.078V59.2197ZM137.149 59.2197H159.911V73.8798C166.65 62.6918 178.224 56.3262 193.462 56.3262C218.153 56.3262 233.585 75.6159 233.585 106.286V165.107H210.823V108.215C210.823 88.347 202.143 77.159 186.467 77.159C169.312 77.159 159.86 88.9257 159.86 110.144V165.107H137.098L137.149 59.2197ZM245.544 18.1327H268.306V111.109L310.743 59.2197H339.292L293.961 112.266L339.292 165.107H310.743L268.306 113.424V165.107H245.544V18.1327ZM348.165 32.2785H371.313V59.284H398.318V78.1878H371.313V132.765C371.313 139.722 375.557 143.966 382.115 143.966H397.367V165.171H379.029C359.16 165.171 348.165 153.405 348.165 132.585V32.2785ZM408.349 59.284H431.111V72.4009C436.705 62.3703 446.157 56.3905 457.731 56.3905C460.402 56.2688 463.075 56.5948 465.639 57.355V78.5736C462.854 77.9616 460.002 77.7024 457.152 77.802C440.37 77.802 431.111 91.9478 431.111 116.188V165.171H408.349V59.284ZM518.866 56.3905C543.942 56.3905 571.141 71.6293 571.141 114.645V117.732H489.546C491.295 136.623 502.277 147.039 520.602 147.039C533.719 147.039 544.907 139.902 547.415 130.077H570.562C568.247 151.283 546.257 168.065 520.602 168.065C487.81 168.065 467.183 146.653 467.183 112.138C467.183 81.4028 487.051 56.3262 518.866 56.3262V56.3905ZM546.836 98.8277C543.557 85.7108 533.333 77.4162 518.866 77.4162C504.977 77.4162 495.152 85.9037 491.295 98.8277H546.836ZM632.868 56.3905C657.944 56.3905 685.143 71.6293 685.143 114.645V117.732H603.547C605.284 136.623 616.279 147.039 634.604 147.039C647.721 147.039 658.909 139.902 661.416 130.077H684.564C682.249 151.283 660.259 168.065 634.604 168.065C601.811 168.065 581.171 146.653 581.171 112.138C581.171 81.4028 601.04 56.3262 632.868 56.3262V56.3905ZM660.838 98.8277C657.559 85.7108 647.335 77.4162 632.868 77.4162C618.979 77.4162 609.141 85.9037 605.284 98.8277H660.838Z" fill="black"/>
<path d="M690.734 56.0043H731.436L702.501 28.4201L718.511 11.9596L746.096 40.3154V0H770.015V40.3154L797.599 12.0239L813.597 28.4201L784.675 55.94H825.363V78.7018H784.444L813.558 106.993L797.599 123.068L758.055 83.3313L718.511 123.068L702.501 107.058L731.628 78.7661H690.734V56.0043ZM746.031 111.366H769.951V165.377H746.031V111.366Z" fill="black"/>
</svg>
