<svg width="205" height="42" viewBox="0 0 205 42" fill="none" xmlns="http://www.w3.org/2000/svg">
<path d="M0 4.42506H5.79034V34.9303H21.7962V40.2938H0V4.42506ZM27.4923 4.42506C27.9622 4.41884 28.4287 4.50523 28.8651 4.67931C29.3016 4.85338 29.6995 5.11172 30.0361 5.43959C30.3727 5.76745 30.6414 6.15841 30.8269 6.59014C31.0124 7.02187 31.1111 7.48591 31.1172 7.95576C31.1172 8.91713 30.7353 9.83912 30.0555 10.5189C29.3757 11.1987 28.4537 11.5806 27.4923 11.5806C26.531 11.5806 25.609 11.1987 24.9292 10.5189C24.2494 9.83912 23.8675 8.91713 23.8675 7.95576C23.8695 7.48469 23.9653 7.01873 24.1493 6.58509C24.3333 6.15145 24.6019 5.75882 24.9394 5.43013C25.2768 5.10144 25.6764 4.84328 26.1147 4.67071C26.5531 4.49814 27.0214 4.41464 27.4923 4.42506ZM24.6678 14.4522H30.2228V40.2938H24.6678V14.4522ZM33.471 14.4522H39.026V18.03C40.6705 15.2996 43.495 13.7461 47.214 13.7461C53.2397 13.7461 57.0058 18.4537 57.0058 25.9388V40.2938H51.4509V26.4095C51.4509 21.5607 49.3324 18.8303 45.5067 18.8303C41.3201 18.8303 39.0134 21.7019 39.0134 26.8803V40.2938H33.4584L33.471 14.4522ZM59.9245 4.42506H65.4795V27.1157L75.8362 14.4522H82.8034L71.7406 27.3981L82.8034 40.2938H75.8362L65.4795 27.6806V40.2938H59.9245V4.42506ZM84.9689 7.8773H90.618V14.4679H97.2087V19.0814H90.618V32.4007C90.618 34.0986 91.6537 35.1343 93.2543 35.1343H96.9764V40.3095H92.5011C87.6523 40.3095 84.9689 37.4378 84.9689 32.3568V7.8773ZM99.6566 14.4679H105.212V17.6691C106.577 15.2211 108.883 13.7618 111.708 13.7618C112.36 13.7321 113.012 13.8116 113.638 13.9972V19.1755C112.958 19.0262 112.262 18.9629 111.567 18.9872C107.471 18.9872 105.212 22.4395 105.212 28.3553V40.3095H99.6566V14.4679ZM126.628 13.7618C132.748 13.7618 139.386 17.4808 139.386 27.9787V28.7319H119.472C119.899 33.3422 122.579 35.8843 127.052 35.8843C130.253 35.8843 132.983 34.1425 133.595 31.7448H139.244C138.679 36.92 133.313 41.0156 127.052 41.0156C119.049 41.0156 114.015 35.7902 114.015 27.3667C114.015 19.866 118.864 13.7461 126.628 13.7461V13.7618ZM133.454 24.1185C132.654 20.9173 130.159 18.8931 126.628 18.8931C123.239 18.8931 120.841 20.9644 119.899 24.1185H133.454ZM154.45 13.7618C160.57 13.7618 167.207 17.4808 167.207 27.9787V28.7319H147.294C147.718 33.3422 150.401 35.8843 154.874 35.8843C158.075 35.8843 160.805 34.1425 161.417 31.7448H167.066C166.501 36.92 161.135 41.0156 154.874 41.0156C146.871 41.0156 141.834 35.7902 141.834 27.3667C141.834 19.866 146.682 13.7461 154.45 13.7461V13.7618ZM161.276 24.1185C160.476 20.9173 157.981 18.8931 154.45 18.8931C151.06 18.8931 148.66 20.9644 147.718 24.1185H161.276Z" fill="black"/>
<path d="M168.572 13.6677H178.505L171.444 6.93585L175.351 2.91871L182.083 9.83887V0H187.92V9.83887L194.652 2.9344L198.557 6.93585L191.498 13.652H201.428V19.207H191.442L198.547 26.1115L194.652 30.0344L185.002 20.3368L175.351 30.0344L171.444 26.1271L178.552 19.2227H168.572V13.6677ZM182.067 27.1785H187.905V40.3598H182.067V27.1785Z" fill="black"/>
</svg>
