<svg width="990" height="113" viewBox="0 0 990 113" fill="none" xmlns="http://www.w3.org/2000/svg">
      <!-- <path
        d="M925.629 38.859L919.892 38.21L922.199 43.5028L925.629 38.859ZM686.119 36.67C686.972 37.3931 687.879 38.1249 688.839 38.8629L689.448 38.0699C688.5 37.3413 687.606 36.6194 686.766 35.9072L686.119 36.67ZM694.524 42.8801C696.376 44.0901 698.365 45.3035 700.488 46.509L700.982 45.6394C698.876 44.4438 696.905 43.2411 695.07 42.0429L694.524 42.8801ZM706.643 49.7872C708.659 50.7945 710.77 51.7884 712.976 52.762L713.38 51.8472C711.188 50.8799 709.091 49.8927 707.09 48.8927L706.643 49.7872ZM719.392 55.4281C721.499 56.251 723.678 57.0528 725.928 57.8284L726.254 56.883C724.017 56.1117 721.85 55.3146 719.756 54.4967L719.392 55.4281ZM732.559 59.9718C734.736 60.6302 736.972 61.2631 739.266 61.8666L739.52 60.8995C737.238 60.2991 735.014 59.6695 732.849 59.0146L732.559 59.9718ZM746.034 63.5211C748.259 64.0242 750.532 64.4991 752.853 64.9428L753.041 63.9605C750.73 63.5189 748.468 63.0464 746.255 62.5458L746.034 63.5211ZM759.713 66.1385C761.969 66.4944 764.267 66.8206 766.606 67.1147L766.731 66.1225C764.402 65.8297 762.115 65.505 759.869 65.1507L759.713 66.1385ZM773.527 67.8773C775.806 68.0934 778.121 68.279 780.471 68.4318L780.536 67.4339C778.196 67.2817 775.891 67.097 773.622 66.8817L773.527 67.8773ZM787.434 68.7833C789.728 68.8662 792.054 68.9178 794.412 68.9366L794.419 67.9366C792.072 67.9179 789.755 67.8665 787.47 67.784L787.434 68.7833ZM801.361 68.8966C803.649 68.8524 805.963 68.7773 808.305 68.6697L808.259 67.6707C805.926 67.7779 803.62 67.8528 801.342 67.8968L801.361 68.8966ZM815.253 68.2597C817.546 68.0946 819.863 67.8986 822.205 67.6702L822.107 66.6749C819.774 66.9025 817.465 67.0978 815.181 67.2622L815.253 68.2597ZM829.129 66.9082C831.4 66.6301 833.692 66.3216 836.006 65.9818L835.861 64.9924C833.555 65.3311 831.27 65.6385 829.007 65.9156L829.129 66.9082ZM842.883 64.8889C845.156 64.5004 847.449 64.0816 849.762 63.6316L849.571 62.65C847.266 63.0986 844.98 63.516 842.714 63.9032L842.883 64.8889ZM856.544 62.2336C858.788 61.7454 861.049 61.2279 863.327 60.6801L863.093 59.7078C860.822 60.2539 858.568 60.7698 856.332 61.2565L856.544 62.2336ZM870.109 58.9733C872.318 58.3924 874.543 57.7832 876.784 57.1449L876.51 56.1832C874.276 56.8196 872.057 57.427 869.855 58.0062L870.109 58.9733ZM883.466 55.1687C885.665 54.4944 887.879 53.7922 890.107 53.0613L889.795 52.1111C887.573 52.84 885.366 53.5402 883.173 54.2126L883.466 55.1687ZM896.677 50.8367C898.859 50.075 901.054 49.2858 903.262 48.4686L902.915 47.5307C900.713 48.3458 898.523 49.1329 896.347 49.8926L896.677 50.8367ZM909.728 46.0102C911.874 45.172 914.033 44.3074 916.203 43.4158L915.823 42.4908C913.658 43.3802 911.505 44.2426 909.364 45.0787L909.728 46.0102Z"
        fill="#B9B9B9"
        fill-opacity="0.6"
      ></path> -->
      <path
        d="M633 36.6524L627.429 38.1683L628.902 32.5858L633 36.6524ZM396.622 75.3247C397.355 74.48 398.14 73.6185 398.976 72.7428L399.699 73.4336C398.873 74.2983 398.099 75.148 397.378 75.98L396.622 75.3247ZM403.982 67.9059C405.629 66.4277 407.41 64.9253 409.323 63.4104L409.944 64.1945C408.046 65.6971 406.281 67.1862 404.65 68.6501L403.982 67.9059ZM414.907 59.2322C416.746 57.9294 418.681 56.6252 420.712 55.3269L421.251 56.1694C419.233 57.4594 417.311 58.7547 415.485 60.0482L414.907 59.2322ZM426.648 51.7138C428.604 50.5794 430.635 49.4549 432.741 48.3452L433.208 49.2299C431.114 50.3334 429.094 51.4514 427.149 52.5789L426.648 51.7138ZM438.968 45.2162C441.019 44.2336 443.133 43.2673 445.307 42.3212L445.706 43.2382C443.543 44.1795 441.44 45.1407 439.4 46.1181L438.968 45.2162ZM451.745 39.6543C453.866 38.8181 456.04 38.0023 458.267 37.21L458.602 38.1521C456.386 38.9407 454.222 39.7526 452.111 40.5847L451.745 39.6543ZM464.864 34.9826C467.04 34.2868 469.262 33.6141 471.528 32.967L471.803 33.9286C469.546 34.5728 467.335 35.2425 465.169 35.9351L464.864 34.9826ZM478.252 31.1583C480.472 30.5973 482.731 30.0611 485.031 29.5518L485.247 30.5281C482.957 31.0353 480.707 31.5692 478.498 32.1278L478.252 31.1583ZM491.858 28.1431C494.113 27.7114 496.404 27.3058 498.731 26.928L498.891 27.915C496.574 28.2914 494.292 28.6954 492.046 29.1252L491.858 28.1431ZM505.606 25.9081C507.873 25.6031 510.172 25.3246 512.503 25.0739L512.61 26.0682C510.288 26.3179 507.997 26.5954 505.739 26.8991L505.606 25.9081ZM519.432 24.4201C521.723 24.2337 524.043 24.0742 526.392 23.943L526.448 24.9414C524.107 25.0722 521.796 25.2311 519.513 25.4168L519.432 24.4201ZM533.352 23.6406C535.638 23.5694 537.951 23.5248 540.29 23.508L540.297 24.5079C537.966 24.5247 535.662 24.5691 533.383 24.6401L533.352 23.6406ZM547.253 23.5398C549.559 23.5772 551.889 23.6415 554.244 23.7338L554.204 24.733C551.858 24.6411 549.535 24.577 547.237 24.5397L547.253 23.5398ZM561.16 24.0816C563.451 24.2221 565.765 24.389 568.1 24.583L568.017 25.5796C565.689 25.3861 563.383 25.2198 561.098 25.0797L561.16 24.0816ZM575.063 25.2361C577.335 25.4735 579.627 25.7364 581.938 26.0256L581.814 27.0179C579.509 26.7295 577.224 26.4673 574.959 26.2307L575.063 25.2361ZM588.844 26.9603C591.12 27.2915 593.414 27.6481 595.728 28.0308L595.564 29.0174C593.258 28.6357 590.969 28.2801 588.7 27.9498L588.844 26.9603ZM602.56 29.2279C604.833 29.6481 607.123 30.0934 609.43 30.5645L609.23 31.5443C606.929 31.0745 604.645 30.6303 602.378 30.2112L602.56 29.2279ZM616.194 32.0087C618.443 32.5098 620.709 33.0353 622.99 33.5856L622.755 34.5577C620.48 34.0087 618.22 33.4846 615.977 32.9847L616.194 32.0087Z"
        fill="#B9B9B9"
        fill-opacity="0.6"
      ></path>
      <path
        d="M329 72L323.429 70.4841L324.902 76.0666L329 72ZM92.6223 33.3276C93.355 34.1723 94.1398 35.0339 94.9764 35.9096L95.6995 35.2188C94.8734 34.3541 94.0994 33.5043 93.3777 32.6724L92.6223 33.3276ZM99.9822 40.7464C101.629 42.2247 103.41 43.7271 105.323 45.2419L105.944 44.4578C104.046 42.9553 102.281 41.4662 100.65 40.0023L99.9822 40.7464ZM110.907 49.4201C112.746 50.7229 114.681 52.0271 116.712 53.3255L117.251 52.4829C115.233 51.193 113.311 49.8976 111.485 48.6042L110.907 49.4201ZM122.648 56.9385C124.604 58.0729 126.635 59.1974 128.741 60.3071L129.208 59.4224C127.114 58.319 125.094 57.201 123.149 56.0734L122.648 56.9385ZM134.968 63.4361C137.019 64.4188 139.133 65.385 141.307 66.3311L141.706 65.4141C139.543 64.4729 137.44 63.5116 135.4 62.5342L134.968 63.4361ZM147.744 68.998C149.866 69.8342 152.04 70.65 154.267 71.4424L154.602 70.5003C152.386 69.7117 150.222 68.8998 148.111 68.0677L147.744 68.998ZM160.864 73.6698C163.04 74.3655 165.261 75.0382 167.528 75.6854L167.803 74.7238C165.546 74.0795 163.335 73.4099 161.169 72.7173L160.864 73.6698ZM174.252 77.4941C176.472 78.0551 178.731 78.5913 181.031 79.1006L181.247 78.1242C178.957 77.6171 176.707 77.0832 174.498 76.5246L174.252 77.4941ZM187.858 80.5093C190.113 80.9409 192.404 81.3465 194.731 81.7244L194.891 80.7373C192.574 80.361 190.292 79.957 188.046 79.5271L187.858 80.5093ZM201.606 82.7443C203.873 83.0492 206.172 83.3278 208.503 83.5784L208.61 82.5842C206.288 82.3345 203.997 82.057 201.739 81.7532L201.606 82.7443ZM215.432 84.2323C217.723 84.4186 220.043 84.5781 222.392 84.7094L222.448 83.7109C220.107 83.5801 217.796 83.4213 215.513 83.2356L215.432 84.2323ZM229.352 85.0118C231.638 85.083 233.951 85.1276 236.29 85.1444L236.297 84.1444C233.966 84.1277 231.662 84.0832 229.383 84.0123L229.352 85.0118ZM243.253 85.1126C245.559 85.0751 247.889 85.0108 250.244 84.9186L250.204 83.9194C247.858 84.0113 245.535 84.0754 243.237 84.1127L243.253 85.1126ZM257.16 84.5708C259.451 84.4302 261.764 84.2634 264.1 84.0694L264.017 83.0728C261.689 83.2662 259.383 83.4325 257.098 83.5727L257.16 84.5708ZM271.063 83.4162C273.335 83.1789 275.627 82.916 277.938 82.6267L277.814 81.6344C275.509 81.9229 273.224 82.185 270.959 82.4216L271.063 83.4162ZM284.844 81.6921C287.12 81.3609 289.414 81.0043 291.728 80.6216L291.564 79.635C289.258 80.0167 286.969 80.3723 284.7 80.7025L284.844 81.6921ZM298.56 79.4245C300.833 79.0042 303.123 78.5589 305.43 78.0879L305.23 77.1081C302.929 77.5779 300.645 78.022 298.378 78.4411L298.56 79.4245ZM312.194 76.6437C314.443 76.1425 316.709 75.6171 318.99 75.0668L318.755 74.0947C316.48 74.6436 314.22 75.1678 311.977 75.6676L312.194 76.6437Z"
        fill="#B9B9B9"
        fill-opacity="0.6"
      ></path>
      <!-- <rect x="915" width="74" height="76" rx="16" fill="#2BAB40"></rect>
      <path
        d="M917.307 23.5935C921.904 23.5935 925.408 25.2803 927.817 28.654C930.264 32.0276 931.488 36.8842 931.488 43.2238C931.488 49.5263 930.264 54.3829 927.817 57.7936C925.408 61.2044 921.904 62.9097 917.307 62.9097C912.71 62.9097 909.188 61.2044 906.741 57.7936C904.331 54.3829 903.127 49.5263 903.127 43.2238C903.127 36.8842 904.331 32.0276 906.741 28.654C909.188 25.2803 912.71 23.5935 917.307 23.5935ZM917.307 30.0998C916.047 30.0998 915.046 30.5076 914.304 31.3232C913.563 32.1389 913.007 33.492 912.636 35.3828C912.302 37.2735 912.135 39.8872 912.135 43.2238C912.135 46.5604 912.302 49.1926 912.636 51.1204C913.007 53.0111 913.563 54.3643 914.304 55.1799C915.046 55.9955 916.047 56.4034 917.307 56.4034C918.568 56.4034 919.569 56.0141 920.31 55.2355C921.052 54.4199 921.589 53.0668 921.923 51.176C922.293 49.2482 922.479 46.5975 922.479 43.2238C922.479 39.8501 922.293 37.2179 921.923 35.3272C921.589 33.3994 921.052 32.0462 920.31 31.2676C919.569 30.4891 918.568 30.0998 917.307 30.0998ZM963.795 47.2833V53.8453H959.569V61.9644H951.005L950.949 53.8453H935.1V48.0062L945.777 23.4266L953.229 26.2071L944.165 47.2833H951.06L952.006 38.3857H959.569V47.2833H963.795Z"
        fill="white"
      ></path> -->
      <rect x="618" y="7.99951" width="74" height="76" rx="16" fill="#2BAB40"></rect>
      <path
        d="M619.855 32.6286C624.452 32.6286 627.955 34.3154 630.365 37.6891C632.812 41.0628 634.035 45.9194 634.035 52.2589C634.035 58.5614 632.812 63.418 630.365 66.8288C627.955 70.2395 624.452 71.9449 619.855 71.9449C615.258 71.9449 611.736 70.2395 609.289 66.8288C606.879 63.418 605.674 58.5614 605.674 52.2589C605.674 45.9194 606.879 41.0628 609.289 37.6891C611.736 34.3154 615.258 32.6286 619.855 32.6286ZM619.855 39.135C618.594 39.135 617.593 39.5428 616.852 40.3584C616.11 41.174 615.554 42.5272 615.184 44.4179C614.85 46.3087 614.683 48.9223 614.683 52.2589C614.683 55.5955 614.85 58.2277 615.184 60.1556C615.554 62.0463 616.11 63.3995 616.852 64.2151C617.593 65.0307 618.594 65.4385 619.855 65.4385C621.115 65.4385 622.116 65.0492 622.858 64.2707C623.599 63.4551 624.137 62.1019 624.47 60.2112C624.841 58.2834 625.027 55.6326 625.027 52.2589C625.027 48.8853 624.841 46.2531 624.47 44.3623C624.137 42.4345 623.599 41.0813 622.858 40.3028C622.116 39.5243 621.115 39.135 619.855 39.135ZM648.839 32.6286C651.471 32.6286 653.714 33.055 655.567 33.9076C657.458 34.7603 658.885 35.9096 659.849 37.3555C660.85 38.8013 661.351 40.414 661.351 42.1935C661.351 44.455 660.702 46.3457 659.404 47.8658C658.144 49.3858 656.346 50.4794 654.01 51.1467C656.531 51.4063 658.589 52.3146 660.183 53.8716C661.777 55.3916 662.574 57.5604 662.574 60.378C662.574 62.4912 662.018 64.4375 660.906 66.2171C659.794 67.9595 658.144 69.3497 655.957 70.3878C653.806 71.4259 651.23 71.9449 648.227 71.9449C642.74 71.9449 638.439 70.0541 635.325 66.2727L640.052 61.657C641.313 62.9175 642.536 63.8444 643.722 64.4375C644.946 64.9936 646.28 65.2717 647.726 65.2717C649.469 65.2717 650.878 64.7897 651.953 63.8258C653.028 62.8619 653.565 61.5273 653.565 59.8219C653.565 57.8941 653.046 56.5224 652.008 55.7068C651.007 54.8541 649.487 54.4277 647.448 54.4277H644.334L645.279 48.3662H647.448C649.117 48.3662 650.433 47.9399 651.397 47.0872C652.36 46.2345 652.842 45.0296 652.842 43.4726C652.842 42.1008 652.398 41.0443 651.508 40.3028C650.618 39.5243 649.395 39.135 647.838 39.135C645.205 39.135 642.759 40.2286 640.497 42.416L636.159 37.6891C639.718 34.3154 643.945 32.6286 648.839 32.6286Z"
        fill="white"
      ></path>
      <rect x="20" y="-0.000488281" width="74" height="76" rx="16" fill="#2BAB40"></rect>
      <path
        d="M21.7556 23.6291C26.3527 23.6291 29.8561 25.3159 32.2659 28.6896C34.7127 32.0633 35.9361 36.9199 35.9361 43.2594C35.9361 49.5619 34.7127 54.4185 32.2659 57.8292C29.8561 61.24 26.3527 62.9454 21.7556 62.9454C17.1585 62.9454 13.6365 61.24 11.1897 57.8292C8.77992 54.4185 7.57504 49.5619 7.57504 43.2594C7.57504 36.9199 8.77992 32.0633 11.1897 28.6896C13.6365 25.3159 17.1585 23.6291 21.7556 23.6291ZM21.7556 30.1355C20.4951 30.1355 19.4941 30.5433 18.7527 31.3589C18.0112 32.1745 17.4551 33.5277 17.0844 35.4184C16.7507 37.3092 16.5839 39.9228 16.5839 43.2594C16.5839 46.596 16.7507 49.2282 17.0844 51.156C17.4551 53.0468 18.0112 54.4 18.7527 55.2156C19.4941 56.0312 20.4951 56.439 21.7556 56.439C23.0161 56.439 24.0171 56.0497 24.7585 55.2712C25.5 54.4556 26.0376 53.1024 26.3712 51.2117C26.742 49.2838 26.9273 46.6331 26.9273 43.2594C26.9273 39.8858 26.742 37.2535 26.3712 35.3628C26.0376 33.435 25.5 32.0818 24.7585 31.3033C24.0171 30.5247 23.0161 30.1355 21.7556 30.1355ZM57.9855 24.4076V62H49.366V32.9716L41.3025 37.9209L37.4654 32.0818L50.1445 24.4076H57.9855Z"
        fill="white"
      ></path>
      <rect x="319" y="36.9995" width="74" height="76" rx="16" fill="#2BAB40"></rect>
      <path
        d="M320.963 60.6286C325.561 60.6286 329.064 62.3154 331.474 65.6891C333.921 69.0628 335.144 73.9194 335.144 80.2589C335.144 86.5614 333.921 91.418 331.474 94.8288C329.064 98.2395 325.561 99.9449 320.963 99.9449C316.366 99.9449 312.844 98.2395 310.398 94.8288C307.988 91.418 306.783 86.5614 306.783 80.2589C306.783 73.9194 307.988 69.0628 310.398 65.6891C312.844 62.3154 316.366 60.6286 320.963 60.6286ZM320.963 67.135C319.703 67.135 318.702 67.5428 317.961 68.3584C317.219 69.174 316.663 70.5272 316.292 72.4179C315.959 74.3087 315.792 76.9223 315.792 80.2589C315.792 83.5955 315.959 86.2277 316.292 88.1556C316.663 90.0463 317.219 91.3995 317.961 92.2151C318.702 93.0307 319.703 93.4385 320.963 93.4385C322.224 93.4385 323.225 93.0492 323.966 92.2707C324.708 91.4551 325.245 90.1019 325.579 88.2112C325.95 86.2834 326.135 83.6326 326.135 80.2589C326.135 76.8853 325.95 74.2531 325.579 72.3623C325.245 70.4345 324.708 69.0813 323.966 68.3028C323.225 67.5243 322.224 67.135 320.963 67.135ZM349.837 60.6286C352.544 60.6286 354.861 61.1106 356.788 62.0745C358.753 63.0384 360.236 64.3359 361.237 65.9672C362.275 67.5984 362.794 69.3965 362.794 71.3613C362.794 73.3633 362.387 75.2726 361.571 77.0892C360.755 78.9058 359.309 81.0004 357.233 83.3731C355.157 85.7087 352.136 88.6746 348.169 92.2707H363.573L362.683 98.9995H338.215V92.7712C342.775 88.2853 346.093 84.9116 348.169 82.6502C350.245 80.3516 351.691 78.4423 352.507 76.9223C353.359 75.4023 353.786 73.8453 353.786 72.2511C353.786 70.7311 353.341 69.5447 352.451 68.6921C351.598 67.8023 350.43 67.3574 348.947 67.3574C347.613 67.3574 346.426 67.6725 345.388 68.3028C344.35 68.896 343.257 69.8784 342.107 71.2501L336.936 67.135C338.493 65.0959 340.346 63.5018 342.497 62.3525C344.684 61.2032 347.131 60.6286 349.837 60.6286Z"
        fill="white"
      ></path>
    </svg>