<svg width="40" height="40" viewBox="0 0 40 40" fill="none" xmlns="http://www.w3.org/2000/svg">
<path d="M0 8C0 3.58172 3.58172 0 8 0H32C36.4183 0 40 3.58172 40 8V32C40 36.4183 36.4183 40 32 40H8C3.58172 40 0 36.4183 0 32V8Z" fill="black"/>
<path d="M25.323 16.5245C26.9338 17.6778 28.9071 18.3564 31.0383 18.3564V14.2486C30.635 14.2487 30.2327 14.2065 29.8381 14.1228V17.3562C27.707 17.3562 25.734 16.6776 24.1227 15.5244V23.9072C24.1227 28.1007 20.7288 31.4999 16.5423 31.4999C14.9802 31.4999 13.5283 31.0269 12.3223 30.2157C13.6988 31.6255 15.6185 32.5 17.7423 32.5C21.929 32.5 25.3232 29.1007 25.3232 24.9071V16.5245H25.323V16.5245ZM26.8036 12.3802C25.9804 11.4794 25.44 10.3153 25.323 9.02832V8.49997H24.1856C24.4719 10.1357 25.4484 11.5332 26.8036 12.3802ZM14.9702 26.9977C14.5103 26.3937 14.2617 25.6548 14.2628 24.8951C14.2628 22.9771 15.8152 21.422 17.7305 21.422C18.0874 21.4219 18.4422 21.4767 18.7824 21.5848V17.3852C18.3848 17.3306 17.9836 17.3075 17.5826 17.316V20.5847C17.2422 20.4766 16.8872 20.4217 16.5302 20.422C14.615 20.422 13.0627 21.977 13.0627 23.8952C13.0627 25.2515 13.8386 26.4257 14.9702 26.9977Z" fill="#FF004F"/>
<path d="M24.1226 15.5243C25.7338 16.6775 27.7069 17.3561 29.8379 17.3561V14.1227C28.6484 13.8689 27.5953 13.2463 26.8035 12.3802C25.4482 11.5331 24.4718 10.1356 24.1855 8.49997H21.1978V24.9069C21.191 26.8196 19.6413 28.3684 17.7302 28.3684C16.604 28.3684 15.6035 27.8307 14.9698 26.9977C13.8383 26.4257 13.0624 25.2514 13.0624 23.8953C13.0624 21.9772 14.6147 20.4221 16.5299 20.4221C16.8969 20.4221 17.2506 20.4794 17.5823 20.5848V17.316C13.4694 17.4012 10.1616 20.7672 10.1616 24.907C10.1616 26.9735 10.9853 28.847 12.3222 30.2158C13.5283 31.0269 14.9802 31.5 16.5423 31.5C20.7288 31.5 24.1227 28.1006 24.1227 23.9072V15.5243H24.1226Z" fill="white"/>
<path d="M29.8382 14.1227V13.2484C28.7655 13.2501 27.7138 12.9492 26.8037 12.3801C27.6094 13.2636 28.6703 13.8728 29.8382 14.1227ZM24.1857 8.49998C24.1584 8.34366 24.1374 8.1863 24.1228 8.02835V7.5H19.9977V23.9071C19.9911 25.8196 18.4414 27.3683 16.5301 27.3683C15.969 27.3683 15.4392 27.2349 14.97 26.9978C15.6037 27.8307 16.6042 28.3683 17.7304 28.3683C19.6414 28.3683 21.1913 26.8197 21.198 24.907V8.49998H24.1857ZM17.5827 17.3161V16.3853C17.238 16.3381 16.8905 16.3144 16.5426 16.3146C12.3557 16.3145 8.96167 19.714 8.96167 23.9071C8.96167 26.536 10.2956 28.8528 12.3225 30.2156C10.9856 28.8469 10.1619 26.9734 10.1619 24.9069C10.1619 20.7672 13.4696 17.4012 17.5827 17.3161Z" fill="#00F2EA"/>
</svg>
