<svg width="48" height="48" viewBox="0 0 48 48" fill="none" xmlns="http://www.w3.org/2000/svg">
<rect width="48" height="48" rx="8" fill="#131313"/>
<g clip-path="url(#clip0_770_40314)">
<path d="M46 2H2V46H46V2Z" fill="#131313"/>
<path d="M29.7105 25.6906C28.8919 25.6906 28.4715 25.0187 28.4715 24.1935C28.4715 23.3683 28.8845 22.7329 29.7105 22.7329C30.5514 22.7329 30.9496 23.3975 30.9496 24.1935C30.9422 25.0333 30.5218 25.6906 29.7105 25.6906ZM21.701 22.7329C22.1804 22.7329 22.3794 23.0104 22.3794 23.2515C22.3794 23.8357 21.782 24.0913 20.5356 24.1278C20.5356 23.4048 20.9487 22.7329 21.701 22.7329ZM16.3907 25.6906C15.6163 25.6906 15.2918 25.0626 15.2918 24.1935C15.2918 23.3318 15.6237 22.7329 16.3907 22.7329C17.1725 22.7329 17.5413 23.3536 17.5413 24.1935C17.5413 25.0699 17.1578 25.6906 16.3907 25.6906ZM9.84152 21.8785H8.63197L10.6381 26.4648C10.2545 27.3119 10.048 27.5236 9.78252 27.5236C9.50226 27.5236 9.23674 27.2973 9.04499 27.1001L8.51396 27.8012C8.87536 28.1809 9.3695 28.4 9.87839 28.4C10.5127 28.4 10.9994 28.0348 11.2797 27.3776L13.5955 21.8712H12.4081L11.1986 25.1575L9.84152 21.8785ZM41.8797 22.7329C42.4697 22.7329 42.5878 23.1346 42.5878 24.0767V26.5523H43.6351V23.4267C43.6351 22.302 42.8607 21.8128 42.1452 21.8128C41.511 21.8128 40.9283 22.2071 40.6038 22.9374C40.4195 22.2364 39.8294 21.8128 39.1435 21.8128C38.5462 21.8128 37.9487 22.1925 37.6242 22.9009V21.8785H36.5769V26.5451H37.6242V24.5513C37.6242 23.5436 38.1552 22.7329 38.878 22.7329C39.4681 22.7329 39.5786 23.1346 39.5786 24.0767V26.5523H40.6259L40.6186 24.5513C40.6186 23.5436 41.157 22.7329 41.8797 22.7329ZM33.4899 21.8785H32.9925V26.5451H34.0398V24.7558C34.0398 23.6239 34.5414 22.8571 35.2862 22.8571C35.478 22.8571 35.6403 22.8644 35.8173 22.9374L35.9795 21.8347C35.8468 21.8201 35.7287 21.8055 35.6108 21.8055C34.8733 21.8055 34.3422 22.3094 34.0324 22.9593V21.8785H33.4899ZM29.7105 21.8055C28.324 21.8055 27.3873 22.8571 27.3873 24.1862C27.3873 25.5665 28.3387 26.5962 29.7105 26.5962C31.1044 26.5962 32.0558 25.5373 32.0558 24.1862C32.0485 22.8498 31.0823 21.8055 29.7105 21.8055ZM21.7599 25.6906C21.2142 25.6906 20.8085 25.4131 20.6389 24.8507C22.0255 24.7923 23.3825 24.4564 23.3825 23.2368C23.3825 22.5358 22.6892 21.8128 21.6936 21.8128C20.3513 21.8128 19.4441 22.9009 19.4441 24.1935C19.4441 25.5445 20.3365 26.6035 21.6715 26.6035C22.6008 26.6035 23.1908 26.231 23.6555 25.6906L23.1465 25.0042C22.6081 25.5519 22.2763 25.6906 21.7599 25.6906ZM16.5973 21.8055C16.0662 21.8055 15.5353 22.1122 15.3287 22.5942V21.8785H14.2815V28.3781H15.3287V26.0558C15.55 26.3917 16.0589 26.6107 16.5088 26.6107C17.9027 26.6107 18.6402 25.581 18.6402 24.1935C18.6329 22.8206 17.91 21.8055 16.5973 21.8055ZM9.25149 20.009H4.31006V21.0241H6.24237V26.5451H7.3413V21.0241H9.25149V20.009ZM24.8207 21.8785H24.1938V22.8133H24.8207V26.5451H25.868V22.8133H26.8858V21.8785H25.868V21.1483C25.868 20.6809 26.0597 20.5202 26.4949 20.5202C26.6571 20.5202 26.8046 20.5639 27.0039 20.6297L27.2398 19.7533C27.0481 19.6438 26.6645 19.6 26.4138 19.6C25.4107 19.6 24.8207 20.1988 24.8207 21.2358V21.8785Z" fill="white"/>
</g>
<defs>
<clipPath id="clip0_770_40314">
<rect width="44" height="44" fill="white" transform="translate(2 2)"/>
</clipPath>
</defs>
</svg>
