<?xml  version="1.0" encoding="UTF-8"?>
<!DOCTYPE svg PUBLIC "-//W3C//DTD SVG 1.0//EN" "http://www.w3.org/TR/2001/REC-SVG-20010904/DTD/svg10.dtd" >
<svg xmlns="http://www.w3.org/2000/svg" >
<metadata>
<version>1.0</version>
<id><![CDATA[Helvetica LT W10 Roman]]></id>
<vendor>Monotype Imaging Inc.</vendor>
<credits>
<name>Fonts.com WebFonts</name>
<URL>http://webfonts.fonts.com</URL>
<role>Home of the Web fonts</role>
</credits>
<license>
<URL>http://webfonts.fonts.com/Legal</URL>
</license>
<copyright><![CDATA[Part of the digitally encoded machine readable outline data for producing the Typefaces provided is copyrighted (c) 1981,2005 Linotype Library GmbH, www.linotype.com. All rights reserved. This software is the property of Linotype Library GmbH, and may not be reproduced, used, displayed, modified, disclosed or transferred without the express written approval of Linotype Library GmbH.Copyright (c) 1981, 1993 Adobe Systems Incorporated. All rights reserved.]]></copyright>
<trademark><![CDATA[Helvetica is a trademark of Heidelberger Druckmaschinen AG, which may be registered in certain jurisdictions, exclusively licensed through Linotype Library GmbH, a wholly owned subsidiary of Heidelberger Druckmaschinen AG.]]></trademark>
<licensee>
<name></name>
</licensee>
</metadata>
<defs >
<font horiz-adv-x="569" id="9c58e9ea-fdea-4b9c-b0f9-0a2157389ed0">
<font-face font-family="" panose-1="2 0 5 3 4 0 0 2 0 4" ascent="786" descent="-220" units-per-em="1000" alphabetic="0">
</font-face>
<missing-glyph horiz-adv-x="278" />

<glyph unicode="&#xA;" />
<glyph unicode="&#xD;" horiz-adv-x="278" />
<glyph unicode=" " horiz-adv-x="278" />
<glyph unicode="!" horiz-adv-x="278" d="M91 718H187V481L164 171H114L91 481V718ZM88 108H190V0H88V108Z"  />
<glyph unicode="&quot;" horiz-adv-x="444" d="M251 718H341V466H251V718ZM103 718H193V466H103V718Z"  />
<glyph unicode="#" horiz-adv-x="556" d="M212 275H324L344 411H232L212 275ZM124 203H32V275H134L154 411H62V483H164L193 686H271L242 483H354L383 686H461L432 483H524V411H422L402 275H494V203H392L363 0H285L314 203H202L173 0H95L124 203Z"  />
<glyph unicode="$" horiz-adv-x="556" d="M254 630Q227 630 205 621T168 597T144 561T136 516Q136 490 146 471T172 439T210 417T254 406V630ZM302 56Q368 57 401 93T434 182Q434 231 404 260T302 307V56ZM254 318Q140 340 93 387T46 506Q46 545 60 580T101 641T166 683T254 702V774H302V702Q344 700 380 687T444 651T488 594T505 515H420Q412 569 384 595T302 630V396Q361 382 403 366T472 327T511 275T524 204Q524 150 509 110T464 43T394 2T302 -16V-88H254V-16Q148 -10 90 44T32 199V214H122Q122 186 127 161T146 114T186 78T254 56V318Z"  />
<glyph unicode="%" horiz-adv-x="889" d="M205 428Q242 428 257 457T273 532Q273 577 258 606T205 636Q167 636 152 607T136 532Q136 487 151 458T205 428ZM606 702H674L283 -16H214L606 702ZM685 50Q722 50 737 79T753 154Q753 199 738 228T685 258Q647 258 632 229T616 154Q616 109 631 80T685 50ZM205 362Q167 362 141 375T97 412T72 466T64 532Q64 567 72 598T97 652T140 688T205 702Q242 702 268 689T312 652T337 598T345 532Q345 497 337 466T312 412T269 376T205 362ZM685 -16Q647 -16 621 -3T577 34T552 88T544 154Q544 189 552 220T577 274T620 310T685 324Q722 324 748 311T792 274T817 220T825 154Q825 119 817 88T792 34T749 -2T685 -16Z"  />
<glyph unicode="&amp;" horiz-adv-x="667" d="M255 339Q191 301 162 266T132 180Q132 152 143 129T172 90T213 65T261 56Q301 56 341 74T417 141L255 339ZM215 566Q215 532 237 500T286 439Q322 462 350 492T378 565Q378 600 357 623T299 646Q276 646 260 639T234 621T220 596T215 566ZM464 82Q449 65 431 48T388 17T329 -7T247 -16Q198 -16 160 -1T96 41T56 101T42 173Q42 212 50 241T76 297T126 347T206 399Q179 429 155 469T131 560Q131 589 141 617T173 668T226 704T302 718Q342 718 372 706T422 674T452 628T462 572Q462 534 450 505T418 453T376 413T332 382L463 226Q473 253 480 280T492 338H576Q569 274 550 228T517 155L645 0H531L464 82Z"  />
<glyph unicode="&apos;" horiz-adv-x="278" d="M94 718H184V466H94V718Z"  />
<glyph unicode="(" horiz-adv-x="333" d="M235 -206Q163 -103 118 11T72 261Q72 396 117 510T235 728H294Q257 659 232 603T192 493T169 384T162 261Q162 194 169 139T191 30T232 -80T294 -206H235Z"  />
<glyph unicode=")" horiz-adv-x="333" d="M39 -206Q76 -137 101 -81T141 29T164 138T171 261Q171 328 164 383T142 492T101 602T39 728H98Q170 625 215 511T261 261Q261 126 216 12T98 -206H39Z"  />
<glyph unicode="*" horiz-adv-x="389" d="M164 718H224V608L328 641L347 591L241 557L306 463L259 431L194 523L129 431L82 463L147 557L41 591L60 641L164 608V718Z"  />
<glyph unicode="+" horiz-adv-x="600" d="M258 211H47V295H258V506H342V295H553V211H342V0H258V211Z"  />
<glyph unicode="&#x2c;" horiz-adv-x="278" d="M88 108H190V8Q190 -34 181 -61T158 -104T126 -129T88 -144V-98Q118 -92 127 -65T139 0H88V108Z"  />
<glyph unicode="-" horiz-adv-x="333" d="M44 324H289V234H44V324Z"  />
<glyph unicode="." horiz-adv-x="278" d="M88 108H190V0H88V108Z"  />
<glyph unicode="/" horiz-adv-x="278" d="M224 736H290L54 -18H-12L224 736Z"  />
<glyph unicode="0" horiz-adv-x="556" d="M133 343Q133 278 139 226T161 138T206 82T278 62Q308 62 334 74T380 119T411 205T423 343Q423 408 417 460T395 548T350 604T278 624Q248 624 222 612T176 567T145 481T133 343ZM37 341Q37 402 47 466T85 582T159 668T278 702Q346 702 392 677T466 604T507 490T519 343Q519 316 517 280T506 203T481 124T438 54T370 3T274 -16Q221 -16 183 2T119 50T76 118T52 196T40 274T37 341Z"  />
<glyph unicode="1" horiz-adv-x="556" d="M260 502H96V568Q132 570 162 574T217 592T258 631T285 702H356V0H260V502Z"  />
<glyph unicode="2" horiz-adv-x="556" d="M49 451V467Q49 518 64 561T110 635T184 684T286 702Q346 702 389 685T460 638T501 571T514 493Q514 455 504 424T472 366T415 313T331 261Q279 233 244 212T185 171T150 131T131 84H513V0H32Q36 54 46 96T80 174T147 245T263 318Q304 340 333 358T381 397T409 440T418 495Q418 522 409 545T383 586T339 614T278 624Q214 624 178 583T139 451H49Z"  />
<glyph unicode="3" horiz-adv-x="556" d="M116 215Q117 146 152 104T265 62Q298 62 326 71T374 97T406 138T418 194Q418 231 407 256T373 296T320 317T249 324H215V398Q225 397 234 397T255 396Q322 396 358 423T395 512Q395 534 387 554T364 590T325 615T272 624Q195 624 162 581T128 470H44Q44 530 61 573T107 645T178 688T268 702Q368 702 426 652T485 512Q485 461 462 426T395 373V371Q448 356 481 316T514 207Q514 161 499 121T452 50T373 2T264 -16Q195 -16 150 4T78 57T40 131T26 215H116Z"  />
<glyph unicode="4" horiz-adv-x="556" d="M331 171H25V258L346 702H421V249H523V171H421V0H331V171ZM331 560H329L106 249H331V560Z"  />
<glyph unicode="5" horiz-adv-x="556" d="M116 686H475V602H177L147 409Q176 432 209 442T279 453Q328 453 371 437T445 392T495 322T514 232Q514 200 505 157T468 76T390 11T260 -16Q217 -16 178 -5T108 31T58 91T34 178H124Q128 122 167 92T268 62Q305 62 333 75T380 110T408 160T418 220Q418 258 406 287T374 335T326 365T268 375Q226 375 192 358T134 307L58 311L116 686Z"  />
<glyph unicode="6" horiz-adv-x="556" d="M415 516Q397 624 294 624Q256 624 226 606T175 553T142 470T127 362H129Q138 377 152 392T186 419T234 438T296 446Q338 446 377 432T446 390T495 320T514 222Q514 186 503 145T466 68T395 8T286 -16Q220 -16 173 7T96 74T51 177T37 309Q37 351 41 396T56 485T85 568T133 637T202 684T298 702Q340 702 375 690T438 653T481 595T501 516H415ZM139 215Q139 187 148 160T175 111T219 76T282 62Q318 62 344 75T388 110T415 159T424 215Q424 287 387 327T282 368Q215 368 177 328T139 215Z"  />
<glyph unicode="7" horiz-adv-x="556" d="M37 686H523V607Q478 559 433 492T349 345T279 177T234 0H137Q144 57 166 129T224 279T310 439T424 596H37V686Z"  />
<glyph unicode="8" horiz-adv-x="556" d="M39 195Q39 268 72 310T158 373Q113 390 88 425T63 510Q63 550 77 585T118 646T186 687T278 702Q330 702 370 687T437 647T479 586T493 510Q493 460 466 426T403 374Q437 359 459 340T494 299T512 251T517 195Q517 155 503 117T459 50T384 2T278 -16Q217 -16 172 2T98 49T54 117T39 195ZM135 195Q135 169 143 145T169 103T214 73T278 62Q315 62 342 73T386 102T412 145T421 195Q421 220 413 243T387 285T342 315T278 326Q241 326 214 315T170 286T144 244T135 195ZM153 515Q153 494 160 475T182 439T220 414T278 404Q308 404 331 413T370 439T394 474T403 515Q403 535 397 554T375 589T336 614T278 624Q243 624 220 616T181 592T160 557T153 515Z"  />
<glyph unicode="9" horiz-adv-x="556" d="M141 170Q159 62 262 62Q300 62 330 80T381 133T414 216T429 324H427Q418 309 404 294T370 267T322 248T260 240Q218 240 179 254T110 296T61 366T42 464Q42 500 53 541T90 618T161 678T270 702Q336 702 383 679T460 612T505 509T519 377Q519 335 515 290T500 201T471 118T423 49T353 2T258 -16Q216 -16 180 -4T117 33T74 91T55 170H141ZM132 471Q132 399 169 359T274 318Q341 318 379 358T417 471Q417 499 408 526T381 575T337 610T274 624Q238 624 212 611T168 575T141 526T132 471Z"  />
<glyph unicode=":" horiz-adv-x="278" d="M88 523H190V415H88V523ZM88 108H190V0H88V108Z"  />
<glyph unicode=";" horiz-adv-x="278" d="M88 108H190V8Q190 -34 181 -61T158 -104T126 -129T88 -144V-98Q118 -92 127 -65T139 0H88V108ZM88 523H190V415H88V523Z"  />
<glyph unicode="&lt;" horiz-adv-x="600" d="M47 291L553 514V426L160 253L553 80V-8L47 215V291Z"  />
<glyph unicode="=" horiz-adv-x="600" d="M47 400H553V316H47V400ZM47 190H553V106H47V190Z"  />
<glyph unicode="&gt;" horiz-adv-x="600" d="M47 80L440 253L47 426V514L553 291V215L47 -8V80Z"  />
<glyph unicode="?" horiz-adv-x="556" d="M73 493V520Q73 544 83 579T118 648T186 704T297 728Q345 728 385 714T453 675T498 613T514 531Q514 493 501 465T467 414T422 370T378 326T344 274T330 209V183H240V211Q240 253 253 285T286 342T329 389T372 431T405 476T418 530Q418 591 383 620T295 650Q268 650 244 642T203 615T175 566T163 493H73ZM234 108H336V0H234V108Z"  />
<glyph unicode="@" horiz-adv-x="800" d="M498 390Q498 429 475 455T418 481Q388 481 364 466T321 426T293 372T283 314Q283 272 305 246T365 219Q394 219 418 235T460 276T488 331T498 390ZM545 551H623L553 284Q550 273 548 261T545 238T550 221T565 214Q587 214 610 229T651 272T680 334T692 411Q692 472 670 519T611 598T523 647T414 664Q348 664 294 641T202 576T142 478T120 357Q120 290 143 234T206 138T302 76T423 54Q491 54 550 79T651 150H731Q680 69 598 26T421 -18Q341 -18 271 10T149 90T66 210T36 360Q36 439 66 507T148 627T269 707T416 736Q485 736 548 714T659 651T735 553T764 427Q764 352 737 297T670 206T589 153T517 135Q494 135 477 150T457 194H455Q433 171 403 153T341 135Q309 135 281 148T232 185T199 238T187 303Q187 352 203 399T248 483T318 542T411 565Q447 565 477 548T528 493L545 551Z"  />
<glyph unicode="A" horiz-adv-x="667" d="M473 217H193L116 0H13L283 718H393L653 0H550L473 217ZM334 610H332L220 295H446L334 610Z"  />
<glyph unicode="B" horiz-adv-x="667" d="M74 718H331Q373 718 405 716T465 706Q491 699 514 685T555 650T583 601T593 537Q593 519 588 498T572 455T543 416T497 387Q519 379 542 367T584 333T615 283T627 212Q627 176 614 139T572 71T494 20T377 0H74V718ZM363 84Q410 84 442 93T494 118T522 158T531 209Q531 237 523 260T494 299T442 325T363 334H170V84H363ZM349 412Q396 412 425 421T470 445T491 482T497 527Q497 577 464 605T349 634H170V412H349Z"  />
<glyph unicode="C" horiz-adv-x="722" d="M135 360Q135 292 152 238T200 146T274 87T371 66Q417 66 453 82T516 126T558 187T580 257H673Q668 210 647 161T589 73T497 8T371 -18Q322 -18 264 -2T156 55T73 167T39 350Q39 423 53 480T91 580T147 652T217 700T295 727T374 736Q447 736 501 714T591 659T646 584T668 505H574Q556 574 504 613T377 652Q322 652 277 632T201 573T152 481T135 360Z"  />
<glyph unicode="D" horiz-adv-x="722" d="M81 718H323Q375 718 420 712T509 683Q590 641 632 560T674 369Q674 309 660 244T610 124T515 35T368 0H81V718ZM177 84H366Q461 84 517 155T574 363Q574 521 491 589Q457 617 419 625T327 634H177V84Z"  />
<glyph unicode="E" horiz-adv-x="667" d="M74 718H598V634H170V412H565V328H170V84H605V0H74V718Z"  />
<glyph unicode="F" horiz-adv-x="611" d="M182 0H86V718H583V634H182V412H535V328H182V0Z"  />
<glyph unicode="G" horiz-adv-x="778" d="M389 385H704V0H641L618 94Q581 43 518 13T381 -18Q297 -18 234 10T130 90T69 211T48 365Q48 431 68 497T130 616T236 702T388 736Q438 736 489 722T582 678T654 605T692 500H598Q586 547 562 577T508 623T446 646T383 652Q335 652 292 633T217 578T167 487T148 363Q148 307 158 254T196 159T269 92T387 66Q401 66 418 67T455 73T494 87T535 112Q582 149 598 196T614 301H389V385Z"  />
<glyph unicode="H" horiz-adv-x="722" d="M74 718H170V422H552V718H648V0H552V338H170V0H74V718Z"  />
<glyph unicode="I" horiz-adv-x="278" d="M91 718H187V0H91V718Z"  />
<glyph unicode="J" horiz-adv-x="500" d="M330 718H426V202Q426 135 408 92T360 25T291 -9T210 -18Q173 -18 139 -8T77 26T34 86T17 174V231H107V181Q107 125 131 96T215 66Q241 66 262 72T298 94T321 134T330 197V718Z"  />
<glyph unicode="K" horiz-adv-x="667" d="M74 718H170V368L520 718H654L355 428L662 0H539L286 362L170 250V0H74V718Z"  />
<glyph unicode="L" horiz-adv-x="556" d="M170 84H537V0H74V718H170V84Z"  />
<glyph unicode="M" horiz-adv-x="833" d="M74 718H212L415 114H417L620 718H758V0H668V604H666L464 0H368L166 604H164V0H74V718Z"  />
<glyph unicode="N" horiz-adv-x="722" d="M74 718H185L550 137H552V718H648V0H537L172 584H170V0H74V718Z"  />
<glyph unicode="O" horiz-adv-x="778" d="M739 359Q739 289 718 222T654 101T545 15T389 -18Q299 -18 234 14T125 100T60 221T39 359Q39 443 62 512T131 631T241 708T389 736Q472 736 537 709T647 631T715 512T739 359ZM643 359Q643 423 626 477T577 570T497 630T389 652Q329 652 282 631T202 570T152 477T135 359Q135 293 150 239T197 147T277 87T389 66Q453 66 501 87T580 146T627 239T643 359Z"  />
<glyph unicode="P" horiz-adv-x="667" d="M380 382Q456 382 489 414T523 508Q523 570 490 602T380 634H184V382H380ZM88 718H390Q448 718 491 703T563 661T605 594T619 508Q619 461 605 422T563 356T492 313T390 298H184V0H88V718Z"  />
<glyph unicode="Q" horiz-adv-x="778" d="M684 -56L572 30Q535 7 490 -5T389 -18Q299 -18 234 14T125 100T60 221T39 359Q39 443 62 512T131 631T241 708T389 736Q472 736 537 709T647 631T715 512T739 359Q739 281 714 208T634 79L733 2L684 -56ZM469 208L566 133Q605 171 624 229T643 359Q643 423 626 477T577 570T497 630T389 652Q329 652 282 631T202 570T152 477T135 359Q135 293 150 239T197 147T277 87T389 66Q453 66 500 87L420 148L469 208Z"  />
<glyph unicode="R" horiz-adv-x="722" d="M184 0H88V718H420Q464 718 506 709T582 679T635 620T656 525Q656 485 647 457T624 410T591 377T556 353Q571 347 586 339T613 317T632 279T642 218L648 88Q648 73 649 63T655 44T666 29T684 16V0H565Q560 16 557 42T552 96T550 146T549 180Q549 202 545 224T528 265T489 295T420 307H184V0ZM184 391H410Q437 391 463 395T509 413T543 451T556 515Q556 556 543 580T510 616T468 631T427 634H184V391Z"  />
<glyph unicode="S" horiz-adv-x="667" d="M507 507Q505 537 494 563T462 609T408 640T331 652Q244 652 203 620T162 527Q162 488 193 465T284 428L427 393Q526 369 572 323T618 201Q618 137 593 95T526 27T433 -8T328 -18Q257 -18 204 1T117 53T65 129T48 221V233H138Q138 192 153 161T195 109T256 77T330 66Q369 66 403 73T464 94T506 131T522 186Q522 236 491 263T383 308L255 340Q158 364 115 407T72 522Q72 566 88 605T135 673T214 719T326 736Q386 736 436 722T521 678T577 607T597 507H507Z"  />
<glyph unicode="T" horiz-adv-x="611" d="M14 718H598V634H354V0H258V634H14V718Z"  />
<glyph unicode="U" horiz-adv-x="722" d="M643 718V253Q643 198 626 149T573 62T483 4T354 -18Q282 -18 230 3T145 61T95 143T79 240V718H175V265Q175 206 191 168T233 107T291 75T357 66Q391 66 425 75T486 106T530 166T547 263V718H643Z"  />
<glyph unicode="V" horiz-adv-x="667" d="M538 718H647L385 0H282L20 718H128L333 106H335L538 718Z"  />
<glyph unicode="W" horiz-adv-x="944" d="M305 0H203L16 718H121L255 134H257L418 718H524L685 134H687L821 718H928L739 0H637L473 595H471L305 0Z"  />
<glyph unicode="X" horiz-adv-x="667" d="M18 0L273 368L32 718H151L333 443L515 718H634L393 368L648 0H529L333 295L137 0H18Z"  />
<glyph unicode="Y" horiz-adv-x="667" d="M381 0H285V289L14 718H127L333 373L539 718H653L381 289V0Z"  />
<glyph unicode="Z" horiz-adv-x="611" d="M588 0H23V81L465 634H56V718H588V634L144 84H588V0Z"  />
<glyph unicode="[" horiz-adv-x="278" d="M72 718H259V646H156V-124H259V-196H72V718Z"  />
<glyph unicode="\" horiz-adv-x="278" d="M-12 736H54L290 -18H224L-12 736Z"  />
<glyph unicode="]" horiz-adv-x="278" d="M19 -124H122V646H19V718H206V-196H19V-124Z"  />
<glyph unicode="^" horiz-adv-x="600" d="M60 282L259 686H341L540 282H450L300 596L150 282H60Z"  />
<glyph unicode="_" horiz-adv-x="500" d="M0 -75H500V-125H0V-75Z"  />
<glyph unicode="`" horiz-adv-x="222" d="M-19 736H90L179 592H112L-19 736Z"  />
<glyph unicode="a" horiz-adv-x="556" d="M65 366Q66 414 82 447T127 500T195 530T280 539Q318 539 354 531T417 506T462 461T479 394V90Q479 77 486 68T508 59Q515 59 522 60T537 63V1Q526 -2 515 -4T489 -7Q442 -7 420 10T394 69Q361 33 318 9T202 -16Q172 -16 143 -7T92 22T56 69T42 135Q42 175 55 204T91 254T141 285T199 299L346 317Q367 319 379 333T391 378Q391 426 360 446T271 467Q211 467 182 442T149 366H65ZM389 266Q368 250 328 245T244 233Q195 226 164 207T132 148Q132 103 158 80T227 56Q247 56 274 63T327 85T371 124T389 182V266Z"  />
<glyph unicode="b" horiz-adv-x="556" d="M56 718H146V450Q154 461 166 476T197 506T241 529T303 539Q355 539 395 519T464 463T506 381T521 278Q521 231 510 179T473 84T402 12T291 -16Q272 -16 252 -13T212 1T174 27T142 71H140V0H56V718ZM288 461Q240 461 212 439T169 382T150 310T146 239Q146 187 160 153T196 99T243 70T290 62Q326 62 352 77T396 120T422 185T431 265Q431 290 428 324T411 388T368 440T288 461Z"  />
<glyph unicode="c" horiz-adv-x="500" d="M477 184Q474 155 463 120T426 55T358 5T253 -16Q218 -16 180 -3T109 42T56 127T35 259Q35 324 53 376T103 464T175 519T262 539Q324 539 364 520T429 473T464 411T477 347H393Q386 401 356 431T272 461Q235 461 208 446T162 404T134 338T125 254Q125 150 162 103T266 56Q314 56 348 89T393 184H477Z"  />
<glyph unicode="d" horiz-adv-x="556" d="M500 0H416V71H414Q400 44 382 28T345 1T305 -12T265 -16Q198 -16 154 12T84 83T46 179T35 278Q35 333 49 380T92 463T160 518T253 539Q289 539 314 530T358 506T389 477T410 450V718H500V0ZM268 461Q217 461 189 440T146 389T128 324T125 265Q125 222 133 185T159 121T203 78T266 62Q287 62 312 70T359 98T395 153T410 239Q410 271 406 309T387 382T344 438T268 461Z"  />
<glyph unicode="e" horiz-adv-x="556" d="M511 167Q506 133 488 100T440 42T371 0T283 -16Q230 -16 186 1T109 53T58 141T39 265Q39 337 61 388T119 473T195 523T275 539Q329 539 373 523T450 474T499 392T517 275V230H135Q136 153 174 108T282 62Q317 62 341 71T381 96T407 130T424 167H511ZM427 302Q425 379 386 420T282 461Q251 461 225 449T180 416T149 366T135 302H427Z"  />
<glyph unicode="f" horiz-adv-x="278" d="M175 451V0H85V451H14V523H85V613Q85 673 120 700T221 728Q232 728 241 728T262 726V647Q254 648 244 649T226 650Q198 650 187 636T175 589V523H262V451H175Z"  />
<glyph unicode="g" horiz-adv-x="556" d="M268 461Q217 461 189 440T146 388T128 324T125 265Q125 222 133 185T159 121T203 78T266 62Q287 62 312 70T358 98T394 152T409 239Q409 270 405 309T387 381T344 438T268 461ZM495 44Q495 25 494 -1T486 -57T465 -116T423 -168T354 -205T252 -220Q229 -220 197 -215T135 -194T82 -147T52 -63H140Q146 -95 162 -112T197 -137T233 -146T258 -148Q313 -148 343 -131T386 -88T402 -28T405 37V54Q388 26 354 5T265 -16Q198 -16 154 12T84 83T46 178T35 277Q35 332 49 380T92 463T160 519T253 539Q289 539 315 530T359 506T390 477T410 450H412V523H495V44Z"  />
<glyph unicode="h" horiz-adv-x="556" d="M63 718H153V454H155Q164 466 177 481T209 509T253 530T310 539Q340 539 372 532T432 504T476 449T493 357V0H403V344Q403 371 399 392T383 429T351 452T299 461Q272 461 246 453T199 424T166 370T153 287V0H63V718Z"  />
<glyph unicode="i" horiz-adv-x="222" d="M66 712H156V610H66V712ZM66 523H156V0H66V523Z"  />
<glyph unicode="j" horiz-adv-x="222" d="M-17 -128H0Q22 -128 35 -125T55 -115T64 -96T66 -68V523H156V-73Q156 -102 150 -126T129 -168T86 -196T16 -206Q-1 -206 -17 -203V-128ZM66 712H156V610H66V712Z"  />
<glyph unicode="k" horiz-adv-x="500" d="M501 0H388L225 264L155 198V0H65V718H155V302L377 523H489L289 328L501 0Z"  />
<glyph unicode="l" horiz-adv-x="222" d="M156 0H66V718H156V0Z"  />
<glyph unicode="m" horiz-adv-x="833" d="M63 523H148V450H150Q157 460 169 475T201 505T246 529T308 539Q343 539 367 530T407 507T432 479T447 454Q463 472 479 488T513 515T555 532T609 539Q630 539 658 532T711 506T753 453T771 363V0H681V340Q681 394 661 427T585 461Q557 461 535 449T496 418T471 373T462 321V0H372V364Q372 380 369 397T356 429T330 452T290 461Q272 461 248 454T203 428T168 374T153 287V0H63V523Z"  />
<glyph unicode="n" horiz-adv-x="556" d="M63 523H148V450H150Q157 460 170 475T202 505T248 529T310 539Q340 539 372 532T432 504T476 449T493 357V0H403V324Q403 392 379 426T291 461Q272 461 248 454T203 428T168 374T153 287V0H63V523Z"  />
<glyph unicode="o" horiz-adv-x="556" d="M431 262Q431 305 421 342T392 405T344 446T278 461Q240 461 212 446T164 405T135 342T125 262Q125 218 135 182T164 119T211 77T278 62Q315 62 344 77T392 118T421 181T431 262ZM521 262Q521 198 505 147T457 59T380 4T278 -16Q221 -16 176 3T100 59T52 146T35 262Q35 326 51 377T99 464T176 519T278 539Q335 539 380 520T456 464T504 377T521 262Z"  />
<glyph unicode="p" horiz-adv-x="556" d="M61 523H151V451H153Q171 488 207 513T307 539Q349 539 387 523T456 475T503 394T521 281Q521 200 505 144T458 52T386 0T291 -16Q265 -16 243 -9T203 9T172 33T153 59H151V-206H61V523ZM149 259Q149 217 157 181T183 118T226 77T288 62Q325 62 352 77T396 118T422 180T431 259Q431 303 423 340T397 404T352 446T288 461Q252 461 226 446T183 404T158 340T149 259Z"  />
<glyph unicode="q" horiz-adv-x="556" d="M495 -206H405V59H403Q397 46 384 33T354 9T314 -9T265 -16Q215 -16 173 2T100 56T52 149T35 281Q35 345 52 393T100 474T168 523T249 539Q312 539 348 514T403 451H405V523H495V-206ZM407 259Q407 303 399 340T373 404T330 446T268 461Q231 461 204 446T160 404T134 340T125 259Q125 217 133 181T159 118T204 77T268 62Q304 62 330 77T373 118T398 180T407 259Z"  />
<glyph unicode="r" horiz-adv-x="333" d="M76 523H160V437H162Q188 483 223 511T309 539Q317 539 322 539T332 536V446H299Q269 446 244 435T202 404T176 359T166 305V0H76V523Z"  />
<glyph unicode="s" horiz-adv-x="500" d="M119 165Q122 107 159 82T257 56Q318 56 349 80T381 142Q381 171 357 186T296 212T217 231T138 256T77 299T52 372Q52 413 67 444T108 496T170 528T247 539Q295 539 332 527T396 492T435 440T449 375H365Q361 420 332 443T242 467Q191 467 164 446T136 389Q136 359 160 343T221 317T300 299T379 276T440 234T465 161Q465 125 452 93T413 37T348 -1T256 -16Q207 -16 167 -6T98 27T53 83T35 165H119Z"  />
<glyph unicode="t" horiz-adv-x="278" d="M174 451V112Q174 97 179 89T193 76T210 72T226 71H257V0Q237 -3 220 -5T191 -7Q158 -7 137 1T105 25T89 60T84 105V451H14V523H84V669H174V523H257V451H174Z"  />
<glyph unicode="u" horiz-adv-x="556" d="M493 0H408V73H406Q399 62 386 47T354 18T307 -6T246 -16Q216 -16 184 -9T124 19T80 74T63 166V523H153V199Q153 165 158 140T177 97T211 71T265 62Q284 62 308 69T353 95T388 149T403 236V523H493V0Z"  />
<glyph unicode="v" horiz-adv-x="500" d="M396 523H492L293 0H199L8 523H110L246 97H248L396 523Z"  />
<glyph unicode="w" horiz-adv-x="722" d="M256 0H165L14 523H110L210 112H212L313 523H411L513 112H515L621 523H709L557 0H466L360 405H358L256 0Z"  />
<glyph unicode="x" horiz-adv-x="500" d="M244 195L121 0H10L193 268L19 523H132L256 341L374 523H482L305 268L490 0H377L244 195Z"  />
<glyph unicode="y" horiz-adv-x="500" d="M11 523H110L249 97H251L390 523H489L289 -21Q266 -83 249 -120T212 -178T169 -205T109 -212Q89 -212 78 -210T59 -206V-125Q68 -128 82 -131T112 -134Q159 -134 176 -88L205 -14L11 523Z"  />
<glyph unicode="z" horiz-adv-x="500" d="M146 72H469V0H31V69L348 451H55V523H460V451L146 72Z"  />
<glyph unicode="{" horiz-adv-x="334" d="M29 297Q43 298 58 305T85 326T105 358T113 401V589Q113 621 124 645T151 685T188 710T226 718H304V646H247Q232 646 222 639T207 622T199 597T197 570V385Q197 351 187 329T164 292T136 271T113 262V260Q121 258 135 252T163 232T187 193T197 132V-48Q197 -62 199 -75T206 -99T222 -117T247 -124H304V-196H226Q208 -196 188 -188T152 -164T124 -123T113 -67V120Q113 145 105 165T85 198T58 218T29 225V297Z"  />
<glyph unicode="|" horiz-adv-x="222" d="M69 786H153V-214H69V786Z"  />
<glyph unicode="}" horiz-adv-x="334" d="M305 225Q291 225 276 219T249 199T229 165T221 120V-67Q221 -99 210 -123T183 -163T146 -188T108 -196H30V-124H87Q102 -124 112 -117T127 -100T135 -76T137 -48V132Q137 169 147 193T170 231T198 252T221 260V262Q213 264 199 270T171 291T147 328T137 385V570Q137 583 135 597T128 621T112 639T87 646H30V718H108Q126 718 146 710T182 686T210 645T221 589V401Q221 377 229 359T249 327T276 306T305 297V225Z"  />
<glyph unicode="~" horiz-adv-x="600" d="M69 243Q89 281 119 305T194 330Q223 330 252 320T310 295Q338 281 363 271T407 260Q423 260 436 267T459 285T478 308T495 333L531 263Q519 246 507 231T479 203T446 184T406 176Q376 176 351 186T301 211Q276 225 250 235T189 246Q156 246 137 223T105 173L69 243Z"  />
<glyph unicode="&#xA0;" horiz-adv-x="278" />
<glyph unicode="&#xA4;" horiz-adv-x="556" d="M528 555L473 501Q499 472 511 433T523 351Q523 309 511 271T473 200L527 144L482 99L427 157Q397 129 358 116T278 102Q237 102 198 115T129 157L74 99L29 144L83 200Q57 232 45 270T33 351Q33 393 45 432T83 501L28 555L76 603L133 547Q162 572 200 585T278 598Q318 598 356 585T423 547L480 603L528 555ZM106 351Q106 315 119 283T156 226T210 187T278 172Q314 172 345 186T400 225T436 282T450 351Q450 386 437 418T400 474T345 513T278 528Q242 528 211 514T157 475T120 418T106 351Z"  />
<glyph unicode="&#xA6;" horiz-adv-x="222" d="M69 161H153V-89H69V161ZM69 661H153V411H69V661Z"  />
<glyph unicode="&#xA7;" horiz-adv-x="556" d="M121 179Q75 208 59 238T43 308Q43 340 50 364T71 406T103 439T145 466Q125 486 111 511T96 566Q96 602 108 633T144 687T202 723T278 736Q311 736 343 727T402 697T445 640T461 553H377Q375 609 351 636T275 664Q254 664 238 657T210 637T192 610T186 579Q186 550 210 527T270 482T349 438T428 388T489 328T513 250Q513 188 487 152T411 83Q442 50 452 25T463 -32Q463 -71 447 -101T405 -152T346 -183T279 -194Q221 -194 184 -178T124 -135T93 -74T82 -5H172Q173 -26 178 -46T195 -81T227 -106T277 -116Q294 -116 311 -112T342 -98T364 -73T373 -34Q373 -5 358 12T314 50L121 179ZM195 427Q156 407 142 383T127 330Q127 301 140 280T173 245L362 123Q400 145 414 172T429 224Q429 257 412 280T369 320L195 427Z"  />
<glyph unicode="&#xA9;" horiz-adv-x="737" d="M62 359Q62 291 86 234T151 134T249 69T370 45Q434 45 490 68T587 134T652 233T676 359Q676 426 652 483T587 583T490 649T370 673Q305 673 249 649T152 583T86 484T62 359ZM-8 359Q-8 437 21 505T102 625T222 706T369 736Q447 736 515 707T635 626T716 506T746 359Q746 281 717 213T636 93T516 12T369 -18Q291 -18 223 11T103 92T22 212T-8 359ZM552 297Q549 269 537 240T502 186T447 147T371 132Q341 132 306 141T241 175T191 243T171 353Q171 419 189 463T236 535T301 573T372 585Q416 585 448 572T503 539T536 494T549 446H492Q481 488 450 511T374 534Q308 534 269 487T229 359Q229 278 268 231T371 183Q398 183 420 193T458 219T483 255T496 297H552Z"  />
<glyph unicode="&#xAB;" horiz-adv-x="556" d="M97 325L254 447V360L151 279L254 198V111L97 233V325ZM302 325L459 447V360L356 279L459 198V111L302 233V325Z"  />
<glyph unicode="&#xAC;" horiz-adv-x="600" d="M469 316H47V400H553V106H469V316Z"  />
<glyph unicode="&#xAD;" horiz-adv-x="333" d="M44 324H289V234H44V324Z"  />
<glyph unicode="&#xAE;" horiz-adv-x="490" d="M92 548Q92 514 104 486T137 436T186 403T246 391Q278 391 306 403T354 436T387 485T399 548Q399 581 387 609T355 659T306 692T246 704Q214 704 186 692T137 659T104 610T92 548ZM57 548Q57 587 72 621T112 680T172 721T246 736Q285 736 319 721T378 681T419 621T434 548Q434 509 419 475T379 415T319 374T246 359Q207 359 173 374T113 414T72 474T57 548ZM201 455H176V635H259Q282 635 300 626T318 587Q318 567 310 558T293 544Q301 540 308 532T316 510V483Q316 471 318 466T325 459V455H296Q293 463 292 478T291 500Q291 511 286 521T259 532H201V455ZM201 553H257Q271 553 282 558T293 584Q293 605 282 609T261 614H201V553Z"  />
<glyph unicode="&#xB0;" horiz-adv-x="400" d="M97 556Q97 535 105 516T127 483T160 461T200 453Q221 453 240 461T273 483T295 516T303 556Q303 577 295 596T273 629T240 651T200 659Q179 659 160 651T127 629T105 596T97 556ZM54 556Q54 586 65 613T96 659T143 690T200 702Q230 702 257 691T303 660T334 613T346 556Q346 526 335 499T304 453T257 422T200 410Q170 410 143 421T97 452T66 499T54 556Z"  />
<glyph unicode="&#xB1;" horiz-adv-x="600" d="M258 506H342V362H553V278H342V122H258V278H47V362H258V506ZM47 84H553V0H47V84Z"  />
<glyph unicode="&#xB5;" horiz-adv-x="556" d="M54 520H144V214Q144 180 150 153T170 107T209 78T269 68Q305 68 329 78T368 108T389 154T395 214V520H485V126Q485 97 490 83T518 68Q525 68 532 69T546 71V0Q541 -3 526 -6T491 -10Q449 -7 431 9T402 60Q379 29 346 10T271 -10Q236 -10 204 5T146 56H144V-196H54V520Z"  />
<glyph unicode="&#xB6;" horiz-adv-x="537" d="M232 344Q184 344 145 358T77 397T34 455T18 528Q18 627 81 672T249 718H497V-173H425V658H304V-173H232V344Z"  />
<glyph unicode="&#xB7;" horiz-adv-x="278" d="M88 348H190V240H88V348Z"  />
<glyph unicode="&#xBB;" horiz-adv-x="556" d="M302 198L405 279L302 360V447L459 325V233L302 111V198ZM97 198L200 279L97 360V447L254 325V233L97 111V198Z"  />
<glyph unicode="&#x401;" horiz-adv-x="667" d="M74 718H598V634H170V412H565V328H170V84H605V0H74V718ZM208 867H298V765H208V867ZM368 867H458V765H368V867Z"  />
<glyph unicode="&#x402;" horiz-adv-x="761" d="M561 633H312V391Q321 395 337 401T374 414T421 424T475 429Q518 429 563 415T644 368Q668 346 682 319T705 265T717 210T720 158Q720 76 692 -1T600 -130Q569 -155 538 -169T479 -190T425 -200T381 -204V-119Q407 -117 449 -108T536 -63Q584 -24 604 33T625 153Q625 244 583 294T462 345Q418 345 383 335T312 311V0H216V633H13V718H561V633Z"  />
<glyph unicode="&#x403;" horiz-adv-x="519" d="M74 718H496V634H170V0H74V718ZM320 909H429L298 765H231L320 909Z"  />
<glyph unicode="&#x404;" horiz-adv-x="722" d="M673 257Q668 210 647 161T589 73T497 8T371 -18Q322 -18 264 -2T156 55T73 167T39 350Q39 423 53 480T91 580T147 652T217 700T295 727T374 736Q447 736 501 714T591 659T646 584T668 505H574Q556 574 504 613T377 652Q317 652 274 630T202 573T159 496T141 412H398V328H141Q143 254 165 204T222 123T295 79T371 66Q417 66 453 82T516 126T558 187T580 257H673Z"  />
<glyph unicode="&#x405;" horiz-adv-x="667" d="M507 507Q505 537 494 563T462 609T408 640T331 652Q244 652 203 620T162 527Q162 488 193 465T284 428L427 393Q526 369 572 323T618 201Q618 137 593 95T526 27T433 -8T328 -18Q257 -18 204 1T117 53T65 129T48 221V233H138Q138 192 153 161T195 109T256 77T330 66Q369 66 403 73T464 94T506 131T522 186Q522 236 491 263T383 308L255 340Q158 364 115 407T72 522Q72 566 88 605T135 673T214 719T326 736Q386 736 436 722T521 678T577 607T597 507H507Z"  />
<glyph unicode="&#x406;" horiz-adv-x="278" d="M91 718H187V0H91V718Z"  />
<glyph unicode="&#x407;" horiz-adv-x="278" d="M91 718H187V0H91V718ZM14 867H104V765H14V867ZM174 867H264V765H174V867Z"  />
<glyph unicode="&#x408;" horiz-adv-x="500" d="M330 718H426V202Q426 135 408 92T360 25T291 -9T210 -18Q173 -18 139 -8T77 26T34 86T17 174V231H107V181Q107 125 131 96T215 66Q241 66 262 72T298 94T321 134T330 197V718Z"  />
<glyph unicode="&#x409;" horiz-adv-x="1000" d="M260 634L245 251Q243 204 239 156T220 70T174 7T87 -18Q70 -18 54 -16T21 -6V78Q36 69 50 68T71 66Q90 66 104 72T127 99T142 156T149 254L164 718H575V422H710Q774 422 821 408T900 366T946 299T961 211Q961 163 946 125T902 58T830 15T734 0H479V634H260ZM575 84H721Q750 84 775 90T819 111T848 150T859 211Q859 282 817 310T700 338H575V84Z"  />
<glyph unicode="&#x40A;" horiz-adv-x="1000" d="M577 84H706Q735 84 760 90T804 111T833 150T844 211Q844 282 802 310T685 338H577V84ZM74 718H170V422H481V718H577V422H695Q759 422 806 408T885 366T931 299T946 211Q946 163 931 125T887 58T815 15T719 0H481V338H170V0H74V718Z"  />
<glyph unicode="&#x40B;" horiz-adv-x="778" d="M219 634H38V718H569V634H315V412H498Q613 412 665 362T717 222V0H621V208Q621 265 592 296T488 328H315V0H219V634Z"  />
<glyph unicode="&#x40C;" horiz-adv-x="667" d="M354 909H463L332 765H265L354 909ZM74 718H170V368L520 718H654L355 428L662 0H539L286 362L170 250V0H74V718Z"  />
<glyph unicode="&#x40E;" horiz-adv-x="667" d="M125 95Q136 89 152 84T202 78Q252 78 272 96T292 141Q292 148 292 154T289 168T282 186T269 213L23 718H135L358 238L552 718H660L425 181Q402 127 381 90T335 28T277 -7T196 -18Q179 -18 160 -14T125 -4V95ZM228 903Q238 858 266 842T333 825Q372 825 400 841T438 903H487Q484 875 474 850T445 806T398 776T333 765Q295 765 268 776T222 806T193 850T179 903H228Z"  />
<glyph unicode="&#x40F;" horiz-adv-x="722" d="M74 718H176V84H546V718H648V0H409V-154H313V0H74V718Z"  />
<glyph unicode="&#x410;" horiz-adv-x="667" d="M473 217H193L116 0H13L283 718H393L653 0H550L473 217ZM334 610H332L220 295H446L334 610Z"  />
<glyph unicode="&#x411;" horiz-adv-x="667" d="M74 718H551V634H170V422H380Q506 422 566 365T627 211Q627 163 612 125T568 58T496 15T400 0H74V718ZM170 84H387Q416 84 441 90T485 111T514 150T525 211Q525 282 483 310T366 338H170V84Z"  />
<glyph unicode="&#x412;" horiz-adv-x="667" d="M74 718H331Q373 718 405 716T465 706Q491 699 514 685T555 650T583 601T593 537Q593 519 588 498T572 455T543 416T497 387Q519 379 542 367T584 333T615 283T627 212Q627 176 614 139T572 71T494 20T377 0H74V718ZM363 84Q410 84 442 93T494 118T522 158T531 209Q531 237 523 260T494 299T442 325T363 334H170V84H363ZM349 412Q396 412 425 421T470 445T491 482T497 527Q497 577 464 605T349 634H170V412H349Z"  />
<glyph unicode="&#x413;" horiz-adv-x="519" d="M74 718H496V634H170V0H74V718Z"  />
<glyph unicode="&#x414;" horiz-adv-x="667" d="M18 -154V84H83Q93 107 102 131T118 186T132 256T145 350Q152 407 156 462T162 566T165 654T166 718H593V84H664V-154H574V0H108V-154H18ZM256 634Q256 564 251 495T237 355Q231 299 226 260T214 191T201 136T183 84H494V634H256Z"  />
<glyph unicode="&#x415;" horiz-adv-x="667" d="M74 718H598V634H170V412H565V328H170V84H605V0H74V718Z"  />
<glyph unicode="&#x416;" horiz-adv-x="1002" d="M549 410H579L856 718H992L669 376L992 0H856L579 329H549V0H453V329H423L145 0H10L339 372L14 718H143L423 410H453V718H549V410Z"  />
<glyph unicode="&#x417;" horiz-adv-x="611" d="M267 417H343Q374 417 396 426T433 452T455 487T462 528Q462 561 450 584T416 623T369 645T314 652Q273 652 243 639T191 605T157 554T142 493H52Q58 563 82 610T142 685T224 724T317 736Q365 736 408 724T483 686T533 625T552 539Q552 483 531 445T455 387V385Q511 369 546 325T582 203Q582 148 559 107T497 38T412 -4T315 -18Q259 -18 210 -6T123 33T60 103T29 207H123Q127 177 139 152T173 107T227 77T306 66Q343 66 376 74T433 99T472 143T486 208Q486 265 450 302T337 339H267V417Z"  />
<glyph unicode="&#x418;" horiz-adv-x="722" d="M74 718H170V137H172L537 718H648V0H552V584H550L185 0H74V718Z"  />
<glyph unicode="&#x419;" horiz-adv-x="722" d="M256 903Q266 858 294 842T361 825Q400 825 428 841T466 903H515Q512 875 502 850T473 806T426 776T361 765Q323 765 296 776T250 806T221 850T207 903H256ZM74 718H170V137H172L537 718H648V0H552V584H550L185 0H74V718Z"  />
<glyph unicode="&#x41A;" horiz-adv-x="667" d="M74 718H170V368L520 718H654L355 428L662 0H539L286 362L170 250V0H74V718Z"  />
<glyph unicode="&#x41B;" horiz-adv-x="648" d="M482 634H260Q254 509 249 387T233 142Q230 113 222 85T198 34T154 -3T86 -18Q45 -18 18 -6V78Q37 66 69 66Q91 66 105 75T127 108T139 171T146 273Q152 408 155 516T161 718H578V0H482V634Z"  />
<glyph unicode="&#x41C;" horiz-adv-x="833" d="M74 718H212L415 114H417L620 718H758V0H668V604H666L464 0H368L166 604H164V0H74V718Z"  />
<glyph unicode="&#x41D;" horiz-adv-x="722" d="M74 718H170V422H552V718H648V0H552V338H170V0H74V718Z"  />
<glyph unicode="&#x41E;" horiz-adv-x="778" d="M739 359Q739 289 718 222T654 101T545 15T389 -18Q299 -18 234 14T125 100T60 221T39 359Q39 443 62 512T131 631T241 708T389 736Q472 736 537 709T647 631T715 512T739 359ZM643 359Q643 423 626 477T577 570T497 630T389 652Q329 652 282 631T202 570T152 477T135 359Q135 293 150 239T197 147T277 87T389 66Q453 66 501 87T580 146T627 239T643 359Z"  />
<glyph unicode="&#x41F;" horiz-adv-x="722" d="M74 718H648V0H552V634H170V0H74V718Z"  />
<glyph unicode="&#x420;" horiz-adv-x="667" d="M366 382Q443 382 476 414T510 508Q510 570 477 602T366 634H170V382H366ZM74 718H376Q435 718 478 703T549 661T592 594T606 508Q606 461 592 422T550 356T478 313T376 298H170V0H74V718Z"  />
<glyph unicode="&#x421;" horiz-adv-x="722" d="M135 360Q135 292 152 238T200 146T274 87T371 66Q417 66 453 82T516 126T558 187T580 257H673Q668 210 647 161T589 73T497 8T371 -18Q322 -18 264 -2T156 55T73 167T39 350Q39 423 53 480T91 580T147 652T217 700T295 727T374 736Q447 736 501 714T591 659T646 584T668 505H574Q556 574 504 613T377 652Q322 652 277 632T201 573T152 481T135 360Z"  />
<glyph unicode="&#x422;" horiz-adv-x="611" d="M14 718H598V634H354V0H258V634H14V718Z"  />
<glyph unicode="&#x423;" horiz-adv-x="667" d="M125 95Q136 89 152 84T202 78Q252 78 272 96T292 141Q292 148 292 154T289 168T282 186T269 213L23 718H135L358 238L552 718H660L425 181Q402 127 381 90T335 28T277 -7T196 -18Q179 -18 160 -14T125 -4V95Z"  />
<glyph unicode="&#x424;" horiz-adv-x="778" d="M656 359Q656 456 598 508T437 561V157Q539 157 597 209T656 359ZM341 85Q278 85 222 102T124 153T57 239T32 359Q32 427 57 478T124 564T222 616T341 633V718H437V633Q500 633 556 616T654 565T721 479T746 359Q746 291 721 240T654 154T556 102T437 85V0H341V85ZM122 359Q122 262 180 210T341 157V561Q239 561 181 509T122 359Z"  />
<glyph unicode="&#x425;" horiz-adv-x="667" d="M18 0L273 368L32 718H151L333 443L515 718H634L393 368L648 0H529L333 295L137 0H18Z"  />
<glyph unicode="&#x426;" horiz-adv-x="722" d="M74 718H170V84H552V718H648V84H707V-154H617V0H74V718Z"  />
<glyph unicode="&#x427;" horiz-adv-x="648" d="M481 296Q449 285 396 277T287 268Q236 268 192 277T116 309T66 374T47 480V718H143V490Q143 446 153 419T183 377T233 357T306 352Q329 352 354 354T402 361T446 370T481 380V718H577V0H481V296Z"  />
<glyph unicode="&#x428;" horiz-adv-x="944" d="M74 718H170V84H424V718H520V84H774V718H870V0H74V718Z"  />
<glyph unicode="&#x429;" horiz-adv-x="944" d="M74 718H170V84H424V718H520V84H774V718H870V84H929V-154H839V0H74V718Z"  />
<glyph unicode="&#x42A;" horiz-adv-x="833" d="M256 634H14V718H352V422H543Q607 422 654 408T733 366T779 299T794 211Q794 163 779 125T735 58T663 15T567 0H256V634ZM352 84H554Q583 84 608 90T652 111T681 150T692 211Q692 282 650 310T533 338H352V84Z"  />
<glyph unicode="&#x42B;" horiz-adv-x="889" d="M91 718H187V422H378Q442 422 489 408T568 366T614 299T629 211Q629 163 614 125T570 58T498 15T402 0H91V718ZM389 84Q418 84 443 90T487 111T516 150T527 211Q527 282 485 310T368 338H187V84H389ZM726 718H822V0H726V718Z"  />
<glyph unicode="&#x42C;" horiz-adv-x="667" d="M89 718H185V422H376Q440 422 487 408T566 366T612 299T627 211Q627 163 612 125T568 58T496 15T400 0H89V718ZM387 84Q416 84 441 90T485 111T514 150T525 211Q525 282 483 310T366 338H185V84H387Z"  />
<glyph unicode="&#x42D;" horiz-adv-x="722" d="M324 412H581Q578 453 565 495T524 573T454 630T351 652Q277 652 225 613T154 505H60Q63 543 81 584T136 658T226 714T354 736Q413 736 471 716T577 652T653 537T683 364Q683 251 650 177T566 60T456 -1T346 -18Q277 -18 224 7T133 72T75 161T49 257H142Q147 222 163 188T206 126T268 83T351 66Q387 66 426 79T500 123T556 204T581 328H324V412Z"  />
<glyph unicode="&#x42E;" horiz-adv-x="1000" d="M74 718H170V402H263Q269 477 295 538T365 644T472 712T611 736Q694 736 759 709T869 631T937 512T961 359Q961 289 940 222T876 101T767 15T611 -18Q528 -18 466 10T360 85T292 192T263 318H170V0H74V718ZM865 359Q865 423 848 477T799 570T719 630T611 652Q551 652 504 631T424 570T374 477T357 359Q357 293 372 239T419 147T499 87T611 66Q675 66 723 87T802 146T849 239T865 359Z"  />
<glyph unicode="&#x42F;" horiz-adv-x="724" d="M640 0H544V305H365Q335 305 315 305T281 302T256 296T237 286Q226 278 218 269T203 247T193 213T187 164L182 86Q180 57 176 39T162 0H52Q63 13 72 33T86 95L94 193Q96 217 100 239T114 281T144 316T198 343Q183 349 162 358T121 387T89 437T75 516Q75 550 82 578T103 627T132 664T166 690Q184 700 208 706T256 714T303 717T343 718H640V0ZM544 633H324Q299 633 272 631T224 617Q195 600 183 570T170 509Q170 499 171 487T178 461T191 434T215 410Q241 391 268 388T337 386H544V633Z"  />
<glyph unicode="&#x430;" horiz-adv-x="556" d="M65 366Q66 414 82 447T127 500T195 530T280 539Q318 539 354 531T417 506T462 461T479 394V90Q479 77 486 68T508 59Q515 59 522 60T537 63V1Q526 -2 515 -4T489 -7Q442 -7 420 10T394 69Q361 33 318 9T202 -16Q172 -16 143 -7T92 22T56 69T42 135Q42 175 55 204T91 254T141 285T199 299L346 317Q367 319 379 333T391 378Q391 426 360 446T271 467Q211 467 182 442T149 366H65ZM389 266Q368 250 328 245T244 233Q195 226 164 207T132 148Q132 103 158 80T227 56Q247 56 274 63T327 85T371 124T389 182V266Z"  />
<glyph unicode="&#x431;" horiz-adv-x="556" d="M472 724Q471 717 470 707T463 684T450 660T427 638Q419 633 413 630T397 625T372 622T331 620L294 618Q256 616 229 606T182 575T151 522T132 446Q141 455 154 468T187 493T234 513T297 521Q342 521 383 505T454 457T503 376T521 265Q521 245 518 217T506 157T481 95T438 40T372 0T279 -16Q256 -16 231 -13T181 1T132 28T89 73Q79 87 70 105T53 148T40 208T35 290Q35 321 38 360T48 441T68 520T99 588Q120 619 142 638T189 669T244 685T308 692L340 693Q371 694 384 698T404 724H472ZM125 252Q125 230 129 197T149 133T195 79T278 56Q316 56 342 68T386 100T412 144T425 191T430 232T431 261Q431 297 423 331T397 391T351 434T281 450Q240 450 211 434T163 391T134 328T125 252Z"  />
<glyph unicode="&#x432;" horiz-adv-x="556" d="M74 523H297Q394 523 441 488T488 384Q488 348 471 323T424 279Q466 263 490 234T514 158Q514 84 465 42T311 0H74V523ZM164 72H301Q372 72 398 94T424 154Q424 192 398 214T301 236H164V72ZM164 302H300Q345 302 371 320T398 376Q398 397 391 411T371 435T344 447T312 451H164V302Z"  />
<glyph unicode="&#x433;" horiz-adv-x="388" d="M66 523H371V445H156V0H66V523Z"  />
<glyph unicode="&#x434;" horiz-adv-x="611" d="M507 0H122V-128H38V78H107Q150 184 168 296T186 523H527V78H591V-128H507V0ZM437 78V445H267Q263 399 258 347T239 232Q225 161 215 128T198 78H437Z"  />
<glyph unicode="&#x435;" horiz-adv-x="556" d="M511 167Q506 133 488 100T440 42T371 0T283 -16Q230 -16 186 1T109 53T58 141T39 265Q39 337 61 388T119 473T195 523T275 539Q329 539 373 523T450 474T499 392T517 275V230H135Q136 153 174 108T282 62Q317 62 341 71T381 96T407 130T424 167H511ZM427 302Q425 379 386 420T282 461Q251 461 225 449T180 416T149 366T135 302H427Z"  />
<glyph unicode="&#x436;" horiz-adv-x="780" d="M436 309H462L653 523H761L536 275L769 0H658L462 238H436V0H346V238H320L122 0H11L246 275L22 523H131L320 309H346V523H436V309Z"  />
<glyph unicode="&#x437;" horiz-adv-x="500" d="M201 312H237Q255 312 276 315T315 325T345 346T357 382Q357 414 331 437T253 461Q239 461 221 457T184 443T153 413T135 363H51Q56 415 77 449T128 503T192 531T256 539Q291 539 325 530T386 502T430 454T447 386Q447 363 440 346T422 317T395 297T361 283V281Q375 278 393 270T427 247T454 210T465 156Q465 112 446 80T397 26T329 -5T252 -16Q202 -16 162 -4T92 32T46 88T25 161H115Q119 132 132 113T163 83T205 67T251 62Q313 62 344 87T375 154Q375 190 346 215T252 240Q226 240 201 237V312Z"  />
<glyph unicode="&#x438;" horiz-adv-x="556" d="M62 523H152V132H154L391 523H494V0H404V391H402L165 0H62V523Z"  />
<glyph unicode="&#x439;" horiz-adv-x="556" d="M62 523H152V132H154L391 523H494V0H404V391H402L165 0H62V523ZM173 736Q183 691 211 675T278 658Q317 658 345 674T383 736H432Q429 708 419 683T390 639T343 609T278 598Q240 598 213 609T167 639T138 683T124 736H173Z"  />
<glyph unicode="&#x43A;" horiz-adv-x="556" d="M74 523H164V275L428 523H546L317 312L550 0H434L252 252L164 170V0H74V523Z"  />
<glyph unicode="&#x43B;" horiz-adv-x="574" d="M418 445H213L205 194Q201 91 170 38T69 -16Q42 -16 30 -11T13 0V71Q23 67 31 65T51 62Q65 62 76 68T95 91T107 136T113 210L124 523H508V0H418V445Z"  />
<glyph unicode="&#x43C;" horiz-adv-x="666" d="M66 523H197L335 94H337L477 523H600V0H516V421H514L376 0H290L152 421H150V0H66V523Z"  />
<glyph unicode="&#x43D;" horiz-adv-x="556" d="M66 523H156V312H400V523H490V0H400V234H156V0H66V523Z"  />
<glyph unicode="&#x43E;" horiz-adv-x="556" d="M431 262Q431 305 421 342T392 405T344 446T278 461Q240 461 212 446T164 405T135 342T125 262Q125 218 135 182T164 119T211 77T278 62Q315 62 344 77T392 118T421 181T431 262ZM521 262Q521 198 505 147T457 59T380 4T278 -16Q221 -16 176 3T100 59T52 146T35 262Q35 326 51 377T99 464T176 519T278 539Q335 539 380 520T456 464T504 377T521 262Z"  />
<glyph unicode="&#x43F;" horiz-adv-x="556" d="M400 445H156V0H66V523H490V0H400V445Z"  />
<glyph unicode="&#x440;" horiz-adv-x="556" d="M61 523H151V451H153Q171 488 207 513T307 539Q349 539 387 523T456 475T503 394T521 281Q521 200 505 144T458 52T386 0T291 -16Q265 -16 243 -9T203 9T172 33T153 59H151V-206H61V523ZM149 259Q149 217 157 181T183 118T226 77T288 62Q325 62 352 77T396 118T422 180T431 259Q431 303 423 340T397 404T352 446T288 461Q252 461 226 446T183 404T158 340T149 259Z"  />
<glyph unicode="&#x441;" horiz-adv-x="500" d="M477 184Q474 155 463 120T426 55T358 5T253 -16Q218 -16 180 -3T109 42T56 127T35 259Q35 324 53 376T103 464T175 519T262 539Q324 539 364 520T429 473T464 411T477 347H393Q386 401 356 431T272 461Q235 461 208 446T162 404T134 338T125 254Q125 150 162 103T266 56Q314 56 348 89T393 184H477Z"  />
<glyph unicode="&#x442;" horiz-adv-x="500" d="M205 445H25V523H475V445H295V0H205V445Z"  />
<glyph unicode="&#x443;" horiz-adv-x="500" d="M11 523H110L249 97H251L390 523H489L289 -21Q266 -83 249 -120T212 -178T169 -205T109 -212Q89 -212 78 -210T59 -206V-125Q68 -128 82 -131T112 -134Q159 -134 176 -88L205 -14L11 523Z"  />
<glyph unicode="&#x444;" horiz-adv-x="832" d="M371 307Q371 344 362 373T337 421T301 451T258 461Q222 461 197 445T155 402T132 339T124 262Q124 229 130 193T151 126T191 76T256 56Q312 56 341 96T371 209V307ZM371 63H369Q355 38 340 23T307 -1T272 -13T235 -16Q197 -16 161 2T96 55T51 143T34 265Q34 316 45 365T80 452T142 515T234 539Q261 539 282 532T319 512T348 487T369 461H371V718H461V461H463Q472 473 484 486T512 512T550 531T598 539Q652 539 690 515T752 453T787 365T798 265Q798 196 781 144T736 56T672 2T597 -16Q578 -16 560 -13T525 -2T493 22T463 63H461V-206H371V63ZM574 56Q614 56 640 76T681 126T702 192T708 262Q708 303 701 339T677 402T636 445T574 461Q551 461 531 451T495 422T470 373T461 307V209Q461 136 490 96T574 56Z"  />
<glyph unicode="&#x445;" horiz-adv-x="500" d="M244 195L121 0H10L193 268L19 523H132L256 341L374 523H482L305 268L490 0H377L244 195Z"  />
<glyph unicode="&#x446;" horiz-adv-x="556" d="M66 523H156V78H400V523H490V78H540V-128H456V0H66V523Z"  />
<glyph unicode="&#x447;" horiz-adv-x="538" d="M381 211Q345 205 310 202T251 199Q146 199 96 236T45 360V523H135V378Q135 349 142 329T165 295T207 277T272 271Q282 271 296 272T326 274T356 278T381 285V523H471V0H381V211Z"  />
<glyph unicode="&#x448;" horiz-adv-x="778" d="M66 523H156V78H344V523H434V78H622V523H712V0H66V523Z"  />
<glyph unicode="&#x449;" horiz-adv-x="778" d="M678 0H66V523H156V78H344V523H434V78H622V523H712V78H762V-128H678V0Z"  />
<glyph unicode="&#x44A;" horiz-adv-x="611" d="M177 445H13V523H267V326H404Q496 326 545 282T594 163Q594 87 546 44T412 0H177V445ZM267 72H394Q441 72 472 92T504 163Q504 212 472 233T386 254H267V72Z"  />
<glyph unicode="&#x44B;" horiz-adv-x="722" d="M566 523H656V0H566V523ZM66 523H156V326H313Q399 326 447 282T495 163Q495 87 447 44T313 0H66V523ZM156 72H295Q342 72 373 92T405 163Q405 212 373 233T287 254H156V72Z"  />
<glyph unicode="&#x44C;" horiz-adv-x="500" d="M66 523H156V326H301Q387 326 435 282T483 163Q483 87 435 44T301 0H66V523ZM156 72H283Q330 72 361 92T393 163Q393 212 361 233T275 254H156V72Z"  />
<glyph unicode="&#x44D;" horiz-adv-x="500" d="M189 295H369Q364 374 329 417T230 461Q201 461 179 452T142 429T118 397T105 359H19Q25 406 46 440T96 496T161 528T232 539Q288 539 331 519T404 462T449 375T465 263Q465 201 450 150T405 62T332 5T232 -16Q149 -16 91 29T13 171H105Q110 123 144 93T229 62Q265 62 291 77T334 115T360 167T369 223H189V295Z"  />
<glyph unicode="&#x44E;" horiz-adv-x="778" d="M653 262Q653 305 643 342T614 405T566 446T500 461Q462 461 434 446T386 405T357 342T347 262Q347 218 357 182T386 119T433 77T500 62Q537 62 566 77T614 118T643 181T653 262ZM66 523H156V302H257Q268 413 331 476T500 539Q557 539 602 520T678 464T726 377T743 262Q743 198 727 147T679 59T602 4T500 -16Q393 -16 329 49T257 230H156V0H66V523Z"  />
<glyph unicode="&#x44F;" horiz-adv-x="558" d="M491 0H401V207H285Q254 207 231 206T191 197T166 173T155 125L151 69Q150 64 148 42T138 0H39Q46 8 52 22T63 77L69 144Q72 170 76 187T87 215T107 233T138 247Q54 278 54 371Q54 419 75 450T121 497Q136 507 154 512T190 519T226 522T259 523H491V0ZM401 444H264Q229 444 212 443T178 432Q161 422 152 403T143 363Q143 331 156 314T189 290T229 281T264 279H401V444Z"  />
<glyph unicode="&#x451;" horiz-adv-x="556" d="M511 167Q506 133 488 100T440 42T371 0T283 -16Q230 -16 186 1T109 53T58 141T39 265Q39 337 61 388T119 473T195 523T275 539Q329 539 373 523T450 474T499 392T517 275V230H135Q136 153 174 108T282 62Q317 62 341 71T381 96T407 130T424 167H511ZM427 302Q425 379 386 420T282 461Q251 461 225 449T180 416T149 366T135 302H427ZM153 712H243V610H153V712ZM313 712H403V610H313V712Z"  />
<glyph unicode="&#x452;" horiz-adv-x="556" d="M110 502H13V580H110V718H200V580H429V502H200V365Q220 378 252 393T330 409Q374 409 404 394T455 354T486 300T503 239T510 181T511 136Q511 102 508 65T497 -10T473 -81T433 -142T373 -186T288 -206V-128Q329 -121 355 -100T395 -45T415 32T421 127Q421 163 418 199T404 264T371 312T311 331Q290 331 273 326T241 313T216 298T200 286V0H110V502Z"  />
<glyph unicode="&#x453;" horiz-adv-x="388" d="M66 523H371V445H156V0H66V523ZM215 736H324L193 592H126L215 736Z"  />
<glyph unicode="&#x454;" horiz-adv-x="500" d="M487 171Q467 74 409 29T268 -16Q212 -16 169 4T96 61T51 149T35 263Q35 324 50 374T95 461T168 518T268 539Q303 539 338 529T403 496T454 440T481 359H395Q391 378 382 396T358 429T321 452T270 461Q207 461 172 418T131 295H311V223H131Q131 196 139 167T165 115T209 77T271 62Q321 62 355 92T395 171H487Z"  />
<glyph unicode="&#x455;" horiz-adv-x="500" d="M119 165Q122 107 159 82T257 56Q318 56 349 80T381 142Q381 171 357 186T296 212T217 231T138 256T77 299T52 372Q52 413 67 444T108 496T170 528T247 539Q295 539 332 527T396 492T435 440T449 375H365Q361 420 332 443T242 467Q191 467 164 446T136 389Q136 359 160 343T221 317T300 299T379 276T440 234T465 161Q465 125 452 93T413 37T348 -1T256 -16Q207 -16 167 -6T98 27T53 83T35 165H119Z"  />
<glyph unicode="&#x456;" horiz-adv-x="222" d="M66 712H156V610H66V712ZM66 523H156V0H66V523Z"  />
<glyph unicode="&#x457;" horiz-adv-x="222" d="M66 523H156V0H66V523ZM-14 712H76V610H-14V712ZM146 712H236V610H146V712Z"  />
<glyph unicode="&#x458;" horiz-adv-x="222" d="M-17 -128H0Q22 -128 35 -125T55 -115T64 -96T66 -68V523H156V-73Q156 -102 150 -126T129 -168T86 -196T16 -206Q-1 -206 -17 -203V-128ZM66 712H156V610H66V712Z"  />
<glyph unicode="&#x459;" horiz-adv-x="845" d="M411 445H213L205 194Q202 95 172 40T69 -16Q42 -16 30 -10T13 0V71Q24 67 32 65T52 62Q65 62 76 68T95 90T107 136T114 210L124 523H501V326H621Q713 326 762 282T811 163Q811 87 763 44T629 0H411V445ZM501 72H609Q656 72 687 92T719 163Q719 212 687 233T601 254H501V72Z"  />
<glyph unicode="&#x45A;" horiz-adv-x="826" d="M399 254H156V0H66V523H156V326H399V523H489V326H604Q696 326 745 282T794 163Q794 87 746 44T612 0H399V254ZM489 72H594Q641 72 672 92T704 163Q704 212 672 233T586 254H489V72Z"  />
<glyph unicode="&#x45B;" horiz-adv-x="556" d="M413 246Q413 263 410 277T395 305Q381 322 363 328T328 335Q302 335 270 322T200 280V0H110V502H13V580H110V718H200V580H429V502H200V359Q210 366 223 375T255 391T295 404T343 410Q417 410 460 374T503 256V0H413V246Z"  />
<glyph unicode="&#x45C;" horiz-adv-x="556" d="M74 523H164V275L428 523H546L317 312L550 0H434L252 252L164 170V0H74V523ZM319 736H428L297 592H230L319 736Z"  />
<glyph unicode="&#x45E;" horiz-adv-x="500" d="M11 523H110L249 97H251L390 523H489L289 -21Q266 -83 249 -120T212 -178T169 -205T109 -212Q89 -212 78 -210T59 -206V-125Q68 -128 82 -131T112 -134Q159 -134 176 -88L205 -14L11 523ZM145 736Q155 691 183 675T250 658Q289 658 317 674T355 736H404Q401 708 391 683T362 639T315 609T250 598Q212 598 185 609T139 639T110 683T96 736H145Z"  />
<glyph unicode="&#x45F;" horiz-adv-x="556" d="M66 523H156V78H400V523H490V0H323V-128H233V0H66V523Z"  />
<glyph unicode="&#x490;" horiz-adv-x="556" d="M74 718H453V855H537V634H170V0H74V718Z"  />
<glyph unicode="&#x491;" horiz-adv-x="389" d="M66 523H294V640H372V445H156V0H66V523Z"  />
<glyph unicode="&#x2013;" horiz-adv-x="500" d="M500 240H0V313H500V240Z"  />
<glyph unicode="&#x2014;" horiz-adv-x="1000" d="M870 240H130V313H870V240Z"  />
<glyph unicode="&#x2018;" horiz-adv-x="278" d="M88 566Q88 608 97 635T120 678T152 703T190 718V672Q160 666 151 639T139 574H190V466H88V566Z"  />
<glyph unicode="&#x2019;" horiz-adv-x="278" d="M88 718H190V618Q190 576 181 549T158 506T126 481T88 466V512Q118 518 127 545T139 610H88V718Z"  />
<glyph unicode="&#x201A;" horiz-adv-x="278" d="M88 108H190V8Q190 -34 181 -61T158 -104T126 -129T88 -144V-98Q118 -92 127 -65T139 0H88V108Z"  />
<glyph unicode="&#x201C;" horiz-adv-x="444" d="M252 566Q252 608 261 635T284 678T316 703T354 718V672Q324 666 315 639T303 574H354V466H252V566ZM90 566Q90 608 99 635T122 678T154 703T192 718V672Q162 666 153 639T141 574H192V466H90V566Z"  />
<glyph unicode="&#x201D;" horiz-adv-x="444" d="M90 718H192V618Q192 576 183 549T160 506T128 481T90 466V512Q120 518 129 545T141 610H90V718ZM252 718H354V618Q354 576 345 549T322 506T290 481T252 466V512Q282 518 291 545T303 610H252V718Z"  />
<glyph unicode="&#x201E;" horiz-adv-x="444" d="M90 108H192V8Q192 -34 183 -61T160 -104T128 -129T90 -144V-98Q120 -92 129 -65T141 0H90V108ZM252 108H354V8Q354 -34 345 -61T322 -104T290 -129T252 -144V-98Q282 -92 291 -65T303 0H252V108Z"  />
<glyph unicode="&#x2020;" horiz-adv-x="556" d="M42 506H233V718H323V506H514V431H323V-159H233V431H42V506Z"  />
<glyph unicode="&#x2021;" horiz-adv-x="556" d="M323 118H514V43H323V-159H233V43H42V118H233V439H42V514H233V718H323V514H514V439H323V118Z"  />
<glyph unicode="&#x2022;" horiz-adv-x="500" d="M71 359Q71 396 85 428T123 485T180 524T250 538Q287 538 320 524T377 486T416 429T430 359Q430 322 416 289T378 232T320 193T250 179Q213 179 181 193T124 231T85 289T71 359Z"  />
<glyph unicode="&#x2026;" horiz-adv-x="1000" d="M116 108H218V0H116V108ZM449 108H551V0H449V108ZM782 108H884V0H782V108Z"  />
<glyph unicode="&#x2030;" horiz-adv-x="1000" d="M69 546Q69 527 76 510T95 481T125 461T162 453Q181 453 198 460T227 480T247 510T255 546Q255 565 248 582T228 612T198 632T162 639Q122 639 96 612T69 546ZM147 -16H92L489 702H544L147 -16ZM382 140Q382 121 389 104T408 75T438 55T475 47Q494 47 511 54T540 74T560 104T568 140Q568 159 561 176T541 206T511 226T475 233Q435 233 409 206T382 140ZM6 546Q6 579 18 607T52 657T101 690T162 702Q194 702 222 690T272 656T305 607T318 546Q318 514 306 486T273 436T224 403T162 390Q130 390 102 402T52 435T19 484T6 546ZM319 140Q319 173 331 201T365 251T414 284T475 296Q507 296 535 284T585 250T618 201T631 140Q631 108 619 80T586 30T537 -3T475 -16Q443 -16 415 -4T365 29T332 78T319 140ZM682 140Q682 173 694 201T728 251T777 284T838 296Q870 296 898 284T948 250T981 201T994 140Q994 108 982 80T949 30T900 -3T838 -16Q806 -16 778 -4T728 29T695 78T682 140ZM745 140Q745 121 752 104T771 75T801 55T838 47Q857 47 874 54T903 74T923 104T931 140Q931 159 924 176T904 206T874 226T838 233Q798 233 772 206T745 140Z"  />
<glyph unicode="&#x2039;" horiz-adv-x="333" d="M245 108L88 231V323L245 446V358L140 277L245 196V108Z"  />
<glyph unicode="&#x203A;" horiz-adv-x="333" d="M88 196L193 277L88 358V446L245 323V231L88 108V196Z"  />
<glyph unicode="&#x20AC;" horiz-adv-x="556" d="M509 534Q490 571 451 597T348 624Q309 624 282 608T235 567T207 509T194 444H479L455 372H191V301H430L406 229H197Q200 191 212 160T244 106T289 72T343 60Q371 60 398 67T447 86T486 109T509 131V32Q506 29 493 21T458 4T410 -12T350 -19Q244 -19 182 44T103 229H24L49 301H97V372H25L50 444H101Q113 567 176 635T354 703Q420 703 469 681T541 628L509 534Z"  />
<glyph unicode="&#x2116;" horiz-adv-x="1000" d="M702 379Q702 322 729 285T804 248Q852 248 879 285T906 379Q906 436 879 473T804 510Q756 510 729 473T702 379ZM612 379Q612 430 627 468T669 531T730 569T804 582Q843 582 878 570T939 532T980 468T996 379Q996 328 981 290T939 227T878 189T804 176Q765 176 730 188T669 226T628 290T612 379ZM633 108H975V30H633V108ZM12 718H116L454 142H456V718H546V0H442L104 576H102V0H12V718Z"  />
<glyph unicode="&#x2122;" horiz-adv-x="856" d="M49 718H341V676H219V359H171V676H49V718ZM415 718H484L586 416H587L688 718H757V359H712V661H711L610 359H562L461 661H460V359H415V718Z"  />

</font>
</defs>
</svg>
