<?xml  version="1.0" encoding="UTF-8"?>
<!DOCTYPE svg PUBLIC "-//W3C//DTD SVG 1.0//EN" "http://www.w3.org/TR/2001/REC-SVG-20010904/DTD/svg10.dtd" >
<svg xmlns="http://www.w3.org/2000/svg" >
<metadata>
<version>1.0</version>
<id><![CDATA[Tahoma W10 Regular]]></id>
<vendor>Monotype Imaging Inc.</vendor>
<credits>
<name>Fonts.com WebFonts</name>
<URL>http://webfonts.fonts.com</URL>
<role>Home of the Web fonts</role>
</credits>
<license>
<URL>http://webfonts.fonts.com/Legal</URL>
</license>
<copyright><![CDATA[© 2006 Microsoft Corporation. All rights reserved.]]></copyright>
<trademark><![CDATA[Tahoma is either a registered trademark or a trademark of Microsoft Corporation in the United States and/or other countries.]]></trademark>
<licensee>
<name></name>
</licensee>
</metadata>
<defs >
<font horiz-adv-x="1159" id="bf5f466c-6f51-449d-91b3-32f1f0c2b796">
<font-face font-family="" panose-1="2 11 6 4 3 5 4 4 2 4" ascent="1596" descent="-452" units-per-em="2048" alphabetic="0">
</font-face>
<missing-glyph horiz-adv-x="0" />

<glyph unicode="&#xA;" />
<glyph unicode="&#xD;" horiz-adv-x="0" />
<glyph unicode=" " horiz-adv-x="640" />
<glyph unicode="!" horiz-adv-x="680" d="M442 0H238V211H442V0ZM452 1489L424 410H258L228 1489H452Z"  />
<glyph unicode="&quot;" horiz-adv-x="822" d="M332 1556L289 977H157L114 1556H332ZM708 1556L665 977H533L490 1556H708Z"  />
<glyph unicode="#" horiz-adv-x="1490" d="M929 934H655L561 554H835L929 934ZM1348 932H1055L963 556H1231V421H928L823 0H694L799 421H529L424 0H295L400 421H142V556H435L527 932H259V1067H562L667 1489H796L691 1067H961L1066 1489H1195L1090 1067H1348V932Z"  />
<glyph unicode="$" horiz-adv-x="1118" d="M835 354Q835 448 787 493T628 561V146Q730 158 782 207T835 354ZM514 746V1160Q424 1152 363 1102T302 961Q302 872 346 824T514 746ZM1024 380Q1024 233 912 128T628 1V-361H514V-4Q406 -3 297 21T106 85V287H121Q200 228 299 191T514 144V576Q489 582 453 590T392 607Q242 648 178 731T113 935Q113 1077 224 1182T514 1304V1576H628V1306Q719 1303 816 1281T976 1231V1033H961Q891 1081 808 1117T628 1161V731Q661 724 689 717T739 704Q875 672 949 593T1024 380Z"  />
<glyph unicode="%" horiz-adv-x="2000" d="M1719 413Q1719 565 1684 643T1545 721Q1442 721 1406 642T1370 412Q1370 262 1404 183T1545 104Q1648 104 1683 183T1719 413ZM629 1076Q629 1228 594 1306T455 1384Q352 1384 316 1305T280 1075Q280 925 314 846T455 767Q558 767 593 846T629 1076ZM1897 413Q1897 188 1807 80T1545 -29Q1371 -29 1282 81T1192 412Q1192 636 1283 745T1545 854Q1719 854 1808 744T1897 413ZM1473 1489L693 0H528L1308 1489H1473ZM807 1076Q807 851 717 743T455 634Q281 634 192 744T102 1075Q102 1299 193 1408T455 1517Q629 1517 718 1407T807 1076Z"  />
<glyph unicode="&amp;" horiz-adv-x="1380" d="M532 912Q588 931 624 963T681 1033Q699 1068 708 1107T717 1191Q717 1288 661 1341T529 1394Q440 1394 389 1334T338 1184Q338 1144 345 1116T377 1049Q398 1018 435 983T532 912ZM898 301L438 772Q413 756 388 734T333 668Q309 633 291 577T272 457Q272 315 356 224T585 132Q681 132 758 172T898 301ZM1445 0H1189L985 213Q883 83 776 26T532 -31Q330 -31 199 90T67 409Q67 495 91 562T155 683Q194 735 245 774T343 843Q242 911 192 986T142 1175Q142 1246 170 1306T245 1413Q293 1460 369 1490T537 1520Q703 1520 808 1433T913 1211Q913 1162 901 1110T855 1008Q822 959 769 916T626 841L978 479Q992 561 995 657T998 909H1193V813Q1193 717 1169 597T1088 368L1445 0Z"  />
<glyph unicode="&apos;" horiz-adv-x="432" d="M327 1556L284 977H148L105 1556H327Z"  />
<glyph unicode="(" horiz-adv-x="784" d="M710 -412H481Q307 -205 208 26T108 572Q108 880 206 1114T481 1556H710V1546Q629 1473 556 1378T419 1155Q359 1032 322 884T284 572Q284 401 320 259T419 -11Q479 -134 556 -233T710 -402V-412Z"  />
<glyph unicode=")" horiz-adv-x="784" d="M676 572Q676 263 577 29T303 -412H74V-402Q151 -333 229 -233T365 -11Q427 118 463 261T500 572Q500 737 463 884T365 1155Q304 1279 227 1378T74 1546V1556H303Q477 1349 576 1116T676 572Z"  />
<glyph unicode="*" horiz-adv-x="1118" d="M1007 887L942 777L615 994L622 630H497L503 994L178 776L112 886L466 1093L112 1300L178 1410L504 1191L497 1556H622L614 1191L942 1409L1007 1299L653 1094L1007 887Z"  />
<glyph unicode="+" horiz-adv-x="1490" d="M1333 572H828V67H662V572H157V732H662V1237H828V732H1333V572Z"  />
<glyph unicode="&#x2c;" horiz-adv-x="620" d="M500 285L220 -370H74L250 285H500Z"  />
<glyph unicode="-" horiz-adv-x="744" d="M654 561H90V742H654V561Z"  />
<glyph unicode="." horiz-adv-x="620" d="M429 0H190V285H429V0Z"  />
<glyph unicode="/" horiz-adv-x="783" d="M728 1556L145 -324H-24L556 1556H728Z"  />
<glyph unicode="0" horiz-adv-x="1118" d="M779 291Q808 365 820 478T832 745Q832 898 820 1011T778 1199Q748 1275 696 1314T559 1354Q476 1354 423 1315T338 1197Q308 1121 297 1005T286 743Q286 587 295 482T337 294Q366 217 419 176T559 134Q642 134 695 173T779 291ZM1035 745Q1035 344 919 157T559 -31Q313 -31 198 160T83 743Q83 1146 199 1332T559 1519Q805 1519 920 1326T1035 745Z"  />
<glyph unicode="1" horiz-adv-x="1118" d="M952 0H226V152H496V1150H226V1286Q379 1286 451 1329T533 1494H688V152H952V0Z"  />
<glyph unicode="2" horiz-adv-x="1118" d="M1028 0H109V209Q208 303 296 389T468 568Q638 755 700 867T762 1100Q762 1162 743 1209T689 1287Q654 1317 608 1332T507 1347Q454 1347 400 1334T295 1300Q253 1283 214 1259T151 1218H140V1430Q202 1461 312 1490T522 1520Q730 1520 848 1410T966 1110Q966 1023 946 949T889 812Q852 747 800 683T690 557Q596 455 481 345T296 171H1028V0Z"  />
<glyph unicode="3" horiz-adv-x="1118" d="M511 1347Q457 1347 403 1334T297 1300Q249 1280 214 1258T150 1217H138V1428Q203 1463 314 1491T527 1520Q628 1520 703 1500T840 1436Q906 1388 939 1320T973 1161Q973 1038 892 945T698 827V813Q745 804 798 782T898 717Q944 674 973 607T1002 442Q1002 341 968 257T870 107Q805 39 713 4T504 -31Q392 -31 282 -4T97 61V272H111Q174 226 280 184T492 142Q553 142 614 161T717 225Q757 269 778 322T799 456Q799 537 776 589T710 671Q668 701 611 712T486 724H401V890H467Q602 890 686 954T771 1140Q771 1196 749 1236T693 1301Q655 1327 609 1337T511 1347Z"  />
<glyph unicode="4" horiz-adv-x="1118" d="M698 672V1254L196 672H698ZM1067 512H890V0H698V512H40V722L706 1489H890V672H1067V512Z"  />
<glyph unicode="5" horiz-adv-x="1118" d="M1011 474Q1011 366 977 274T880 115Q817 47 724 8T514 -31Q407 -31 304 -8T124 54V265H138Q161 248 204 227T299 186Q358 165 407 154T517 142Q577 142 634 163T732 233Q769 277 788 336T808 475Q808 554 787 605T724 689Q681 727 619 742T479 758Q398 758 316 746T185 722V1489H1002V1314H378V918Q414 922 449 924T513 926Q627 926 706 907T858 833Q932 777 971 693T1011 474Z"  />
<glyph unicode="6" horiz-adv-x="1118" d="M848 475Q848 567 824 629T746 735Q707 767 658 777T556 787Q486 787 420 766T290 705Q288 683 287 663T286 611Q286 456 316 361T392 217Q435 170 480 151T579 132Q699 132 773 218T848 475ZM1051 483Q1051 368 1013 271T911 109Q844 40 761 5T578 -31Q477 -31 395 3T249 104Q172 185 129 320T85 654Q85 848 125 1004T248 1277Q329 1390 457 1453T753 1517Q803 1517 846 1512T922 1496V1305H913Q886 1320 835 1332T726 1345Q540 1345 426 1220T290 847Q361 897 436 924T600 951Q687 951 752 934T889 863Q971 801 1011 706T1051 483Z"  />
<glyph unicode="7" horiz-adv-x="1118" d="M1044 1266L400 0H187L869 1314H99V1489H1044V1266Z"  />
<glyph unicode="8" horiz-adv-x="1118" d="M559 -34Q448 -34 357 -1T202 94Q139 154 107 236T74 411Q74 532 138 633T326 795V801Q216 865 163 941T110 1131Q110 1299 237 1411T559 1523Q762 1523 884 1417T1007 1144Q1007 1044 949 946T780 793V787Q910 726 977 639T1044 415Q1044 224 906 95T559 -34ZM839 396Q839 488 803 542T664 652Q630 671 574 693T446 745Q363 690 319 610T275 426Q275 291 356 203T561 115Q687 115 763 190T839 396ZM811 1142Q811 1242 744 1309T558 1376Q449 1376 380 1316T310 1154Q310 1080 345 1029T452 937Q483 920 546 890T662 843Q749 910 780 980T811 1142Z"  />
<glyph unicode="9" horiz-adv-x="1118" d="M67 1005Q67 1120 104 1215T207 1379Q269 1445 358 1482T540 1519Q643 1519 726 1485T871 1385Q948 1303 990 1170T1033 834Q1033 649 992 484T869 209Q783 93 663 32T365 -29Q325 -29 280 -25T196 -8V183H206Q231 169 284 156T392 143Q588 143 700 272T827 641Q747 587 675 562T517 537Q434 537 366 555T229 625Q149 686 108 779T67 1005ZM832 877Q832 1029 804 1124T727 1272Q683 1320 638 1338T539 1356Q416 1356 343 1268T270 1013Q270 919 294 858T372 753Q410 722 458 712T561 701Q625 701 699 723T828 783Q829 798 830 822T832 877Z"  />
<glyph unicode=":" horiz-adv-x="724" d="M482 0H243V285H482V0ZM482 832H243V1117H482V832Z"  />
<glyph unicode=";" horiz-adv-x="724" d="M482 832H243V1117H482V832ZM548 285L268 -370H122L298 285H548Z"  />
<glyph unicode="&lt;" horiz-adv-x="1490" d="M1275 79L201 592V712L1275 1225V1047L442 652L1275 257V79Z"  />
<glyph unicode="=" horiz-adv-x="1490" d="M1298 362H192V522H1298V362ZM1298 782H192V942H1298V782Z"  />
<glyph unicode="&gt;" horiz-adv-x="1490" d="M1289 592L215 79V257L1048 652L215 1047V1225L1289 712V592Z"  />
<glyph unicode="?" horiz-adv-x="970" d="M542 0H338V211H542V0ZM912 1139Q912 1041 880 965T793 830Q739 772 671 723T526 628V400H347V705Q403 739 477 786T594 875Q648 926 678 986T708 1124Q708 1237 637 1292T452 1348Q352 1348 264 1315T120 1245H109V1449Q176 1476 278 1497T471 1519Q676 1519 794 1415T912 1139Z"  />
<glyph unicode="@" horiz-adv-x="1862" d="M1142 408V926Q1086 955 1039 967T941 980Q828 980 759 896T690 634Q690 474 742 389T908 304Q969 304 1028 333T1142 408ZM1739 663Q1739 524 1701 395T1592 157H1171L1146 273Q1079 216 1023 183T869 149Q715 149 617 272T519 631Q519 866 639 997T915 1128Q987 1128 1039 1110T1144 1062V1110H1303V268H1530Q1568 339 1584 452T1601 657Q1601 984 1435 1183T956 1383Q660 1383 468 1168T275 645Q275 315 462 111T951 -94Q1032 -94 1121 -83T1291 -48V-190Q1207 -210 1121 -218T950 -226Q596 -226 364 17T132 647Q132 1014 371 1266T955 1518Q1323 1518 1531 1281T1739 663Z"  />
<glyph unicode="A" horiz-adv-x="1228" d="M839 585L609 1287L380 585H839ZM-10 0L492 1489H736L1238 0H1029L894 416H325L190 0H-10Z"  />
<glyph unicode="B" horiz-adv-x="1207" d="M955 449Q955 533 931 587T834 680Q787 705 732 712T574 719H349V169H510Q640 169 715 181T847 232Q903 271 929 320T955 449ZM885 1125Q885 1179 867 1218T809 1281Q761 1308 702 1314T539 1320H349V884H574Q667 884 711 893T802 933Q847 962 866 1009T885 1125ZM1161 457Q1161 346 1119 261T1006 121Q922 55 826 28T578 0H151V1489H546Q705 1489 784 1479T937 1429Q1017 1386 1054 1317T1091 1153Q1091 1048 1036 965T882 835V827Q1015 791 1088 696T1161 457Z"  />
<glyph unicode="C" horiz-adv-x="1230" d="M733 -27Q587 -27 465 22T253 168Q164 265 115 410T66 743Q66 930 113 1069T252 1311Q341 1411 463 1463T736 1516Q811 1516 876 1505T998 1477Q1046 1462 1096 1440T1196 1390V1151H1180Q1154 1175 1113 1209T1013 1276Q956 1307 889 1327T734 1347Q639 1347 554 1308T405 1193Q342 1117 307 1002T272 743Q272 590 309 480T410 293Q472 219 556 182T734 144Q820 144 893 165T1023 218Q1078 249 1118 281T1181 337H1196V101Q1147 78 1104 57T998 16Q933 -5 878 -16T733 -27Z"  />
<glyph unicode="D" horiz-adv-x="1389" d="M1119 746Q1119 918 1062 1039T893 1229Q814 1277 724 1298T500 1319H349V170H500Q632 170 731 191T912 269Q1015 339 1067 455T1119 746ZM1325 743Q1325 539 1243 375T1021 119Q908 48 792 24T494 0H151V1489H490Q700 1489 819 1458T1023 1371Q1167 1276 1246 1119T1325 743Z"  />
<glyph unicode="E" horiz-adv-x="1149" d="M151 0V1489H1082V1313H349V905H1032V729H349V176H1082V0H151Z"  />
<glyph unicode="F" horiz-adv-x="1068" d="M1042 1313H349V893H1013V717H349V0H151V1489H1042V1313Z"  />
<glyph unicode="G" horiz-adv-x="1367" d="M774 -29Q616 -29 485 19T260 165Q166 264 116 410T66 746Q66 926 116 1068T261 1312Q352 1410 485 1463T776 1516Q851 1516 920 1505T1052 1475Q1102 1460 1163 1434T1263 1388V1149H1246Q1209 1182 1170 1211T1058 1275Q998 1305 920 1325T752 1345Q537 1345 405 1183T272 752Q272 602 307 490T408 300Q472 223 562 183T766 142Q850 142 933 154T1073 190V575H729V749H1269V99Q1231 82 1168 56T1049 15Q976 -7 917 -18T774 -29Z"  />
<glyph unicode="H" horiz-adv-x="1383" d="M1232 0H1034V729H349V0H151V1489H349V905H1034V1489H1232V0Z"  />
<glyph unicode="I" horiz-adv-x="764" d="M671 0H93V152H283V1337H93V1489H671V1337H481V152H671V0Z"  />
<glyph unicode="J" horiz-adv-x="853" d="M712 387Q712 191 593 85T272 -21Q224 -21 144 -13T9 8V197H20Q61 183 121 166T245 149Q337 149 391 170T472 230Q499 270 506 328T514 462V1331H199V1489H712V387Z"  />
<glyph unicode="K" horiz-adv-x="1204" d="M1236 0H979L436 693L349 595V0H151V1489H349V804L959 1489H1200L584 824L1236 0Z"  />
<glyph unicode="L" horiz-adv-x="1019" d="M1014 0H151V1489H349V176H1014V0Z"  />
<glyph unicode="M" horiz-adv-x="1578" d="M1427 0H1229V1283L841 410H721L336 1283V0H151V1489H421L793 660L1152 1489H1427V0Z"  />
<glyph unicode="N" horiz-adv-x="1367" d="M1216 0H994L336 1284V0H151V1489H432L1031 310V1489H1216V0Z"  />
<glyph unicode="O" horiz-adv-x="1449" d="M1177 744Q1177 892 1145 1006T1055 1195Q996 1272 913 1310T725 1349Q617 1349 537 1312T394 1195Q335 1119 304 1004T272 744Q272 451 395 296T725 140Q932 140 1054 295T1177 744ZM1204 1318Q1289 1220 1336 1075T1383 744Q1383 563 1337 417T1204 172Q1113 68 992 19T724 -31Q573 -31 452 20T244 172Q158 271 112 416T66 744Q66 932 112 1074T245 1318Q331 1417 452 1468T724 1520Q876 1520 998 1467T1204 1318Z"  />
<glyph unicode="P" horiz-adv-x="1129" d="M885 1035Q885 1112 859 1169T778 1262Q731 1293 669 1306T513 1319H349V724H484Q604 724 678 743T801 813Q845 858 865 911T885 1035ZM1091 1040Q1091 943 1057 857T961 709Q884 633 780 594T517 555H349V0H151V1489H525Q657 1489 750 1467T914 1396Q997 1339 1044 1252T1091 1040Z"  />
<glyph unicode="Q" horiz-adv-x="1449" d="M1177 744Q1177 892 1145 1006T1055 1195Q996 1272 913 1310T725 1349Q617 1349 537 1312T394 1195Q335 1119 304 1004T272 744Q272 451 395 295T725 139Q932 139 1054 295T1177 744ZM1388 -364Q1334 -378 1275 -385T1156 -392Q989 -392 885 -298T770 -30Q757 -30 745 -30T724 -30Q573 -30 452 21T244 172Q158 271 112 416T66 744Q66 932 112 1074T245 1318Q331 1417 452 1468T724 1520Q876 1520 998 1467T1204 1318Q1289 1220 1336 1075T1383 744Q1383 455 1270 267T961 12Q966 -44 980 -88T1018 -159Q1045 -190 1083 -204T1189 -219Q1229 -219 1283 -207T1361 -184H1388V-364Z"  />
<glyph unicode="R" horiz-adv-x="1271" d="M876 1070Q876 1135 853 1185T782 1268Q740 1296 684 1307T545 1319H349V757H523Q608 757 676 772T792 834Q835 876 855 934T876 1070ZM1304 0H1047L575 592H349V0H151V1489H535Q663 1489 749 1475T914 1410Q992 1360 1037 1281T1083 1085Q1083 921 1000 811T774 648L1304 0Z"  />
<glyph unicode="S" horiz-adv-x="1141" d="M566 -27Q404 -27 291 6T77 89V337H91Q189 245 313 195T552 144Q716 144 800 212T884 393Q884 482 840 538T700 621Q631 641 574 654T431 689Q354 709 293 740T185 821Q139 870 114 936T88 1090Q88 1271 229 1393T589 1516Q714 1516 825 1491T1032 1420V1183H1017Q946 1248 835 1296T602 1345Q464 1345 379 1281T294 1111Q294 1016 344 960T489 878Q552 861 643 840T794 800Q948 753 1019 658T1090 424Q1090 337 1055 252T955 108Q883 43 793 8T566 -27Z"  />
<glyph unicode="T" horiz-adv-x="1196" d="M499 0V1313H-1V1489H1197V1313H697V0H499Z"  />
<glyph unicode="U" horiz-adv-x="1343" d="M671 -31Q540 -31 442 3T275 106Q197 184 165 292T133 560V1489H331V560Q331 457 344 387T395 260Q435 200 503 169T671 138Q764 138 836 169T948 260Q985 317 998 386T1012 555V1489H1210V560Q1210 405 1179 294T1068 106Q997 37 903 3T671 -31Z"  />
<glyph unicode="V" horiz-adv-x="1222" d="M1230 1489L718 0H504L-8 1489H204L616 253L1028 1489H1230Z"  />
<glyph unicode="W" horiz-adv-x="1847" d="M1821 1489L1447 0H1224L921 1236L625 0H407L26 1489H229L529 251L827 1489H1028L1329 239L1627 1489H1821Z"  />
<glyph unicode="X" horiz-adv-x="1189" d="M1181 0H954L591 596L222 0H8L481 745L22 1489H248L604 904L965 1489H1180L714 755L1181 0Z"  />
<glyph unicode="Y" horiz-adv-x="1180" d="M1193 1489L690 659V0H492V638L-11 1489H209L593 832L983 1489H1193Z"  />
<glyph unicode="Z" horiz-adv-x="1145" d="M1100 0H60V184L857 1313H96V1489H1080V1310L274 176H1100V0Z"  />
<glyph unicode="[" horiz-adv-x="784" d="M686 -392H166V1556H686V1413H341V-249H686V-392Z"  />
<glyph unicode="\" horiz-adv-x="783" d="M804 -324H635L52 1556H224L804 -324Z"  />
<glyph unicode="]" horiz-adv-x="784" d="M618 -392H98V-249H443V1413H98V1556H618V-392Z"  />
<glyph unicode="^" horiz-adv-x="1490" d="M1357 684H1159L744 1309L330 682H133L682 1489H808L1357 684Z"  />
<glyph unicode="_" horiz-adv-x="1118" d="M1134 -300H-16V-170H1134V-300Z"  />
<glyph unicode="`" horiz-adv-x="1118" d="M670 1302H521L248 1676H491L670 1302Z"  />
<glyph unicode="a" horiz-adv-x="1075" d="M760 119Q737 102 699 72T624 23Q574 -3 528 -17T397 -31Q328 -31 266 -5T157 68Q112 114 85 181T58 324Q58 440 107 521T262 651Q356 694 484 710T760 735V771Q760 837 740 877T684 940Q648 963 596 970T489 978Q424 978 336 959T160 902H149V1093Q201 1108 298 1126T490 1144Q605 1144 684 1126T826 1061Q887 1015 917 942T947 764V0H760V119ZM760 275V585Q693 579 591 569T425 539Q350 516 301 469T252 336Q252 240 306 191T464 142Q553 142 625 180T760 275Z"  />
<glyph unicode="b" horiz-adv-x="1132" d="M1073 577Q1073 303 940 136T607 -31Q516 -31 452 -9T324 52L312 0H136V1556H324V1000Q395 1064 478 1106T666 1148Q855 1148 964 997T1073 577ZM879 562Q879 762 818 865T622 969Q545 969 467 933T324 842V202Q395 167 450 153T571 138Q715 138 797 240T879 562Z"  />
<glyph unicode="c" horiz-adv-x="945" d="M580 -25Q465 -25 369 10T204 118Q135 190 97 299T59 557Q59 704 98 811T204 991Q270 1064 368 1103T580 1143Q672 1143 757 1117T910 1057V846H899Q879 863 848 885T771 930Q732 950 679 965T577 980Q431 980 343 870T254 557Q254 359 339 249T577 138Q669 138 752 176T899 274H910V63Q882 50 840 32T764 4Q716 -10 678 -17T580 -25Z"  />
<glyph unicode="d" horiz-adv-x="1132" d="M808 272V916Q738 950 683 963T562 976Q417 976 335 868T253 554Q253 357 316 253T518 148Q592 148 667 181T808 272ZM996 0H808V114Q764 77 732 53T657 9Q617 -10 574 -20T474 -31Q383 -31 306 7T174 118Q119 192 89 300T59 550Q59 697 97 804T202 992Q263 1065 349 1106T531 1148Q615 1148 677 1130T808 1072V1556H996V0Z"  />
<glyph unicode="e" horiz-adv-x="1078" d="M841 683Q839 759 823 814T777 907Q744 949 693 971T565 993Q490 993 438 971T342 905Q300 861 278 808T250 683H841ZM621 -26Q354 -26 207 124T59 552Q59 825 202 986T576 1148Q680 1148 760 1118T900 1024Q960 960 992 868T1024 641V539H250Q250 344 348 241T619 138Q681 138 740 152T848 188Q899 211 934 232T992 273H1003V68Q970 55 921 36T833 5Q778 -10 734 -18T621 -26Z"  />
<glyph unicode="f" horiz-adv-x="652" d="M724 1376H714Q689 1385 642 1393T558 1402Q439 1402 389 1349T338 1155V1117H649V961H344V0H156V961H29V1117H156V1154Q156 1356 253 1461T531 1566Q583 1566 633 1561T724 1548V1376Z"  />
<glyph unicode="g" horiz-adv-x="1132" d="M176 -179Q195 -187 232 -200T316 -226Q368 -239 412 -247T508 -255Q595 -255 655 -232T750 -168Q782 -127 795 -73T808 50V148Q732 82 659 51T476 19Q285 19 172 161T59 569Q59 708 98 815T203 998Q266 1070 352 1109T530 1148Q617 1148 680 1128T808 1069L819 1117H996V127Q996 -157 872 -290T493 -423Q411 -423 326 -410T166 -375V-179H176ZM808 303V916Q738 950 679 964T560 979Q417 979 335 874T253 573Q253 387 315 290T518 193Q591 193 668 222T808 303Z"  />
<glyph unicode="h" horiz-adv-x="1142" d="M1014 0H826V636Q826 713 819 779T790 886Q767 928 726 948T614 969Q544 969 470 932T324 834V0H136V1556H324V993Q408 1068 490 1108T663 1148Q828 1148 921 1040T1014 725V0Z"  />
<glyph unicode="i" horiz-adv-x="468" d="M341 1304H127V1499H341V1304ZM328 0H140V1117H328V0Z"  />
<glyph unicode="j" horiz-adv-x="577" d="M442 1304H228V1499H442V1304ZM441 -32Q441 -223 339 -323T56 -423Q25 -423 -13 -420T-90 -411V-243H-79Q-57 -248 -31 -252T20 -257Q95 -257 143 -239T216 -180Q238 -144 245 -89T253 45V961H51V1117H441V-32Z"  />
<glyph unicode="k" horiz-adv-x="1020" d="M1062 0H815L398 539L324 467V0H136V1556H324V645L766 1117H1000L541 650L1062 0Z"  />
<glyph unicode="l" horiz-adv-x="468" d="M328 0H140V1556H328V0Z"  />
<glyph unicode="m" horiz-adv-x="1720" d="M1404 0V646Q1404 723 1398 788T1373 891Q1353 931 1316 950T1216 969Q1158 969 1092 934T954 831Q955 814 956 791T958 735V0H770V646Q770 723 764 788T739 891Q719 931 682 950T582 969Q521 969 454 931T324 834V0H136V1117H324V993Q398 1067 470 1107T630 1148Q729 1148 805 1103T922 955Q1007 1050 1088 1099T1264 1148Q1336 1148 1395 1126T1498 1053Q1543 1002 1567 926T1592 735V0H1404Z"  />
<glyph unicode="n" horiz-adv-x="1142" d="M1014 0H826V636Q826 713 819 779T790 886Q767 928 726 948T614 969Q544 969 470 932T324 834V0H136V1117H324V993Q408 1068 490 1108T663 1148Q828 1148 921 1040T1014 725V0Z"  />
<glyph unicode="o" horiz-adv-x="1112" d="M861 558Q861 775 782 880T557 986Q410 986 331 881T251 558Q251 348 330 240T557 131Q702 131 781 237T861 558ZM1055 558Q1055 276 919 123T557 -31Q324 -31 191 127T57 558Q57 838 194 993T557 1148Q783 1148 919 994T1055 558Z"  />
<glyph unicode="p" horiz-adv-x="1132" d="M879 567Q879 758 818 863T620 969Q540 969 466 934T324 842V209Q398 173 450 160T571 147Q717 147 798 254T879 567ZM1073 588Q1073 309 940 144T602 -22Q519 -22 455 -3T324 56V-412H136V1117H324V1000Q394 1063 479 1105T666 1148Q858 1148 965 996T1073 588Z"  />
<glyph unicode="q" horiz-adv-x="1132" d="M808 280V916Q737 951 681 965T561 979Q413 979 333 872T253 564Q253 368 317 263T516 157Q595 157 670 191T808 280ZM996 -412H808V122Q726 47 648 13T475 -22Q285 -22 172 130T59 555Q59 699 98 809T203 995Q265 1068 351 1108T530 1148Q616 1148 679 1128T808 1069L820 1117H996V-412Z"  />
<glyph unicode="r" horiz-adv-x="738" d="M728 915H718Q697 921 674 922T617 924Q541 924 466 891T324 793V0H136V1117H324V951Q427 1042 503 1079T652 1117Q681 1117 695 1116T728 1111V915Z"  />
<glyph unicode="s" horiz-adv-x="914" d="M438 -27Q326 -27 229 3T67 67V278H77Q101 259 133 236T220 188Q268 166 325 149T445 132Q490 132 541 142T617 169Q652 192 667 218T683 296Q683 363 647 397T517 454Q481 463 423 475T316 501Q188 538 130 615T72 803Q72 954 186 1049T489 1144Q582 1144 676 1121T834 1063V862H824Q752 919 664 952T485 985Q392 985 328 946T264 828Q264 758 302 724T424 667Q466 656 517 646T626 621Q750 590 812 518T875 322Q875 250 847 186T763 75Q703 25 628 -1T438 -27Z"  />
<glyph unicode="t" horiz-adv-x="685" d="M474 -22Q320 -22 234 65T148 342V961H21V1117H148V1438H336V1117H682V961H336V430Q336 345 339 299T362 213Q379 178 417 161T520 143Q566 143 609 156T671 179H682V10Q629 -5 575 -13T474 -22Z"  />
<glyph unicode="u" horiz-adv-x="1142" d="M1006 0H818V124Q731 48 653 9T479 -31Q406 -31 342 -7T229 69Q181 121 155 200T128 392V1117H316V481Q316 392 322 334T352 231Q375 188 414 168T528 148Q597 148 675 187T818 283V1117H1006V0Z"  />
<glyph unicode="v" horiz-adv-x="1020" d="M1014 1117L593 0H424L6 1117H209L515 255L818 1117H1014Z"  />
<glyph unicode="w" horiz-adv-x="1520" d="M1490 1117L1207 0H1033L760 861L489 0H316L30 1117H226L423 252L688 1117H843L1115 252L1301 1117H1490Z"  />
<glyph unicode="x" horiz-adv-x="1014" d="M1004 0H773L502 422L223 0H10L398 554L14 1117H245L514 699L790 1117H1004L618 567L1004 0Z"  />
<glyph unicode="y" horiz-adv-x="1020" d="M1014 1117L413 -412H212L412 54L6 1117H209L514 290L818 1117H1014Z"  />
<glyph unicode="z" horiz-adv-x="910" d="M870 0H49V139L633 962H73V1117H859V983L272 157H870V0Z"  />
<glyph unicode="{" horiz-adv-x="984" d="M886 -392H770Q591 -392 490 -294T388 -5V144Q388 213 375 283T325 403Q288 453 229 478T81 504H60V660H81Q169 660 228 685T325 761Q362 811 375 881T388 1020V1169Q388 1359 489 1457T770 1556H886V1418H806Q747 1418 704 1406T630 1365Q598 1335 583 1282T567 1152V977Q567 895 548 839T492 734Q459 690 406 654T296 594V570Q353 547 405 511T492 430Q529 381 548 325T567 187V12Q567 -65 582 -118T630 -201Q660 -230 703 -242T806 -254H886V-392Z"  />
<glyph unicode="|" horiz-adv-x="783" d="M475 -392H308V1556H475V-392Z"  />
<glyph unicode="}" horiz-adv-x="984" d="M924 504H903Q815 504 756 479T659 403Q622 353 609 283T596 144V-5Q596 -195 495 -293T214 -392H98V-254H178Q237 -254 280 -242T354 -201Q386 -171 401 -118T417 12V187Q417 269 436 325T492 430Q525 474 578 510T688 570V594Q631 617 578 653T492 734Q455 783 436 839T417 977V1152Q417 1229 402 1282T354 1365Q323 1394 280 1406T178 1418H98V1556H214Q393 1556 494 1458T596 1169V1020Q596 951 609 881T659 761Q696 711 755 686T903 660H924V504Z"  />
<glyph unicode="~" horiz-adv-x="1490" d="M1356 927Q1354 825 1335 731T1275 561Q1234 488 1173 442T1014 396Q957 396 912 411T831 452Q796 477 764 512T707 577Q680 610 654 644T603 704Q576 732 547 749T481 766Q431 766 398 740T343 661Q322 611 314 541T302 395H134Q136 499 155 594T214 761Q254 837 320 881T476 926Q536 926 581 910T662 869Q697 844 726 812T784 745Q806 718 836 679T888 618Q917 588 946 572T1009 556Q1059 556 1093 584T1147 660Q1167 710 1176 777T1188 927H1356Z"  />
<glyph unicode="&#xA0;" horiz-adv-x="640" />
<glyph unicode="&#xA4;" horiz-adv-x="1118" d="M752 661Q752 741 696 799T560 858Q483 858 426 801T368 661Q368 581 424 523T560 464Q637 464 694 521T752 661ZM1057 272L951 166L737 378Q692 351 653 339T560 326Q514 326 468 341T385 379L170 164L65 273L277 486Q252 526 239 572T225 661Q225 705 238 749T278 835L65 1051L172 1157L386 944Q423 968 469 982T560 996Q612 996 657 981T736 945L948 1157L1057 1052L843 836Q870 793 883 753T896 661Q896 616 882 570T843 486L1057 272Z"  />
<glyph unicode="&#xA6;" horiz-adv-x="783" d="M475 -392H308V406H475V-392ZM475 758H308V1556H475V758Z"  />
<glyph unicode="&#xA7;" horiz-adv-x="1118" d="M182 -133Q208 -146 246 -162T321 -190Q368 -205 408 -212T509 -220Q623 -220 699 -174T776 -36Q776 18 758 51T698 111Q656 136 595 153T460 192Q372 217 314 243T208 312Q163 353 141 407T119 533Q119 627 168 711T318 858V865Q227 915 188 986T148 1147Q148 1315 276 1417T628 1519Q713 1519 785 1506T946 1462V1268H936Q846 1313 769 1334T607 1355Q495 1355 418 1310T340 1176Q340 1119 360 1083T420 1024Q459 1000 519 981T657 942Q841 892 919 814T998 601Q998 493 944 412T799 277V270Q886 224 927 154T969 -10Q969 -84 938 -155T848 -274Q786 -327 700 -356T490 -385Q411 -385 333 -371T172 -327V-133H182ZM759 401Q783 436 796 468T810 555Q810 604 796 640T756 699Q732 722 700 737T626 766Q593 776 549 788T450 819Q430 807 409 789T361 738Q341 712 325 668T308 579Q308 498 346 450T492 369Q526 359 569 346T667 315Q686 327 711 348T759 401Z"  />
<glyph unicode="&#xA8;" horiz-adv-x="1118" d="M454 1304H253V1499H454V1304ZM867 1304H666V1499H867V1304Z"  />
<glyph unicode="&#xA9;" horiz-adv-x="1902" d="M1274 255Q1207 225 1140 203T982 180Q773 180 652 303T531 660Q531 890 656 1016T982 1143Q1065 1143 1141 1121T1274 1070V889H1258Q1215 927 1139 961T986 996Q863 996 790 914T716 660Q716 498 786 413T986 327Q1070 327 1145 363T1258 434H1274V255ZM1701 655Q1701 968 1482 1188T952 1409Q642 1409 423 1189T203 655Q203 342 422 121T952 -100Q1262 -100 1481 121T1701 655ZM1816 655Q1816 297 1563 44T951 -210Q593 -210 340 43T86 655Q86 1013 339 1266T951 1519Q1309 1519 1562 1266T1816 655Z"  />
<glyph unicode="&#xAB;" horiz-adv-x="1174" d="M613 162L103 608V697L613 1142V946L282 652L613 358V162ZM1043 191L555 610V695L1043 1113V925L726 652L1043 379V191Z"  />
<glyph unicode="&#xAC;" horiz-adv-x="1490" d="M1323 57H1152V602H157V762H1323V57Z"  />
<glyph unicode="&#xAD;" horiz-adv-x="744" d="M654 561H90V742H654V561Z"  />
<glyph unicode="&#xAE;" horiz-adv-x="1902" d="M1120 868Q1120 905 1108 932T1066 978Q1041 994 1010 999T930 1005H815V696H913Q961 696 1003 705T1071 738Q1097 761 1108 791T1120 868ZM1448 215H1221L938 570H815V215H650V1130H929Q1023 1130 1077 1123T1188 1084Q1248 1050 1275 1002T1302 879Q1302 779 1247 715T1102 615L1448 215ZM1701 655Q1701 968 1482 1188T952 1409Q642 1409 423 1189T203 655Q203 342 422 121T952 -100Q1262 -100 1481 121T1701 655ZM1816 655Q1816 297 1563 44T951 -210Q593 -210 340 43T86 655Q86 1013 339 1266T951 1519Q1309 1519 1562 1266T1816 655Z"  />
<glyph unicode="&#xB0;" horiz-adv-x="964" d="M706 1135Q706 1231 642 1297T482 1363Q386 1363 322 1297T258 1135Q258 1037 323 972T482 907Q578 907 642 973T706 1135ZM863 1135Q863 975 753 865T482 755Q323 755 212 864T101 1135Q101 1295 211 1405T482 1515Q643 1515 753 1405T863 1135Z"  />
<glyph unicode="&#xB1;" horiz-adv-x="1490" d="M1328 159H162V317H662V739H162V897H662V1402H828V897H1328V739H828V317H1328V159Z"  />
<glyph unicode="&#xB4;" horiz-adv-x="1118" d="M871 1676L598 1302H449L628 1676H871Z"  />
<glyph unicode="&#xB5;" horiz-adv-x="1163" d="M1027 0H855V116H849Q789 53 729 18T578 -17Q486 -17 433 18T324 115V-412H136V1117H324V275Q366 225 429 195T578 164Q668 164 729 193T839 275V1117H1027V0Z"  />
<glyph unicode="&#xB6;" horiz-adv-x="1118" d="M982 -363H842V1359H655V-363H515V593Q309 598 183 722T57 1050Q57 1257 187 1373T560 1489H982V-363Z"  />
<glyph unicode="&#xB7;" horiz-adv-x="724" d="M482 832H243V1117H482V832Z"  />
<glyph unicode="&#xBB;" horiz-adv-x="1174" d="M619 610L131 191V379L448 652L131 925V1113L619 695V610ZM1071 608L561 162V358L892 652L561 946V1142L1071 697V608Z"  />
<glyph unicode="&#xEF;" horiz-adv-x="468" d="M151 1304H-38V1499H151V1304ZM506 1304H317V1499H506V1304ZM328 0H140V1117H328V0Z"  />
<glyph unicode="&#x192;" horiz-adv-x="396" d="M33 423H139L164 596Q172 654 201 685Q228 714 271 723T375 724V648Q314 653 288 640T255 584L232 423H350V353H222L168 -32Q159 -95 128 -126Q105 -149 70 -155T-15 -155V-81Q22 -84 45 -75T74 -25L129 353H33V423Z"  />
<glyph unicode="&#x2D8;" horiz-adv-x="1118" d="M889 1636Q889 1550 868 1480T808 1361Q763 1308 706 1282T560 1255Q478 1255 417 1282T313 1361Q272 1411 251 1481T230 1636H392Q392 1501 434 1442T560 1382Q639 1382 683 1440T727 1636H889Z"  />
<glyph unicode="&#x37E;" horiz-adv-x="724" d="M482 832H243V1117H482V832ZM548 285L268 -370H122L298 285H548Z"  />
<glyph unicode="&#x401;" horiz-adv-x="1149" d="M151 0V1489H1082V1313H349V905H1032V729H349V176H1082V0H151ZM553 1677H352V1872H553V1677ZM966 1677H765V1872H966V1677Z"  />
<glyph unicode="&#x402;" horiz-adv-x="1471" d="M1433 460Q1433 352 1392 264T1277 117Q1190 48 1103 24T877 0H817V177H860Q951 177 1011 185T1118 227Q1174 267 1200 322T1226 456Q1226 531 1202 588T1124 681Q1074 715 1000 724T794 734H617V0H419V1313H-1V1489H1117V1313H617V905H856Q1008 905 1103 887T1284 803Q1360 744 1396 657T1433 460Z"  />
<glyph unicode="&#x403;" horiz-adv-x="1039" d="M1034 1313H349V0H151V1489H1034V1313ZM930 2049L657 1675H508L687 2049H930Z"  />
<glyph unicode="&#x404;" horiz-adv-x="1228" d="M1183 65Q1093 26 985 0T744 -27Q435 -27 251 176T66 746Q66 1102 252 1309T743 1516Q877 1516 988 1490T1183 1425V1202H1168Q1098 1266 988 1307T749 1348Q563 1348 433 1233T276 885H991V712H266Q267 571 305 465T409 286Q476 213 564 177T752 141Q876 141 987 179T1168 282H1183V65Z"  />
<glyph unicode="&#x405;" horiz-adv-x="1141" d="M566 -27Q404 -27 291 6T77 89V337H91Q189 245 313 195T552 144Q716 144 800 212T884 393Q884 482 840 538T700 621Q631 641 574 654T431 689Q354 709 293 740T185 821Q139 870 114 936T88 1090Q88 1271 229 1393T589 1516Q714 1516 825 1491T1032 1420V1183H1017Q946 1248 835 1296T602 1345Q464 1345 379 1281T294 1111Q294 1016 344 960T489 878Q552 861 643 840T794 800Q948 753 1019 658T1090 424Q1090 337 1055 252T955 108Q883 43 793 8T566 -27Z"  />
<glyph unicode="&#x406;" horiz-adv-x="764" d="M671 0H93V152H283V1337H93V1489H671V1337H481V152H671V0Z"  />
<glyph unicode="&#x407;" horiz-adv-x="764" d="M671 0H93V152H283V1337H93V1489H671V1337H481V152H671V0ZM278 1677H77V1872H278V1677ZM691 1677H490V1872H691V1677Z"  />
<glyph unicode="&#x408;" horiz-adv-x="853" d="M712 387Q712 191 593 85T272 -21Q224 -21 144 -13T9 8V197H20Q61 183 121 166T245 149Q337 149 391 170T472 230Q499 270 506 328T514 462V1331H199V1489H712V387Z"  />
<glyph unicode="&#x409;" horiz-adv-x="2051" d="M1806 457Q1806 532 1782 589T1704 681Q1649 718 1577 726T1374 734H1207V169H1369Q1502 169 1573 182T1699 232Q1755 271 1780 323T1806 457ZM2013 461Q2013 353 1971 265T1858 122Q1774 56 1678 28T1430 0H1009V1313H537Q534 1200 529 1093T521 900Q513 689 496 551T450 320Q423 229 387 173T307 79Q262 38 211 18T91 -3Q70 -3 49 -2T15 0V192H29Q39 191 46 190T67 189Q103 189 134 200T187 234Q255 301 286 472T331 934Q336 1032 341 1193T350 1489H1207V905H1436Q1588 905 1684 888T1865 804Q1941 745 1977 658T2013 461Z"  />
<glyph unicode="&#x40A;" horiz-adv-x="2015" d="M1770 457Q1770 532 1746 589T1668 681Q1613 718 1541 726T1338 734H1181V169H1333Q1466 169 1537 182T1663 232Q1719 271 1744 323T1770 457ZM1977 461Q1977 353 1935 265T1822 122Q1738 56 1642 28T1394 0H983V734H349V0H151V1489H349V905H983V1489H1181V905H1400Q1552 905 1648 888T1829 804Q1905 745 1941 658T1977 461Z"  />
<glyph unicode="&#x40B;" horiz-adv-x="1470" d="M1377 0H1179V412Q1179 486 1173 553T1142 661Q1116 704 1063 726T914 748Q851 748 771 738T617 710V0H419V1313H-1V1489H1117V1313H617V875Q692 897 784 912T953 928Q1048 928 1126 906T1260 833Q1316 784 1346 705T1377 511V0Z"  />
<glyph unicode="&#x40C;" horiz-adv-x="1234" d="M1252 0H1000L474 682H349V0H151V1489H349V818Q466 822 534 877T646 1035Q664 1080 678 1120T702 1189Q762 1360 855 1424T1113 1489H1174V1312H1124Q1002 1312 953 1265T863 1085Q822 953 771 892T648 783L1252 0ZM933 2029L660 1655H511L690 2029H933Z"  />
<glyph unicode="&#x40E;" horiz-adv-x="1178" d="M977 1935Q973 1785 882 1693T607 1601Q423 1601 332 1693T237 1935H415Q417 1823 465 1774T607 1724Q702 1724 749 1773T799 1935H977ZM1191 1489L651 235Q617 156 575 108T486 36Q440 11 396 3T306 -5Q266 -5 212 -3T143 0V185H157Q172 183 202 181T280 178Q302 178 332 180T387 195Q416 209 441 232T488 307L522 386L-1 1489H218L622 613L987 1489H1191Z"  />
<glyph unicode="&#x40F;" horiz-adv-x="1383" d="M1232 0H785V-337H598V0H151V1489H349V172H1034V1489H1232V0Z"  />
<glyph unicode="&#x410;" horiz-adv-x="1228" d="M839 585L609 1287L380 585H839ZM-10 0L492 1489H736L1238 0H1029L894 416H325L190 0H-10Z"  />
<glyph unicode="&#x411;" horiz-adv-x="1207" d="M958 457Q958 532 934 589T856 681Q801 718 729 726T526 734H349V169H521Q654 169 725 182T851 232Q907 271 932 323T958 457ZM1165 461Q1165 353 1123 265T1010 122Q926 56 830 28T582 0H151V1489H1058V1313H349V905H588Q740 905 836 888T1017 804Q1093 745 1129 658T1165 461Z"  />
<glyph unicode="&#x412;" horiz-adv-x="1207" d="M955 449Q955 533 931 587T834 680Q787 705 732 712T574 719H349V169H510Q640 169 715 181T847 232Q903 271 929 320T955 449ZM885 1125Q885 1179 867 1218T809 1281Q761 1308 702 1314T539 1320H349V884H574Q667 884 711 893T802 933Q847 962 866 1009T885 1125ZM1161 457Q1161 346 1119 261T1006 121Q922 55 826 28T578 0H151V1489H546Q705 1489 784 1479T937 1429Q1017 1386 1054 1317T1091 1153Q1091 1048 1036 965T882 835V827Q1015 791 1088 696T1161 457Z"  />
<glyph unicode="&#x413;" horiz-adv-x="1039" d="M1034 1313H349V0H151V1489H1034V1313Z"  />
<glyph unicode="&#x414;" horiz-adv-x="1400" d="M1021 176V1317H574Q560 956 484 662T290 176H1021ZM1360 -337H1172V4H206V-337H18V176H99Q229 389 308 734T388 1489H1219V176H1360V-337Z"  />
<glyph unicode="&#x415;" horiz-adv-x="1149" d="M151 0V1489H1082V1313H349V905H1032V729H349V176H1082V0H151Z"  />
<glyph unicode="&#x416;" horiz-adv-x="1831" d="M1844 0H1600L1104 685H1008V0H812V685H714L218 0H-14L548 768Q483 810 435 874T340 1085Q300 1214 255 1263T81 1312H41V1489H92Q259 1489 350 1425T503 1189Q518 1145 533 1103T559 1035Q603 928 664 877T812 817V1489H1008V815Q1100 824 1162 873T1271 1035Q1289 1080 1303 1120T1327 1189Q1387 1360 1480 1424T1738 1489H1789V1312H1749Q1621 1312 1575 1263T1488 1085Q1446 952 1392 886T1275 780L1844 0Z"  />
<glyph unicode="&#x417;" horiz-adv-x="1091" d="M921 718Q971 675 1003 611T1036 444Q1036 344 996 259T886 109Q814 43 708 8T472 -27Q333 -27 217 0T31 58V280H45Q125 227 239 187T469 146Q542 146 614 165T736 229Q785 273 808 324T831 454Q831 530 804 582T726 666Q677 698 609 711T462 725H306V891H442Q600 891 696 954T792 1138Q792 1193 769 1232T702 1297Q655 1324 604 1333T491 1343Q427 1343 365 1329T248 1293Q196 1272 157 1249T93 1211H80V1430Q148 1462 265 1489T496 1516Q611 1516 694 1497T846 1433Q921 1384 958 1318T996 1159Q996 1038 916 948T705 830V815Q755 806 813 783T921 718Z"  />
<glyph unicode="&#x418;" horiz-adv-x="1372" d="M1221 0H1024V1182L351 0H151V1489H348V326L1012 1489H1221V0Z"  />
<glyph unicode="&#x419;" horiz-adv-x="1372" d="M1075 1935Q1071 1785 980 1693T705 1601Q521 1601 430 1693T335 1935H513Q515 1823 563 1774T705 1724Q800 1724 847 1773T897 1935H1075ZM1221 0H1024V1182L351 0H151V1489H348V326L1012 1489H1221V0Z"  />
<glyph unicode="&#x41A;" horiz-adv-x="1234" d="M1252 0H1000L474 682H349V0H151V1489H349V818Q466 822 534 877T646 1035Q664 1080 678 1120T702 1189Q762 1360 855 1424T1113 1489H1174V1312H1124Q1002 1312 953 1265T863 1085Q822 953 771 892T648 783L1252 0Z"  />
<glyph unicode="&#x41B;" horiz-adv-x="1388" d="M1237 0H1039V1313H537Q534 1200 529 1093T521 900Q513 689 496 551T450 320Q423 229 387 173T307 79Q262 38 211 18T91 -3Q70 -3 49 -2T15 0V192H29Q39 191 46 190T67 189Q103 189 134 200T187 234Q255 301 286 472T331 934Q336 1032 341 1193T350 1489H1237V0Z"  />
<glyph unicode="&#x41C;" horiz-adv-x="1578" d="M1427 0H1229V1283L841 410H721L336 1283V0H151V1489H421L793 660L1152 1489H1427V0Z"  />
<glyph unicode="&#x41D;" horiz-adv-x="1383" d="M1232 0H1034V729H349V0H151V1489H349V905H1034V1489H1232V0Z"  />
<glyph unicode="&#x41E;" horiz-adv-x="1449" d="M1177 744Q1177 892 1145 1006T1055 1195Q996 1272 913 1310T725 1349Q617 1349 537 1312T394 1195Q335 1119 304 1004T272 744Q272 451 395 296T725 140Q932 140 1054 295T1177 744ZM1204 1318Q1289 1220 1336 1075T1383 744Q1383 563 1337 417T1204 172Q1113 68 992 19T724 -31Q573 -31 452 20T244 172Q158 271 112 416T66 744Q66 932 112 1074T245 1318Q331 1417 452 1468T724 1520Q876 1520 998 1467T1204 1318Z"  />
<glyph unicode="&#x41F;" horiz-adv-x="1383" d="M1232 0H1034V1313H349V0H151V1489H1232V0Z"  />
<glyph unicode="&#x420;" horiz-adv-x="1129" d="M885 1035Q885 1112 859 1169T778 1262Q731 1293 669 1306T513 1319H349V724H484Q604 724 678 743T801 813Q845 858 865 911T885 1035ZM1091 1040Q1091 943 1057 857T961 709Q884 633 780 594T517 555H349V0H151V1489H525Q657 1489 750 1467T914 1396Q997 1339 1044 1252T1091 1040Z"  />
<glyph unicode="&#x421;" horiz-adv-x="1230" d="M733 -27Q587 -27 465 22T253 168Q164 265 115 410T66 743Q66 930 113 1069T252 1311Q341 1411 463 1463T736 1516Q811 1516 876 1505T998 1477Q1046 1462 1096 1440T1196 1390V1151H1180Q1154 1175 1113 1209T1013 1276Q956 1307 889 1327T734 1347Q639 1347 554 1308T405 1193Q342 1117 307 1002T272 743Q272 590 309 480T410 293Q472 219 556 182T734 144Q820 144 893 165T1023 218Q1078 249 1118 281T1181 337H1196V101Q1147 78 1104 57T998 16Q933 -5 878 -16T733 -27Z"  />
<glyph unicode="&#x422;" horiz-adv-x="1196" d="M499 0V1313H-1V1489H1197V1313H697V0H499Z"  />
<glyph unicode="&#x423;" horiz-adv-x="1178" d="M1191 1489L651 235Q617 156 575 108T486 36Q440 11 396 3T306 -5Q266 -5 212 -3T143 0V185H157Q172 183 202 181T280 178Q302 178 332 180T387 195Q416 209 441 232T488 307L522 386L-1 1489H218L622 613L987 1489H1191Z"  />
<glyph unicode="&#x424;" horiz-adv-x="1533" d="M668 315V1195Q573 1194 504 1167T383 1087Q328 1031 300 948T272 768Q272 650 301 564T391 418Q437 374 507 345T668 315ZM1261 768Q1261 867 1233 948T1150 1087Q1098 1141 1029 1167T865 1195V315Q955 317 1025 344T1142 418Q1203 478 1232 564T1261 768ZM1467 760Q1467 621 1425 515T1308 335Q1227 255 1109 212T865 165V-16H668V165Q543 169 425 210T224 333Q149 406 108 514T66 760Q66 890 106 993T218 1172Q295 1252 411 1298T668 1348V1513H865V1348Q1006 1345 1123 1299T1317 1173Q1389 1099 1428 996T1467 760Z"  />
<glyph unicode="&#x425;" horiz-adv-x="1189" d="M1181 0H954L591 596L222 0H8L481 745L22 1489H248L604 904L965 1489H1180L714 755L1181 0Z"  />
<glyph unicode="&#x426;" horiz-adv-x="1403" d="M1363 -337H1175V0H151V1489H349V174H1024V1489H1222V174H1363V-337Z"  />
<glyph unicode="&#x427;" horiz-adv-x="1302" d="M1151 0H953V630Q831 590 736 570T537 550Q441 550 361 573T220 649Q160 701 127 783T93 977V1489H291V1076Q291 982 298 928T338 823Q367 779 424 756T576 732Q661 732 768 751T953 800V1489H1151V0Z"  />
<glyph unicode="&#x428;" horiz-adv-x="1932" d="M1781 0H151V1489H349V172H867V1489H1065V172H1583V1489H1781V0Z"  />
<glyph unicode="&#x429;" horiz-adv-x="1962" d="M1922 -337H1734V0H151V1489H349V172H867V1489H1065V172H1583V1489H1781V172H1922V-337Z"  />
<glyph unicode="&#x42A;" horiz-adv-x="1412" d="M1167 457Q1167 532 1143 589T1065 681Q1010 718 938 726T735 734H585V169H730Q863 169 934 182T1060 232Q1116 271 1141 323T1167 457ZM1374 461Q1374 353 1332 265T1219 122Q1135 56 1039 28T791 0H387V1313H-1V1489H585V905H797Q949 905 1045 888T1226 804Q1302 745 1338 658T1374 461Z"  />
<glyph unicode="&#x42B;" horiz-adv-x="1615" d="M1464 0H1266V1489H1464V0ZM926 457Q926 532 902 589T824 681Q769 718 697 726T494 734H349V169H489Q622 169 693 182T819 232Q875 271 900 323T926 457ZM1133 461Q1133 353 1091 265T978 122Q894 56 798 28T550 0H151V1489H349V905H556Q708 905 804 888T985 804Q1061 745 1097 658T1133 461Z"  />
<glyph unicode="&#x42C;" horiz-adv-x="1193" d="M948 457Q948 532 924 589T846 681Q791 718 719 726T516 734H349V169H511Q644 169 715 182T841 232Q897 271 922 323T948 457ZM1155 461Q1155 353 1113 265T1000 122Q916 56 820 28T572 0H151V1489H349V905H578Q730 905 826 888T1007 804Q1083 745 1119 658T1155 461Z"  />
<glyph unicode="&#x42D;" horiz-adv-x="1228" d="M1162 750Q1162 395 975 184T484 -27Q356 -27 243 -2T43 64V283H58Q130 218 241 180T478 141Q693 141 828 298T963 712H237V885H953Q930 1101 804 1224T478 1348Q355 1348 248 1310T62 1204H47V1424Q127 1461 243 1488T486 1516Q808 1516 985 1317T1162 750Z"  />
<glyph unicode="&#x42E;" horiz-adv-x="1948" d="M1676 744Q1676 1040 1556 1194T1231 1349Q1024 1349 904 1195T783 744Q783 451 904 296T1231 140Q1435 140 1555 295T1676 744ZM1882 744Q1882 376 1704 173T1230 -31Q934 -31 762 167T583 720H349V0H151V1489H349V893H593Q629 1193 797 1356T1230 1520Q1526 1520 1704 1318T1882 744Z"  />
<glyph unicode="&#x42F;" horiz-adv-x="1252" d="M903 757V1319H697Q611 1319 559 1308T464 1268Q418 1237 392 1181T366 1058Q366 978 384 925T444 831Q489 787 554 772T705 757H903ZM1101 0H903V592H678L233 0H-5L473 622Q323 673 241 779T158 1065Q158 1179 205 1261T331 1399Q402 1449 497 1469T707 1489H1101V0Z"  />
<glyph unicode="&#x430;" horiz-adv-x="1075" d="M760 119Q737 102 699 72T624 23Q574 -3 528 -17T397 -31Q328 -31 266 -5T157 68Q112 114 85 181T58 324Q58 440 107 521T262 651Q356 694 484 710T760 735V771Q760 837 740 877T684 940Q648 963 596 970T489 978Q424 978 336 959T160 902H149V1093Q201 1108 298 1126T490 1144Q605 1144 684 1126T826 1061Q887 1015 917 942T947 764V0H760V119ZM760 275V585Q693 579 591 569T425 539Q350 516 301 469T252 336Q252 240 306 191T464 142Q553 142 625 180T760 275Z"  />
<glyph unicode="&#x431;" horiz-adv-x="1126" d="M874 538Q874 716 794 811T566 906Q485 906 409 879T266 807Q264 782 262 748T260 685Q260 511 288 402T366 231Q411 175 461 154T570 132Q714 132 794 241T874 538ZM928 952Q993 886 1029 785T1065 549Q1065 420 1024 311T913 126Q841 48 754 9T563 -31Q458 -31 371 5T221 118Q144 213 106 356T67 710Q67 785 73 862T102 1048Q122 1144 156 1226T245 1366Q316 1440 430 1484T734 1545Q801 1551 877 1556T994 1565V1392Q942 1389 883 1385T748 1374Q647 1366 537 1339T371 1253Q329 1210 304 1130T269 952Q343 1005 427 1041T610 1078Q701 1078 783 1048T928 952Z"  />
<glyph unicode="&#x432;" horiz-adv-x="1074" d="M818 337Q818 394 802 428T729 490Q694 507 654 511T543 515H322V150H485Q586 150 642 158T738 190Q780 216 799 250T818 337ZM761 831Q761 869 749 897T705 941Q669 960 625 963T501 967H322V661H538Q607 661 636 667T700 695Q733 715 747 749T761 831ZM1012 338Q1012 257 981 195T896 90Q828 37 754 19T575 0H136V1117H546Q669 1117 726 1110T839 1071Q898 1039 926 986T954 860Q954 780 910 717T793 618L798 611Q889 588 950 518T1012 338Z"  />
<glyph unicode="&#x433;" horiz-adv-x="850" d="M846 952H324V0H136V1117H846V952Z"  />
<glyph unicode="&#x434;" horiz-adv-x="1143" d="M795 160V959H475Q462 709 407 503T267 160H795ZM1094 -268H919V3H183V-268H8V160H82Q177 316 237 567T298 1117H983V160H1094V-268Z"  />
<glyph unicode="&#x435;" horiz-adv-x="1078" d="M841 683Q839 759 823 814T777 907Q744 949 693 971T565 993Q490 993 438 971T342 905Q300 861 278 808T250 683H841ZM621 -26Q354 -26 207 124T59 552Q59 825 202 986T576 1148Q680 1148 760 1118T900 1024Q960 960 992 868T1024 641V539H250Q250 344 348 241T619 138Q681 138 740 152T848 188Q899 211 934 232T992 273H1003V68Q970 55 921 36T833 5Q778 -10 734 -18T621 -26Z"  />
<glyph unicode="&#x436;" horiz-adv-x="1496" d="M1492 0H1265L914 514H841V0H655V514H582L225 0H8L429 585Q380 611 342 660T274 804Q247 889 210 922T89 955H46V1117H97Q220 1117 299 1067T424 892Q433 866 446 833T470 776Q503 700 547 666T655 628V1117H841V628Q905 633 950 667T1028 776Q1039 801 1052 834T1074 892Q1118 1015 1196 1066T1399 1117H1450V955H1407Q1328 955 1289 923T1222 804Q1194 717 1156 667T1072 591L1492 0Z"  />
<glyph unicode="&#x437;" horiz-adv-x="937" d="M876 309Q876 215 835 150T730 47Q669 10 591 -8T435 -26Q325 -26 227 -5T32 64V272H44Q112 209 214 173T419 136Q463 136 513 145T599 175Q645 203 664 235T684 323Q684 383 662 419T600 474Q561 492 513 496T410 501H278V663H379Q417 663 474 665T565 681Q608 697 634 726T660 826Q660 875 638 905T583 952Q549 970 509 976T432 983Q337 983 250 957T99 878H87V1081Q159 1106 246 1125T422 1144Q493 1144 566 1130T706 1080Q768 1046 810 987T852 841Q852 750 801 682T664 591V584Q757 552 816 486T876 309Z"  />
<glyph unicode="&#x438;" horiz-adv-x="1154" d="M1018 0H832V833L306 0H136V1117H322V297L842 1117H1018V0Z"  />
<glyph unicode="&#x439;" horiz-adv-x="1154" d="M1018 0H832V833L306 0H136V1117H322V297L842 1117H1018V0ZM934 1636Q934 1550 913 1480T853 1361Q808 1308 751 1282T605 1255Q523 1255 462 1282T358 1361Q317 1411 296 1481T275 1636H437Q437 1501 479 1442T605 1382Q684 1382 728 1440T772 1636H934Z"  />
<glyph unicode="&#x43A;" horiz-adv-x="1020" d="M1035 0H801L418 515H324V0H136V1117H324V631Q397 632 448 661T536 776Q547 801 560 834T582 892Q626 1015 704 1066T907 1117H958V955H915Q836 955 797 923T730 804Q702 717 664 669T580 594L1035 0Z"  />
<glyph unicode="&#x43B;" horiz-adv-x="1137" d="M1001 0H813V959H429Q426 876 423 800T417 661Q411 504 397 398T360 228Q338 162 312 125T252 58Q218 28 179 13T91 -2Q75 -2 50 -1T15 0V164H25Q32 164 39 163T57 162Q81 162 104 169T145 195Q195 244 218 366T251 709Q255 791 258 903T265 1117H1001V0Z"  />
<glyph unicode="&#x43C;" horiz-adv-x="1308" d="M1172 0H986V878L718 308H578L312 878V0H136V1117H363L657 497L941 1117H1172V0Z"  />
<glyph unicode="&#x43D;" horiz-adv-x="1153" d="M1018 0H830V503H324V0H136V1117H324V665H830V1117H1018V0Z"  />
<glyph unicode="&#x43E;" horiz-adv-x="1112" d="M861 558Q861 775 782 880T557 986Q410 986 331 881T251 558Q251 348 330 240T557 131Q702 131 781 237T861 558ZM1055 558Q1055 276 919 123T557 -31Q324 -31 191 127T57 558Q57 838 194 993T557 1148Q783 1148 919 994T1055 558Z"  />
<glyph unicode="&#x43F;" horiz-adv-x="1154" d="M1018 0H830V955H324V0H136V1117H1018V0Z"  />
<glyph unicode="&#x440;" horiz-adv-x="1132" d="M879 567Q879 758 818 863T620 969Q540 969 466 934T324 842V209Q398 173 450 160T571 147Q717 147 798 254T879 567ZM1073 588Q1073 309 940 144T602 -22Q519 -22 455 -3T324 56V-412H136V1117H324V1000Q394 1063 479 1105T666 1148Q858 1148 965 996T1073 588Z"  />
<glyph unicode="&#x441;" horiz-adv-x="945" d="M580 -25Q465 -25 369 10T204 118Q135 190 97 299T59 557Q59 704 98 811T204 991Q270 1064 368 1103T580 1143Q672 1143 757 1117T910 1057V846H899Q879 863 848 885T771 930Q732 950 679 965T577 980Q431 980 343 870T254 557Q254 359 339 249T577 138Q669 138 752 176T899 274H910V63Q882 50 840 32T764 4Q716 -10 678 -17T580 -25Z"  />
<glyph unicode="&#x442;" horiz-adv-x="956" d="M952 952H572V0H384V952H4V1117H952V952Z"  />
<glyph unicode="&#x443;" horiz-adv-x="1020" d="M1014 1117L413 -412H212L412 54L6 1117H209L514 290L818 1117H1014Z"  />
<glyph unicode="&#x444;" horiz-adv-x="1556" d="M685 192V937Q649 954 613 967T533 980Q405 980 330 879T255 564Q255 369 322 257T516 145Q566 145 606 160T685 192ZM1301 567Q1301 758 1237 869T1046 980Q994 980 955 967T871 937V192Q915 171 942 158T1023 145Q1153 145 1227 252T1301 567ZM1494 588Q1494 439 1458 325T1361 136Q1300 61 1223 23T1062 -16Q999 -16 952 8T871 49V-412H685V49Q626 18 591 1T476 -16Q288 -16 175 136T62 555Q62 695 98 805T197 992Q255 1063 331 1102T491 1142Q550 1142 597 1122T685 1075V1556H871V1075Q915 1102 972 1122T1089 1142Q1277 1142 1385 992T1494 588Z"  />
<glyph unicode="&#x445;" horiz-adv-x="1014" d="M1004 0H773L502 422L223 0H10L398 554L14 1117H245L514 699L790 1117H1004L618 567L1004 0Z"  />
<glyph unicode="&#x446;" horiz-adv-x="1171" d="M1122 -268H947V0H136V1117H324V162H823V1117H1011V162H1122V-268Z"  />
<glyph unicode="&#x447;" horiz-adv-x="1112" d="M976 0H788V436Q700 407 617 391T453 375Q382 375 315 393T198 454Q149 496 123 561T96 716V1117H284V814Q284 740 290 697T323 612Q346 577 392 558T515 539Q581 539 656 552T788 583V1117H976V0Z"  />
<glyph unicode="&#x448;" horiz-adv-x="1594" d="M1458 0H136V1117H324V159H703V1117H891V159H1270V1117H1458V0Z"  />
<glyph unicode="&#x449;" horiz-adv-x="1618" d="M1569 -268H1394V0H136V1117H324V159H703V1117H891V159H1270V1117H1458V159H1569V-268Z"  />
<glyph unicode="&#x44A;" horiz-adv-x="1164" d="M928 343Q928 394 911 432T853 495Q811 520 758 525T604 530H476V150H600Q700 150 755 158T850 191Q891 217 909 252T928 343ZM1122 346Q1122 265 1090 199T1001 92Q935 42 860 21T667 0H288V952H4V1117H476V682H672Q798 682 867 669T1006 605Q1064 562 1093 495T1122 346Z"  />
<glyph unicode="&#x44B;" horiz-adv-x="1419" d="M1283 0H1095V1117H1283V0ZM771 343Q771 394 754 432T696 495Q654 520 601 525T447 530H324V150H443Q543 150 598 158T693 191Q734 217 752 252T771 343ZM965 346Q965 265 933 199T844 92Q778 42 703 21T510 0H136V1117H324V682H515Q641 682 710 669T849 605Q907 562 936 495T965 346Z"  />
<glyph unicode="&#x44C;" horiz-adv-x="1025" d="M788 343Q788 394 771 432T713 495Q671 520 618 525T464 530H324V150H460Q560 150 615 158T710 191Q751 217 769 252T788 343ZM982 346Q982 265 950 199T861 92Q795 42 720 21T527 0H136V1117H324V682H532Q658 682 727 669T866 605Q924 562 953 495T982 346Z"  />
<glyph unicode="&#x44D;" horiz-adv-x="965" d="M42 256H54Q76 237 108 217T185 178Q233 158 277 147T385 136Q529 136 616 233T716 514H208V665H715Q697 824 611 903T396 982Q339 982 290 970T195 936Q157 918 128 897T71 854H59V1060Q112 1083 208 1113T392 1143Q505 1143 599 1109T761 1005Q830 933 866 831T903 581Q903 301 760 138T372 -25Q281 -25 195 -2T42 50V256Z"  />
<glyph unicode="&#x44E;" horiz-adv-x="1560" d="M1309 558Q1309 772 1231 879T1009 986Q864 986 786 878T707 558Q707 348 786 240T1009 131Q1152 131 1230 236T1309 558ZM1503 558Q1503 277 1368 123T1009 -31Q790 -31 662 113T521 508H324V0H136V1117H324V662H525Q548 890 677 1019T1009 1148Q1244 1148 1373 988T1503 558Z"  />
<glyph unicode="&#x44F;" horiz-adv-x="1081" d="M757 591V967H553Q488 967 451 960T378 933Q342 911 324 874T305 793Q305 738 317 704T363 640Q398 610 448 601T559 591H757ZM945 0H757V443H571L240 0H21L380 460Q241 501 177 582T112 799Q112 882 148 944T247 1050Q297 1084 373 1100T543 1117H945V0Z"  />
<glyph unicode="&#x451;" horiz-adv-x="1078" d="M841 683Q839 759 823 814T777 907Q744 949 693 971T565 993Q490 993 438 971T342 905Q300 861 278 808T250 683H841ZM621 -26Q354 -26 207 124T59 552Q59 825 202 986T576 1148Q680 1148 760 1118T900 1024Q960 960 992 868T1024 641V539H250Q250 344 348 241T619 138Q681 138 740 152T848 188Q899 211 934 232T992 273H1003V68Q970 55 921 36T833 5Q778 -10 734 -18T621 -26ZM467 1304H266V1499H467V1304ZM880 1304H679V1499H880V1304Z"  />
<glyph unicode="&#x452;" horiz-adv-x="1184" d="M1058 496Q1058 438 1057 382T1055 268Q1053 91 1014 -36T906 -245Q836 -329 751 -366T562 -403Q541 -403 528 -403T477 -401V-243H488Q499 -243 513 -243T536 -243Q720 -243 789 -117T868 339Q869 373 869 410T870 494Q870 518 870 555T868 636Q867 717 860 779T829 885Q806 927 766 948T656 969Q586 969 512 932T366 834V0H178V1270H12V1402H178V1556H366V1402H737V1270H366V993Q444 1064 528 1106T705 1148Q783 1148 846 1123T954 1048Q999 998 1027 915T1055 725Q1055 678 1056 625T1058 496Z"  />
<glyph unicode="&#x453;" horiz-adv-x="850" d="M846 952H324V0H136V1117H846V952ZM782 1676L509 1302H360L539 1676H782Z"  />
<glyph unicode="&#x454;" horiz-adv-x="965" d="M912 48Q836 11 753 -7T582 -25Q467 -25 371 10T206 118Q137 190 99 299T61 557Q61 828 201 985T582 1143Q677 1143 763 1116T912 1057V854H901Q848 901 761 941T579 982Q452 982 364 902T252 665H760V514H249Q262 322 352 229T579 136Q679 136 764 172T901 254H912V48Z"  />
<glyph unicode="&#x455;" horiz-adv-x="914" d="M438 -27Q326 -27 229 3T67 67V278H77Q101 259 133 236T220 188Q268 166 325 149T445 132Q490 132 541 142T617 169Q652 192 667 218T683 296Q683 363 647 397T517 454Q481 463 423 475T316 501Q188 538 130 615T72 803Q72 954 186 1049T489 1144Q582 1144 676 1121T834 1063V862H824Q752 919 664 952T485 985Q392 985 328 946T264 828Q264 758 302 724T424 667Q466 656 517 646T626 621Q750 590 812 518T875 322Q875 250 847 186T763 75Q703 25 628 -1T438 -27Z"  />
<glyph unicode="&#x456;" horiz-adv-x="468" d="M341 1304H127V1499H341V1304ZM328 0H140V1117H328V0Z"  />
<glyph unicode="&#x457;" horiz-adv-x="468" d="M151 1304H-38V1499H151V1304ZM506 1304H317V1499H506V1304ZM328 0H140V1117H328V0Z"  />
<glyph unicode="&#x458;" horiz-adv-x="577" d="M442 1304H228V1499H442V1304ZM441 -32Q441 -223 339 -323T56 -423Q25 -423 -13 -420T-90 -411V-243H-79Q-57 -248 -31 -252T20 -257Q95 -257 143 -239T216 -180Q238 -144 245 -89T253 45V961H51V1117H441V-32Z"  />
<glyph unicode="&#x459;" horiz-adv-x="1692" d="M1455 343Q1455 394 1438 432T1380 495Q1338 520 1285 525T1131 530H1001V150H1127Q1227 150 1282 158T1377 191Q1418 217 1436 252T1455 343ZM1649 346Q1649 265 1617 199T1528 92Q1462 42 1387 21T1194 0H813V959H431Q428 876 424 800T417 661Q411 504 397 398T360 228Q338 162 312 125T252 58Q218 28 179 13T91 -2Q75 -2 50 -1T15 0V164H25Q32 164 39 163T57 162Q81 162 104 169T145 195Q195 244 218 366T251 709Q255 791 258 903T265 1117H1001V682H1199Q1325 682 1394 669T1533 605Q1591 562 1620 495T1649 346Z"  />
<glyph unicode="&#x45A;" horiz-adv-x="1687" d="M1440 343Q1440 394 1423 432T1365 495Q1323 520 1270 525T1116 530H986V150H1112Q1212 150 1267 158T1362 191Q1403 217 1421 252T1440 343ZM1634 346Q1634 265 1602 199T1513 92Q1447 42 1372 21T1179 0H798V528H324V0H136V1117H324V682H798V1117H986V682H1184Q1310 682 1379 669T1518 605Q1576 562 1605 495T1634 346Z"  />
<glyph unicode="&#x45B;" horiz-adv-x="1184" d="M1056 0H868V636Q868 713 861 779T832 886Q809 928 768 948T656 969Q586 969 512 932T366 834V0H178V1270H12V1402H178V1556H366V1402H737V1270H366V993Q450 1068 532 1108T705 1148Q780 1148 843 1124T955 1048Q1002 998 1029 917T1056 725V0Z"  />
<glyph unicode="&#x45C;" horiz-adv-x="1020" d="M1035 0H801L418 515H324V0H136V1117H324V631Q397 632 448 661T536 776Q547 801 560 834T582 892Q626 1015 704 1066T907 1117H958V955H915Q836 955 797 923T730 804Q702 717 664 669T580 594L1035 0ZM853 1676L580 1302H431L610 1676H853Z"  />
<glyph unicode="&#x45E;" horiz-adv-x="1020" d="M1014 1117L413 -412H212L412 54L6 1117H209L514 290L818 1117H1014ZM845 1636Q845 1550 824 1480T764 1361Q719 1308 662 1282T516 1255Q434 1255 373 1282T269 1361Q228 1411 207 1481T186 1636H348Q348 1501 390 1442T516 1382Q595 1382 639 1440T683 1636H845Z"  />
<glyph unicode="&#x45F;" horiz-adv-x="1154" d="M1018 0H664V-268H490V0H136V1117H324V161H830V1117H1018V0Z"  />
<glyph unicode="&#x490;" horiz-adv-x="1040" d="M1034 1313H349V0H151V1489H848V1899H1034V1313Z"  />
<glyph unicode="&#x491;" horiz-adv-x="850" d="M846 952H324V0H136V1117H672V1486H846V952Z"  />
<glyph unicode="&#x2013;" horiz-adv-x="1118" d="M1122 572H-4V732H1122V572Z"  />
<glyph unicode="&#x2014;" horiz-adv-x="1862" d="M1866 572H-4V732H1866V572Z"  />
<glyph unicode="&#x2018;" horiz-adv-x="432" d="M335 997H197L-64 1556H178L335 997Z"  />
<glyph unicode="&#x2019;" horiz-adv-x="432" d="M496 1556L235 997H97L254 1556H496Z"  />
<glyph unicode="&#x201A;" horiz-adv-x="432" d="M386 283L125 -276H-13L144 283H386Z"  />
<glyph unicode="&#x201C;" horiz-adv-x="822" d="M331 997H197L-64 1556H174L331 997ZM725 997H591L330 1556H568L725 997Z"  />
<glyph unicode="&#x201D;" horiz-adv-x="822" d="M502 1556L241 997H107L264 1556H502ZM896 1556L635 997H501L658 1556H896Z"  />
<glyph unicode="&#x201E;" horiz-adv-x="814" d="M387 283L126 -276H-8L149 283H387ZM781 283L520 -276H386L543 283H781Z"  />
<glyph unicode="&#x2020;" horiz-adv-x="1118" d="M983 1034L620 1039L625 135H493L498 1039L135 1034V1163L498 1158L493 1556H625L620 1158L983 1163V1034Z"  />
<glyph unicode="&#x2021;" horiz-adv-x="1118" d="M983 507L620 512L625 124H493L498 512L135 507V636L498 631V1049L135 1044V1173L498 1168L493 1556H625L620 1168L983 1173V1044L620 1049V631L983 636V507Z"  />
<glyph unicode="&#x2022;" horiz-adv-x="931" d="M817 662Q817 517 714 414T465 311Q320 311 217 414T114 662Q114 807 217 910T465 1013Q610 1013 713 910T817 662Z"  />
<glyph unicode="&#x2026;" horiz-adv-x="1674" d="M381 0H177V223H381V0ZM939 0H735V223H939V0ZM1497 0H1293V223H1497V0Z"  />
<glyph unicode="&#x2030;" horiz-adv-x="2848" d="M2563 413Q2563 565 2528 643T2389 721Q2286 721 2250 642T2214 412Q2214 262 2248 183T2389 104Q2492 104 2527 183T2563 413ZM2741 413Q2741 188 2651 80T2389 -29Q2215 -29 2126 81T2036 412Q2036 636 2127 745T2389 854Q2563 854 2652 744T2741 413ZM1719 413Q1719 565 1684 643T1545 721Q1442 721 1406 642T1370 412Q1370 262 1404 183T1545 104Q1648 104 1683 183T1719 413ZM629 1076Q629 1228 594 1306T455 1384Q352 1384 316 1305T280 1075Q280 925 314 846T455 767Q558 767 593 846T629 1076ZM1897 413Q1897 188 1807 80T1545 -29Q1371 -29 1282 81T1192 412Q1192 636 1283 745T1545 854Q1719 854 1808 744T1897 413ZM1473 1489L693 0H528L1308 1489H1473ZM807 1076Q807 851 717 743T455 634Q281 634 192 744T102 1075Q102 1299 193 1408T455 1517Q629 1517 718 1407T807 1076Z"  />
<glyph unicode="&#x2039;" horiz-adv-x="784" d="M633 172L123 608V697L633 1132V933L302 652L633 371V172Z"  />
<glyph unicode="&#x203A;" horiz-adv-x="784" d="M661 608L151 172V371L482 652L151 933V1132L661 697V608Z"  />
<glyph unicode="&#x20AC;" horiz-adv-x="1118" d="M945 662L918 524H298Q342 354 444 256Q560 144 734 144Q921 144 1058 236H1072V43Q902 -27 733 -27Q459 -27 289 131Q135 274 86 524H-28L0 662H69Q66 702 66 743Q66 772 67 800H-28L0 938H83Q129 1200 290 1352Q464 1516 736 1516Q914 1516 1072 1445V1250H1056Q915 1347 734 1347Q550 1347 432 1224Q331 1118 292 938H1001L974 800H274Q272 772 272 743Q272 702 275 662H945Z"  />
<glyph unicode="&#x2116;" horiz-adv-x="2336" d="M2022 1030Q2022 1205 1958 1287T1782 1370Q1671 1370 1606 1288T1541 1030Q1541 861 1605 776T1782 690Q1895 690 1958 775T2022 1030ZM2071 176H1493V338H2071V176ZM2202 1030Q2202 803 2085 672T1782 540Q1589 540 1475 671T1361 1030Q1361 1263 1478 1391T1782 1520Q1969 1520 2085 1392T2202 1030ZM1173 0H951L336 1284V0H151V1489H432L988 310V1489H1173V0Z"  />
<glyph unicode="&#x2122;" horiz-adv-x="1794" d="M692 1372H463V785H336V1372H107V1489H692V1372ZM1634 785H1510V1401H1490L1286 948H1201L995 1408H970V785H847V1489H1085L1246 1107L1407 1489H1634V785Z"  />

</font>
</defs>
</svg>
