<?xml  version="1.0" encoding="UTF-8"?>
<!DOCTYPE svg PUBLIC "-//W3C//DTD SVG 1.0//EN" "http://www.w3.org/TR/2001/REC-SVG-20010904/DTD/svg10.dtd" >
<svg xmlns="http://www.w3.org/2000/svg" >
<metadata>
<version>1.0</version>
<id><![CDATA[Tahoma W99 Regular]]></id>
<vendor>Monotype Imaging Inc.</vendor>
<credits>
<name>Fonts.com WebFonts</name>
<URL>http://webfonts.fonts.com</URL>
<role>Home of the Web fonts</role>
</credits>
<license>
<URL>http://webfonts.fonts.com/Legal</URL>
</license>
<copyright><![CDATA[© 2006 Microsoft Corporation. All rights reserved.]]></copyright>
<trademark><![CDATA[Tahoma is either a registered trademark or a trademark of Microsoft Corporation in the United States and/or other countries.]]></trademark>
<licensee>
<name></name>
</licensee>
</metadata>
<defs >
<font horiz-adv-x="580" id="ca045297-34e1-462e-acc8-75ef196ada02">
<font-face font-family="" panose-1="2 11 6 4 3 5 4 4 2 4" ascent="1000" descent="-207" units-per-em="1000" alphabetic="0">
</font-face>
<missing-glyph horiz-adv-x="312" />

<glyph unicode="&#xA;" />
<glyph unicode="&#xD;" horiz-adv-x="312" />
<glyph unicode=" " horiz-adv-x="312" />
<glyph unicode="!" horiz-adv-x="332" d="M221 727L207 200H126L111 727H221ZM216 0H116V103H216V0Z"  />
<glyph unicode="&quot;" horiz-adv-x="401" d="M346 760L325 477H260L239 760H346ZM162 760L141 477H77L56 760H162Z"  />
<glyph unicode="#" horiz-adv-x="728" d="M658 455H515L470 271H601V206H453L402 0H339L390 206H258L207 0H144L195 206H69V271H212L257 455H126V521H274L326 727H389L337 521H469L521 727H583L532 521H658V455ZM454 456H320L274 271H408L454 456Z"  />
<glyph unicode="$" horiz-adv-x="546" d="M500 186Q500 114 445 62Q389 10 307 0V-176H251V-2Q197 -1 144 10T52 42V140H59Q139 80 251 70V281Q239 284 222 288T191 296Q118 316 87 356T55 457Q55 526 109 577Q165 628 251 637V770H307V638Q352 636 399 625T477 601V504H469Q435 528 395 545T307 567V357Q323 354 337 350T361 344Q427 328 463 290T500 186ZM251 566Q206 562 177 538T147 469Q147 426 169 402T251 364V566ZM408 173Q408 219 385 241T307 274V71Q356 77 382 101T408 173Z"  />
<glyph unicode="%" horiz-adv-x="977" d="M394 525Q394 416 351 363T222 310Q50 310 50 525Q50 634 94 687T222 741Q394 741 394 525ZM719 727L338 0H258L639 727H719ZM926 202Q926 91 883 39T754 -14Q582 -14 582 201Q582 312 626 364T754 417Q926 417 926 202ZM307 525Q307 600 290 638T222 676Q172 676 155 638T137 525Q137 452 153 414T222 375Q272 375 289 413T307 525ZM839 202Q839 277 822 314T754 352Q704 352 687 314T669 201Q669 128 685 90T754 51Q805 51 822 89T839 202Z"  />
<glyph unicode="&amp;" horiz-adv-x="674" d="M706 0H581L481 104Q430 41 378 13T260 -15Q162 -15 97 44Q33 104 33 200Q33 242 44 274T76 333Q95 359 120 378T167 412Q118 445 94 481T69 574Q69 608 83 637T120 690Q143 713 180 727T262 742Q344 742 394 699Q446 657 446 591Q446 567 440 542T417 492Q401 468 375 447T306 411L478 234Q481 254 483 275T485 321T486 376T487 444H583V397Q583 349 571 291T531 180L706 0ZM214 377Q202 369 190 359T163 326Q151 309 142 282T133 223Q133 188 143 159T174 109T222 76T286 64Q334 64 371 84T438 147L214 377ZM260 445Q287 455 305 470T333 504Q350 540 350 582Q350 630 323 655T258 681Q215 681 190 652T165 578Q165 559 168 545T184 512Q194 497 212 480T260 445Z"  />
<glyph unicode="&apos;" horiz-adv-x="211" d="M160 760L139 477H72L51 760H160Z"  />
<glyph unicode="(" horiz-adv-x="383" d="M347 -201H235Q192 -150 159 -98T101 12Q53 124 53 279Q53 430 101 544Q149 658 235 760H347V755Q307 719 271 673T205 564Q175 504 157 432T139 279Q139 195 156 127T205 -5Q234 -65 271 -114T347 -196V-201Z"  />
<glyph unicode=")" horiz-adv-x="383" d="M330 279Q330 127 281 14Q232 -102 148 -201H36V-196Q74 -163 112 -114T178 -5Q208 58 226 128T244 279Q244 360 226 431T178 564Q148 625 111 673T36 755V760H148Q190 709 224 656T281 545T317 421T330 279Z"  />
<glyph unicode="*" horiz-adv-x="546" d="M492 433L460 379L300 485L304 308H243L246 485L87 379L55 433L228 534L55 635L87 688L246 582L243 760H304L300 582L460 688L492 634L319 534L492 433Z"  />
<glyph unicode="+" horiz-adv-x="728" d="M651 279H404V33H323V279H77V357H323V604H404V357H651V279Z"  />
<glyph unicode="&#x2c;" horiz-adv-x="303" d="M244 139L107 -181H36L122 139H244Z"  />
<glyph unicode="-" horiz-adv-x="363" d="M319 274H44V362H319V274Z"  />
<glyph unicode="." horiz-adv-x="303" d="M209 0H93V139H209V0Z"  />
<glyph unicode="/" horiz-adv-x="382" d="M355 760L71 -158H-12L271 760H355Z"  />
<glyph unicode="0" horiz-adv-x="546" d="M505 364Q505 168 449 77T273 -15Q152 -15 97 77T41 363Q41 560 97 651T273 742Q394 742 449 648T505 364ZM380 142Q395 178 400 233T406 364Q406 439 401 494T380 585Q365 623 340 642T273 661Q231 661 206 642T165 584Q150 547 145 491T140 363Q140 287 144 236T165 144Q179 106 205 86T273 65Q351 65 380 142Z"  />
<glyph unicode="1" horiz-adv-x="546" d="M465 0H110V74H242V562H110V628Q185 628 220 649T260 729H336V74H465V0Z"  />
<glyph unicode="2" horiz-adv-x="546" d="M502 0H53V102Q102 148 144 190T229 277Q313 370 342 424Q372 479 372 537Q372 597 336 628Q301 658 248 658Q222 658 195 652T144 635Q124 626 105 615T74 595H68V698Q84 706 105 713T153 727Q207 742 255 742Q357 742 414 689T472 542Q472 500 462 464T434 396Q416 365 391 334T337 272Q314 247 289 221T234 168L145 83H502V0Z"  />
<glyph unicode="3" horiz-adv-x="546" d="M250 658Q223 658 197 652T145 635Q122 625 105 615T73 594H67V697Q83 705 104 713T153 728Q181 735 206 738T257 742Q308 742 344 732T410 701Q475 654 475 567Q475 507 435 461Q396 416 341 404V397Q364 393 390 382T438 350Q461 329 475 297T489 216Q489 167 473 126T425 52Q360 -15 246 -15Q191 -15 138 -2T47 30V133H54Q70 122 90 111T136 89Q190 69 240 69Q270 69 300 78T350 110Q370 131 380 157T390 223Q390 262 379 287T347 328Q326 342 298 348T237 354H196V435H228Q294 435 335 466T376 557Q376 584 366 604T338 635Q320 648 298 653T250 658Z"  />
<glyph unicode="4" horiz-adv-x="546" d="M521 250H435V0H341V250H20V353L345 727H435V328H521V250ZM341 328V612L96 328H341Z"  />
<glyph unicode="5" horiz-adv-x="546" d="M494 231Q494 179 477 134T430 56Q399 23 354 4T251 -15Q199 -15 149 -4T61 26V129H67Q79 121 100 111T146 91Q175 81 199 75T252 69Q282 69 309 79T357 114Q375 135 385 164T395 232Q395 271 385 295T354 336Q333 355 302 362T234 370Q194 370 154 364T90 353V727H489V642H185V448Q202 450 219 451T250 452Q306 452 344 443T419 407Q455 379 474 338T494 231Z"  />
<glyph unicode="6" horiz-adv-x="546" d="M513 236Q513 179 495 132T445 53Q412 20 372 3T282 -15Q182 -15 122 51Q84 90 63 156T42 319Q42 511 121 624Q161 679 223 710T368 741Q392 741 413 739T450 730V637H446Q433 645 408 651T354 657Q263 657 208 596T142 414Q176 438 213 451T293 464Q335 464 367 456T434 421Q513 361 513 236ZM414 232Q414 277 403 307T364 359Q345 375 321 379T271 384Q203 384 142 344Q141 333 141 323T140 298Q140 223 154 177T191 106Q212 83 234 74T283 64Q341 64 377 105T414 232Z"  />
<glyph unicode="7" horiz-adv-x="546" d="M510 618L195 0H91L424 642H48V727H510V618Z"  />
<glyph unicode="8" horiz-adv-x="546" d="M396 558Q396 606 364 639T272 672Q218 672 185 643T151 563Q151 527 168 503T221 458Q228 453 240 447T267 435T296 422T323 412Q366 444 381 478T396 558ZM410 193Q410 215 406 232T393 264T366 291T324 318Q308 328 280 338T218 364Q134 309 134 208Q134 142 174 99Q214 56 274 56Q335 56 372 93T410 193ZM273 -17Q219 -17 175 -1T99 46Q68 75 52 115T36 201Q36 261 67 310T159 388V391Q105 422 80 459T54 552Q54 633 116 689Q177 744 273 744Q373 744 432 692Q492 639 492 559Q492 510 464 462T381 387V384Q444 354 477 312T510 203Q510 109 442 46Q374 -17 273 -17Z"  />
<glyph unicode="9" horiz-adv-x="546" d="M406 428Q406 503 393 549T355 621Q333 645 312 653T263 662Q203 662 168 619T132 495Q132 449 143 419T182 368Q200 353 223 348T274 342Q305 342 341 353T404 382Q405 390 405 402T406 428ZM33 491Q33 548 51 594T101 673Q131 706 175 724T264 742Q365 742 425 676Q463 636 483 572T504 407Q504 316 484 236T424 102Q382 45 324 16T178 -14Q159 -14 137 -12T96 -4V89H101Q113 83 139 77T191 70Q288 70 342 132T404 313Q365 287 330 275T252 262Q212 262 179 271T112 305Q73 335 53 380T33 491Z"  />
<glyph unicode=":" horiz-adv-x="354" d="M235 406H119V545H235V406ZM235 0H119V139H235V0Z"  />
<glyph unicode=";" horiz-adv-x="354" d="M235 406H119V545H235V406ZM268 139L131 -181H60L146 139H268Z"  />
<glyph unicode="&lt;" horiz-adv-x="728" d="M623 39L98 289V348L623 598V511L216 318L623 125V39Z"  />
<glyph unicode="=" horiz-adv-x="728" d="M634 382H94V460H634V382ZM634 177H94V255H634V177Z"  />
<glyph unicode="&gt;" horiz-adv-x="728" d="M629 289L105 39V125L512 318L105 511V598L629 348V289Z"  />
<glyph unicode="?" horiz-adv-x="474" d="M445 556Q445 508 430 471T387 405Q361 377 328 353T257 307V195H169V344Q183 352 199 362T233 384Q252 395 266 406T290 427Q316 452 331 481T346 549Q346 604 311 631T221 658Q197 658 174 654T129 642T90 626T59 608H53V708Q69 714 90 720T135 731T183 739T230 742Q280 742 320 729T387 691T430 633T445 556ZM265 0H165V103H265V0Z"  />
<glyph unicode="@" horiz-adv-x="909" d="M849 324Q849 255 831 192T777 77H572L560 133Q543 119 529 108T500 89T466 77T424 73Q349 73 301 133T253 308Q253 422 312 487Q370 551 447 551Q482 551 507 542T559 519V542H636V131H747Q766 165 774 221Q778 249 780 273T782 321Q782 480 700 577Q619 675 467 675Q322 675 228 570Q134 466 134 315Q134 154 225 54Q316 -46 464 -46Q504 -46 547 -41T630 -23V-93Q588 -103 547 -106T464 -110Q291 -110 177 8Q64 127 64 316Q64 495 181 618Q298 741 466 741Q646 741 747 625Q849 509 849 324ZM558 452Q530 466 507 472T459 479Q404 479 371 438T337 310Q337 231 362 190T443 148Q473 148 502 162T558 199V452Z"  />
<glyph unicode="A" horiz-adv-x="600" d="M-5 0L240 727H359L604 0H502L437 203H159L93 0H-5ZM410 286L297 628L186 286H410Z"  />
<glyph unicode="B" horiz-adv-x="589" d="M567 223Q567 169 547 128T491 59Q450 27 403 14T282 0H74V727H267Q305 727 334 726T383 722Q422 717 458 698Q497 677 515 643T533 563Q533 512 506 472T431 408V404Q497 386 532 340T567 223ZM432 549Q432 576 424 595T395 625Q372 639 343 642T263 645H170V432H280Q328 432 347 436Q368 440 392 456Q414 470 423 493T432 549ZM466 219Q466 261 455 287T407 332Q384 344 357 347T280 351H170V83H249Q312 83 349 88T414 113Q441 132 453 156T466 219Z"  />
<glyph unicode="C" horiz-adv-x="601" d="M358 -13Q286 -13 227 10T124 82Q79 130 56 200T32 363Q32 454 55 521T123 640Q168 689 227 714T359 740Q396 740 428 735T487 721Q511 714 535 703T584 679V562H576Q563 574 543 590T495 623Q467 638 434 648T358 658Q312 658 271 639T198 583Q167 545 150 489T133 363Q133 288 151 234T200 143Q230 107 271 89T358 70Q400 70 436 80T500 106Q526 122 545 137T577 165H584V49Q560 38 539 28T487 8Q456 -2 429 -7T358 -13Z"  />
<glyph unicode="D" horiz-adv-x="678" d="M647 363Q647 263 607 183T499 58Q443 23 386 11Q328 0 241 0H74V727H239Q343 727 400 711Q458 696 500 669Q570 623 608 546T647 363ZM546 364Q546 534 436 600Q397 624 354 634T244 644H170V83H244Q310 83 357 93T445 131Q496 166 521 222T546 364Z"  />
<glyph unicode="E" horiz-adv-x="561" d="M74 0V727H528V641H170V442H504V356H170V86H528V0H74Z"  />
<glyph unicode="F" horiz-adv-x="521" d="M509 641H170V436H495V350H170V0H74V727H509V641Z"  />
<glyph unicode="G" horiz-adv-x="667" d="M378 -14Q300 -14 237 9T127 81Q81 129 57 199T32 364Q32 452 57 521T127 641Q172 689 236 714T379 740Q416 740 449 735T514 720Q538 713 568 700T617 678V561H608Q590 577 571 591T517 623Q487 637 450 647T367 657Q261 657 197 578Q133 499 133 367Q133 294 150 240T199 146Q230 109 274 89T374 69Q416 69 456 75T524 93V281H356V366H620V48Q601 40 570 28T512 7Q477 -3 448 -8T378 -14Z"  />
<glyph unicode="H" horiz-adv-x="675" d="M602 0H505V356H170V0H74V727H170V442H505V727H602V0Z"  />
<glyph unicode="I" horiz-adv-x="373" d="M328 0H45V74H138V653H45V727H328V653H235V74H328V0Z"  />
<glyph unicode="J" horiz-adv-x="417" d="M348 189Q348 92 290 41T133 -10Q121 -10 105 -9T70 -6T35 -2T4 4V96H10Q30 89 59 81T120 73Q165 73 191 83T230 112Q244 132 247 160T251 226V650H97V727H348V189Z"  />
<glyph unicode="K" horiz-adv-x="588" d="M604 0H478L213 338L170 291V0H74V727H170V393L468 727H586L285 402L604 0Z"  />
<glyph unicode="L" horiz-adv-x="498" d="M495 0H74V727H170V86H495V0Z"  />
<glyph unicode="M" horiz-adv-x="771" d="M697 0H600V626L411 200H352L164 626V0H74V727H206L387 322L562 727H697V0Z"  />
<glyph unicode="N" horiz-adv-x="667" d="M594 0H485L164 627V0H74V727H211L503 151V727H594V0Z"  />
<glyph unicode="O" horiz-adv-x="708" d="M588 644Q630 596 652 525T675 363Q675 275 653 204T588 84Q543 33 485 9T354 -15Q206 -15 119 84Q77 132 55 202T32 363Q32 456 55 524T120 644Q206 742 354 742Q429 742 487 716T588 644ZM575 363Q575 436 559 491T515 583Q457 659 354 659Q300 659 262 641T192 583Q164 546 149 491T133 363Q133 219 192 144T354 68Q456 68 515 143T575 363Z"  />
<glyph unicode="P" horiz-adv-x="551" d="M533 508Q533 460 516 418T469 346Q432 309 381 290T252 271H170V0H74V727H256Q322 727 367 717T446 682Q488 654 510 611T533 508ZM432 505Q432 582 380 616Q357 631 327 637T250 644H170V354H236Q296 354 331 363T391 397Q413 419 422 445T432 505Z"  />
<glyph unicode="Q" horiz-adv-x="708" d="M678 -178Q651 -185 622 -188T564 -191Q483 -191 432 -146T376 -15H354Q279 -15 220 10T119 84Q77 132 55 202T32 363Q32 456 55 524T120 644Q206 742 354 742Q429 742 487 716T588 644Q630 596 652 525T675 363Q675 221 621 130T469 6Q472 -21 479 -43T497 -78Q510 -93 529 -100T581 -107Q590 -107 602 -106T626 -102T648 -96T665 -90H678V-178ZM575 363Q575 436 559 491T515 583Q457 659 354 659Q300 659 262 641T192 583Q164 546 149 491T133 363Q133 219 192 144T354 68Q456 68 515 143T575 363Z"  />
<glyph unicode="R" horiz-adv-x="621" d="M637 0H511L281 289H170V0H74V727H261Q324 727 366 720T446 688Q484 664 506 626T529 530Q529 449 489 396T378 316L637 0ZM428 522Q428 589 382 619Q361 633 335 638T266 644H170V370H255Q297 370 330 377T387 407Q428 448 428 522Z"  />
<glyph unicode="S" horiz-adv-x="557" d="M276 -13Q197 -13 142 3T38 43V165H44Q92 120 152 95T270 70Q351 70 391 103T432 192Q432 235 411 262T342 303Q325 308 310 312T280 319T248 327T210 336Q173 346 143 361T90 401Q68 425 56 457T43 532Q43 621 112 680Q181 740 288 740Q412 740 504 693V578H497Q462 609 408 633T294 657Q227 657 186 626T144 542Q144 453 239 429Q255 424 273 419T314 409L388 391Q463 368 497 322T532 207Q532 165 515 124T466 53Q431 21 387 4T276 -13Z"  />
<glyph unicode="T" horiz-adv-x="584" d="M244 0V641H0V727H584V641H340V0H244Z"  />
<glyph unicode="U" horiz-adv-x="656" d="M328 -15Q203 -15 134 52Q96 90 81 142T65 273V727H162V273Q162 222 168 188T193 127Q231 67 328 67Q373 67 408 82T463 127Q481 155 487 188T494 271V727H591V273Q591 198 576 144T521 52Q487 18 441 2T328 -15Z"  />
<glyph unicode="V" horiz-adv-x="597" d="M601 727L351 0H246L-4 727H100L301 124L502 727H601Z"  />
<glyph unicode="W" horiz-adv-x="902" d="M889 727L707 0H598L450 604L305 0H199L13 727H112L258 123L404 727H502L649 117L794 727H889Z"  />
<glyph unicode="X" horiz-adv-x="581" d="M577 0H466L289 291L108 0H4L235 364L11 727H121L295 441L471 727H576L349 369L577 0Z"  />
<glyph unicode="Y" horiz-adv-x="576" d="M583 727L337 322V0H240V312L-5 727H102L290 406L480 727H583Z"  />
<glyph unicode="Z" horiz-adv-x="559" d="M537 0H29V90L418 641H47V727H527V640L134 86H537V0Z"  />
<glyph unicode="[" horiz-adv-x="383" d="M335 -191H81V760H335V690H167V-122H335V-191Z"  />
<glyph unicode="\" horiz-adv-x="382" d="M393 -158H310L25 760H109L393 -158Z"  />
<glyph unicode="]" horiz-adv-x="383" d="M302 -191H48V-122H216V690H48V760H302V-191Z"  />
<glyph unicode="^" horiz-adv-x="728" d="M663 334H566L363 639L161 333H65L333 727H395L663 334Z"  />
<glyph unicode="_" horiz-adv-x="546" d="M554 -146H-8V-83H554V-146Z"  />
<glyph unicode="`" horiz-adv-x="546" d="M327 636H254L121 818H240L327 636Z"  />
<glyph unicode="a" horiz-adv-x="525" d="M371 286L288 277Q240 273 208 263Q171 252 147 229T123 164Q123 69 227 69Q270 69 305 88T371 134V286ZM371 58Q360 50 341 35T305 11Q293 5 282 0T258 -8T230 -13T194 -15Q125 -15 77 33Q55 56 42 89T28 158Q28 215 52 254T128 318Q174 339 236 347T371 359V376Q371 409 362 428T334 459Q316 470 291 474T239 478Q207 478 164 468T78 440H73V534Q85 537 104 541T145 550T192 556T239 559Q296 559 334 550T403 518Q462 475 462 373V0H371V58Z"  />
<glyph unicode="b" horiz-adv-x="553" d="M429 274Q429 373 400 423T304 473Q266 473 228 456T158 411V99Q193 82 220 75T279 67Q349 67 389 116T429 274ZM524 282Q524 149 459 66Q394 -15 296 -15Q251 -15 220 -4T158 25L152 0H66V760H158V488Q193 520 233 540T325 561Q418 561 471 488T524 282Z"  />
<glyph unicode="c" horiz-adv-x="461" d="M283 -12Q226 -12 180 5T100 58Q66 93 48 146T29 272Q29 344 48 396T100 484Q132 520 180 539T283 558Q328 558 370 546T444 516V413H439Q429 421 414 432T376 454Q357 464 332 471T282 479Q210 479 167 426T124 272Q124 175 165 121T282 67Q327 67 367 85T439 134H444V31Q431 24 411 15T373 2Q350 -5 331 -8T283 -12Z"  />
<glyph unicode="d" horiz-adv-x="553" d="M486 0H395V56Q373 38 358 26T321 4Q301 -5 280 -10T231 -15Q186 -15 149 3T85 58Q58 94 44 147T29 269Q29 341 47 393T99 484Q128 520 170 540T259 561Q301 561 331 552T395 523V760H486V0ZM395 447Q360 464 333 470T274 477Q204 477 164 424T124 271Q124 174 154 123T253 72Q289 72 325 88T395 133V447Z"  />
<glyph unicode="e" horiz-adv-x="526" d="M303 -13Q172 -13 101 60T29 270Q29 402 98 482Q168 561 281 561Q381 561 439 500Q469 469 484 424T500 313V263H122Q122 167 169 117T302 67Q333 67 362 74T414 92Q439 103 456 113T484 133H490V33Q474 27 450 18T407 2Q380 -5 358 -9T303 -13ZM411 333Q410 371 402 397T379 443Q363 463 338 474T276 485Q239 485 214 474T167 442Q146 420 136 394T122 333H411Z"  />
<glyph unicode="f" horiz-adv-x="318" d="M354 672H349Q336 676 314 680T272 685Q214 685 190 659T165 564V545H317V469H168V0H76V469H14V545H76V563Q76 663 123 714T259 765Q285 765 309 762T354 756V672Z"  />
<glyph unicode="g" horiz-adv-x="553" d="M395 447Q360 464 331 471T273 478Q204 478 164 427T124 280Q124 189 154 142T253 94Q289 94 326 108T395 148V447ZM86 -87Q95 -91 113 -97T154 -110Q180 -117 201 -121T248 -125Q291 -125 320 -114T366 -82Q382 -62 388 -36T395 24V72Q376 56 358 44T321 25T281 13T232 9Q138 9 84 78T29 278Q29 347 48 399T99 487Q130 522 172 541T259 561Q301 561 332 551T395 522L400 545H486V62Q486 -77 426 -142T241 -207Q201 -207 159 -201T81 -183V-87H86Z"  />
<glyph unicode="h" horiz-adv-x="558" d="M495 0H403V311Q403 348 400 380T386 433Q375 453 355 463T300 473Q266 473 230 455T158 407V0H66V760H158V485Q200 521 239 541T324 561Q405 561 450 509T495 354V0Z"  />
<glyph unicode="i" horiz-adv-x="229" d="M160 0H68V545H160V0ZM167 637H62V732H167V637Z"  />
<glyph unicode="j" horiz-adv-x="282" d="M215 -16Q215 -110 165 -158T27 -207Q12 -207 -6 -206T-44 -201V-119H-39Q-28 -121 -15 -123T10 -125Q83 -125 105 -88Q116 -70 120 -44T124 22V469H25V545H215V-16ZM216 637H111V732H216V637Z"  />
<glyph unicode="k" horiz-adv-x="498" d="M519 0H398L194 263L158 228V0H66V760H158V315L374 545H488L264 317L519 0Z"  />
<glyph unicode="l" horiz-adv-x="229" d="M160 0H68V760H160V0Z"  />
<glyph unicode="m" horiz-adv-x="840" d="M686 0V315Q686 353 683 385T670 435Q653 473 594 473Q565 473 533 456T466 406Q466 397 467 386T468 359V0H376V315Q376 353 373 385T361 435Q351 455 333 464T284 473Q254 473 222 455T158 407V0H66V545H158V485Q194 521 229 541T308 561Q356 561 393 539T450 466Q492 514 531 537T617 561Q652 561 681 550T731 514Q753 489 765 453T777 359V0H686Z"  />
<glyph unicode="n" horiz-adv-x="558" d="M495 0H403V311Q403 348 400 380T386 433Q375 453 355 463T300 473Q266 473 230 455T158 407V0H66V545H158V485Q200 521 239 541T324 561Q405 561 450 509T495 354V0Z"  />
<glyph unicode="o" horiz-adv-x="543" d="M515 272Q515 134 448 60Q382 -15 272 -15Q158 -15 93 62Q28 141 28 272Q28 409 95 485Q162 561 272 561Q382 561 448 485Q515 411 515 272ZM420 272Q420 378 382 429T272 481Q200 481 162 430T123 272Q123 169 161 117T272 64Q344 64 382 115T420 272Z"  />
<glyph unicode="p" horiz-adv-x="553" d="M524 287Q524 152 459 70Q394 -11 294 -11Q252 -11 222 -2T158 27V-201H66V545H158V488Q192 519 234 540T325 561Q418 561 471 486Q524 412 524 287ZM429 277Q429 371 400 422T303 473Q264 473 228 456T158 411V102Q194 84 220 78T279 72Q351 72 390 123T429 277Z"  />
<glyph unicode="q" horiz-adv-x="553" d="M486 -201H395V60Q353 23 316 6T232 -11Q138 -11 84 63T29 271Q29 341 48 395T99 486Q129 521 171 541T259 561Q301 561 331 551T395 522L400 545H486V-201ZM395 447Q360 464 333 471T274 478Q202 478 163 427T124 275Q124 179 155 128T252 77Q291 77 327 93T395 137V447Z"  />
<glyph unicode="r" horiz-adv-x="360" d="M355 447H351Q340 450 329 450T301 451Q264 451 228 435T158 387V0H66V545H158V464Q208 509 245 527T318 545Q333 545 340 545T355 542V447Z"  />
<glyph unicode="s" horiz-adv-x="446" d="M214 -13Q159 -13 112 1T33 33V136H38Q49 126 65 115T107 92Q131 81 159 73T217 64Q239 64 264 69T301 83Q318 94 325 106T333 145Q333 177 316 193T252 222Q235 226 207 232T154 245Q91 263 63 300T35 392Q35 466 90 512Q146 559 239 559Q284 559 330 548T407 519V421H402Q367 449 325 465T237 481Q191 481 160 462T129 404Q129 370 147 353T207 326Q228 320 253 315T306 303Q366 288 396 253T427 157Q427 122 413 91T373 37Q343 12 307 0T214 -13Z"  />
<glyph unicode="t" horiz-adv-x="334" d="M231 -11Q156 -11 114 31T72 167V469H10V545H72V702H164V545H333V469H164V210Q164 168 165 146T177 104Q185 87 203 79T254 70Q276 70 297 76T328 87H333V5Q307 -2 281 -6T231 -11Z"  />
<glyph unicode="u" horiz-adv-x="558" d="M491 0H399V61Q357 23 320 4T234 -15Q198 -15 167 -4T112 34Q88 59 75 97T62 191V545H154V235Q154 190 157 162T172 113Q183 92 202 82T258 72Q292 72 330 91T399 138V545H491V0Z"  />
<glyph unicode="v" horiz-adv-x="498" d="M495 545L290 0H207L3 545H102L251 125L399 545H495Z"  />
<glyph unicode="w" horiz-adv-x="742" d="M728 545L589 0H504L371 420L239 0H154L15 545H110L207 123L336 545H412L544 123L635 545H728Z"  />
<glyph unicode="x" horiz-adv-x="495" d="M490 0H377L245 206L109 0H5L194 271L7 545H120L251 341L386 545H490L302 277L490 0Z"  />
<glyph unicode="y" horiz-adv-x="498" d="M495 545L202 -201H104L201 26L3 545H102L251 142L399 545H495Z"  />
<glyph unicode="z" horiz-adv-x="444" d="M425 0H24V68L309 470H36V545H419V480L133 77H425V0Z"  />
<glyph unicode="{" horiz-adv-x="480" d="M433 -191H376Q288 -191 239 -144T189 -2V70Q189 104 183 138T159 197Q141 221 112 233T40 246H29V322H40Q123 322 159 372Q177 396 183 430T189 498V571Q189 665 238 712T376 760H433V692H394Q365 692 344 687T308 667Q277 637 277 562V477Q277 437 268 410T240 358Q224 337 198 319T145 290V278Q172 267 198 249T240 210Q258 186 267 159T277 91V6Q277 -68 308 -98Q322 -112 343 -118T394 -124H433V-191Z"  />
<glyph unicode="|" horiz-adv-x="382" d="M232 -191H150V760H232V-191Z"  />
<glyph unicode="}" horiz-adv-x="480" d="M451 246H441Q398 246 369 234T322 197Q304 172 298 138T291 70V-2Q291 -96 242 -143T104 -191H48V-124H87Q116 -124 137 -118T173 -98Q188 -83 196 -58T204 6V91Q204 131 213 158T240 210Q256 231 282 249T336 278V290Q308 301 282 319T240 358Q222 382 213 409T204 477V562Q204 636 173 667Q158 681 137 686T87 692H48V760H104Q192 760 241 713T291 571V498Q291 464 297 430T322 372Q358 322 441 322H451V246Z"  />
<glyph unicode="~" horiz-adv-x="728" d="M662 453Q661 402 652 357T623 274Q603 238 573 216T495 193Q467 193 445 200T406 221Q389 233 373 250T345 282Q332 298 320 314T294 344Q281 357 267 365T235 374Q210 374 194 361T167 323Q157 298 153 264T147 193H65Q66 244 75 290T104 372Q124 409 155 430T232 452Q262 452 284 445T323 424Q340 412 354 397T383 364Q394 351 408 332T434 302Q463 271 493 271Q517 271 534 285T560 322Q570 347 574 380T580 453H662Z"  />
<glyph unicode="&#xA1;" horiz-adv-x="332" d="M216 624H116V727H216V624ZM221 0H111L125 527H206L221 0Z"  />
<glyph unicode="&#xA2;" horiz-adv-x="546" d="M272 1Q166 13 111 83T56 272Q56 330 71 377T113 460T181 517T272 544V720H328V545Q370 543 409 532T476 506V409H471Q441 434 407 452T328 477V69Q352 71 376 80T417 99Q434 109 447 119T471 137H476V41Q444 26 410 15T328 0V-176H272V1ZM272 474Q215 464 183 414T150 272Q150 179 183 130T272 71V474Z"  />
<glyph unicode="&#xA3;" horiz-adv-x="546" d="M503 0H43V101Q98 117 120 163T142 299H63V367H142V523Q142 620 198 681Q255 741 346 741Q394 741 427 734T489 718V617H484Q456 637 421 648T355 660Q295 660 266 622T236 514V367H414V299H236V270Q236 212 208 166T127 89V83H503V0Z"  />
<glyph unicode="&#xA4;" horiz-adv-x="546" d="M516 133L464 81L360 185Q338 171 319 165T273 159Q251 159 229 166T188 185L83 80L32 133L135 237Q110 279 110 323Q110 367 136 408L32 513L84 565L188 461Q227 486 273 486Q299 486 321 479T359 461L463 565L516 514L412 408Q425 387 431 368T437 323Q437 301 430 278T412 237L516 133ZM367 323Q367 342 360 359T340 390T310 411T273 419Q255 419 238 412T208 391T188 361T180 323Q180 303 187 286T207 256T237 235T273 227Q292 227 309 234T339 255T359 285T367 323Z"  />
<glyph unicode="&#xA5;" horiz-adv-x="546" d="M517 727L318 331V282H485V215H319V0H227V215H61V282H228V321L27 727H130L273 415L419 727H517Z"  />
<glyph unicode="&#xA6;" horiz-adv-x="382" d="M232 370H150V760H232V370ZM232 -191H150V198H232V-191Z"  />
<glyph unicode="&#xA7;" horiz-adv-x="546" d="M371 196Q382 213 389 229T396 271Q396 295 389 312T369 341Q357 353 342 360T306 374Q290 379 269 385T220 400Q210 394 200 385T176 360Q167 348 159 327T150 283Q150 243 168 220T240 180L326 154Q335 160 347 170T371 196ZM89 -65Q102 -71 120 -79T157 -93Q180 -100 199 -103T249 -107Q304 -107 341 -85T379 -18Q379 9 370 25T341 54Q320 66 290 74T225 94Q182 106 154 118T102 152Q80 172 69 198T58 260Q58 306 82 347T155 419V422Q110 447 91 481T72 560Q72 601 88 634T134 692T208 729T307 742Q349 742 383 736T462 714V619H457Q412 641 375 651T296 662Q242 662 204 640T166 574Q166 546 176 529T205 500Q224 488 253 479T321 460Q411 436 449 398T487 293Q487 241 461 202T390 135V132Q433 109 453 75T473 -5Q473 -41 458 -75T414 -134Q384 -160 342 -174T239 -188Q165 -188 84 -160V-65H89Z"  />
<glyph unicode="&#xA8;" horiz-adv-x="546" d="M423 637H325V732H423V637ZM222 637H124V732H222V637Z"  />
<glyph unicode="&#xA9;" horiz-adv-x="929" d="M887 320Q887 145 763 21Q639 -103 464 -103Q290 -103 166 21Q42 145 42 320Q42 495 166 618Q290 742 464 742Q639 742 763 618Q887 495 887 320ZM831 320Q831 473 723 580Q616 688 465 688Q312 688 206 580Q99 473 99 320Q99 168 206 59Q312 -49 465 -49Q616 -49 723 59Q831 167 831 320ZM622 125Q589 110 557 99T479 88Q376 88 318 147T259 322Q259 435 320 496Q382 558 479 558Q521 558 557 548T622 522V434H614Q603 443 589 452T557 469T520 481T481 486Q421 486 386 447T350 322Q350 243 384 202T481 160Q502 160 522 165T559 177T591 194T614 212H622V125Z"  />
<glyph unicode="&#xAA;" horiz-adv-x="493" d="M427 276H346V321Q336 313 321 302T290 284Q270 274 251 269T197 264Q137 264 96 305Q56 345 56 410Q56 461 77 492T137 543Q173 561 229 568T346 578V587Q346 613 338 628T314 653Q300 661 279 664T235 667Q197 667 158 655Q121 645 100 637H92V720Q103 723 120 727T156 734T197 739T236 742Q330 742 378 705T427 583V276ZM346 510Q314 508 272 504Q251 502 235 500T205 493Q176 485 158 466T140 415Q140 340 225 340Q262 340 291 356T346 392V510Z"  />
<glyph unicode="&#xAB;" horiz-adv-x="573" d="M509 93L271 298V339L509 543V452L354 318L509 185V93ZM299 79L50 297V340L299 558V462L138 318L299 175V79Z"  />
<glyph unicode="&#xAC;" horiz-adv-x="728" d="M646 28H562V294H77V372H646V28Z"  />
<glyph unicode="&#xAD;" horiz-adv-x="363" d="M319 274H44V362H319V274Z"  />
<glyph unicode="&#xAE;" horiz-adv-x="929" d="M887 320Q887 145 763 21Q639 -103 464 -103Q290 -103 166 21Q42 145 42 320Q42 495 166 618Q290 742 464 742Q639 742 763 618Q887 495 887 320ZM831 320Q831 473 723 580Q616 688 465 688Q312 688 206 580Q99 473 99 320Q99 168 206 59Q312 -49 465 -49Q616 -49 723 59Q831 167 831 320ZM707 105H596L458 278H398V105H317V552H454Q477 552 494 552T526 549T553 542T580 529Q609 513 622 490T636 429Q636 380 610 349T538 300L707 105ZM547 424Q547 442 541 455T521 478Q508 485 493 488T454 491H398V340H446Q469 340 489 344T523 360Q536 372 541 386T547 424Z"  />
<glyph unicode="&#xAF;" horiz-adv-x="546" d="M554 810H-8V874H554V810Z"  />
<glyph unicode="&#xB0;" horiz-adv-x="471" d="M421 554Q421 476 367 422Q314 369 235 369Q159 369 103 422Q49 474 49 554Q49 632 103 686Q157 740 235 740Q314 740 367 686Q421 632 421 554ZM345 554Q345 602 314 634T235 666Q187 666 157 634T126 554Q126 530 134 510T158 475T192 452T235 443Q259 443 279 452T313 476T336 511T345 554Z"  />
<glyph unicode="&#xB1;" horiz-adv-x="728" d="M648 78H79V155H323V361H79V438H323V685H404V438H648V361H404V155H648V78Z"  />
<glyph unicode="&#xB2;" horiz-adv-x="493" d="M423 276H90V351Q128 379 162 406T218 454Q270 503 286 531Q302 559 302 599Q302 633 281 651T223 669Q206 669 189 665T155 655T125 640T101 625H93V712Q124 725 161 733T235 742Q311 742 352 704T393 605Q393 563 374 525T301 439Q289 428 274 416T242 392T211 369T182 347H423V276Z"  />
<glyph unicode="&#xB3;" horiz-adv-x="493" d="M409 404Q409 370 394 342T356 298Q330 280 300 273T231 265Q153 265 90 293V378H98Q116 361 153 347T230 333Q272 333 298 350T325 403Q325 438 304 455T231 473H163V541H224Q267 541 290 559T313 610Q313 639 293 656T230 674Q198 674 161 659Q125 645 105 626H97V712Q128 725 165 733T240 742Q277 742 306 733T355 708T386 671T397 625Q397 583 374 556T312 515V511Q352 503 380 477T409 404Z"  />
<glyph unicode="&#xB4;" horiz-adv-x="546" d="M425 818L292 636H219L307 818H425Z"  />
<glyph unicode="&#xB5;" horiz-adv-x="568" d="M501 0H417V57H415Q385 26 356 9T282 -8Q259 -8 243 -4T212 9T185 29T158 56V-201H66V545H158V134Q179 110 209 95T282 80Q327 80 356 94T410 134V545H501V0Z"  />
<glyph unicode="&#xB6;" horiz-adv-x="546" d="M479 -177H411V664H320V-177H251V290Q151 291 89 352Q28 413 28 513Q28 615 91 671T273 727H479V-177Z"  />
<glyph unicode="&#xB7;" horiz-adv-x="354" d="M235 406H119V545H235V406Z"  />
<glyph unicode="&#xB8;" horiz-adv-x="546" d="M375 10Q375 1 376 -12T377 -43Q377 -83 366 -113T334 -165T287 -196T228 -207Q209 -207 185 -204T141 -195V-117H146Q157 -122 176 -127T215 -133Q261 -133 280 -114T300 -52Q300 -40 300 -25T298 10H375Z"  />
<glyph unicode="&#xB9;" horiz-adv-x="493" d="M396 276H125V336H225V613H121V668Q143 668 167 671T203 680Q218 688 226 698T237 729H303V336H396V276Z"  />
<glyph unicode="&#xBA;" horiz-adv-x="493" d="M452 503Q452 446 437 402T395 327T330 280T247 264Q200 264 162 280T98 328T57 403T42 503Q42 560 57 604T99 679T164 726T247 742Q292 742 330 726T395 680T437 605T452 503ZM364 503Q364 588 333 628T247 669Q193 669 161 629T129 503Q129 419 160 378T247 337Q301 337 332 378T364 503Z"  />
<glyph unicode="&#xBB;" horiz-adv-x="573" d="M523 297L274 79V175L436 318L274 462V558L523 340V297ZM302 298L64 93V185L219 318L64 452V543L302 339V298Z"  />
<glyph unicode="&#xBC;" horiz-adv-x="1000" d="M266 276H186V608H83V666Q134 666 164 676T199 729H266V276ZM688 727L308 0H227L608 727H688ZM902 107H822V0H749V107H527V198L750 461H822V172H902V107ZM751 172V368L583 172H751Z"  />
<glyph unicode="&#xBD;" horiz-adv-x="1000" d="M266 276H186V608H83V666Q134 666 164 676T199 729H266V276ZM688 727L308 0H227L608 727H688ZM950 0H618V70Q655 99 689 125T746 173Q796 221 813 251Q830 280 830 318Q830 352 809 370T750 389Q733 389 716 385T683 374T652 359T628 344H621V431Q651 444 688 452T762 461Q838 461 879 423T920 324Q920 297 913 274T893 230T864 193T829 159Q801 135 769 111T710 68H950V0Z"  />
<glyph unicode="&#xBE;" horiz-adv-x="1000" d="M387 403Q387 369 373 341T334 297Q309 279 279 272T210 264Q131 264 68 292V377H77Q86 368 100 360T132 346T169 336T208 332Q250 332 276 349T303 402Q303 443 279 457T210 472H142V540H203Q245 540 268 558T292 609Q292 638 272 655T209 673Q176 673 139 658Q102 643 84 625H76V711Q107 724 143 732T219 741Q256 741 285 732T334 707T365 670T376 625Q376 582 353 555T291 514V510Q330 502 358 476T387 403ZM732 727L352 0H271L652 727H732ZM929 107H850V0H776V107H554V198L777 461H850V172H929V107ZM778 172V368L611 172H778Z"  />
<glyph unicode="&#xBF;" horiz-adv-x="474" d="M309 624H209V727H309V624ZM420 20Q382 5 339 -5T244 -15Q194 -15 154 -2T86 36T43 94T28 171Q28 217 43 253T86 322Q112 351 146 374T217 420V532H304V383Q270 362 240 344T184 300Q159 276 144 247T128 178Q128 123 162 96T253 69Q277 69 301 74T346 86T385 102T415 119H420V20Z"  />
<glyph unicode="&#xC0;" horiz-adv-x="600" d="M-5 0L240 727H359L604 0H502L437 203H159L93 0H-5ZM410 286L297 628L186 286H410ZM375 818H302L169 1000H288L375 818Z"  />
<glyph unicode="&#xC1;" horiz-adv-x="600" d="M-5 0L240 727H359L604 0H502L437 203H159L93 0H-5ZM410 286L297 628L186 286H410ZM421 1000L288 818H215L303 1000H421Z"  />
<glyph unicode="&#xC2;" horiz-adv-x="600" d="M-5 0L240 727H359L604 0H502L437 203H159L93 0H-5ZM410 286L297 628L186 286H410ZM459 805H381L291 930L201 805H125L237 990H348L459 805Z"  />
<glyph unicode="&#xC3;" horiz-adv-x="600" d="M-5 0L240 727H359L604 0H502L437 203H159L93 0H-5ZM410 286L297 628L186 286H410ZM493 960Q488 884 457 846T373 808Q347 808 326 817T284 846Q262 866 247 876T216 887Q192 887 183 865T171 806H103Q106 881 139 919T222 957Q247 957 268 948T310 920Q331 901 348 891T379 881Q402 881 412 903T424 960H493Z"  />
<glyph unicode="&#xC4;" horiz-adv-x="600" d="M-5 0L240 727H359L604 0H502L437 203H159L93 0H-5ZM410 286L297 628L186 286H410ZM445 809H347V904H445V809ZM244 809H146V904H244V809Z"  />
<glyph unicode="&#xC5;" horiz-adv-x="600" d="M604 0H502L437 203H159L93 0H-5L229 694Q194 714 172 747T150 823Q150 885 193 927Q236 970 300 970Q362 970 406 928Q449 886 449 823Q449 781 427 748T370 696L604 0ZM410 285L297 629L186 285H410ZM377 822Q377 857 356 881T300 905Q266 905 244 881T222 822Q222 786 244 762T300 738Q333 738 355 762T377 822Z"  />
<glyph unicode="&#xC6;" horiz-adv-x="913" d="M880 0H435V272H188L82 0H-19L275 727H880V641H530V442H855V356H530V86H880V0ZM435 353V646H340L220 353H435Z"  />
<glyph unicode="&#xC7;" horiz-adv-x="601" d="M358 -13Q286 -13 227 10T124 82Q79 130 56 200T32 363Q32 454 55 521T123 640Q168 689 227 714T359 740Q396 740 428 735T487 721Q511 714 535 703T584 679V562H576Q563 574 543 590T495 623Q467 638 434 648T358 658Q312 658 271 639T198 583Q167 545 150 489T133 363Q133 288 151 234T200 143Q230 107 271 89T358 70Q400 70 436 80T500 106Q526 122 545 137T577 165H584V49Q560 38 539 28T487 8Q483 6 476 4T466 1Q466 -6 467 -17T468 -43Q468 -116 429 -161T317 -207Q299 -207 275 -204T231 -195V-117H235Q247 -122 266 -127T305 -133Q351 -133 372 -114T394 -52Q394 -43 394 -34T393 -12Q384 -12 377 -12T358 -13Z"  />
<glyph unicode="&#xC8;" horiz-adv-x="561" d="M74 0V727H528V641H170V442H504V356H170V86H528V0H74ZM368 818H295L162 1000H281L368 818Z"  />
<glyph unicode="&#xC9;" horiz-adv-x="561" d="M74 0V727H528V641H170V442H504V356H170V86H528V0H74ZM449 1000L316 818H243L331 1000H449Z"  />
<glyph unicode="&#xCA;" horiz-adv-x="561" d="M74 0V727H528V641H170V442H504V356H170V86H528V0H74ZM469 815H391L301 940L211 815H135L247 1000H358L469 815Z"  />
<glyph unicode="&#xCB;" horiz-adv-x="561" d="M74 0V727H528V641H170V442H504V356H170V86H528V0H74ZM471 819H373V914H471V819ZM270 819H172V914H270V819Z"  />
<glyph unicode="&#xCC;" horiz-adv-x="373" d="M328 0H45V74H138V653H45V727H328V653H235V74H328V0ZM258 818H185L52 1000H171L258 818Z"  />
<glyph unicode="&#xCD;" horiz-adv-x="373" d="M328 0H45V74H138V653H45V727H328V653H235V74H328V0ZM321 1000L188 818H115L203 1000H321Z"  />
<glyph unicode="&#xCE;" horiz-adv-x="373" d="M328 0H45V74H138V653H45V727H328V653H235V74H328V0ZM354 815H276L186 940L96 815H20L132 1000H243L354 815Z"  />
<glyph unicode="&#xCF;" horiz-adv-x="373" d="M328 0H45V74H138V653H45V727H328V653H235V74H328V0ZM337 819H239V914H337V819ZM136 819H38V914H136V819Z"  />
<glyph unicode="&#xD0;" horiz-adv-x="698" d="M667 363Q667 263 627 183T519 58Q462 21 407 11Q378 6 342 3T261 0H94V361H12V431H94V727H259Q363 727 420 711Q480 696 520 669Q590 623 628 546T667 363ZM566 364Q566 534 456 600Q417 624 374 634T264 644H190V431H350V361H190V83H264Q330 83 377 93T465 131Q516 166 541 222T566 364Z"  />
<glyph unicode="&#xD1;" horiz-adv-x="667" d="M594 0H485L164 627V0H74V727H211L503 151V727H594V0ZM542 969Q537 893 506 855T422 817Q396 817 375 826T333 855Q311 875 296 885T265 896Q241 896 232 874T220 815H152Q155 890 188 928T271 966Q296 966 317 957T359 929Q380 910 397 900T428 890Q451 890 461 912T473 969H542Z"  />
<glyph unicode="&#xD2;" horiz-adv-x="708" d="M588 644Q630 596 652 525T675 363Q675 275 653 204T588 84Q543 33 485 9T354 -15Q206 -15 119 84Q77 132 55 202T32 363Q32 456 55 524T120 644Q206 742 354 742Q429 742 487 716T588 644ZM575 363Q575 436 559 491T515 583Q457 659 354 659Q300 659 262 641T192 583Q164 546 149 491T133 363Q133 219 192 144T354 68Q456 68 515 143T575 363ZM415 818H342L209 1000H328L415 818Z"  />
<glyph unicode="&#xD3;" horiz-adv-x="708" d="M588 644Q630 596 652 525T675 363Q675 275 653 204T588 84Q543 33 485 9T354 -15Q206 -15 119 84Q77 132 55 202T32 363Q32 456 55 524T120 644Q206 742 354 742Q429 742 487 716T588 644ZM575 363Q575 436 559 491T515 583Q457 659 354 659Q300 659 262 641T192 583Q164 546 149 491T133 363Q133 219 192 144T354 68Q456 68 515 143T575 363ZM489 1000L356 818H283L371 1000H489Z"  />
<glyph unicode="&#xD4;" horiz-adv-x="708" d="M588 644Q630 596 652 525T675 363Q675 275 653 204T588 84Q543 33 485 9T354 -15Q206 -15 119 84Q77 132 55 202T32 363Q32 456 55 524T120 644Q206 742 354 742Q429 742 487 716T588 644ZM575 363Q575 436 559 491T515 583Q457 659 354 659Q300 659 262 641T192 583Q164 546 149 491T133 363Q133 219 192 144T354 68Q456 68 515 143T575 363ZM515 815H437L347 940L257 815H181L293 1000H404L515 815Z"  />
<glyph unicode="&#xD5;" horiz-adv-x="708" d="M588 644Q630 596 652 525T675 363Q675 275 653 204T588 84Q543 33 485 9T354 -15Q206 -15 119 84Q77 132 55 202T32 363Q32 456 55 524T120 644Q206 742 354 742Q429 742 487 716T588 644ZM575 363Q575 436 559 491T515 583Q457 659 354 659Q300 659 262 641T192 583Q164 546 149 491T133 363Q133 219 192 144T354 68Q456 68 515 143T575 363ZM542 969Q537 893 506 855T422 817Q396 817 375 826T333 855Q311 875 296 885T265 896Q241 896 232 874T220 815H152Q155 890 188 928T271 966Q296 966 317 957T359 929Q380 910 397 900T428 890Q451 890 461 912T473 969H542Z"  />
<glyph unicode="&#xD6;" horiz-adv-x="708" d="M588 644Q630 596 652 525T675 363Q675 275 653 204T588 84Q543 33 485 9T354 -15Q206 -15 119 84Q77 132 55 202T32 363Q32 456 55 524T120 644Q206 742 354 742Q429 742 487 716T588 644ZM575 363Q575 436 559 491T515 583Q457 659 354 659Q300 659 262 641T192 583Q164 546 149 491T133 363Q133 219 192 144T354 68Q456 68 515 143T575 363ZM501 819H403V914H501V819ZM300 819H202V914H300V819Z"  />
<glyph unicode="&#xD7;" horiz-adv-x="728" d="M626 110L572 56L364 266L156 56L102 110L312 318L102 526L156 581L364 371L572 581L626 526L416 318L626 110Z"  />
<glyph unicode="&#xD8;" horiz-adv-x="708" d="M675 363Q675 184 587 84Q500 -15 354 -15Q300 -15 254 -1T170 39L105 -57H33L125 79Q82 127 57 198T32 363Q32 544 120 642Q208 742 354 742Q409 742 453 729T536 688L592 772H664L581 649Q626 601 650 531T675 363ZM486 615Q433 659 354 659Q252 659 192 584T132 363Q132 297 144 246T180 158L486 615ZM576 363Q576 432 563 484T526 571L220 113Q248 91 278 80T354 68Q456 68 516 143T576 363Z"  />
<glyph unicode="&#xD9;" horiz-adv-x="656" d="M328 -15Q203 -15 134 52Q96 90 81 142T65 273V727H162V273Q162 222 168 188T193 127Q231 67 328 67Q373 67 408 82T463 127Q481 155 487 188T494 271V727H591V273Q591 198 576 144T521 52Q487 18 441 2T328 -15ZM417 818H344L211 1000H330L417 818Z"  />
<glyph unicode="&#xDA;" horiz-adv-x="656" d="M328 -15Q203 -15 134 52Q96 90 81 142T65 273V727H162V273Q162 222 168 188T193 127Q231 67 328 67Q373 67 408 82T463 127Q481 155 487 188T494 271V727H591V273Q591 198 576 144T521 52Q487 18 441 2T328 -15ZM486 1000L353 818H280L368 1000H486Z"  />
<glyph unicode="&#xDB;" horiz-adv-x="656" d="M328 -15Q203 -15 134 52Q96 90 81 142T65 273V727H162V273Q162 222 168 188T193 127Q231 67 328 67Q373 67 408 82T463 127Q481 155 487 188T494 271V727H591V273Q591 198 576 144T521 52Q487 18 441 2T328 -15ZM491 815H413L323 940L233 815H157L269 1000H380L491 815Z"  />
<glyph unicode="&#xDC;" horiz-adv-x="656" d="M328 -15Q203 -15 134 52Q96 90 81 142T65 273V727H162V273Q162 222 168 188T193 127Q231 67 328 67Q373 67 408 82T463 127Q481 155 487 188T494 271V727H591V273Q591 198 576 144T521 52Q487 18 441 2T328 -15ZM490 819H392V914H490V819ZM289 819H191V914H289V819Z"  />
<glyph unicode="&#xDD;" horiz-adv-x="576" d="M583 727L337 322V0H240V312L-5 727H102L290 406L480 727H583ZM435 1000L302 818H229L317 1000H435Z"  />
<glyph unicode="&#xDE;" horiz-adv-x="565" d="M535 384Q535 339 518 298T471 229Q433 192 380 175T252 157H170V0H74V727H170V595H256Q322 595 369 584T448 552Q490 526 512 485T535 384ZM434 382Q434 417 422 443T381 486Q358 501 327 507T251 513H170V238H237Q295 238 332 248T393 280Q434 320 434 382Z"  />
<glyph unicode="&#xDF;" horiz-adv-x="548" d="M521 235Q521 128 455 58Q391 -12 284 -12Q272 -12 254 -11T225 -7V74H229Q259 66 288 66Q326 66 352 79T395 116Q412 141 419 170T426 239Q426 321 377 360T228 399V476Q303 476 342 503T381 597Q381 613 377 630T360 661Q348 675 330 683T282 692Q256 692 235 685T196 659Q178 641 168 609T158 530V0H66V527Q66 591 83 634T129 707Q159 736 199 750T284 765Q366 765 420 723Q475 683 475 606Q475 551 441 508T351 449V444Q432 426 476 373T521 235Z"  />
<glyph unicode="&#xE0;" horiz-adv-x="525" d="M371 286L288 277Q240 273 208 263Q171 252 147 229T123 164Q123 69 227 69Q270 69 305 88T371 134V286ZM371 58Q360 50 341 35T305 11Q293 5 282 0T258 -8T230 -13T194 -15Q125 -15 77 33Q55 56 42 89T28 158Q28 215 52 254T128 318Q174 339 236 347T371 359V376Q371 409 362 428T334 459Q316 470 291 474T239 478Q207 478 164 468T78 440H73V534Q85 537 104 541T145 550T192 556T239 559Q296 559 334 550T403 518Q462 475 462 373V0H371V58ZM326 636H253L120 818H239L326 636Z"  />
<glyph unicode="&#xE1;" horiz-adv-x="525" d="M371 286L288 277Q240 273 208 263Q171 252 147 229T123 164Q123 69 227 69Q270 69 305 88T371 134V286ZM371 58Q360 50 341 35T305 11Q293 5 282 0T258 -8T230 -13T194 -15Q125 -15 77 33Q55 56 42 89T28 158Q28 215 52 254T128 318Q174 339 236 347T371 359V376Q371 409 362 428T334 459Q316 470 291 474T239 478Q207 478 164 468T78 440H73V534Q85 537 104 541T145 550T192 556T239 559Q296 559 334 550T403 518Q462 475 462 373V0H371V58ZM408 818L275 636H202L290 818H408Z"  />
<glyph unicode="&#xE2;" horiz-adv-x="525" d="M371 286L288 277Q240 273 208 263Q171 252 147 229T123 164Q123 69 227 69Q270 69 305 88T371 134V286ZM371 58Q360 50 341 35T305 11Q293 5 282 0T258 -8T230 -13T194 -15Q125 -15 77 33Q55 56 42 89T28 158Q28 215 52 254T128 318Q174 339 236 347T371 359V376Q371 409 362 428T334 459Q316 470 291 474T239 478Q207 478 164 468T78 440H73V534Q85 537 104 541T145 550T192 556T239 559Q296 559 334 550T403 518Q462 475 462 373V0H371V58ZM428 633H350L260 758L170 633H94L206 818H317L428 633Z"  />
<glyph unicode="&#xE3;" horiz-adv-x="525" d="M371 286L288 277Q240 273 208 263Q171 252 147 229T123 164Q123 69 227 69Q270 69 305 88T371 134V286ZM371 58Q360 50 341 35T305 11Q293 5 282 0T258 -8T230 -13T194 -15Q125 -15 77 33Q55 56 42 89T28 158Q28 215 52 254T128 318Q174 339 236 347T371 359V376Q371 409 362 428T334 459Q316 470 291 474T239 478Q207 478 164 468T78 440H73V534Q85 537 104 541T145 550T192 556T239 559Q296 559 334 550T403 518Q462 475 462 373V0H371V58ZM456 797Q451 721 420 683T336 645Q310 645 289 654T247 683Q225 703 210 713T179 724Q155 724 146 702T134 643H66Q69 718 102 756T185 794Q210 794 231 785T273 757Q294 738 311 728T342 718Q365 718 375 740T387 797H456Z"  />
<glyph unicode="&#xE4;" horiz-adv-x="525" d="M371 286L288 277Q240 273 208 263Q171 252 147 229T123 164Q123 69 227 69Q270 69 305 88T371 134V286ZM371 58Q360 50 341 35T305 11Q293 5 282 0T258 -8T230 -13T194 -15Q125 -15 77 33Q55 56 42 89T28 158Q28 215 52 254T128 318Q174 339 236 347T371 359V376Q371 409 362 428T334 459Q316 470 291 474T239 478Q207 478 164 468T78 440H73V534Q85 537 104 541T145 550T192 556T239 559Q296 559 334 550T403 518Q462 475 462 373V0H371V58ZM407 637H309V732H407V637ZM206 637H108V732H206V637Z"  />
<glyph unicode="&#xE5;" horiz-adv-x="525" d="M371 286L288 277Q240 273 208 263Q171 252 147 229T123 164Q123 69 227 69Q270 69 305 88T371 134V286ZM371 58Q360 50 341 36T305 11Q293 5 282 0T258 -8T230 -13T194 -15Q125 -15 77 33Q54 56 41 89T28 158Q28 215 52 254T128 318Q174 339 236 347T371 359V376Q371 409 362 428T334 459Q316 470 291 474T239 478Q213 478 188 473T146 463Q123 458 106 451T78 440H73V534Q96 541 130 547T208 556Q163 574 135 610T107 694Q107 756 150 798Q193 841 257 841Q319 841 363 799Q406 757 406 694Q406 646 377 608T300 554Q382 542 420 501Q441 479 451 449T462 373V0H371V58ZM334 693Q334 729 313 752T257 776Q223 776 201 753T179 693Q179 657 201 633T257 609Q291 609 312 633T334 693Z"  />
<glyph unicode="&#xE6;" horiz-adv-x="880" d="M399 146Q380 201 380 272Q332 271 287 269T205 255Q168 246 146 224T123 161Q123 69 231 69Q276 69 321 90T399 146ZM654 67Q686 67 715 74T768 92Q792 103 809 113T838 133H843V33Q827 27 803 18T760 2Q733 -5 711 -9T655 -13Q500 -13 428 88Q423 83 415 76T397 60T376 42T352 26Q320 7 286 -3T199 -14Q127 -14 77 33Q28 81 28 155Q28 218 53 254T127 312Q172 331 240 337T384 345V373Q384 405 374 426T344 458Q310 479 244 479Q203 479 158 466Q135 459 116 453T83 440H76V534Q88 538 106 541T150 550Q175 555 198 557T245 560Q323 560 371 537T446 470Q479 509 527 535T633 561Q742 561 798 496T854 313V273H469Q469 216 484 177T524 113Q550 88 583 78T654 67ZM765 343Q763 372 756 398T732 443Q717 462 691 473T628 485Q590 485 565 475T519 444Q500 425 488 399T471 343H765Z"  />
<glyph unicode="&#xE7;" horiz-adv-x="461" d="M283 -12Q226 -12 180 5T100 58Q66 93 48 146T29 272Q29 344 48 396T100 484Q132 520 180 539T283 558Q328 558 370 546T444 516V413H439Q429 421 414 432T376 454Q357 464 332 471T282 479Q210 479 167 426T124 272Q124 175 165 121T282 67Q327 67 367 85T439 134H444V31Q431 24 413 17T379 4Q380 -4 381 -16T382 -43Q382 -116 343 -161T231 -207Q213 -207 189 -204T145 -195V-117H149Q161 -122 180 -127T218 -133Q264 -133 285 -114T307 -52Q307 -43 307 -33T306 -11Q300 -11 296 -11T283 -12Z"  />
<glyph unicode="&#xE8;" horiz-adv-x="526" d="M303 -13Q172 -13 101 60T29 270Q29 402 98 482Q168 561 281 561Q381 561 439 500Q469 469 484 424T500 313V263H122Q122 167 169 117T302 67Q333 67 362 74T414 92Q439 103 456 113T484 133H490V33Q474 27 450 18T407 2Q380 -5 358 -9T303 -13ZM411 333Q410 371 402 397T379 443Q363 463 338 474T276 485Q239 485 214 474T167 442Q146 420 136 394T122 333H411ZM334 636H261L128 818H247L334 636Z"  />
<glyph unicode="&#xE9;" horiz-adv-x="526" d="M303 -13Q172 -13 101 60T29 270Q29 402 98 482Q168 561 281 561Q381 561 439 500Q469 469 484 424T500 313V263H122Q122 167 169 117T302 67Q333 67 362 74T414 92Q439 103 456 113T484 133H490V33Q474 27 450 18T407 2Q380 -5 358 -9T303 -13ZM411 333Q410 371 402 397T379 443Q363 463 338 474T276 485Q239 485 214 474T167 442Q146 420 136 394T122 333H411ZM434 818L301 636H228L316 818H434Z"  />
<glyph unicode="&#xEA;" horiz-adv-x="526" d="M303 -13Q172 -13 101 60T29 270Q29 402 98 482Q168 561 281 561Q381 561 439 500Q469 469 484 424T500 313V263H122Q122 167 169 117T302 67Q333 67 362 74T414 92Q439 103 456 113T484 133H490V33Q474 27 450 18T407 2Q380 -5 358 -9T303 -13ZM411 333Q410 371 402 397T379 443Q363 463 338 474T276 485Q239 485 214 474T167 442Q146 420 136 394T122 333H411ZM447 633H369L279 758L189 633H113L225 818H336L447 633Z"  />
<glyph unicode="&#xEB;" horiz-adv-x="526" d="M303 -13Q172 -13 101 60T29 270Q29 402 98 482Q168 561 281 561Q381 561 439 500Q469 469 484 424T500 313V263H122Q122 167 169 117T302 67Q333 67 362 74T414 92Q439 103 456 113T484 133H490V33Q474 27 450 18T407 2Q380 -5 358 -9T303 -13ZM411 333Q410 371 402 397T379 443Q363 463 338 474T276 485Q239 485 214 474T167 442Q146 420 136 394T122 333H411ZM429 637H331V732H429V637ZM228 637H130V732H228V637Z"  />
<glyph unicode="&#xEC;" horiz-adv-x="229" d="M160 0H68V545H160V0ZM205 636H132L-1 818H118L205 636Z"  />
<glyph unicode="&#xED;" horiz-adv-x="229" d="M160 0H68V545H160V0ZM264 818L131 636H58L146 818H264Z"  />
<glyph unicode="&#xEE;" horiz-adv-x="229" d="M160 0H68V545H160V0ZM254 633H181L113 762L45 633H-26L59 818H169L254 633Z"  />
<glyph unicode="&#xEF;" horiz-adv-x="229" d="M160 0H68V545H160V0ZM247 637H155V732H247V637ZM74 637H-19V732H74V637Z"  />
<glyph unicode="&#xF0;" horiz-adv-x="546" d="M514 311Q514 232 497 171T448 69T370 7T267 -15Q162 -15 95 49Q28 113 28 236Q28 349 95 412Q162 476 253 476Q302 476 338 463T415 424Q407 451 395 478T367 531T333 579T296 619L168 540L136 587L252 657Q232 673 214 686T176 709T138 729T97 750V760H242Q260 746 280 731T321 702L424 765L457 717L364 663Q395 631 422 594T470 514T502 420T514 311ZM375 110Q387 125 395 142T410 181T419 231T422 295Q422 311 421 324T419 352Q384 375 347 385T270 395Q239 395 212 386T166 356T135 306T123 235Q123 147 162 105T268 62Q299 62 327 73T375 110Z"  />
<glyph unicode="&#xF1;" horiz-adv-x="558" d="M495 0H403V311Q403 348 400 380T386 433Q375 453 355 463T300 473Q266 473 230 455T158 407V0H66V545H158V485Q200 521 239 541T324 561Q405 561 450 509T495 354V0ZM478 797Q473 721 442 683T358 645Q332 645 311 654T269 683Q247 703 232 713T201 724Q177 724 168 702T156 643H88Q91 718 124 756T207 794Q232 794 253 785T295 757Q316 738 333 728T364 718Q387 718 397 740T409 797H478Z"  />
<glyph unicode="&#xF2;" horiz-adv-x="543" d="M515 272Q515 134 448 60Q382 -15 272 -15Q158 -15 93 62Q28 141 28 272Q28 409 95 485Q162 561 272 561Q382 561 448 485Q515 411 515 272ZM420 272Q420 378 382 429T272 481Q200 481 162 430T123 272Q123 169 161 117T272 64Q344 64 382 115T420 272ZM326 636H253L120 818H239L326 636Z"  />
<glyph unicode="&#xF3;" horiz-adv-x="543" d="M515 272Q515 134 448 60Q382 -15 272 -15Q158 -15 93 62Q28 141 28 272Q28 409 95 485Q162 561 272 561Q382 561 448 485Q515 411 515 272ZM420 272Q420 378 382 429T272 481Q200 481 162 430T123 272Q123 169 161 117T272 64Q344 64 382 115T420 272ZM424 818L291 636H218L306 818H424Z"  />
<glyph unicode="&#xF4;" horiz-adv-x="543" d="M515 272Q515 134 448 60Q382 -15 272 -15Q158 -15 93 62Q28 141 28 272Q28 409 95 485Q162 561 272 561Q382 561 448 485Q515 411 515 272ZM420 272Q420 378 382 429T272 481Q200 481 162 430T123 272Q123 169 161 117T272 64Q344 64 382 115T420 272ZM440 633H362L272 758L182 633H106L218 818H329L440 633Z"  />
<glyph unicode="&#xF5;" horiz-adv-x="543" d="M515 272Q515 134 448 60Q382 -15 272 -15Q158 -15 93 62Q28 141 28 272Q28 409 95 485Q162 561 272 561Q382 561 448 485Q515 411 515 272ZM420 272Q420 378 382 429T272 481Q200 481 162 430T123 272Q123 169 161 117T272 64Q344 64 382 115T420 272ZM468 797Q463 721 432 683T348 645Q322 645 301 654T259 683Q237 703 222 713T191 724Q167 724 158 702T146 643H78Q81 718 114 756T197 794Q222 794 243 785T285 757Q306 738 323 728T354 718Q377 718 387 740T399 797H468Z"  />
<glyph unicode="&#xF6;" horiz-adv-x="543" d="M515 272Q515 134 448 60Q382 -15 272 -15Q158 -15 93 62Q28 141 28 272Q28 409 95 485Q162 561 272 561Q382 561 448 485Q515 411 515 272ZM420 272Q420 378 382 429T272 481Q200 481 162 430T123 272Q123 169 161 117T272 64Q344 64 382 115T420 272ZM422 637H324V732H422V637ZM221 637H123V732H221V637Z"  />
<glyph unicode="&#xF7;" horiz-adv-x="728" d="M422 494H306V628H422V494ZM651 279H77V357H651V279ZM422 8H306V143H422V8Z"  />
<glyph unicode="&#xF8;" horiz-adv-x="543" d="M515 272Q515 134 448 60Q382 -15 272 -15Q233 -15 201 -5T141 23L81 -72H20L102 56Q67 93 48 146T28 272Q28 410 95 484Q162 560 272 560Q346 560 402 522L455 605H516L441 490Q476 453 495 400T515 272ZM359 455Q324 481 272 481Q200 481 161 429T121 272Q121 180 149 128L359 455ZM422 272Q422 369 394 418L185 91Q219 64 272 64Q344 64 383 115T422 272Z"  />
<glyph unicode="&#xF9;" horiz-adv-x="558" d="M491 0H399V61Q357 23 320 4T234 -15Q198 -15 167 -4T112 34Q88 59 75 97T62 191V545H154V235Q154 190 157 162T172 113Q183 92 202 82T258 72Q292 72 330 91T399 138V545H491V0ZM335 636H262L129 818H248L335 636Z"  />
<glyph unicode="&#xFA;" horiz-adv-x="558" d="M491 0H399V61Q357 23 320 4T234 -15Q198 -15 167 -4T112 34Q88 59 75 97T62 191V545H154V235Q154 190 157 162T172 113Q183 92 202 82T258 72Q292 72 330 91T399 138V545H491V0ZM424 818L291 636H218L306 818H424Z"  />
<glyph unicode="&#xFB;" horiz-adv-x="558" d="M491 0H399V61Q357 23 320 4T234 -15Q198 -15 167 -4T112 34Q88 59 75 97T62 191V545H154V235Q154 190 157 162T172 113Q183 92 202 82T258 72Q292 72 330 91T399 138V545H491V0ZM443 633H365L275 758L185 633H109L221 818H332L443 633Z"  />
<glyph unicode="&#xFC;" horiz-adv-x="558" d="M491 0H399V61Q357 23 320 4T234 -15Q198 -15 167 -4T112 34Q88 59 75 97T62 191V545H154V235Q154 190 157 162T172 113Q183 92 202 82T258 72Q292 72 330 91T399 138V545H491V0ZM429 637H331V732H429V637ZM228 637H130V732H228V637Z"  />
<glyph unicode="&#xFD;" horiz-adv-x="498" d="M495 545L202 -201H104L201 26L3 545H102L251 142L399 545H495ZM396 818L263 636H190L278 818H396Z"  />
<glyph unicode="&#xFE;" horiz-adv-x="553" d="M524 287Q524 152 459 70Q394 -11 294 -11Q252 -11 222 -2T158 27V-201H66V760H158V488Q192 519 234 540T325 561Q418 561 471 486Q524 412 524 287ZM429 277Q429 371 400 422T303 473Q264 473 228 456T158 411V102Q194 84 220 78T279 72Q351 72 390 123T429 277Z"  />
<glyph unicode="&#xFF;" horiz-adv-x="498" d="M495 545L202 -201H104L201 26L3 545H102L251 142L399 545H495ZM404 637H306V732H404V637ZM203 637H105V732H203V637Z"  />
<glyph unicode="&#x100;" horiz-adv-x="600" d="M-5 0L240 727H359L604 0H502L437 203H159L93 0H-5ZM410 286L297 628L186 286H410ZM484 829H116V904H484V829Z"  />
<glyph unicode="&#x101;" horiz-adv-x="525" d="M371 286L288 277Q240 273 208 263Q171 252 147 229T123 164Q123 69 227 69Q270 69 305 88T371 134V286ZM371 58Q360 50 341 35T305 11Q293 5 282 0T258 -8T230 -13T194 -15Q125 -15 77 33Q55 56 42 89T28 158Q28 215 52 254T128 318Q174 339 236 347T371 359V376Q371 409 362 428T334 459Q316 470 291 474T239 478Q207 478 164 468T78 440H73V534Q85 537 104 541T145 550T192 556T239 559Q296 559 334 550T403 518Q462 475 462 373V0H371V58ZM442 652H74V727H442V652Z"  />
<glyph unicode="&#x102;" horiz-adv-x="600" d="M-5 0L240 727H359L604 0H502L437 203H159L93 0H-5ZM410 286L297 628L186 286H410ZM460 981Q460 895 421 847Q399 821 372 808T299 795Q259 795 229 808T179 847Q138 896 138 981H217Q217 915 237 886T299 857Q338 857 359 885T381 981H460Z"  />
<glyph unicode="&#x103;" horiz-adv-x="525" d="M371 286L288 277Q240 273 208 263Q171 252 147 229T123 164Q123 69 227 69Q270 69 305 88T371 134V286ZM371 58Q360 50 341 35T305 11Q293 5 282 0T258 -8T230 -13T194 -15Q125 -15 77 33Q55 56 42 89T28 158Q28 215 52 254T128 318Q174 339 236 347T371 359V376Q371 409 362 428T334 459Q316 470 291 474T239 478Q207 478 164 468T78 440H73V534Q85 537 104 541T145 550T192 556T239 559Q296 559 334 550T403 518Q462 475 462 373V0H371V58ZM416 799Q416 713 377 665Q355 639 328 626T255 613Q215 613 185 626T135 665Q94 714 94 799H173Q173 733 193 704T255 675Q294 675 315 703T337 799H416Z"  />
<glyph unicode="&#x104;" horiz-adv-x="600" d="M502 0L437 203H159L93 0H-5L240 727H359L604 0H587Q565 -18 549 -44T533 -93Q533 -109 542 -119T570 -129Q590 -129 604 -122H609V-190Q595 -196 580 -199T551 -202Q506 -202 482 -179T458 -116Q458 -84 475 -53T514 0H502ZM410 286L297 628L186 286H410Z"  />
<glyph unicode="&#x105;" horiz-adv-x="525" d="M371 58Q360 50 341 35T305 11Q293 5 282 0T258 -8T230 -13T194 -15Q125 -15 77 33Q55 56 42 89T28 158Q28 215 52 254T128 318Q174 339 236 347T371 359V376Q371 409 362 428T334 459Q316 470 291 474T239 478Q207 478 164 468T78 440H73V534Q85 537 104 541T145 550T192 556T239 559Q296 559 334 550T403 518Q462 475 462 373V0H452Q430 -18 414 -44T398 -93Q398 -109 407 -119T435 -129Q455 -129 469 -122H474V-190Q460 -196 445 -199T416 -202Q371 -202 347 -179T323 -116Q323 -84 340 -53T379 0H371V58ZM371 286L288 277Q240 273 208 263Q171 252 147 229T123 164Q123 69 227 69Q270 69 305 88T371 134V286Z"  />
<glyph unicode="&#x106;" horiz-adv-x="601" d="M358 -13Q286 -13 227 10T124 82Q79 130 56 200T32 363Q32 454 55 521T123 640Q168 689 227 714T359 740Q396 740 428 735T487 721Q511 714 535 703T584 679V562H576Q563 574 543 590T495 623Q467 638 434 648T358 658Q312 658 271 639T198 583Q167 545 150 489T133 363Q133 288 151 234T200 143Q230 107 271 89T358 70Q400 70 436 80T500 106Q526 122 545 137T577 165H584V49Q560 38 539 28T487 8Q456 -2 429 -7T358 -13ZM474 1000L341 818H268L356 1000H474Z"  />
<glyph unicode="&#x107;" horiz-adv-x="461" d="M283 -12Q226 -12 180 5T100 58Q66 93 48 146T29 272Q29 344 48 396T100 484Q132 520 180 539T283 558Q328 558 370 546T444 516V413H439Q429 421 414 432T376 454Q357 464 332 471T282 479Q210 479 167 426T124 272Q124 175 165 121T282 67Q327 67 367 85T439 134H444V31Q431 24 411 15T373 2Q350 -5 331 -8T283 -12ZM396 818L263 636H190L278 818H396Z"  />
<glyph unicode="&#x108;" horiz-adv-x="601" d="M358 -13Q286 -13 227 10T124 82Q79 130 56 200T32 363Q32 454 55 521T123 640Q168 689 227 714T359 740Q396 740 428 735T487 721Q511 714 535 703T584 679V562H576Q563 574 543 590T495 623Q467 638 434 648T358 658Q312 658 271 639T198 583Q167 545 150 489T133 363Q133 288 151 234T200 143Q230 107 271 89T358 70Q400 70 436 80T500 106Q526 122 545 137T577 165H584V49Q560 38 539 28T487 8Q456 -2 429 -7T358 -13ZM514 815H436L346 940L256 815H180L292 1000H403L514 815Z"  />
<glyph unicode="&#x109;" horiz-adv-x="461" d="M283 -12Q226 -12 180 5T100 58Q66 93 48 146T29 272Q29 344 48 396T100 484Q132 520 180 539T283 558Q328 558 370 546T444 516V413H439Q429 421 414 432T376 454Q357 464 332 471T282 479Q210 479 167 426T124 272Q124 175 165 121T282 67Q327 67 367 85T439 134H444V31Q431 24 411 15T373 2Q350 -5 331 -8T283 -12ZM435 633H357L267 758L177 633H101L213 818H324L435 633Z"  />
<glyph unicode="&#x10A;" horiz-adv-x="601" d="M358 -13Q286 -13 227 10T124 82Q79 130 56 200T32 363Q32 454 55 521T123 640Q168 689 227 714T359 740Q396 740 428 735T487 721Q511 714 535 703T584 679V562H576Q563 574 543 590T495 623Q467 638 434 648T358 658Q312 658 271 639T198 583Q167 545 150 489T133 363Q133 288 151 234T200 143Q230 107 271 89T358 70Q400 70 436 80T500 106Q526 122 545 137T577 165H584V49Q560 38 539 28T487 8Q456 -2 429 -7T358 -13ZM395 819H291V914H395V819Z"  />
<glyph unicode="&#x10B;" horiz-adv-x="461" d="M283 -12Q226 -12 180 5T100 58Q66 93 48 146T29 272Q29 344 48 396T100 484Q132 520 180 539T283 558Q328 558 370 546T444 516V413H439Q429 421 414 432T376 454Q357 464 332 471T282 479Q210 479 167 426T124 272Q124 175 165 121T282 67Q327 67 367 85T439 134H444V31Q431 24 411 15T373 2Q350 -5 331 -8T283 -12ZM319 637H215V732H319V637Z"  />
<glyph unicode="&#x10C;" horiz-adv-x="601" d="M358 -13Q286 -13 227 10T124 82Q79 130 56 200T32 363Q32 454 55 521T123 640Q168 689 227 714T359 740Q396 740 428 735T487 721Q511 714 535 703T584 679V562H576Q563 574 543 590T495 623Q467 638 434 648T358 658Q312 658 271 639T198 583Q167 545 150 489T133 363Q133 288 151 234T200 143Q230 107 271 89T358 70Q400 70 436 80T500 106Q526 122 545 137T577 165H584V49Q560 38 539 28T487 8Q456 -2 429 -7T358 -13ZM511 1000L400 815H289L177 1000H255L345 875L435 1000H511Z"  />
<glyph unicode="&#x10D;" horiz-adv-x="461" d="M283 -12Q226 -12 180 5T100 58Q66 93 48 146T29 272Q29 344 48 396T100 484Q132 520 180 539T283 558Q328 558 370 546T444 516V413H439Q429 421 414 432T376 454Q357 464 332 471T282 479Q210 479 167 426T124 272Q124 175 165 121T282 67Q327 67 367 85T439 134H444V31Q431 24 411 15T373 2Q350 -5 331 -8T283 -12ZM432 818L321 633H210L98 818H176L266 693L356 818H432Z"  />
<glyph unicode="&#x10E;" horiz-adv-x="678" d="M647 363Q647 263 607 183T499 58Q443 23 386 11Q328 0 241 0H74V727H239Q343 727 400 711Q458 696 500 669Q570 623 608 546T647 363ZM546 364Q546 534 436 600Q397 624 354 634T244 644H170V83H244Q310 83 357 93T445 131Q496 166 521 222T546 364ZM482 1000L371 815H260L148 1000H226L316 875L406 1000H482Z"  />
<glyph unicode="&#x10F;" horiz-adv-x="687" d="M486 0H395V56Q373 38 358 26T321 4Q301 -5 280 -10T231 -15Q186 -15 149 3T85 58Q58 94 44 147T29 269Q29 341 47 393T99 484Q128 520 170 540T259 561Q301 561 331 552T395 523V760H486V0ZM395 447Q360 464 333 470T274 477Q204 477 164 424T124 271Q124 174 154 123T253 72Q289 72 325 88T395 133V447ZM719 760L602 513H540L609 760H719Z"  />
<glyph unicode="&#x110;" horiz-adv-x="698" d="M667 363Q667 263 627 183T519 58Q462 21 407 11Q378 6 342 3T261 0H94V361H12V431H94V727H259Q363 727 420 711Q480 696 520 669Q590 623 628 546T667 363ZM566 364Q566 534 456 600Q417 624 374 634T264 644H190V431H350V361H190V83H264Q330 83 377 93T465 131Q516 166 541 222T566 364Z"  />
<glyph unicode="&#x111;" horiz-adv-x="573" d="M486 0H395V56Q373 38 358 26T321 4Q301 -5 280 -10T231 -15Q186 -15 149 3T85 58Q58 94 44 147T29 269Q29 341 47 393T99 484Q128 520 170 540T259 561Q301 561 331 552T395 523V619H248V685H395V760H486V685H567V619H486V0ZM395 447Q360 464 333 470T274 477Q204 477 164 424T124 271Q124 174 154 123T253 72Q289 72 325 88T395 133V447Z"  />
<glyph unicode="&#x112;" horiz-adv-x="561" d="M74 0V727H528V641H170V442H504V356H170V86H528V0H74ZM484 829H116V904H484V829Z"  />
<glyph unicode="&#x113;" horiz-adv-x="526" d="M303 -13Q172 -13 101 60T29 270Q29 402 98 482Q168 561 281 561Q381 561 439 500Q469 469 484 424T500 313V263H122Q122 167 169 117T302 67Q333 67 362 74T414 92Q439 103 456 113T484 133H490V33Q474 27 450 18T407 2Q380 -5 358 -9T303 -13ZM411 333Q410 371 402 397T379 443Q363 463 338 474T276 485Q239 485 214 474T167 442Q146 420 136 394T122 333H411ZM466 652H98V727H466V652Z"  />
<glyph unicode="&#x114;" horiz-adv-x="561" d="M74 0V727H528V641H170V442H504V356H170V86H528V0H74ZM461 981Q461 895 422 847Q400 821 373 808T300 795Q260 795 230 808T180 847Q139 896 139 981H218Q218 915 238 886T300 857Q339 857 360 885T382 981H461Z"  />
<glyph unicode="&#x115;" horiz-adv-x="526" d="M303 -13Q172 -13 101 60T29 270Q29 402 98 482Q168 561 281 561Q381 561 439 500Q469 469 484 424T500 313V263H122Q122 167 169 117T302 67Q333 67 362 74T414 92Q439 103 456 113T484 133H490V33Q474 27 450 18T407 2Q380 -5 358 -9T303 -13ZM411 333Q410 371 402 397T379 443Q363 463 338 474T276 485Q239 485 214 474T167 442Q146 420 136 394T122 333H411ZM440 799Q440 713 401 665Q379 639 352 626T279 613Q239 613 209 626T159 665Q118 714 118 799H197Q197 733 217 704T279 675Q318 675 339 703T361 799H440Z"  />
<glyph unicode="&#x116;" horiz-adv-x="561" d="M74 0V727H528V641H170V442H504V356H170V86H528V0H74ZM369 819H265V914H369V819Z"  />
<glyph unicode="&#x117;" horiz-adv-x="526" d="M303 -13Q172 -13 101 60T29 270Q29 402 98 482Q168 561 281 561Q381 561 439 500Q469 469 484 424T500 313V263H122Q122 167 169 117T302 67Q333 67 362 74T414 92Q439 103 456 113T484 133H490V33Q474 27 450 18T407 2Q380 -5 358 -9T303 -13ZM411 333Q410 371 402 397T379 443Q363 463 338 474T276 485Q239 485 214 474T167 442Q146 420 136 394T122 333H411ZM335 637H231V732H335V637Z"  />
<glyph unicode="&#x118;" horiz-adv-x="561" d="M74 0V727H528V641H170V442H504V356H170V86H528V0H506Q484 -18 468 -44T452 -93Q452 -109 461 -119T489 -129Q509 -129 523 -122H528V-190Q514 -196 499 -199T470 -202Q425 -202 401 -179T377 -116Q377 -84 394 -53T433 0H74Z"  />
<glyph unicode="&#x119;" horiz-adv-x="526" d="M303 -13Q172 -13 101 60T29 270Q29 402 98 482Q168 561 281 561Q381 561 439 500Q469 469 484 424T500 313V263H122Q122 167 169 117T302 67Q333 67 362 74T414 92Q439 103 456 113T484 133H490V33Q480 30 471 26T449 17Q430 1 420 -12T403 -35Q395 -49 389 -63T382 -93Q382 -109 391 -119T419 -129Q437 -129 453 -122H458V-190Q444 -196 429 -199T400 -202Q357 -202 332 -179T307 -116Q307 -63 354 -10Q331 -13 303 -13ZM411 333Q410 371 402 397T379 443Q363 463 338 474T276 485Q239 485 214 474T167 442Q146 420 136 394T122 333H411Z"  />
<glyph unicode="&#x11A;" horiz-adv-x="561" d="M74 0V727H528V641H170V442H504V356H170V86H528V0H74ZM482 1000L371 815H260L148 1000H226L316 875L406 1000H482Z"  />
<glyph unicode="&#x11B;" horiz-adv-x="526" d="M303 -13Q172 -13 101 60T29 270Q29 402 98 482Q168 561 281 561Q381 561 439 500Q469 469 484 424T500 313V263H122Q122 167 169 117T302 67Q333 67 362 74T414 92Q439 103 456 113T484 133H490V33Q474 27 450 18T407 2Q380 -5 358 -9T303 -13ZM411 333Q410 371 402 397T379 443Q363 463 338 474T276 485Q239 485 214 474T167 442Q146 420 136 394T122 333H411ZM443 818L332 633H221L109 818H187L277 693L367 818H443Z"  />
<glyph unicode="&#x11C;" horiz-adv-x="667" d="M378 -14Q300 -14 237 9T127 81Q81 129 57 199T32 364Q32 452 57 521T127 641Q172 689 236 714T379 740Q416 740 449 735T514 720Q538 713 568 700T617 678V561H608Q590 577 571 591T517 623Q487 637 450 647T367 657Q261 657 197 578Q133 499 133 367Q133 294 150 240T199 146Q230 109 274 89T374 69Q416 69 456 75T524 93V281H356V366H620V48Q601 40 570 28T512 7Q477 -3 448 -8T378 -14ZM528 815H450L360 940L270 815H194L306 1000H417L528 815Z"  />
<glyph unicode="&#x11D;" horiz-adv-x="553" d="M395 447Q360 464 331 471T273 478Q204 478 164 427T124 280Q124 189 154 142T253 94Q289 94 326 108T395 148V447ZM86 -87Q95 -91 113 -97T154 -110Q180 -117 201 -121T248 -125Q291 -125 320 -114T366 -82Q382 -62 388 -36T395 24V72Q376 56 358 44T321 25T281 13T232 9Q138 9 84 78T29 278Q29 347 48 399T99 487Q130 522 172 541T259 561Q301 561 332 551T395 522L400 545H486V62Q486 -77 426 -142T241 -207Q201 -207 159 -201T81 -183V-87H86ZM445 633H367L277 758L187 633H111L223 818H334L445 633Z"  />
<glyph unicode="&#x11E;" horiz-adv-x="667" d="M378 -14Q300 -14 237 9T127 81Q81 129 57 199T32 364Q32 452 57 521T127 641Q172 689 236 714T379 740Q416 740 449 735T514 720Q538 713 568 700T617 678V561H608Q590 577 571 591T517 623Q487 637 450 647T367 657Q261 657 197 578Q133 499 133 367Q133 294 150 240T199 146Q230 109 274 89T374 69Q416 69 456 75T524 93V281H356V366H620V48Q601 40 570 28T512 7Q477 -3 448 -8T378 -14ZM521 981Q521 895 482 847Q460 821 433 808T360 795Q320 795 290 808T240 847Q199 896 199 981H278Q278 915 298 886T360 857Q399 857 420 885T442 981H521Z"  />
<glyph unicode="&#x11F;" horiz-adv-x="553" d="M395 447Q360 464 331 471T273 478Q204 478 164 427T124 280Q124 189 154 142T253 94Q289 94 326 108T395 148V447ZM86 -87Q95 -91 113 -97T154 -110Q180 -117 201 -121T248 -125Q291 -125 320 -114T366 -82Q382 -62 388 -36T395 24V72Q376 56 358 44T321 25T281 13T232 9Q138 9 84 78T29 278Q29 347 48 399T99 487Q130 522 172 541T259 561Q301 561 332 551T395 522L400 545H486V62Q486 -77 426 -142T241 -207Q201 -207 159 -201T81 -183V-87H86ZM436 799Q436 713 397 665Q375 639 348 626T275 613Q235 613 205 626T155 665Q114 714 114 799H193Q193 733 213 704T275 675Q314 675 335 703T357 799H436Z"  />
<glyph unicode="&#x120;" horiz-adv-x="667" d="M378 -14Q300 -14 237 9T127 81Q81 129 57 199T32 364Q32 452 57 521T127 641Q172 689 236 714T379 740Q416 740 449 735T514 720Q538 713 568 700T617 678V561H608Q590 577 571 591T517 623Q487 637 450 647T367 657Q261 657 197 578Q133 499 133 367Q133 294 150 240T199 146Q230 109 274 89T374 69Q416 69 456 75T524 93V281H356V366H620V48Q601 40 570 28T512 7Q477 -3 448 -8T378 -14ZM408 819H304V914H408V819Z"  />
<glyph unicode="&#x121;" horiz-adv-x="553" d="M395 447Q360 464 331 471T273 478Q204 478 164 427T124 280Q124 189 154 142T253 94Q289 94 326 108T395 148V447ZM86 -87Q95 -91 113 -97T154 -110Q180 -117 201 -121T248 -125Q291 -125 320 -114T366 -82Q382 -62 388 -36T395 24V72Q376 56 358 44T321 25T281 13T232 9Q138 9 84 78T29 278Q29 347 48 399T99 487Q130 522 172 541T259 561Q301 561 332 551T395 522L400 545H486V62Q486 -77 426 -142T241 -207Q201 -207 159 -201T81 -183V-87H86ZM322 637H218V732H322V637Z"  />
<glyph unicode="&#x122;" horiz-adv-x="667" d="M378 -14Q300 -14 237 9T127 81Q81 129 57 199T32 364Q32 452 57 521T127 641Q172 689 236 714T379 740Q416 740 449 735T514 720Q538 713 568 700T617 678V561H608Q590 577 571 591T517 623Q487 637 450 647T367 657Q261 657 197 578Q133 499 133 367Q133 294 150 240T199 146Q230 109 274 89T374 69Q416 69 456 75T524 93V281H356V366H620V48Q601 40 570 28T512 7Q477 -3 448 -8T378 -14ZM277 -207L344 -75H462L345 -207H277Z"  />
<glyph unicode="&#x123;" horiz-adv-x="553" d="M395 447Q360 464 331 471T273 478Q204 478 164 427T124 280Q124 189 154 142T253 94Q289 94 326 108T395 148V447ZM86 -87Q95 -91 113 -97T154 -110Q180 -117 201 -121T248 -125Q291 -125 320 -114T366 -82Q382 -62 388 -36T395 24V72Q376 56 358 44T321 25T281 13T232 9Q138 9 84 78T29 278Q29 347 48 399T99 487Q130 522 172 541T259 561Q301 561 332 551T395 522L400 545H486V62Q486 -77 426 -142T241 -207Q201 -207 159 -201T81 -183V-87H86ZM396 818L309 636H190L324 818H396Z"  />
<glyph unicode="&#x124;" horiz-adv-x="675" d="M602 0H505V356H170V0H74V727H170V442H505V727H602V0ZM505 815H427L337 940L247 815H171L283 1000H394L505 815Z"  />
<glyph unicode="&#x125;" horiz-adv-x="558" d="M495 0H403V311Q403 348 400 380T386 433Q375 453 355 463T300 473Q266 473 230 455T158 407V0H66V760H158V485Q200 521 239 541T324 561Q405 561 450 509T495 354V0ZM459 815H381L291 940L201 815H125L237 1000H348L459 815Z"  />
<glyph unicode="&#x126;" horiz-adv-x="715" d="M622 0H525V356H190V0H94V542H12V610H94V727H190V610H525V727H622V610H704V542H622V0ZM525 442V542H190V442H525Z"  />
<glyph unicode="&#x127;" horiz-adv-x="578" d="M515 0H423V311Q423 348 420 380T406 433Q395 453 375 463T320 473Q286 473 250 455T178 407V0H86L87 619H6V685H87L86 760H178L179 685H326V619H179L178 485Q220 521 259 541T344 561Q425 561 470 509T515 354V0Z"  />
<glyph unicode="&#x128;" horiz-adv-x="373" d="M328 0H45V74H138V653H45V727H328V653H235V74H328V0ZM369 973Q365 898 336 862T259 825Q233 825 215 833T178 861Q158 880 143 891T113 902Q91 902 81 880T69 821H5Q7 895 38 932T114 969Q138 969 157 960T195 933Q216 913 231 904T260 894Q282 894 293 916T305 973H369Z"  />
<glyph unicode="&#x129;" horiz-adv-x="229" d="M160 0H68V545H160V0ZM256 779Q256 716 233 685T170 653Q150 653 136 659T107 681Q92 698 81 706T59 715Q25 715 25 649H-26Q-26 712 -3 744T60 776Q83 776 95 770T123 748Q139 730 149 722T171 714Q188 714 196 731T205 779H256Z"  />
<glyph unicode="&#x12A;" horiz-adv-x="373" d="M328 0H45V74H138V653H45V727H328V653H235V74H328V0ZM346 829H27V904H346V829Z"  />
<glyph unicode="&#x12B;" horiz-adv-x="229" d="M160 0H68V545H160V0ZM245 652H-16V727H245V652Z"  />
<glyph unicode="&#x12C;" horiz-adv-x="373" d="M328 0H45V74H138V653H45V727H328V653H235V74H328V0ZM333 978Q333 896 298 846T187 795Q113 795 77 845T41 978H118Q118 912 134 885T187 857Q222 857 238 883T255 978H333Z"  />
<glyph unicode="&#x12D;" horiz-adv-x="229" d="M160 0H68V545H160V0ZM250 787Q250 711 217 665T114 618Q47 618 13 663T-22 787H49Q49 727 65 701T114 675Q146 675 162 699T179 787H250Z"  />
<glyph unicode="&#x12E;" horiz-adv-x="373" d="M45 0V74H138V653H45V727H328V653H235V74H328V0H227Q205 -18 189 -44T173 -93Q173 -109 182 -119T210 -129Q230 -129 244 -122H249V-190Q235 -196 220 -199T191 -202Q146 -202 122 -179T98 -116Q98 -84 115 -53T154 0H45Z"  />
<glyph unicode="&#x12F;" horiz-adv-x="229" d="M68 0V545H160V0H152Q130 -18 114 -44T98 -93Q98 -109 107 -119T135 -129Q155 -129 169 -122H174V-190Q160 -196 145 -199T116 -202Q71 -202 47 -179T23 -116Q23 -84 40 -53T79 0H68ZM167 637H62V732H167V637Z"  />
<glyph unicode="&#x130;" horiz-adv-x="373" d="M328 0H45V74H138V653H45V727H328V653H235V74H328V0ZM239 819H135V914H239V819Z"  />
<glyph unicode="&#x131;" horiz-adv-x="229" d="M160 0H68V545H160V0Z"  />
<glyph unicode="&#x132;" horiz-adv-x="731" d="M323 0H45V74H138V653H45V727H328V653H235V74H323V0ZM662 189Q662 92 605 41T448 -10Q436 -10 416 -9T374 -5V81H379Q395 77 408 75T435 73Q480 73 506 83T545 112Q559 132 562 160T565 226V650H432V727H662V189Z"  />
<glyph unicode="&#x133;" horiz-adv-x="516" d="M449 -16Q449 -110 399 -158T261 -207Q246 -207 225 -206T185 -201V-119H190Q201 -121 216 -123T244 -125Q317 -125 339 -88Q350 -70 353 -44T357 22V469H254V545H449V-16ZM160 0H68V545H160V0ZM167 637H62V732H167V637ZM450 637H345V732H450V637Z"  />
<glyph unicode="&#x134;" horiz-adv-x="417" d="M348 189Q348 92 290 41T133 -10Q121 -10 105 -9T70 -6T35 -2T4 4V96H10Q30 89 59 81T120 73Q165 73 191 83T230 112Q244 132 247 160T251 226V650H97V727H348V189ZM396 815H318L228 940L138 815H62L174 1000H285L396 815Z"  />
<glyph unicode="&#x135;" horiz-adv-x="282" d="M215 -16Q215 -110 165 -158T27 -207Q12 -207 -6 -206T-44 -201V-119H-39Q-28 -121 -15 -123T10 -125Q83 -125 105 -88Q116 -70 120 -44T124 22V469H25V545H215V-16ZM281 633H207L134 764L62 633H-10L80 818H191L281 633Z"  />
<glyph unicode="&#x136;" horiz-adv-x="588" d="M604 0H478L213 338L170 291V0H74V727H170V393L468 727H586L285 402L604 0ZM218 -207L285 -75H403L286 -207H218Z"  />
<glyph unicode="&#x137;" horiz-adv-x="498" d="M519 0H398L194 263L158 228V0H66V760H158V315L374 545H488L264 317L519 0ZM169 -207L236 -75H354L237 -207H169Z"  />
<glyph unicode="&#x138;" horiz-adv-x="498" d="M519 0H398L194 263L158 228V0H66V545H158V315L374 545H488L264 317L519 0Z"  />
<glyph unicode="&#x139;" horiz-adv-x="498" d="M495 0H74V727H170V86H495V0ZM337 1000L204 818H131L219 1000H337Z"  />
<glyph unicode="&#x13A;" horiz-adv-x="229" d="M160 0H68V760H160V0ZM261 1000L128 818H55L143 1000H261Z"  />
<glyph unicode="&#x13B;" horiz-adv-x="498" d="M495 0H74V727H170V86H495V0ZM189 -207L256 -75H374L257 -207H189Z"  />
<glyph unicode="&#x13C;" horiz-adv-x="229" d="M160 0H68V760H160V0ZM32 -207L99 -75H217L100 -207H32Z"  />
<glyph unicode="&#x13D;" horiz-adv-x="498" d="M495 0H74V727H170V86H495V0ZM464 760L347 513H285L354 760H464Z"  />
<glyph unicode="&#x13E;" horiz-adv-x="361" d="M160 0H68V760H160V0ZM393 760L276 513H214L283 760H393Z"  />
<glyph unicode="&#x13F;" horiz-adv-x="498" d="M495 0H74V727H170V86H495V0ZM428 253H314V384H428V253Z"  />
<glyph unicode="&#x140;" horiz-adv-x="445" d="M160 0H68V760H160V0ZM394 254H281V383H394V254Z"  />
<glyph unicode="&#x141;" horiz-adv-x="518" d="M515 0H94V265L12 198V276L94 342V727H190V412L350 543V464L190 335V86H515V0Z"  />
<glyph unicode="&#x142;" horiz-adv-x="274" d="M264 417L183 354V0H91V288L12 222V300L91 363V760H183V430L264 495V417Z"  />
<glyph unicode="&#x143;" horiz-adv-x="667" d="M594 0H485L164 627V0H74V727H211L503 151V727H594V0ZM482 1000L349 818H276L364 1000H482Z"  />
<glyph unicode="&#x144;" horiz-adv-x="558" d="M495 0H403V311Q403 348 400 380T386 433Q375 453 355 463T300 473Q266 473 230 455T158 407V0H66V545H158V485Q200 521 239 541T324 561Q405 561 450 509T495 354V0ZM425 818L292 636H219L307 818H425Z"  />
<glyph unicode="&#x145;" horiz-adv-x="667" d="M594 0H485L164 627V0H74V727H211L503 151V727H594V0ZM218 -207L285 -75H403L286 -207H218Z"  />
<glyph unicode="&#x146;" horiz-adv-x="558" d="M495 0H403V311Q403 348 400 380T386 433Q375 453 355 463T300 473Q266 473 230 455T158 407V0H66V545H158V485Q200 521 239 541T324 561Q405 561 450 509T495 354V0ZM169 -207L236 -75H354L237 -207H169Z"  />
<glyph unicode="&#x147;" horiz-adv-x="667" d="M594 0H485L164 627V0H74V727H211L503 151V727H594V0ZM509 1000L398 815H287L175 1000H253L343 875L433 1000H509Z"  />
<glyph unicode="&#x148;" horiz-adv-x="558" d="M495 0H403V311Q403 348 400 380T386 433Q375 453 355 463T300 473Q266 473 230 455T158 407V0H66V545H158V485Q200 521 239 541T324 561Q405 561 450 509T495 354V0ZM452 818L341 633H230L118 818H196L286 693L376 818H452Z"  />
<glyph unicode="&#x149;" horiz-adv-x="692" d="M630 0H538V311Q538 348 535 380T521 433Q509 453 489 463T435 473Q400 473 364 455T293 407V0H201V545H293V485Q335 521 374 541T458 561Q539 561 584 509T630 354V0ZM211 760L83 487H16L93 760H211Z"  />
<glyph unicode="&#x14A;" horiz-adv-x="667" d="M164 627V0H74V727H211L503 181V727H594V-13Q594 -107 544 -157T406 -207Q391 -207 373 -206T335 -201V-119H341Q352 -121 364 -123T389 -125Q423 -125 445 -118T481 -95T499 -58T504 -5L164 627Z"  />
<glyph unicode="&#x14B;" horiz-adv-x="558" d="M495 -16Q495 -110 446 -158T308 -207Q292 -207 274 -206T237 -201V-119H242Q253 -121 265 -123T290 -125Q364 -125 386 -88Q396 -70 399 -44T403 24V311Q403 348 400 380T386 433Q375 453 355 463T300 473Q266 473 230 455T158 407V0H66V545H158V485Q200 521 239 541T324 561Q405 561 450 509T495 354V-16Z"  />
<glyph unicode="&#x14C;" horiz-adv-x="708" d="M588 644Q630 596 652 525T675 363Q675 275 653 204T588 84Q543 33 485 9T354 -15Q206 -15 119 84Q77 132 55 202T32 363Q32 456 55 524T120 644Q206 742 354 742Q429 742 487 716T588 644ZM575 363Q575 436 559 491T515 583Q457 659 354 659Q300 659 262 641T192 583Q164 546 149 491T133 363Q133 219 192 144T354 68Q456 68 515 143T575 363ZM538 829H170V904H538V829Z"  />
<glyph unicode="&#x14D;" horiz-adv-x="543" d="M515 272Q515 134 448 60Q382 -15 272 -15Q158 -15 93 62Q28 141 28 272Q28 409 95 485Q162 561 272 561Q382 561 448 485Q515 411 515 272ZM420 272Q420 378 382 429T272 481Q200 481 162 430T123 272Q123 169 161 117T272 64Q344 64 382 115T420 272ZM456 652H88V727H456V652Z"  />
<glyph unicode="&#x14E;" horiz-adv-x="708" d="M588 644Q630 596 652 525T675 363Q675 275 653 204T588 84Q543 33 485 9T354 -15Q206 -15 119 84Q77 132 55 202T32 363Q32 456 55 524T120 644Q206 742 354 742Q429 742 487 716T588 644ZM575 363Q575 436 559 491T515 583Q457 659 354 659Q300 659 262 641T192 583Q164 546 149 491T133 363Q133 219 192 144T354 68Q456 68 515 143T575 363ZM514 981Q514 895 475 847Q453 821 426 808T353 795Q313 795 283 808T233 847Q192 896 192 981H271Q271 915 291 886T353 857Q392 857 413 885T435 981H514Z"  />
<glyph unicode="&#x14F;" horiz-adv-x="543" d="M515 272Q515 134 448 60Q382 -15 272 -15Q158 -15 93 62Q28 141 28 272Q28 409 95 485Q162 561 272 561Q382 561 448 485Q515 411 515 272ZM420 272Q420 378 382 429T272 481Q200 481 162 430T123 272Q123 169 161 117T272 64Q344 64 382 115T420 272ZM432 799Q432 713 393 665Q371 639 344 626T271 613Q231 613 201 626T151 665Q110 714 110 799H189Q189 733 209 704T271 675Q310 675 331 703T353 799H432Z"  />
<glyph unicode="&#x150;" horiz-adv-x="708" d="M588 644Q630 596 652 525T675 363Q675 275 653 204T588 84Q543 33 485 9T354 -15Q206 -15 119 84Q77 132 55 202T32 363Q32 456 55 524T120 644Q206 742 354 742Q429 742 487 716T588 644ZM575 363Q575 436 559 491T515 583Q457 659 354 659Q300 659 262 641T192 583Q164 546 149 491T133 363Q133 219 192 144T354 68Q456 68 515 143T575 363ZM586 1000L460 818H392L475 1000H586ZM389 1000L263 818H195L278 1000H389Z"  />
<glyph unicode="&#x151;" horiz-adv-x="543" d="M515 272Q515 134 448 60Q382 -15 272 -15Q158 -15 93 62Q28 141 28 272Q28 409 95 485Q162 561 272 561Q382 561 448 485Q515 411 515 272ZM420 272Q420 378 382 429T272 481Q200 481 162 430T123 272Q123 169 161 117T272 64Q344 64 382 115T420 272ZM507 818L381 636H313L396 818H507ZM310 818L184 636H116L199 818H310Z"  />
<glyph unicode="&#x152;" horiz-adv-x="977" d="M943 0H440Q350 0 290 12T180 58Q108 104 70 181T32 364Q32 467 73 545T181 668Q226 699 283 712Q341 727 439 727H943V641H590V442H919V356H590V86H943V0ZM494 83V644H436Q364 644 318 633T234 596Q133 528 133 363Q133 193 243 127Q284 103 328 93T435 83H494Z"  />
<glyph unicode="&#x153;" horiz-adv-x="909" d="M793 333Q792 485 660 485Q597 485 555 445T507 333H793ZM418 272Q418 378 380 429T271 481Q198 481 161 428T123 272Q123 169 161 117T271 64Q341 64 379 116T418 272ZM685 67Q715 67 744 74T797 92Q822 103 839 113T867 133H873V33Q856 27 833 18T790 2Q763 -5 741 -9T686 -13Q614 -13 557 13T465 87Q432 36 385 11T271 -15Q158 -15 93 62Q28 139 28 272Q28 407 94 484Q160 561 271 561Q334 561 385 534T467 458Q500 507 551 534T666 561Q772 561 827 496T883 313V263H507Q507 169 554 118T685 67Z"  />
<glyph unicode="&#x154;" horiz-adv-x="621" d="M637 0H511L281 289H170V0H74V727H261Q324 727 366 720T446 688Q484 664 506 626T529 530Q529 449 489 396T378 316L637 0ZM428 522Q428 589 382 619Q361 633 335 638T266 644H170V370H255Q297 370 330 377T387 407Q428 448 428 522ZM435 1000L302 818H229L317 1000H435Z"  />
<glyph unicode="&#x155;" horiz-adv-x="360" d="M355 447H351Q340 450 329 450T301 451Q264 451 228 435T158 387V0H66V545H158V464Q208 509 245 527T318 545Q333 545 340 545T355 542V447ZM339 818L206 636H133L221 818H339Z"  />
<glyph unicode="&#x156;" horiz-adv-x="621" d="M637 0H511L281 289H170V0H74V727H261Q324 727 366 720T446 688Q484 664 506 626T529 530Q529 449 489 396T378 316L637 0ZM428 522Q428 589 382 619Q361 633 335 638T266 644H170V370H255Q297 370 330 377T387 407Q428 448 428 522ZM218 -207L285 -75H403L286 -207H218Z"  />
<glyph unicode="&#x157;" horiz-adv-x="360" d="M355 447H351Q340 450 329 450T301 451Q264 451 228 435T158 387V0H66V545H158V464Q208 509 245 527T318 545Q333 545 340 545T355 542V447ZM52 -207L119 -75H237L120 -207H52Z"  />
<glyph unicode="&#x158;" horiz-adv-x="621" d="M637 0H511L281 289H170V0H74V727H261Q324 727 366 720T446 688Q484 664 506 626T529 530Q529 449 489 396T378 316L637 0ZM428 522Q428 589 382 619Q361 633 335 638T266 644H170V370H255Q297 370 330 377T387 407Q428 448 428 522ZM462 1000L351 815H240L128 1000H206L296 875L386 1000H462Z"  />
<glyph unicode="&#x159;" horiz-adv-x="360" d="M355 447H351Q340 450 329 450T301 451Q264 451 228 435T158 387V0H66V545H158V464Q208 509 245 527T318 545Q333 545 340 545T355 542V447ZM360 818L249 633H138L26 818H104L194 693L284 818H360Z"  />
<glyph unicode="&#x15A;" horiz-adv-x="557" d="M276 -13Q197 -13 142 3T38 43V165H44Q92 120 152 95T270 70Q351 70 391 103T432 192Q432 235 411 262T342 303Q325 308 310 312T280 319T248 327T210 336Q173 346 143 361T90 401Q68 425 56 457T43 532Q43 621 112 680Q181 740 288 740Q412 740 504 693V578H497Q462 609 408 633T294 657Q227 657 186 626T144 542Q144 453 239 429Q255 424 273 419T314 409L388 391Q463 368 497 322T532 207Q532 165 515 124T466 53Q431 21 387 4T276 -13ZM425 1000L292 818H219L307 1000H425Z"  />
<glyph unicode="&#x15B;" horiz-adv-x="446" d="M214 -13Q159 -13 112 1T33 33V136H38Q49 126 65 115T107 92Q131 81 159 73T217 64Q239 64 264 69T301 83Q318 94 325 106T333 145Q333 177 316 193T252 222Q235 226 207 232T154 245Q91 263 63 300T35 392Q35 466 90 512Q146 559 239 559Q284 559 330 548T407 519V421H402Q367 449 325 465T237 481Q191 481 160 462T129 404Q129 370 147 353T207 326Q228 320 253 315T306 303Q366 288 396 253T427 157Q427 122 413 91T373 37Q343 12 307 0T214 -13ZM361 818L228 636H155L243 818H361Z"  />
<glyph unicode="&#x15C;" horiz-adv-x="557" d="M276 -13Q197 -13 142 3T38 43V165H44Q92 120 152 95T270 70Q351 70 391 103T432 192Q432 235 411 262T342 303Q325 308 310 312T280 319T248 327T210 336Q173 346 143 361T90 401Q68 425 56 457T43 532Q43 621 112 680Q181 740 288 740Q412 740 504 693V578H497Q462 609 408 633T294 657Q227 657 186 626T144 542Q144 453 239 429Q255 424 273 419T314 409L388 391Q463 368 497 322T532 207Q532 165 515 124T466 53Q431 21 387 4T276 -13ZM455 815H377L287 940L197 815H121L233 1000H344L455 815Z"  />
<glyph unicode="&#x15D;" horiz-adv-x="446" d="M214 -13Q159 -13 112 1T33 33V136H38Q49 126 65 115T107 92Q131 81 159 73T217 64Q239 64 264 69T301 83Q318 94 325 106T333 145Q333 177 316 193T252 222Q235 226 207 232T154 245Q91 263 63 300T35 392Q35 466 90 512Q146 559 239 559Q284 559 330 548T407 519V421H402Q367 449 325 465T237 481Q191 481 160 462T129 404Q129 370 147 353T207 326Q228 320 253 315T306 303Q366 288 396 253T427 157Q427 122 413 91T373 37Q343 12 307 0T214 -13ZM403 633H325L235 758L145 633H69L181 818H292L403 633Z"  />
<glyph unicode="&#x15E;" horiz-adv-x="557" d="M276 -13Q197 -13 142 3T38 43V165H44Q92 120 152 95T270 70Q351 70 391 103T432 192Q432 235 411 262T342 303Q325 308 310 312T280 319T248 327T210 336Q173 346 143 361T90 401Q68 425 56 457T43 532Q43 621 112 680Q181 740 288 740Q412 740 504 693V578H497Q462 609 408 633T294 657Q227 657 186 626T144 542Q144 453 239 429Q255 424 273 419T314 409L388 391Q463 368 497 322T532 207Q532 165 515 124T466 53Q447 36 428 24T382 3Q382 -4 383 -16T384 -43Q384 -83 373 -113T341 -165T294 -196T233 -207Q215 -207 191 -204T147 -195V-117H151Q163 -122 182 -127T221 -133Q267 -133 288 -114T310 -52Q310 -43 310 -33T309 -11Q300 -12 293 -12T276 -13Z"  />
<glyph unicode="&#x15F;" horiz-adv-x="446" d="M214 -13Q159 -13 112 1T33 33V136H38Q49 126 65 115T107 92Q131 81 159 73T217 64Q239 64 264 69T301 83Q318 94 325 106T333 145Q333 177 316 193T252 222Q235 226 207 232T154 245Q91 263 63 300T35 392Q35 466 90 512Q146 559 239 559Q284 559 330 548T407 519V421H402Q367 449 325 465T237 481Q191 481 160 462T129 404Q129 370 147 353T207 326Q228 320 253 315T306 303Q366 288 396 253T427 157Q427 122 413 91T373 37Q361 27 351 21T326 8Q327 -1 328 -14T329 -43Q329 -83 318 -113T286 -165T239 -196T178 -207Q160 -207 136 -204T92 -195V-117H96Q108 -122 127 -127T166 -133Q211 -133 232 -114T254 -52Q254 -43 254 -33T253 -11Q243 -12 235 -12T214 -13Z"  />
<glyph unicode="&#x160;" horiz-adv-x="557" d="M276 -13Q197 -13 142 3T38 43V165H44Q92 120 152 95T270 70Q351 70 391 103T432 192Q432 235 411 262T342 303Q325 308 310 312T280 319T248 327T210 336Q173 346 143 361T90 401Q68 425 56 457T43 532Q43 621 112 680Q181 740 288 740Q412 740 504 693V578H497Q462 609 408 633T294 657Q227 657 186 626T144 542Q144 453 239 429Q255 424 273 419T314 409L388 391Q463 368 497 322T532 207Q532 165 515 124T466 53Q431 21 387 4T276 -13ZM454 1000L343 815H232L120 1000H198L288 875L378 1000H454Z"  />
<glyph unicode="&#x161;" horiz-adv-x="446" d="M214 -13Q159 -13 112 1T33 33V136H38Q49 126 65 115T107 92Q131 81 159 73T217 64Q239 64 264 69T301 83Q318 94 325 106T333 145Q333 177 316 193T252 222Q235 226 207 232T154 245Q91 263 63 300T35 392Q35 466 90 512Q146 559 239 559Q284 559 330 548T407 519V421H402Q367 449 325 465T237 481Q191 481 160 462T129 404Q129 370 147 353T207 326Q228 320 253 315T306 303Q366 288 396 253T427 157Q427 122 413 91T373 37Q343 12 307 0T214 -13ZM398 818L287 633H176L64 818H142L232 693L322 818H398Z"  />
<glyph unicode="&#x162;" horiz-adv-x="584" d="M244 0V641H0V727H584V641H340V10H401Q402 1 403 -12T404 -43Q404 -83 393 -113T362 -165T315 -196T254 -207Q236 -207 212 -204T168 -195V-117H172Q184 -122 203 -127T242 -133Q288 -133 308 -114T328 -52Q328 -42 328 -30T326 0H244Z"  />
<glyph unicode="&#x163;" horiz-adv-x="334" d="M228 -10Q153 -9 113 33T72 167V469H10V545H72V702H164V545H333V469H164V210Q164 168 165 146T177 104Q185 87 203 79T254 70Q276 70 297 76T328 87H333V5Q327 3 318 1T299 -3Q300 -10 300 -20T301 -43Q301 -83 290 -113T259 -165T212 -196T151 -207Q133 -207 109 -204T65 -195V-117H69Q81 -122 100 -127T139 -133Q185 -133 207 -114T229 -52Q229 -43 229 -33T228 -10Z"  />
<glyph unicode="&#x164;" horiz-adv-x="584" d="M244 0V641H0V727H584V641H340V0H244ZM459 1000L348 815H237L125 1000H203L293 875L383 1000H459Z"  />
<glyph unicode="&#x165;" horiz-adv-x="468" d="M231 -11Q156 -11 114 31T72 167V469H10V545H72V702H164V545H307V469H164V210Q164 168 165 146T177 104Q185 87 203 79T254 70Q276 70 297 76T328 87H333V5Q307 -2 281 -6T231 -11ZM500 760L383 513H321L391 760H500Z"  />
<glyph unicode="&#x166;" horiz-adv-x="584" d="M584 641H340V431H495V361H340V0H244V361H89V431H244V641H0V727H584V641Z"  />
<glyph unicode="&#x167;" horiz-adv-x="339" d="M236 -11Q161 -11 119 31T77 167V260H15V326H77V469H15V545H77V702H169V545H338V469H169V326H301V260H169V210Q169 168 170 146T182 104Q190 87 208 79T259 70Q281 70 302 76T333 87H338V5Q312 -2 286 -6T236 -11Z"  />
<glyph unicode="&#x168;" horiz-adv-x="656" d="M328 -15Q203 -15 134 52Q96 90 81 142T65 273V727H162V273Q162 222 168 188T193 127Q231 67 328 67Q373 67 408 82T463 127Q481 155 487 188T494 271V727H591V273Q591 198 576 144T521 52Q487 18 441 2T328 -15ZM523 974Q518 898 487 860T403 822Q377 822 356 831T314 860Q292 880 277 890T246 901Q222 901 213 879T201 820H133Q136 895 169 933T252 971Q277 971 298 962T340 934Q361 915 378 905T409 895Q432 895 442 917T454 974H523Z"  />
<glyph unicode="&#x169;" horiz-adv-x="558" d="M491 0H399V61Q357 23 320 4T234 -15Q198 -15 167 -4T112 34Q88 59 75 97T62 191V545H154V235Q154 190 157 162T172 113Q183 92 202 82T258 72Q292 72 330 91T399 138V545H491V0ZM472 797Q467 721 436 683T352 645Q326 645 305 654T263 683Q241 703 226 713T195 724Q171 724 162 702T150 643H82Q85 718 118 756T201 794Q226 794 247 785T289 757Q310 738 327 728T358 718Q381 718 391 740T403 797H472Z"  />
<glyph unicode="&#x16A;" horiz-adv-x="656" d="M328 -15Q203 -15 134 52Q96 90 81 142T65 273V727H162V273Q162 222 168 188T193 127Q231 67 328 67Q373 67 408 82T463 127Q481 155 487 188T494 271V727H591V273Q591 198 576 144T521 52Q487 18 441 2T328 -15ZM512 829H144V904H512V829Z"  />
<glyph unicode="&#x16B;" horiz-adv-x="558" d="M491 0H399V61Q357 23 320 4T234 -15Q198 -15 167 -4T112 34Q88 59 75 97T62 191V545H154V235Q154 190 157 162T172 113Q183 92 202 82T258 72Q292 72 330 91T399 138V545H491V0ZM463 652H95V727H463V652Z"  />
<glyph unicode="&#x16C;" horiz-adv-x="656" d="M328 -15Q203 -15 134 52Q96 90 81 142T65 273V727H162V273Q162 222 168 188T193 127Q231 67 328 67Q373 67 408 82T463 127Q481 155 487 188T494 271V727H591V273Q591 198 576 144T521 52Q487 18 441 2T328 -15ZM488 981Q488 895 449 847Q427 821 400 808T327 795Q287 795 257 808T207 847Q166 896 166 981H245Q245 915 265 886T327 857Q366 857 387 885T409 981H488Z"  />
<glyph unicode="&#x16D;" horiz-adv-x="558" d="M491 0H399V61Q357 23 320 4T234 -15Q198 -15 167 -4T112 34Q88 59 75 97T62 191V545H154V235Q154 190 157 162T172 113Q183 92 202 82T258 72Q292 72 330 91T399 138V545H491V0ZM439 799Q439 713 400 665Q378 639 351 626T278 613Q238 613 208 626T158 665Q117 714 117 799H196Q196 733 216 704T278 675Q317 675 338 703T360 799H439Z"  />
<glyph unicode="&#x16E;" horiz-adv-x="656" d="M328 -15Q203 -15 134 52Q96 90 81 142T65 273V727H162V273Q162 222 168 188T193 127Q231 67 328 67Q373 67 408 82T463 127Q481 155 487 188T494 271V727H591V273Q591 198 576 144T521 52Q487 18 441 2T328 -15ZM477 865Q477 802 434 760Q390 718 328 718Q265 718 222 760Q179 802 179 865Q179 927 222 969Q265 1012 328 1012Q390 1012 434 970Q477 928 477 865ZM406 864Q406 900 384 924T328 949Q294 949 272 925T250 864Q250 829 272 805T328 781Q362 781 384 805T406 864Z"  />
<glyph unicode="&#x16F;" horiz-adv-x="558" d="M491 0H399V61Q357 23 320 4T234 -15Q198 -15 167 -4T112 34Q88 59 75 97T62 191V545H154V235Q154 190 157 162T172 113Q183 92 202 82T258 72Q292 72 330 91T399 138V545H491V0ZM428 694Q428 631 385 589Q341 547 279 547Q216 547 173 589Q130 631 130 694Q130 756 173 798Q216 841 279 841Q341 841 385 799Q428 757 428 694ZM357 693Q357 729 335 753T279 778Q245 778 223 754T201 693Q201 658 223 634T279 610Q313 610 335 634T357 693Z"  />
<glyph unicode="&#x170;" horiz-adv-x="656" d="M328 -15Q203 -15 134 52Q96 90 81 142T65 273V727H162V273Q162 222 168 188T193 127Q231 67 328 67Q373 67 408 82T463 127Q481 155 487 188T494 271V727H591V273Q591 198 576 144T521 52Q487 18 441 2T328 -15ZM568 1000L442 818H374L457 1000H568ZM371 1000L245 818H177L260 1000H371Z"  />
<glyph unicode="&#x171;" horiz-adv-x="558" d="M491 0H399V61Q357 23 320 4T234 -15Q198 -15 167 -4T112 34Q88 59 75 97T62 191V545H154V235Q154 190 157 162T172 113Q183 92 202 82T258 72Q292 72 330 91T399 138V545H491V0ZM513 818L387 636H319L402 818H513ZM316 818L190 636H122L205 818H316Z"  />
<glyph unicode="&#x172;" horiz-adv-x="656" d="M328 -15Q203 -15 134 52Q96 90 81 142T65 273V727H162V273Q162 222 168 188T193 127Q231 67 328 67Q373 67 408 82T463 127Q481 155 487 188T494 271V727H591V273Q591 198 576 144T521 52Q485 16 436 0H437Q415 -18 399 -44T383 -93Q383 -109 392 -119T420 -129Q440 -129 454 -122H459V-190Q445 -196 430 -199T401 -202Q356 -202 332 -179T308 -116Q308 -89 320 -62T350 -14Q345 -15 339 -15T328 -15Z"  />
<glyph unicode="&#x173;" horiz-adv-x="558" d="M399 0V61Q357 23 320 4T234 -15Q198 -15 167 -4T112 34Q88 59 75 97T62 191V545H154V235Q154 190 157 162T172 113Q183 92 202 82T258 72Q292 72 330 91T399 138V545H491V0H482Q460 -18 444 -44T428 -93Q428 -109 437 -119T465 -129Q485 -129 499 -122H504V-190Q490 -196 475 -199T446 -202Q401 -202 377 -179T353 -116Q353 -84 370 -53T409 0H399Z"  />
<glyph unicode="&#x174;" horiz-adv-x="902" d="M889 727L707 0H598L450 604L305 0H199L13 727H112L258 123L404 727H502L649 117L794 727H889ZM621 815H543L453 940L363 815H287L399 1000H510L621 815Z"  />
<glyph unicode="&#x175;" horiz-adv-x="742" d="M728 545L589 0H504L371 420L239 0H154L15 545H110L207 123L336 545H412L544 123L635 545H728ZM542 633H464L374 758L284 633H208L320 818H431L542 633Z"  />
<glyph unicode="&#x176;" horiz-adv-x="576" d="M583 727L337 322V0H240V312L-5 727H102L290 406L480 727H583ZM457 815H379L289 940L199 815H123L235 1000H346L457 815Z"  />
<glyph unicode="&#x177;" horiz-adv-x="498" d="M495 545L202 -201H104L201 26L3 545H102L251 142L399 545H495ZM419 633H341L251 758L161 633H85L197 818H308L419 633Z"  />
<glyph unicode="&#x178;" horiz-adv-x="576" d="M583 727L337 322V0H240V312L-5 727H102L290 406L480 727H583ZM439 819H341V914H439V819ZM238 819H140V914H238V819Z"  />
<glyph unicode="&#x179;" horiz-adv-x="559" d="M537 0H29V90L418 641H47V727H527V640L134 86H537V0ZM425 1000L292 818H219L307 1000H425Z"  />
<glyph unicode="&#x17A;" horiz-adv-x="444" d="M425 0H24V68L309 470H36V545H419V480L133 77H425V0ZM359 818L226 636H153L241 818H359Z"  />
<glyph unicode="&#x17B;" horiz-adv-x="559" d="M537 0H29V90L418 641H47V727H527V640L134 86H537V0ZM335 819H231V914H335V819Z"  />
<glyph unicode="&#x17C;" horiz-adv-x="444" d="M425 0H24V68L309 470H36V545H419V480L133 77H425V0ZM271 637H167V732H271V637Z"  />
<glyph unicode="&#x17D;" horiz-adv-x="559" d="M537 0H29V90L418 641H47V727H527V640L134 86H537V0ZM444 1000L333 815H222L110 1000H188L278 875L368 1000H444Z"  />
<glyph unicode="&#x17E;" horiz-adv-x="444" d="M425 0H24V68L309 470H36V545H419V480L133 77H425V0ZM391 818L280 633H169L57 818H135L225 693L315 818H391Z"  />
<glyph unicode="&#x17F;" horiz-adv-x="254" d="M346 672H341Q329 676 306 680T265 685Q208 685 184 658T160 567V0H68V562Q68 665 117 715T251 765Q277 765 301 762T346 756V672Z"  />
<glyph unicode="&#x180;" horiz-adv-x="553" d="M524 282Q524 164 470 82Q407 -15 296 -15Q225 -15 158 25L152 0H66V619H5V685H66V760H158V685H305V619H158V488Q237 561 325 561Q429 561 482 469Q524 395 524 282ZM429 274Q429 473 304 473Q231 473 158 411V99Q224 67 279 67Q429 67 429 274Z"  />
<glyph unicode="&#x181;" horiz-adv-x="677" d="M655 223Q655 170 636 129T579 59T489 15T370 0H162V645Q78 645 78 595Q78 553 95 521V517H12Q0 560 0 599Q0 663 42 695T162 727H354Q426 727 452 724Q505 720 545 698Q621 658 621 563Q621 457 519 408V404Q655 367 655 223ZM520 549Q520 604 483 625Q448 645 351 645H258V432H368Q441 432 479 456Q520 482 520 549ZM554 219Q554 261 543 286Q530 314 495 332Q460 351 368 351H258V83H337Q457 83 501 113Q554 151 554 219Z"  />
<glyph unicode="&#x182;" horiz-adv-x="589" d="M569 225Q569 171 549 129T493 60Q452 27 405 14T284 0H74V727H517V641H170V442H287Q324 442 353 441T408 434T454 419T497 393Q534 364 551 322T569 225ZM468 223Q468 260 456 287T418 333Q404 342 390 347T356 354T313 357T257 358H170V83H254Q287 83 311 84T354 89T387 98T416 113Q443 132 455 158T468 223Z"  />
<glyph unicode="&#x183;" horiz-adv-x="553" d="M524 282Q524 164 470 82Q407 -15 296 -15Q225 -15 158 25L152 0H66V760H429V679H158V488Q237 561 325 561Q429 561 482 469Q524 395 524 282ZM429 274Q429 473 304 473Q231 473 158 411V99Q224 67 279 67Q429 67 429 274Z"  />
<glyph unicode="&#x184;" horiz-adv-x="583" d="M564 225Q564 172 545 131T488 60T398 16T279 0H74V498L0 578V594L154 727H170V442H282Q356 442 392 436Q448 426 492 393Q564 336 564 225ZM463 223Q463 298 413 333Q386 351 335 356Q326 357 305 357T252 358H170V83H250Q366 83 411 113Q463 149 463 223Z"  />
<glyph unicode="&#x185;" horiz-adv-x="553" d="M524 282Q524 164 470 82Q407 -15 296 -15Q225 -15 158 25L152 0H66V561L0 631V647L142 760H158V488Q237 561 325 561Q429 561 482 469Q524 395 524 282ZM429 274Q429 473 304 473Q231 473 158 411V99Q224 67 279 67Q429 67 429 274Z"  />
<glyph unicode="&#x186;" horiz-adv-x="601" d="M584 364Q584 188 493 87Q405 -13 257 -13Q189 -13 129 6Q85 19 32 48V165H40Q109 102 182 79Q213 69 258 69Q355 69 418 145Q483 222 483 364Q483 505 416 584Q355 657 258 657Q181 657 117 621Q95 608 76 594T40 562H32V678L78 699Q126 723 188 735Q202 737 219 738T258 740Q404 740 493 645Q584 545 584 364Z"  />
<glyph unicode="&#x187;" horiz-adv-x="601" d="M728 731H724Q692 748 650 748Q584 748 584 667V562H576Q507 625 434 648Q403 658 358 658Q261 658 198 583Q133 504 133 363Q133 222 200 143Q261 70 358 70Q435 70 500 106Q543 131 577 165H584V49Q569 41 545 31T487 8Q422 -13 358 -13Q211 -13 124 82Q32 183 32 363Q32 539 123 640Q211 740 359 740Q444 740 522 708Q542 821 646 821Q686 821 728 809V731Z"  />
<glyph unicode="&#x188;" horiz-adv-x="461" d="M588 582H584Q552 599 511 599Q444 599 444 519V413H439Q410 437 376 454Q330 479 282 479Q201 479 159 413Q124 357 124 272Q124 187 159 131Q199 67 282 67Q369 67 439 134H444V31Q432 26 414 19T373 2Q322 -12 283 -12Q167 -12 100 58Q29 132 29 272Q29 405 100 484Q168 558 283 558Q334 558 382 542Q385 599 419 635T507 672Q546 672 588 660V582Z"  />
<glyph unicode="&#x189;" horiz-adv-x="698" d="M667 363Q667 263 627 183T519 58Q462 21 407 11Q378 6 342 3T261 0H94V361H12V431H94V727H259Q363 727 420 711Q480 696 520 669Q590 623 628 546T667 363ZM566 364Q566 534 456 600Q417 624 374 634T264 644H190V431H350V361H190V83H264Q330 83 377 93T465 131Q516 166 541 222T566 364Z"  />
<glyph unicode="&#x18A;" horiz-adv-x="766" d="M735 363Q735 270 699 191Q679 148 651 115T586 58Q498 0 329 0H162V644Q123 644 104 636Q78 625 78 595Q78 553 95 521V517H12Q0 560 0 599Q0 663 42 695T162 727H327Q501 727 587 669Q735 572 735 363ZM634 364Q634 532 524 600Q451 644 332 644H258V83H332Q462 83 533 131Q634 202 634 364Z"  />
<glyph unicode="&#x18B;" horiz-adv-x="589" d="M516 0H305Q172 0 97 59T21 225Q21 336 93 393Q137 426 192 436Q228 442 302 442H419V641H73V727H516V0ZM419 83V358H333Q301 358 280 358T250 356Q198 351 171 333Q122 299 122 223Q122 149 174 113Q217 83 335 83H419Z"  />
<glyph unicode="&#x18C;" horiz-adv-x="553" d="M486 0H395V56Q348 17 321 4Q280 -15 231 -15Q139 -15 85 58Q29 134 29 269Q29 378 77 455Q114 512 171 541Q213 561 259 561Q328 561 395 523V679H124V760H486V0ZM395 447Q333 477 274 477Q192 477 155 411Q124 358 124 271Q124 72 253 72Q325 72 395 133V447Z"  />
<glyph unicode="&#x18D;" horiz-adv-x="543" d="M515 285Q515 164 448 88Q392 25 289 5Q303 -6 324 -22T374 -60L455 -118V-205H76V-128H335V-123L254 -67Q237 -55 213 -36T154 11Q83 75 55 140Q28 200 28 277Q28 401 86 477Q150 561 271 561Q390 561 455 480Q515 406 515 285ZM420 282Q420 481 271 481Q123 481 123 277Q123 136 227 58Q302 67 354 111Q420 168 420 282Z"  />
<glyph unicode="&#x18E;" horiz-adv-x="561" d="M487 0H33V86H391V356H57V442H391V641H33V727H487V0Z"  />
<glyph unicode="&#x18F;" horiz-adv-x="708" d="M675 363Q675 184 588 84Q501 -15 354 -15Q205 -15 119 84Q76 135 54 203Q32 272 32 436H570Q558 528 515 583Q458 659 353 659Q233 659 150 588H143V695Q163 705 187 712T239 727Q303 742 353 742Q502 742 588 644Q675 543 675 363ZM133 348Q136 229 185 156Q243 68 354 68Q465 68 523 156Q572 229 575 348H133Z"  />
<glyph unicode="&#x190;" horiz-adv-x="533" d="M518 28Q419 -13 302 -13Q173 -13 100 53Q27 120 27 217Q27 301 83 351Q126 388 188 398V405Q127 418 88 460Q46 505 46 566Q46 652 120 700Q182 740 291 740Q404 740 494 698V591H487Q475 599 457 608T412 631Q352 656 293 656Q230 656 190 633Q146 607 146 556Q146 492 202 460Q246 435 317 435H383V354H307Q224 354 178 325Q127 292 127 222Q127 152 173 112Q219 71 304 71Q412 71 511 137H518V28Z"  />
<glyph unicode="&#x191;" horiz-adv-x="521" d="M509 641H170V436H495V350H170V0Q170 -105 118 -157Q68 -207 -24 -207Q-58 -207 -95 -201V-119H-89Q-62 -125 -42 -125Q-7 -125 15 -118T51 -95T69 -57T74 0V727H509V641Z"  />
<glyph unicode="&#x192;" horiz-adv-x="546" d="M531 645H526Q520 647 510 650T488 656T465 661T444 663Q417 663 398 656T365 634T343 592T330 529L315 432H458V364H307L272 115Q257 1 206 -49T66 -99Q47 -99 24 -97T-24 -90V-1H-19Q-5 -6 19 -13T63 -20Q90 -20 109 -13T142 10T164 51T177 114L212 364H125V432H221L234 528Q243 588 261 629T306 696Q331 720 367 731T441 742Q465 742 485 740T531 733V645Z"  />
<glyph unicode="&#x193;" horiz-adv-x="667" d="M761 731H756Q724 748 683 748Q617 748 617 667V561H608Q588 580 571 592Q563 598 550 605T517 623Q448 657 367 657Q252 657 189 566Q133 486 133 367Q133 225 199 146Q264 69 374 69Q468 69 524 93V281H356V366H620V48Q588 34 562 24T512 7Q438 -14 378 -14Q217 -14 127 81Q32 181 32 364Q32 537 127 641Q220 740 379 740Q445 740 514 720Q525 717 535 714T555 706Q576 821 679 821Q717 821 761 809V731Z"  />
<glyph unicode="&#x194;" horiz-adv-x="597" d="M603 727L348 139L399 17Q421 -34 421 -71Q421 -199 298 -199Q175 -199 175 -71Q175 -34 197 17L249 139L-6 727H97L298 254L500 727H603ZM332 -68Q332 -48 319 -21L298 26L278 -21Q265 -50 265 -68Q265 -106 298 -106Q332 -106 332 -68Z"  />
<glyph unicode="&#x195;" horiz-adv-x="895" d="M832 191Q832 107 772 47Q710 -15 618 -15Q527 -15 465 44Q403 104 403 190V311Q403 399 386 433Q364 473 300 473Q236 473 158 407V0H66V760H158V485Q243 561 324 561Q413 561 456 500Q495 446 495 354V235Q495 159 518 121Q546 72 618 72Q688 72 718 121Q740 158 740 235V545H832V191Z"  />
<glyph unicode="&#x196;" horiz-adv-x="229" d="M160 0H68V760H160V0Z"  />
<glyph unicode="&#x197;" horiz-adv-x="373" d="M361 361H235V74H328V0H45V74H138V361H12V431H138V653H45V727H328V653H235V431H361V361Z"  />
<glyph unicode="&#x198;" horiz-adv-x="588" d="M74 588Q74 765 218 765Q238 765 288 756V672H283Q250 685 231 685Q199 685 186 664Q170 642 170 588V393L468 727H586L282 405L604 0H478L215 337L170 291V0H74V588Z"  />
<glyph unicode="&#x199;" horiz-adv-x="498" d="M519 0H398L194 263L158 228V0H66V563Q66 765 250 765Q291 765 344 756V672H339Q306 685 263 685Q200 685 178 654Q158 628 158 564V315L374 545H488L264 317L519 0Z"  />
<glyph unicode="&#x19A;" horiz-adv-x="274" d="M263 354H183V0H91V354H11V432H91V760H183V432H263V354Z"  />
<glyph unicode="&#x19B;" horiz-adv-x="498" d="M495 0H396L252 405L98 0H2L207 515L171 604L25 515L5 568L150 657L109 760H209L229 706L317 760L338 705L250 651L495 0Z"  />
<glyph unicode="&#x19C;" horiz-adv-x="863" d="M790 0H693V61Q617 -15 543 -15Q437 -15 401 79Q316 -15 234 -15Q160 -15 120 31Q74 83 74 187V727H170V230Q170 139 186 110Q206 72 257 72Q314 72 385 140Q384 157 384 168T383 187V727H480V230Q480 140 495 110Q515 72 567 72Q622 72 693 138V727H790V0Z"  />
<glyph unicode="&#x19D;" horiz-adv-x="667" d="M594 0H485L164 627V0Q164 -111 118 -157Q68 -207 -24 -207Q-58 -207 -95 -201V-119H-89Q-62 -125 -42 -125Q-7 -125 15 -118T51 -95T69 -57T74 0V727H211L503 151V727H594V0Z"  />
<glyph unicode="&#x19E;" horiz-adv-x="558" d="M495 -201H403V311Q403 348 400 380T386 433Q375 453 355 463T300 473Q266 473 230 455T158 407V0H66V545H158V485Q200 521 239 541T324 561Q405 561 450 509T495 354V-201Z"  />
<glyph unicode="&#x19F;" horiz-adv-x="708" d="M675 363Q675 184 588 84Q501 -15 354 -15Q205 -15 118 85Q32 186 32 363Q32 543 120 644Q204 742 354 742Q502 742 588 644Q675 543 675 363ZM570 436Q558 528 515 583Q457 659 354 659Q250 659 192 583Q149 530 137 436H570ZM133 348Q136 229 185 156Q243 68 354 68Q465 68 523 156Q572 229 575 348H133Z"  />
<glyph unicode="&#x1A0;" horiz-adv-x="751" d="M648 536Q662 498 668 455T675 363Q675 275 653 204T588 84Q543 33 485 9T354 -15Q206 -15 119 84Q77 132 55 202T32 363Q32 456 55 524T120 644Q206 742 354 742Q429 742 487 716T588 644Q597 633 605 622T620 598Q658 600 674 615T691 665Q691 682 686 704T674 738V742H752Q759 719 761 702T764 661Q764 553 648 536ZM575 363Q575 436 559 491T515 583Q457 659 354 659Q300 659 262 641T192 583Q164 546 149 491T133 363Q133 219 192 144T354 68Q456 68 515 143T575 363Z"  />
<glyph unicode="&#x1A1;" horiz-adv-x="562" d="M515 272Q515 134 448 60Q382 -15 272 -15Q158 -15 93 62Q28 141 28 272Q28 409 95 485Q162 561 272 561Q321 561 362 545H405Q450 545 467 561T485 612Q485 629 480 651T469 685V689H547Q553 667 556 650T559 608Q559 556 531 525T450 484Q481 447 498 394T515 272ZM420 272Q420 378 382 429T272 481Q200 481 162 430T123 272Q123 169 161 117T272 64Q344 64 382 115T420 272Z"  />
<glyph unicode="&#x1A2;" horiz-adv-x="912" d="M866 -201H584V-127H677V604H584V49Q569 41 545 31T487 8Q422 -13 358 -13Q211 -13 124 82Q32 183 32 363Q32 539 123 640Q211 740 359 740Q427 740 487 721Q515 713 536 703Q544 699 556 694T584 680L759 727H773V-127H866V-201ZM492 625Q430 658 358 658Q261 658 198 583Q133 504 133 363Q133 222 200 143Q261 70 358 70Q430 70 492 103V625Z"  />
<glyph unicode="&#x1A3;" horiz-adv-x="690" d="M628 -201H536V464H444V31Q432 26 414 19T373 2Q322 -12 283 -12Q167 -12 100 58Q29 132 29 272Q29 405 100 484Q168 558 283 558Q359 558 443 517L616 545H628V-201ZM353 464Q314 479 282 479Q201 479 159 413Q124 357 124 272Q124 187 159 131Q199 67 282 67Q320 67 353 80V464Z"  />
<glyph unicode="&#x1A4;" horiz-adv-x="639" d="M621 508Q621 409 557 346Q480 271 340 271H258V0H162V644Q123 644 104 636Q78 625 78 595Q78 553 95 521V517H12Q0 560 0 599Q0 663 42 695T162 727H344Q468 727 534 682Q621 622 621 508ZM520 505Q520 582 468 616Q427 644 338 644H258V354H324Q437 354 479 397Q520 440 520 505Z"  />
<glyph unicode="&#x1A5;" horiz-adv-x="553" d="M524 287Q524 167 470 85Q407 -11 294 -11Q223 -11 158 27V-201H66V563Q66 765 250 765Q291 765 344 756V672H339Q306 685 263 685Q234 685 215 680T182 660T164 623T158 563V488Q237 561 325 561Q428 561 481 472Q524 399 524 287ZM429 277Q429 473 303 473Q232 473 158 411V102Q219 72 279 72Q360 72 398 137Q429 189 429 277Z"  />
<glyph unicode="&#x1A6;" horiz-adv-x="565" d="M637 -83H511L280 207Q275 206 268 206T252 206H170V0H74V727H170V644H256Q381 644 448 601Q535 545 535 433Q535 360 495 305T385 225L637 -83ZM434 431Q434 478 411 509Q382 546 327 556Q297 562 251 562H170V287H237Q348 287 393 329Q434 368 434 431Z"  />
<glyph unicode="&#x1A7;" horiz-adv-x="557" d="M520 43Q403 -13 281 -13Q163 -13 91 53Q25 113 25 207Q25 347 169 391L318 429Q414 454 414 542Q414 600 365 630Q324 657 263 657Q146 657 61 578H53V693Q152 740 270 740Q368 740 438 687Q514 629 514 532Q514 451 467 401Q424 355 347 336L215 303Q125 277 125 192Q125 128 177 97Q220 70 288 70Q412 70 513 165H520V43Z"  />
<glyph unicode="&#x1A8;" horiz-adv-x="446" d="M414 33Q328 -13 232 -13Q133 -13 74 37Q19 82 19 157Q19 273 141 303Q158 307 182 312T239 326Q279 337 295 350Q317 369 317 404Q317 444 282 465Q254 481 209 481Q120 481 44 421H39V519Q110 559 208 559Q293 559 348 519Q411 472 411 392Q411 280 292 245L194 222Q155 212 137 199Q113 179 113 145Q113 104 145 83Q173 64 229 64Q280 64 339 92Q371 106 409 136H414V33Z"  />
<glyph unicode="&#x1A9;" horiz-adv-x="556" d="M545 0H32V90L298 384L42 640V727H523V641H162L412 396V383L141 86H545V0Z"  />
<glyph unicode="&#x1AA;" horiz-adv-x="546" d="M512 -197Q468 -207 419 -207Q326 -207 276 -148Q229 -93 229 1V491Q194 471 151 471Q88 471 45 513Q2 555 2 618Q2 680 45 722Q88 765 150 765Q219 765 269 717Q321 666 321 557V9Q321 -60 341 -89Q365 -124 430 -124Q459 -124 507 -110H512V-197ZM229 617Q229 653 208 677T151 702Q117 702 96 677T74 617Q74 581 95 559Q117 534 151 534Q186 534 208 559Q229 581 229 617Z"  />
<glyph unicode="&#x1AB;" horiz-adv-x="334" d="M333 -16Q333 -107 285 -157T145 -207Q111 -207 74 -201V-119H79Q109 -125 127 -125Q203 -125 225 -88Q236 -67 239 -43Q240 -38 240 -30T240 -11H231Q72 -11 72 167V469H10V545H72V702H164V545H333V469H164V210Q164 129 177 104Q193 70 254 70Q289 70 328 87H333V-16Z"  />
<glyph unicode="&#x1AC;" horiz-adv-x="584" d="M584 641H340V0H244V641H161Q119 641 104 634Q78 623 78 593Q78 549 94 518V514H11Q0 558 0 599Q0 663 41 695T161 727H584V641Z"  />
<glyph unicode="&#x1AD;" horiz-adv-x="334" d="M350 672H345Q312 685 269 685Q210 685 186 659Q164 636 164 564V545H333V469H164V210Q164 129 177 104Q193 70 254 70Q289 70 328 87H333V5Q279 -11 231 -11Q72 -11 72 167V469H10V545H72V563Q72 765 255 765Q297 765 350 756V672Z"  />
<glyph unicode="&#x1AE;" horiz-adv-x="584" d="M584 641H340V0Q340 -33 345 -56T363 -95T398 -117T456 -125Q476 -125 503 -119H509V-201Q471 -207 438 -207Q346 -207 296 -157Q244 -105 244 0V641H0V727H584V641Z"  />
<glyph unicode="&#x1AF;" horiz-adv-x="719" d="M328 -15Q203 -15 134 52Q96 90 81 142T65 273V727H162V273Q162 222 168 188T193 127Q231 67 328 67Q373 67 408 82T463 127Q481 155 487 188T494 271V727H600Q645 727 662 743T680 793Q680 811 675 833T663 867V871H741Q748 848 750 831T753 790Q753 726 711 694T591 661V273Q591 198 576 144T521 52Q487 18 441 2T328 -15Z"  />
<glyph unicode="&#x1B0;" horiz-adv-x="606" d="M491 0H399V61Q357 23 320 4T234 -15Q198 -15 167 -4T112 34Q88 59 75 97T62 191V545H154V235Q154 190 157 162T172 113Q183 92 202 82T258 72Q292 72 330 91T399 138V545H501Q546 545 563 561T581 612Q581 629 576 651T564 685V689H643Q649 667 651 650T654 608Q654 544 612 512T492 479H491V0Z"  />
<glyph unicode="&#x1B1;" horiz-adv-x="702" d="M685 642H493V582Q531 560 561 531T615 466Q665 386 665 291Q665 155 583 72Q497 -15 353 -15Q206 -15 121 72Q37 157 37 291Q37 387 89 466Q138 539 213 582V642H21V727H294V538Q203 480 171 428Q138 371 138 291Q138 192 191 133Q251 68 353 68Q456 68 512 133Q564 191 564 291Q564 384 520 448Q488 490 412 538V727H685V642Z"  />
<glyph unicode="&#x1B2;" horiz-adv-x="656" d="M591 576Q591 293 541 160Q474 -15 298 -15Q169 -15 114 64Q65 132 65 273V727H162V273Q162 170 187 124Q218 67 298 67Q421 67 464 224Q494 329 494 554Q494 654 429 654Q387 654 355 637H351V715Q394 727 452 727Q510 727 549 686Q591 642 591 576Z"  />
<glyph unicode="&#x1B3;" horiz-adv-x="693" d="M700 727L454 322V0H357V312L161 644Q122 644 103 636Q78 626 78 595Q78 553 95 521V517H12Q0 560 0 599Q0 663 42 695T162 727H219L407 406L597 727H700Z"  />
<glyph unicode="&#x1B4;" horiz-adv-x="498" d="M654 580H648Q638 604 617 625Q593 650 568 650Q537 650 523 615L202 -201H104L201 26L3 545H102L251 142L439 648Q454 687 491 708Q523 727 565 727Q643 727 702 635L654 580Z"  />
<glyph unicode="&#x1B5;" horiz-adv-x="559" d="M537 0H29V90L221 361H78V431H270L418 641H47V727H527V640L379 431H503V361H330L134 86H537V0Z"  />
<glyph unicode="&#x1B6;" horiz-adv-x="444" d="M425 0H24V68L146 240H60V306H193L309 470H36V545H419V480L296 306H390V240H249L133 77H425V0Z"  />
<glyph unicode="&#x1B7;" horiz-adv-x="533" d="M506 85Q506 -53 420 -134Q344 -207 230 -207Q112 -207 15 -165V-57H22Q122 -122 229 -122Q308 -122 354 -70Q406 -14 406 90Q406 190 349 240Q300 281 226 281H175V362L391 641H39V727H506V640L303 369V362Q387 351 442 284Q506 208 506 85Z"  />
<glyph unicode="&#x1B8;" horiz-adv-x="533" d="M518 -165Q420 -207 302 -207Q189 -207 113 -134Q27 -53 27 85Q27 207 90 284Q145 351 229 362V369L27 640V727H494V641H142L357 362V281H307Q231 281 184 240Q127 190 127 90Q127 -13 178 -70Q226 -122 304 -122Q411 -122 511 -57H518V-165Z"  />
<glyph unicode="&#x1B9;" horiz-adv-x="444" d="M439 -164Q349 -207 278 -207Q24 -207 24 58Q24 162 84 233Q120 275 167 296L29 480V545H413V470H140L292 266V246Q208 246 162 189Q119 140 119 58Q119 -127 277 -127Q363 -127 434 -61H439V-164Z"  />
<glyph unicode="&#x1BA;" horiz-adv-x="444" d="M419 -161Q334 -207 238 -207Q150 -207 92 -169Q25 -126 25 -41Q25 75 146 105L245 127Q283 137 301 152Q323 170 323 206Q323 278 174 278V294L309 470H36V545H419V480L303 330Q417 300 417 194Q417 81 298 46Q281 42 257 37T200 23Q180 18 165 13T142 0Q119 -18 119 -54Q119 -129 235 -129Q324 -129 415 -58H419V-161Z"  />
<glyph unicode="&#x1BB;" horiz-adv-x="546" d="M502 0H53V102Q112 158 156 201T229 277L272 327H53V397H326Q330 402 333 409T342 424Q372 479 372 537Q372 596 336 628Q303 658 248 658Q202 658 144 635Q128 628 111 619T74 595H68V698Q158 742 255 742Q352 742 411 692Q472 640 472 542Q472 461 435 397H502V327H385Q325 255 235 168Q211 146 189 125T145 83H502V0Z"  />
<glyph unicode="&#x1BC;" horiz-adv-x="546" d="M494 231Q494 153 458 95Q423 33 354 4Q309 -15 251 -15Q145 -15 61 26V129H67Q96 108 146 91Q205 69 252 69Q321 69 358 113T395 232Q395 271 385 295T354 336Q331 356 302 363T234 370Q170 370 90 353V642H22V727H489V642H185V448Q202 450 218 451T250 452Q359 452 419 407Q494 350 494 231Z"  />
<glyph unicode="&#x1BD;" horiz-adv-x="458" d="M428 151Q428 66 356 23Q297 -13 212 -13Q107 -13 16 31V133H21Q92 66 205 66Q261 66 292 85Q334 110 334 158Q334 211 293 231Q263 245 200 245H66V465H18V545H413V465H158V324H231Q325 324 371 290Q428 249 428 151Z"  />
<glyph unicode="&#x1BE;" horiz-adv-x="483" d="M464 157Q464 82 409 37Q350 -13 250 -13Q155 -13 69 33V136H74Q130 92 196 73Q224 64 254 64Q310 64 338 83Q370 104 370 145Q370 181 347 199Q330 211 289 222Q272 226 248 231T191 245Q72 280 72 393V469H10V545H72V702H164V545H333V469H164V403Q164 372 183 354T244 326L342 303Q464 273 464 157Z"  />
<glyph unicode="&#x1BF;" horiz-adv-x="553" d="M524 321Q524 157 371 13Q309 -46 158 -140V-201H66V545H158V488Q237 561 325 561Q524 561 524 321ZM429 311Q429 388 407 425Q377 473 303 473Q232 473 158 411V-55Q215 -17 255 14T319 69Q429 182 429 311Z"  />
<glyph unicode="&#x1C0;" horiz-adv-x="382" d="M232 -191H150V760H232V-191Z"  />
<glyph unicode="&#x1C1;" horiz-adv-x="382" d="M134 -191H52V760H134V-191ZM330 -191H248V760H330V-191Z"  />
<glyph unicode="&#x1C2;" horiz-adv-x="728" d="M634 177H405V-191H323V177H94V255H323V382H94V460H323V760H405V460H634V382H405V255H634V177Z"  />
<glyph unicode="&#x1C3;" horiz-adv-x="332" d="M221 727L207 200H126L111 727H221ZM216 0H116V103H216V0Z"  />
<glyph unicode="&#x1C4;" horiz-adv-x="1243" d="M647 363Q647 263 607 183T499 58Q443 23 386 11Q328 0 241 0H74V727H239Q343 727 400 711Q458 696 500 669Q570 623 608 546T647 363ZM546 364Q546 534 436 600Q397 624 354 634T244 644H170V83H244Q310 83 357 93T445 131Q496 166 521 222T546 364ZM1221 0H713V90L1102 641H731V727H1211V640L818 86H1221V0ZM1128 1000L1017 815H906L794 1000H872L962 875L1052 1000H1128Z"  />
<glyph unicode="&#x1C5;" horiz-adv-x="1128" d="M647 363Q647 263 607 183T499 58Q443 23 386 11Q328 0 241 0H74V727H239Q343 727 400 711Q458 696 500 669Q570 623 608 546T647 363ZM546 364Q546 534 436 600Q397 624 354 634T244 644H170V83H244Q310 83 357 93T445 131Q496 166 521 222T546 364ZM1109 0H708V68L993 470H720V545H1103V480L817 77H1109V0ZM1074 818L963 633H852L740 818H818L908 693L998 818H1074Z"  />
<glyph unicode="&#x1C6;" horiz-adv-x="981" d="M486 0H395V56Q373 38 358 26T321 4Q301 -5 280 -10T231 -15Q186 -15 149 3T85 58Q58 94 44 147T29 269Q29 341 47 393T99 484Q128 520 170 540T259 561Q301 561 331 552T395 523V760H486V0ZM395 447Q360 464 333 470T274 477Q204 477 164 424T124 271Q124 174 154 123T253 72Q289 72 325 88T395 133V447ZM962 0H561V68L846 470H573V545H956V480L670 77H962V0ZM928 818L817 633H706L594 818H672L762 693L852 818H928Z"  />
<glyph unicode="&#x1C7;" horiz-adv-x="963" d="M495 0H74V727H170V86H495V0ZM895 189Q895 92 837 41T680 -10Q668 -10 652 -9T617 -6T582 -2T551 4V96H557Q577 89 606 81T667 73Q712 73 738 83T777 112Q791 132 794 160T798 226V650H644V727H895V189Z"  />
<glyph unicode="&#x1C8;" horiz-adv-x="821" d="M495 0H74V727H170V86H495V0ZM754 -16Q754 -110 704 -158T566 -207Q551 -207 533 -206T495 -201V-119H500Q511 -121 524 -123T549 -125Q622 -125 644 -88Q655 -70 659 -44T663 22V469H564V545H754V-16ZM755 637H650V732H755V637Z"  />
<glyph unicode="&#x1C9;" horiz-adv-x="486" d="M160 0H68V760H160V0ZM419 -16Q419 -110 369 -158T231 -207Q216 -207 198 -206T160 -201V-119H165Q176 -121 189 -123T214 -125Q287 -125 309 -88Q320 -70 324 -44T328 22V469H229V545H419V-16ZM420 637H315V732H420V637Z"  />
<glyph unicode="&#x1CA;" horiz-adv-x="1062" d="M594 0H485L164 627V0H74V727H211L503 151V727H594V0ZM994 189Q994 92 936 41T779 -10Q767 -10 751 -9T716 -6T681 -2T650 4V96H656Q676 89 705 81T766 73Q811 73 837 83T876 112Q890 132 893 160T897 226V650H743V727H994V189Z"  />
<glyph unicode="&#x1CB;" horiz-adv-x="919" d="M594 0H485L164 627V0H74V727H211L503 151V727H594V0ZM853 -16Q853 -110 803 -158T665 -207Q650 -207 632 -206T594 -201V-119H599Q610 -121 623 -123T648 -125Q721 -125 743 -88Q754 -70 758 -44T762 22V469H663V545H853V-16ZM854 637H749V732H854V637Z"  />
<glyph unicode="&#x1CC;" horiz-adv-x="821" d="M495 0H403V311Q403 348 400 380T386 433Q375 453 355 463T300 473Q266 473 230 455T158 407V0H66V545H158V485Q200 521 239 541T324 561Q405 561 450 509T495 354V0ZM754 -16Q754 -110 704 -158T566 -207Q551 -207 533 -206T495 -201V-119H500Q511 -121 524 -123T549 -125Q622 -125 644 -88Q655 -70 659 -44T663 22V469H564V545H754V-16ZM755 637H650V732H755V637Z"  />
<glyph unicode="&#x1CD;" horiz-adv-x="600" d="M-5 0L240 727H359L604 0H502L437 203H159L93 0H-5ZM410 286L297 628L186 286H410ZM469 990L358 805H247L135 990H213L303 865L393 990H469Z"  />
<glyph unicode="&#x1CE;" horiz-adv-x="525" d="M371 286L288 277Q240 273 208 263Q171 252 147 229T123 164Q123 69 227 69Q270 69 305 88T371 134V286ZM371 58Q360 50 341 35T305 11Q293 5 282 0T258 -8T230 -13T194 -15Q125 -15 77 33Q55 56 42 89T28 158Q28 215 52 254T128 318Q174 339 236 347T371 359V376Q371 409 362 428T334 459Q316 470 291 474T239 478Q207 478 164 468T78 440H73V534Q85 537 104 541T145 550T192 556T239 559Q296 559 334 550T403 518Q462 475 462 373V0H371V58ZM426 818L315 633H204L92 818H170L260 693L350 818H426Z"  />
<glyph unicode="&#x1CF;" horiz-adv-x="373" d="M328 0H45V74H138V653H45V727H328V653H235V74H328V0ZM355 1000L244 815H133L21 1000H99L189 875L279 1000H355Z"  />
<glyph unicode="&#x1D0;" horiz-adv-x="229" d="M160 0H68V545H160V0ZM281 818L170 633H59L-53 818H25L115 693L205 818H281Z"  />
<glyph unicode="&#x1D1;" horiz-adv-x="708" d="M588 644Q630 596 652 525T675 363Q675 275 653 204T588 84Q543 33 485 9T354 -15Q206 -15 119 84Q77 132 55 202T32 363Q32 456 55 524T120 644Q206 742 354 742Q429 742 487 716T588 644ZM575 363Q575 436 559 491T515 583Q457 659 354 659Q300 659 262 641T192 583Q164 546 149 491T133 363Q133 219 192 144T354 68Q456 68 515 143T575 363ZM518 1000L407 815H296L184 1000H262L352 875L442 1000H518Z"  />
<glyph unicode="&#x1D2;" horiz-adv-x="543" d="M515 272Q515 134 448 60Q382 -15 272 -15Q158 -15 93 62Q28 141 28 272Q28 409 95 485Q162 561 272 561Q382 561 448 485Q515 411 515 272ZM420 272Q420 378 382 429T272 481Q200 481 162 430T123 272Q123 169 161 117T272 64Q344 64 382 115T420 272ZM438 818L327 633H216L104 818H182L272 693L362 818H438Z"  />
<glyph unicode="&#x1D3;" horiz-adv-x="656" d="M328 -15Q203 -15 134 52Q96 90 81 142T65 273V727H162V273Q162 222 168 188T193 127Q231 67 328 67Q373 67 408 82T463 127Q481 155 487 188T494 271V727H591V273Q591 198 576 144T521 52Q487 18 441 2T328 -15ZM503 1000L392 815H281L169 1000H247L337 875L427 1000H503Z"  />
<glyph unicode="&#x1D4;" horiz-adv-x="558" d="M491 0H399V61Q357 23 320 4T234 -15Q198 -15 167 -4T112 34Q88 59 75 97T62 191V545H154V235Q154 190 157 162T172 113Q183 92 202 82T258 72Q292 72 330 91T399 138V545H491V0ZM444 818L333 633H222L110 818H188L278 693L368 818H444Z"  />
<glyph unicode="&#x1D5;" horiz-adv-x="656" d="M328 -15Q203 -15 134 52Q96 90 81 142T65 273V727H162V273Q162 222 168 188T193 127Q231 67 328 67Q373 67 408 82T463 127Q481 155 487 188T494 271V727H591V273Q591 198 576 144T521 52Q487 18 441 2T328 -15ZM516 940H148V1000H516V940ZM482 785H384V875H482V785ZM281 785H183V875H281V785Z"  />
<glyph unicode="&#x1D6;" horiz-adv-x="558" d="M491 0H399V61Q357 23 320 4T234 -15Q198 -15 167 -4T112 34Q88 59 75 97T62 191V545H154V235Q154 190 157 162T172 113Q183 92 202 82T258 72Q292 72 330 91T399 138V545H491V0ZM426 652H328V747H426V652ZM225 652H127V747H225V652ZM460 836H92V911H460V836Z"  />
<glyph unicode="&#x1D7;" horiz-adv-x="656" d="M328 -15Q203 -15 134 52Q96 90 81 142T65 273V727H162V273Q162 222 168 188T193 127Q231 67 328 67Q373 67 408 82T463 127Q481 155 487 188T494 271V727H591V273Q591 198 576 144T521 52Q487 18 441 2T328 -15ZM455 1000L358 895H295L346 1000H455ZM477 785H379V875H477V785ZM276 785H178V875H276V785Z"  />
<glyph unicode="&#x1D8;" horiz-adv-x="558" d="M491 0H399V61Q357 23 320 4T234 -15Q198 -15 167 -4T112 34Q88 59 75 97T62 191V545H154V235Q154 190 157 162T172 113Q183 92 202 82T258 72Q292 72 330 91T399 138V545H491V0ZM404 867L307 762H244L295 867H404ZM426 652H328V747H426V652ZM225 652H127V747H225V652Z"  />
<glyph unicode="&#x1D9;" horiz-adv-x="656" d="M328 -15Q203 -15 134 52Q96 90 81 142T65 273V727H162V273Q162 222 168 188T193 127Q231 67 328 67Q373 67 408 82T463 127Q481 155 487 188T494 271V727H591V273Q591 198 576 144T521 52Q487 18 441 2T328 -15ZM494 1000L373 916H282L160 1000H241L326 957L411 1000H494ZM477 785H379V875H477V785ZM276 785H178V875H276V785Z"  />
<glyph unicode="&#x1DA;" horiz-adv-x="558" d="M491 0H399V61Q357 23 320 4T234 -15Q198 -15 167 -4T112 34Q88 59 75 97T62 191V545H154V235Q154 190 157 162T172 113Q183 92 202 82T258 72Q292 72 330 91T399 138V545H491V0ZM225 633H121V729H225V633ZM445 960L334 775H223L111 960H187L277 835L367 960H445ZM329 729H433V633H329V729Z"  />
<glyph unicode="&#x1DB;" horiz-adv-x="656" d="M328 -15Q203 -15 134 52Q96 90 81 142T65 273V727H162V273Q162 222 168 188T193 127Q231 67 328 67Q373 67 408 82T463 127Q481 155 487 188T494 271V727H591V273Q591 198 576 144T521 52Q487 18 441 2T328 -15ZM477 785H379V875H477V785ZM360 895H297L200 1000H309L360 895ZM276 785H178V875H276V785Z"  />
<glyph unicode="&#x1DC;" horiz-adv-x="558" d="M491 0H399V61Q357 23 320 4T234 -15Q198 -15 167 -4T112 34Q88 59 75 97T62 191V545H154V235Q154 190 157 162T172 113Q183 92 202 82T258 72Q292 72 330 91T399 138V545H491V0ZM258 867L309 762H246L149 867H258ZM426 652H328V747H426V652ZM225 652H127V747H225V652Z"  />
<glyph unicode="&#x1DD;" horiz-adv-x="526" d="M498 278Q498 153 435 74Q366 -13 245 -13Q144 -13 87 48Q26 112 26 235V285H404Q404 374 360 426Q313 480 224 480Q166 480 112 456Q68 436 42 415H37V515L120 545Q172 561 223 561Q356 561 428 486Q498 413 498 278ZM116 214Q117 144 147 105Q180 63 250 63Q317 63 359 106Q398 146 404 214H116Z"  />
<glyph unicode="&#x1DE;" horiz-adv-x="600" d="M-5 0L240 727H359L604 0H502L437 203H159L93 0H-5ZM410 286L297 628L186 286H410ZM481 940H113V1000H481V940ZM447 785H349V875H447V785ZM246 785H148V875H246V785Z"  />
<glyph unicode="&#x1DF;" horiz-adv-x="525" d="M371 286L288 277Q240 273 208 263Q171 252 147 229T123 164Q123 69 227 69Q270 69 305 88T371 134V286ZM371 58Q360 50 341 35T305 11Q293 5 282 0T258 -8T230 -13T194 -15Q125 -15 77 33Q55 56 42 89T28 158Q28 215 52 254T128 318Q174 339 236 347T371 359V376Q371 409 362 428T334 459Q316 470 291 474T239 478Q207 478 164 468T78 440H73V534Q85 537 104 541T145 550T192 556T239 559Q296 559 334 550T403 518Q462 475 462 373V0H371V58ZM423 652H325V747H423V652ZM222 652H124V747H222V652ZM457 836H89V911H457V836Z"  />
<glyph unicode="&#x1E0;" horiz-adv-x="600" d="M-5 0L240 727H359L604 0H502L437 203H159L93 0H-5ZM410 286L297 628L186 286H410ZM481 940H113V1000H481V940ZM349 785H251V875H349V785Z"  />
<glyph unicode="&#x1E1;" horiz-adv-x="525" d="M371 286L288 277Q240 273 208 263Q171 252 147 229T123 164Q123 69 227 69Q270 69 305 88T371 134V286ZM371 58Q360 50 341 35T305 11Q293 5 282 0T258 -8T230 -13T194 -15Q125 -15 77 33Q55 56 42 89T28 158Q28 215 52 254T128 318Q174 339 236 347T371 359V376Q371 409 362 428T334 459Q316 470 291 474T239 478Q207 478 164 468T78 440H73V534Q85 537 104 541T145 550T192 556T239 559Q296 559 334 550T403 518Q462 475 462 373V0H371V58ZM312 652H214V747H312V652ZM447 836H79V911H447V836Z"  />
<glyph unicode="&#x1E2;" horiz-adv-x="913" d="M880 0H435V272H188L82 0H-19L275 727H880V641H530V442H855V356H530V86H880V0ZM435 353V646H340L220 353H435ZM777 829H409V904H777V829Z"  />
<glyph unicode="&#x1E3;" horiz-adv-x="880" d="M399 146Q380 201 380 272Q332 271 287 269T205 255Q168 246 146 224T123 161Q123 69 231 69Q276 69 321 90T399 146ZM654 67Q686 67 715 74T768 92Q792 103 809 113T838 133H843V33Q827 27 803 18T760 2Q733 -5 711 -9T655 -13Q500 -13 428 88Q423 83 415 76T397 60T376 42T352 26Q320 7 286 -3T199 -14Q127 -14 77 33Q28 81 28 155Q28 218 53 254T127 312Q172 331 240 337T384 345V373Q384 405 374 426T344 458Q310 479 244 479Q203 479 158 466Q135 459 116 453T83 440H76V534Q88 538 106 541T150 550Q175 555 198 557T245 560Q323 560 371 537T446 470Q479 509 527 535T633 561Q742 561 798 496T854 313V273H469Q469 216 484 177T524 113Q550 88 583 78T654 67ZM765 343Q763 372 756 398T732 443Q717 462 691 473T628 485Q590 485 565 475T519 444Q500 425 488 399T471 343H765ZM633 652H265V727H633V652Z"  />
<glyph unicode="&#x1E4;" horiz-adv-x="667" d="M668 146H620V48Q588 34 562 24T512 7Q438 -14 378 -14Q217 -14 127 81Q32 181 32 364Q32 537 127 641Q220 740 379 740Q445 740 514 720Q558 707 617 678V561H608Q588 580 571 592Q563 598 550 605T517 623Q448 657 367 657Q252 657 189 566Q133 486 133 367Q133 225 199 146Q264 69 374 69Q468 69 524 93V146H356V216H524V281H356V366H620V216H668V146Z"  />
<glyph unicode="&#x1E5;" horiz-adv-x="553" d="M529 -58H471Q427 -207 241 -207Q160 -207 81 -183V-87H86Q103 -95 120 -100T154 -110Q209 -125 248 -125Q332 -125 366 -82Q375 -72 381 -58H24V0H394Q395 7 395 13T395 24V72Q321 9 232 9Q125 9 73 94Q29 165 29 278Q29 408 99 487Q164 561 259 561Q330 561 395 522L400 545H486V62Q486 28 483 0H529V-58ZM395 447Q332 478 273 478Q195 478 156 416Q124 363 124 280Q124 94 253 94Q330 94 395 148V447Z"  />
<glyph unicode="&#x1E6;" horiz-adv-x="667" d="M378 -14Q300 -14 237 9T127 81Q81 129 57 199T32 364Q32 452 57 521T127 641Q172 689 236 714T379 740Q416 740 449 735T514 720Q538 713 568 700T617 678V561H608Q590 577 571 591T517 623Q487 637 450 647T367 657Q261 657 197 578Q133 499 133 367Q133 294 150 240T199 146Q230 109 274 89T374 69Q416 69 456 75T524 93V281H356V366H620V48Q601 40 570 28T512 7Q477 -3 448 -8T378 -14ZM545 1000L434 815H323L211 1000H289L379 875L469 1000H545Z"  />
<glyph unicode="&#x1E7;" horiz-adv-x="553" d="M395 447Q360 464 331 471T273 478Q204 478 164 427T124 280Q124 189 154 142T253 94Q289 94 326 108T395 148V447ZM86 -87Q95 -91 113 -97T154 -110Q180 -117 201 -121T248 -125Q291 -125 320 -114T366 -82Q382 -62 388 -36T395 24V72Q376 56 358 44T321 25T281 13T232 9Q138 9 84 78T29 278Q29 347 48 399T99 487Q130 522 172 541T259 561Q301 561 332 551T395 522L400 545H486V62Q486 -77 426 -142T241 -207Q201 -207 159 -201T81 -183V-87H86ZM438 818L327 633H216L104 818H182L272 693L362 818H438Z"  />
<glyph unicode="&#x1E8;" horiz-adv-x="588" d="M604 0H478L213 338L170 291V0H74V727H170V393L468 727H586L285 402L604 0ZM467 1000L356 815H245L133 1000H211L301 875L391 1000H467Z"  />
<glyph unicode="&#x1E9;" horiz-adv-x="498" d="M519 0H398L194 263L158 228V0H66V760H158V315L374 545H488L264 317L519 0ZM453 1000L342 815H231L119 1000H197L287 875L377 1000H453Z"  />
<glyph unicode="&#x1EA;" horiz-adv-x="708" d="M675 363Q675 184 588 84Q501 -15 355 -15L354 -21Q353 -29 353 -36T352 -52Q352 -131 427 -131Q458 -131 484 -116H488V-193Q449 -204 415 -204Q348 -204 311 -165T273 -57Q273 -35 280 -8Q110 25 55 203Q32 275 32 363Q32 543 120 644Q204 742 354 742Q502 742 588 644Q675 543 675 363ZM575 363Q575 506 515 583Q457 659 354 659Q251 659 192 584T133 363Q133 240 181 162Q238 68 354 68Q470 68 527 162Q575 240 575 363Z"  />
<glyph unicode="&#x1EB;" horiz-adv-x="543" d="M515 272Q515 147 458 71Q393 -15 273 -15L272 -21Q271 -29 271 -36T270 -52Q270 -131 345 -131Q376 -131 402 -116H406V-193Q367 -204 333 -204Q266 -204 229 -165T191 -57Q191 -38 199 -6Q137 10 93 62Q28 141 28 272Q28 398 86 475Q152 561 272 561Q393 561 458 475Q515 398 515 272ZM420 272Q420 481 272 481Q123 481 123 272Q123 64 272 64Q420 64 420 272Z"  />
<glyph unicode="&#x1EC;" horiz-adv-x="708" d="M675 363Q675 184 588 84Q501 -15 355 -15L354 -21Q353 -29 353 -36T352 -52Q352 -131 427 -131Q458 -131 484 -116H488V-193Q449 -204 415 -204Q348 -204 311 -165T273 -57Q273 -35 280 -8Q110 25 55 203Q32 275 32 363Q32 543 120 644Q204 742 354 742Q502 742 588 644Q675 543 675 363ZM575 363Q575 506 515 583Q457 659 354 659Q251 659 192 584T133 363Q133 240 181 162Q238 68 354 68Q470 68 527 162Q575 240 575 363ZM545 829H177V904H545V829Z"  />
<glyph unicode="&#x1ED;" horiz-adv-x="543" d="M515 272Q515 147 458 71Q393 -15 273 -15L272 -21Q271 -29 271 -36T270 -52Q270 -131 345 -131Q376 -131 402 -116H406V-193Q367 -204 333 -204Q266 -204 229 -165T191 -57Q191 -38 199 -6Q137 10 93 62Q28 141 28 272Q28 398 86 475Q152 561 272 561Q393 561 458 475Q515 398 515 272ZM420 272Q420 481 272 481Q123 481 123 272Q123 64 272 64Q420 64 420 272ZM457 652H89V727H457V652Z"  />
<glyph unicode="&#x1EE;" horiz-adv-x="533" d="M506 85Q506 -53 420 -134Q344 -207 230 -207Q112 -207 15 -165V-57H22Q122 -122 229 -122Q308 -122 354 -70Q406 -14 406 90Q406 190 349 240Q300 281 226 281H175V362L391 641H39V727H506V640L303 369V362Q387 351 442 284Q506 208 506 85ZM438 1000L327 815H216L104 1000H182L272 875L362 1000H438Z"  />
<glyph unicode="&#x1EF;" horiz-adv-x="444" d="M420 58Q420 -207 166 -207Q97 -207 5 -164V-61H10Q80 -127 167 -127Q325 -127 325 58Q325 139 283 189Q236 246 153 246V266L305 470H31V545H415V480L277 296Q324 275 360 233Q420 162 420 58ZM399 818L288 633H177L65 818H143L233 693L323 818H399Z"  />
<glyph unicode="&#x1F0;" horiz-adv-x="282" d="M278 818L188 633H80L-10 818H62L134 688L207 818H278ZM215 -16Q215 -107 167 -157T27 -207Q-7 -207 -44 -201V-119H-39Q-8 -125 10 -125Q83 -125 105 -88Q124 -59 124 22V469H25V545H215V-16Z"  />
<glyph unicode="&#x1F1;" horiz-adv-x="1243" d="M647 363Q647 263 607 183T499 58Q443 23 386 11Q328 0 241 0H74V727H239Q343 727 400 711Q458 696 500 669Q570 623 608 546T647 363ZM546 364Q546 534 436 600Q397 624 354 634T244 644H170V83H244Q310 83 357 93T445 131Q496 166 521 222T546 364ZM1221 0H713V90L1102 641H731V727H1211V640L818 86H1221V0Z"  />
<glyph unicode="&#x1F2;" horiz-adv-x="1128" d="M647 363Q647 263 607 183T499 58Q443 23 386 11Q328 0 241 0H74V727H239Q343 727 400 711Q458 696 500 669Q570 623 608 546T647 363ZM546 364Q546 534 436 600Q397 624 354 634T244 644H170V83H244Q310 83 357 93T445 131Q496 166 521 222T546 364ZM1109 0H708V68L993 470H720V545H1103V480L817 77H1109V0Z"  />
<glyph unicode="&#x1F3;" horiz-adv-x="981" d="M486 0H395V56Q373 38 358 26T321 4Q301 -5 280 -10T231 -15Q186 -15 149 3T85 58Q58 94 44 147T29 269Q29 341 47 393T99 484Q128 520 170 540T259 561Q301 561 331 552T395 523V760H486V0ZM395 447Q360 464 333 470T274 477Q204 477 164 424T124 271Q124 174 154 123T253 72Q289 72 325 88T395 133V447ZM962 0H561V68L846 470H573V545H956V480L670 77H962V0Z"  />
<glyph unicode="&#x1F4;" horiz-adv-x="667" d="M378 -14Q300 -14 237 9T127 81Q81 129 57 199T32 364Q32 452 57 521T127 641Q172 689 236 714T379 740Q416 740 449 735T514 720Q538 713 568 700T617 678V561H608Q590 577 571 591T517 623Q487 637 450 647T367 657Q261 657 197 578Q133 499 133 367Q133 294 150 240T199 146Q230 109 274 89T374 69Q416 69 456 75T524 93V281H356V366H620V48Q601 40 570 28T512 7Q477 -3 448 -8T378 -14ZM498 1000L365 818H292L380 1000H498Z"  />
<glyph unicode="&#x1F5;" horiz-adv-x="553" d="M395 447Q360 464 331 471T273 478Q204 478 164 427T124 280Q124 189 154 142T253 94Q289 94 326 108T395 148V447ZM86 -87Q95 -91 113 -97T154 -110Q180 -117 201 -121T248 -125Q291 -125 320 -114T366 -82Q382 -62 388 -36T395 24V72Q376 56 358 44T321 25T281 13T232 9Q138 9 84 78T29 278Q29 347 48 399T99 487Q130 522 172 541T259 561Q301 561 332 551T395 522L400 545H486V62Q486 -77 426 -142T241 -207Q201 -207 159 -201T81 -183V-87H86ZM405 818L272 636H199L287 818H405Z"  />
<glyph unicode="&#x1F6;" horiz-adv-x="1001" d="M938 191Q938 108 879 47Q817 -15 724 -15Q634 -15 569 44Q505 104 505 190V356H170V0H74V727H170V442H505V727H602V235Q602 158 624 121Q652 72 724 72Q796 72 824 121Q847 159 847 235V545H938V191Z"  />
<glyph unicode="&#x1F7;" horiz-adv-x="560" d="M541 483Q541 231 170 0V-201H74V727H170V670Q249 742 337 742Q442 742 496 661Q541 592 541 483ZM441 473Q441 655 315 655Q246 655 170 593V84Q441 265 441 473Z"  />
<glyph unicode="&#x1F8;" horiz-adv-x="667" d="M594 0H485L164 627V0H74V727H211L503 151V727H594V0ZM395 818H322L189 1000H308L395 818Z"  />
<glyph unicode="&#x1F9;" horiz-adv-x="558" d="M495 0H403V311Q403 348 400 380T386 433Q375 453 355 463T300 473Q266 473 230 455T158 407V0H66V545H158V485Q200 521 239 541T324 561Q405 561 450 509T495 354V0ZM347 636H274L141 818H260L347 636Z"  />
<glyph unicode="&#x1FA;" horiz-adv-x="600" d="M604 0H502L437 203H159L93 0H-5L219 666Q194 681 180 706T165 763Q165 816 204 851Q244 887 300 887Q356 887 395 851Q434 816 434 763Q434 732 420 707T380 666L604 0ZM410 285L297 629L186 285H410ZM362 763Q362 790 345 808T300 826Q272 826 255 808T237 763Q237 735 254 717T300 699Q327 699 344 717T362 763ZM435 1034L316 900H244L316 1034H435Z"  />
<glyph unicode="&#x1FB;" horiz-adv-x="525" d="M371 286L288 277Q240 273 208 263Q171 252 147 229T123 164Q123 69 227 69Q270 69 305 88T371 134V286ZM371 58Q360 50 341 35T305 11Q293 5 282 0T258 -8T230 -13T194 -15Q125 -15 77 33Q55 56 42 89T28 158Q28 215 52 254T128 318Q174 339 236 347T371 359V376Q371 409 362 428T334 459Q316 470 294 474T239 479Q197 479 157 468T78 440H73V534Q87 538 108 541T157 549Q142 565 133 585T123 629Q123 683 162 718Q202 753 257 753Q313 753 351 718Q390 683 390 629Q390 602 378 580T347 542Q402 525 432 487T462 373V0H371V58ZM319 629Q319 656 302 674T257 692Q229 692 212 674T194 629Q194 602 211 584T257 565Q284 565 301 583T319 629ZM392 900L273 766H201L273 900H392Z"  />
<glyph unicode="&#x1FC;" horiz-adv-x="913" d="M880 0H435V272H188L82 0H-19L275 727H880V641H530V442H855V356H530V86H880V0ZM435 353V646H340L220 353H435ZM669 1000L536 818H463L551 1000H669Z"  />
<glyph unicode="&#x1FD;" horiz-adv-x="880" d="M399 146Q380 201 380 272Q332 271 287 269T205 255Q168 246 146 224T123 161Q123 69 231 69Q276 69 321 90T399 146ZM654 67Q686 67 715 74T768 92Q792 103 809 113T838 133H843V33Q827 27 803 18T760 2Q733 -5 711 -9T655 -13Q500 -13 428 88Q423 83 415 76T397 60T376 42T352 26Q320 7 286 -3T199 -14Q127 -14 77 33Q28 81 28 155Q28 218 53 254T127 312Q172 331 240 337T384 345V373Q384 405 374 426T344 458Q310 479 244 479Q203 479 158 466Q135 459 116 453T83 440H76V534Q88 538 106 541T150 550Q175 555 198 557T245 560Q323 560 371 537T446 470Q479 509 527 535T633 561Q742 561 798 496T854 313V273H469Q469 216 484 177T524 113Q550 88 583 78T654 67ZM765 343Q763 372 756 398T732 443Q717 462 691 473T628 485Q590 485 565 475T519 444Q500 425 488 399T471 343H765ZM610 818L477 636H404L492 818H610Z"  />
<glyph unicode="&#x1FE;" horiz-adv-x="708" d="M675 363Q675 184 587 84Q500 -15 354 -15Q300 -15 254 -1T170 39L105 -57H33L125 79Q82 127 57 198T32 363Q32 544 120 642Q208 742 354 742Q409 742 453 729T536 688L592 772H664L581 649Q626 601 650 531T675 363ZM486 615Q433 659 354 659Q252 659 192 584T132 363Q132 297 144 246T180 158L486 615ZM576 363Q576 432 563 484T526 571L220 113Q248 91 278 80T354 68Q456 68 516 143T576 363ZM503 1000L370 818H297L385 1000H503Z"  />
<glyph unicode="&#x1FF;" horiz-adv-x="543" d="M515 272Q515 134 448 60Q382 -15 272 -15Q233 -15 201 -5T141 23L81 -72H20L102 56Q67 93 48 146T28 272Q28 410 95 484Q162 560 272 560Q346 560 402 522L455 605H516L441 490Q476 453 495 400T515 272ZM359 455Q324 481 272 481Q200 481 161 429T121 272Q121 180 149 128L359 455ZM422 272Q422 369 394 418L185 91Q219 64 272 64Q344 64 383 115T422 272ZM426 818L293 636H220L308 818H426Z"  />
<glyph unicode="&#x200;" horiz-adv-x="600" d="M-5 0L240 727H359L604 0H502L437 203H159L93 0H-5ZM410 286L297 628L186 286H410ZM347 1000L430 818H362L236 1000H347ZM150 1000L233 818H165L39 1000H150Z"  />
<glyph unicode="&#x201;" horiz-adv-x="525" d="M371 286L288 277Q240 273 208 263Q171 252 147 229T123 164Q123 69 227 69Q270 69 305 88T371 134V286ZM371 58Q360 50 341 35T305 11Q293 5 282 0T258 -8T230 -13T194 -15Q125 -15 77 33Q55 56 42 89T28 158Q28 215 52 254T128 318Q174 339 236 347T371 359V376Q371 409 362 428T334 459Q316 470 291 474T239 478Q207 478 164 468T78 440H73V534Q85 537 104 541T145 550T192 556T239 559Q296 559 334 550T403 518Q462 475 462 373V0H371V58ZM328 818L411 636H343L217 818H328ZM131 818L214 636H146L20 818H131Z"  />
<glyph unicode="&#x202;" horiz-adv-x="600" d="M-5 0L240 727H359L604 0H502L437 203H159L93 0H-5ZM410 286L297 628L186 286H410ZM385 795Q385 919 303 919Q221 919 221 795H142Q142 879 183 929Q225 981 303 981Q382 981 425 929Q464 882 464 795H385Z"  />
<glyph unicode="&#x203;" horiz-adv-x="525" d="M371 286L288 277Q240 273 208 263Q171 252 147 229T123 164Q123 69 227 69Q270 69 305 88T371 134V286ZM371 58Q360 50 341 35T305 11Q293 5 282 0T258 -8T230 -13T194 -15Q125 -15 77 33Q55 56 42 89T28 158Q28 215 52 254T128 318Q174 339 236 347T371 359V376Q371 409 362 428T334 459Q316 470 291 474T239 478Q207 478 164 468T78 440H73V534Q85 537 104 541T145 550T192 556T239 559Q296 559 334 550T403 518Q462 475 462 373V0H371V58ZM336 613Q336 737 254 737Q172 737 172 613H93Q93 697 134 747Q176 799 254 799Q333 799 376 747Q415 700 415 613H336Z"  />
<glyph unicode="&#x204;" horiz-adv-x="561" d="M74 0V727H528V641H170V442H504V356H170V86H528V0H74ZM386 1000L469 818H401L275 1000H386ZM189 1000L272 818H204L78 1000H189Z"  />
<glyph unicode="&#x205;" horiz-adv-x="526" d="M303 -13Q172 -13 101 60T29 270Q29 402 98 482Q168 561 281 561Q381 561 439 500Q469 469 484 424T500 313V263H122Q122 167 169 117T302 67Q333 67 362 74T414 92Q439 103 456 113T484 133H490V33Q474 27 450 18T407 2Q380 -5 358 -9T303 -13ZM411 333Q410 371 402 397T379 443Q363 463 338 474T276 485Q239 485 214 474T167 442Q146 420 136 394T122 333H411ZM347 818L430 636H362L236 818H347ZM150 818L233 636H165L39 818H150Z"  />
<glyph unicode="&#x206;" horiz-adv-x="561" d="M74 0V727H528V641H170V442H504V356H170V86H528V0H74ZM383 795Q383 919 301 919Q219 919 219 795H140Q140 879 181 929Q223 981 301 981Q380 981 423 929Q462 882 462 795H383Z"  />
<glyph unicode="&#x207;" horiz-adv-x="526" d="M303 -13Q172 -13 101 60T29 270Q29 402 98 482Q168 561 281 561Q381 561 439 500Q469 469 484 424T500 313V263H122Q122 167 169 117T302 67Q333 67 362 74T414 92Q439 103 456 113T484 133H490V33Q474 27 450 18T407 2Q380 -5 358 -9T303 -13ZM411 333Q410 371 402 397T379 443Q363 463 338 474T276 485Q239 485 214 474T167 442Q146 420 136 394T122 333H411ZM363 613Q363 737 281 737Q199 737 199 613H120Q120 697 161 747Q203 799 281 799Q360 799 403 747Q442 700 442 613H363Z"  />
<glyph unicode="&#x208;" horiz-adv-x="373" d="M328 0H45V74H138V653H45V727H328V653H235V74H328V0ZM259 1000L342 818H274L148 1000H259ZM62 1000L145 818H77L-49 1000H62Z"  />
<glyph unicode="&#x209;" horiz-adv-x="229" d="M160 0H68V545H160V0ZM181 818L264 636H196L70 818H181ZM-16 818L67 636H-1L-127 818H-16Z"  />
<glyph unicode="&#x20A;" horiz-adv-x="373" d="M328 0H45V74H138V653H45V727H328V653H235V74H328V0ZM269 795Q269 919 187 919Q105 919 105 795H26Q26 879 67 929Q109 981 187 981Q266 981 309 929Q348 882 348 795H269Z"  />
<glyph unicode="&#x20B;" horiz-adv-x="229" d="M160 0H68V545H160V0ZM199 613Q199 737 117 737Q35 737 35 613H-44Q-44 697 -3 747Q39 799 117 799Q196 799 239 747Q278 700 278 613H199Z"  />
<glyph unicode="&#x20C;" horiz-adv-x="708" d="M588 644Q630 596 652 525T675 363Q675 275 653 204T588 84Q543 33 485 9T354 -15Q206 -15 119 84Q77 132 55 202T32 363Q32 456 55 524T120 644Q206 742 354 742Q429 742 487 716T588 644ZM575 363Q575 436 559 491T515 583Q457 659 354 659Q300 659 262 641T192 583Q164 546 149 491T133 363Q133 219 192 144T354 68Q456 68 515 143T575 363ZM406 1000L489 818H421L295 1000H406ZM209 1000L292 818H224L98 1000H209Z"  />
<glyph unicode="&#x20D;" horiz-adv-x="543" d="M515 272Q515 134 448 60Q382 -15 272 -15Q158 -15 93 62Q28 141 28 272Q28 409 95 485Q162 561 272 561Q382 561 448 485Q515 411 515 272ZM420 272Q420 378 382 429T272 481Q200 481 162 430T123 272Q123 169 161 117T272 64Q344 64 382 115T420 272ZM347 818L430 636H362L236 818H347ZM150 818L233 636H165L39 818H150Z"  />
<glyph unicode="&#x20E;" horiz-adv-x="708" d="M588 644Q630 596 652 525T675 363Q675 275 653 204T588 84Q543 33 485 9T354 -15Q206 -15 119 84Q77 132 55 202T32 363Q32 456 55 524T120 644Q206 742 354 742Q429 742 487 716T588 644ZM575 363Q575 436 559 491T515 583Q457 659 354 659Q300 659 262 641T192 583Q164 546 149 491T133 363Q133 219 192 144T354 68Q456 68 515 143T575 363ZM435 795Q435 919 353 919Q271 919 271 795H192Q192 879 233 929Q275 981 353 981Q432 981 475 929Q514 882 514 795H435Z"  />
<glyph unicode="&#x20F;" horiz-adv-x="543" d="M515 272Q515 134 448 60Q382 -15 272 -15Q158 -15 93 62Q28 141 28 272Q28 409 95 485Q162 561 272 561Q382 561 448 485Q515 411 515 272ZM420 272Q420 378 382 429T272 481Q200 481 162 430T123 272Q123 169 161 117T272 64Q344 64 382 115T420 272ZM354 613Q354 737 272 737Q190 737 190 613H111Q111 697 152 747Q194 799 272 799Q351 799 394 747Q433 700 433 613H354Z"  />
<glyph unicode="&#x210;" horiz-adv-x="621" d="M637 0H511L281 289H170V0H74V727H261Q324 727 366 720T446 688Q484 664 506 626T529 530Q529 449 489 396T378 316L637 0ZM428 522Q428 589 382 619Q361 633 335 638T266 644H170V370H255Q297 370 330 377T387 407Q428 448 428 522ZM357 1000L440 818H372L246 1000H357ZM160 1000L243 818H175L49 1000H160Z"  />
<glyph unicode="&#x211;" horiz-adv-x="360" d="M355 447H351Q340 450 329 450T301 451Q264 451 228 435T158 387V0H66V545H158V464Q208 509 245 527T318 545Q333 545 340 545T355 542V447ZM299 818L382 636H314L188 818H299ZM102 818L185 636H117L-9 818H102Z"  />
<glyph unicode="&#x212;" horiz-adv-x="621" d="M637 0H511L281 289H170V0H74V727H261Q324 727 366 720T446 688Q484 664 506 626T529 530Q529 449 489 396T378 316L637 0ZM428 522Q428 589 382 619Q361 633 335 638T266 644H170V370H255Q297 370 330 377T387 407Q428 448 428 522ZM383 795Q383 919 301 919Q219 919 219 795H140Q140 879 181 929Q223 981 301 981Q380 981 423 929Q462 882 462 795H383Z"  />
<glyph unicode="&#x213;" horiz-adv-x="360" d="M355 447H351Q340 450 329 450T301 451Q264 451 228 435T158 387V0H66V545H158V464Q208 509 245 527T318 545Q333 545 340 545T355 542V447ZM293 613Q293 737 211 737Q129 737 129 613H50Q50 697 91 747Q133 799 211 799Q290 799 333 747Q372 700 372 613H293Z"  />
<glyph unicode="&#x214;" horiz-adv-x="656" d="M328 -15Q203 -15 134 52Q96 90 81 142T65 273V727H162V273Q162 222 168 188T193 127Q231 67 328 67Q373 67 408 82T463 127Q481 155 487 188T494 271V727H591V273Q591 198 576 144T521 52Q487 18 441 2T328 -15ZM406 1000L489 818H421L295 1000H406ZM209 1000L292 818H224L98 1000H209Z"  />
<glyph unicode="&#x215;" horiz-adv-x="558" d="M491 0H399V61Q357 23 320 4T234 -15Q198 -15 167 -4T112 34Q88 59 75 97T62 191V545H154V235Q154 190 157 162T172 113Q183 92 202 82T258 72Q292 72 330 91T399 138V545H491V0ZM347 818L430 636H362L236 818H347ZM150 818L233 636H165L39 818H150Z"  />
<glyph unicode="&#x216;" horiz-adv-x="656" d="M328 -15Q203 -15 134 52Q96 90 81 142T65 273V727H162V273Q162 222 168 188T193 127Q231 67 328 67Q373 67 408 82T463 127Q481 155 487 188T494 271V727H591V273Q591 198 576 144T521 52Q487 18 441 2T328 -15ZM414 795Q414 919 332 919Q250 919 250 795H171Q171 879 212 929Q254 981 332 981Q411 981 454 929Q493 882 493 795H414Z"  />
<glyph unicode="&#x217;" horiz-adv-x="558" d="M491 0H399V61Q357 23 320 4T234 -15Q198 -15 167 -4T112 34Q88 59 75 97T62 191V545H154V235Q154 190 157 162T172 113Q183 92 202 82T258 72Q292 72 330 91T399 138V545H491V0ZM358 613Q358 737 276 737Q194 737 194 613H115Q115 697 156 747Q198 799 276 799Q355 799 398 747Q437 700 437 613H358Z"  />
<glyph unicode="&#x218;" horiz-adv-x="557" d="M276 -13Q197 -13 142 3T38 43V165H44Q92 120 152 95T270 70Q351 70 391 103T432 192Q432 235 411 262T342 303Q325 308 310 312T280 319T248 327T210 336Q173 346 143 361T90 401Q68 425 56 457T43 532Q43 621 112 680Q181 740 288 740Q412 740 504 693V578H497Q462 609 408 633T294 657Q227 657 186 626T144 542Q144 453 239 429Q255 424 273 419T314 409L388 391Q463 368 497 322T532 207Q532 165 515 124T466 53Q431 21 387 4T276 -13ZM177 -207L244 -75H362L245 -207H177Z"  />
<glyph unicode="&#x219;" horiz-adv-x="446" d="M214 -13Q159 -13 112 1T33 33V136H38Q49 126 65 115T107 92Q131 81 159 73T217 64Q239 64 264 69T301 83Q318 94 325 106T333 145Q333 177 316 193T252 222Q235 226 207 232T154 245Q91 263 63 300T35 392Q35 466 90 512Q146 559 239 559Q284 559 330 548T407 519V421H402Q367 449 325 465T237 481Q191 481 160 462T129 404Q129 370 147 353T207 326Q228 320 253 315T306 303Q366 288 396 253T427 157Q427 122 413 91T373 37Q343 12 307 0T214 -13ZM122 -207L189 -75H307L190 -207H122Z"  />
<glyph unicode="&#x21A;" horiz-adv-x="584" d="M244 0V641H0V727H584V641H340V0H244ZM160 -207L227 -75H345L228 -207H160Z"  />
<glyph unicode="&#x21B;" horiz-adv-x="334" d="M231 -11Q156 -11 114 31T72 167V469H10V545H72V702H164V545H333V469H164V210Q164 168 165 146T177 104Q185 87 203 79T254 70Q276 70 297 76T328 87H333V5Q307 -2 281 -6T231 -11ZM68 -207L135 -75H253L136 -207H68Z"  />
<glyph unicode="&#x21C;" horiz-adv-x="501" d="M482 181Q482 14 303 -99Q227 -146 52 -205V-121Q383 -21 383 170Q383 236 345 276Q277 226 180 186Q166 181 134 170T52 142V226Q383 326 383 517Q383 566 360 604Q327 657 258 657Q135 657 40 562H32V678Q102 711 142 723Q199 740 258 740Q365 740 427 675Q482 617 482 527Q482 424 414 341Q482 281 482 181Z"  />
<glyph unicode="&#x21D;" horiz-adv-x="432" d="M403 84Q403 -46 255 -127Q190 -163 37 -205V-121Q155 -89 203 -64Q308 -10 308 74Q308 140 272 170Q246 154 213 141T142 115L37 85V170Q159 203 203 224Q308 276 308 360Q308 479 180 479Q100 479 22 413H17V516Q104 561 199 561Q305 561 358 504Q403 454 403 370Q403 291 348 230Q403 179 403 84Z"  />
<glyph unicode="&#x21E;" horiz-adv-x="675" d="M602 0H505V356H170V0H74V727H170V442H505V727H602V0ZM506 1000L395 815H284L172 1000H250L340 875L430 1000H506Z"  />
<glyph unicode="&#x21F;" horiz-adv-x="558" d="M495 0H403V311Q403 348 400 380T386 433Q375 453 355 463T300 473Q266 473 230 455T158 407V0H66V760H158V485Q200 521 239 541T324 561Q405 561 450 509T495 354V0ZM458 1000L347 815H236L124 1000H202L292 875L382 1000H458Z"  />
<glyph unicode="&#x220;" horiz-adv-x="636" d="M590 -201H494V485Q494 574 471 609Q441 653 354 653Q279 653 170 596V0H74V727H170V679Q300 742 374 742Q478 742 533 690Q590 636 590 534V-201Z"  />
<glyph unicode="&#x221;" horiz-adv-x="751" d="M747 -73Q747 -207 600 -207Q525 -207 475 -145Q429 -190 415 -207L366 -145Q380 -129 395 -113T428 -81Q395 -14 395 56Q384 46 366 34T321 4Q280 -15 231 -15Q139 -15 85 58Q29 134 29 269Q29 377 76 454Q114 513 171 541Q213 561 259 561Q328 561 395 523V760H486V79Q486 33 504 -19Q527 1 539 12T553 25Q583 46 621 46Q679 46 713 16T747 -73ZM395 447Q333 477 274 477Q192 477 155 411Q124 358 124 271Q124 72 253 72Q325 72 395 133V447ZM667 -73Q667 -33 623 -33Q596 -33 544 -87Q572 -127 608 -127Q667 -127 667 -73Z"  />
<glyph unicode="&#x222;" horiz-adv-x="582" d="M550 217Q550 104 472 43Q401 -13 291 -13Q181 -13 110 43Q32 104 32 217Q32 370 189 398V405Q52 423 52 527Q52 591 125 624Q185 652 281 652V597Q151 597 151 521Q151 440 291 440Q431 440 431 556Q431 613 390 648Q352 680 300 680V740Q399 740 458 704Q530 659 530 566Q530 503 491 460Q454 418 393 405V398Q550 370 550 217ZM450 222Q450 300 392 334Q352 359 291 359Q230 359 190 334Q132 300 132 222Q132 148 179 107Q221 71 291 71Q361 71 403 107Q450 148 450 222Z"  />
<glyph unicode="&#x223;" horiz-adv-x="534" d="M506 217Q506 105 438 43Q374 -13 267 -13Q160 -13 96 43Q28 105 28 217Q28 372 165 398V405Q47 430 47 566Q47 641 104 691Q123 709 184 740L204 706Q147 643 147 565Q147 440 267 440Q387 440 387 565Q387 643 330 706L350 740Q411 709 430 691Q487 641 487 566Q487 430 369 405V398Q506 372 506 217ZM406 222Q406 359 267 359Q128 359 128 222Q128 66 267 66Q406 66 406 222Z"  />
<glyph unicode="&#x224;" horiz-adv-x="559" d="M559 -42Q559 -82 547 -124H464V-120Q481 -88 481 -48Q481 -18 455 -7Q440 0 397 0H29V90L418 641H47V727H527V640L134 86H397Q475 86 517 54T559 -42Z"  />
<glyph unicode="&#x225;" horiz-adv-x="444" d="M444 -42Q444 -80 433 -124H350V-120Q366 -89 366 -48Q366 -18 343 -7Q328 0 288 0H24V68L309 470H36V545H419V480L133 77H287Q310 77 325 77T348 75Q379 70 402 54Q444 21 444 -42Z"  />
<glyph unicode="&#x226;" horiz-adv-x="600" d="M-5 0L240 727H359L604 0H502L437 203H159L93 0H-5ZM410 286L297 628L186 286H410ZM352 819H248V914H352V819Z"  />
<glyph unicode="&#x227;" horiz-adv-x="525" d="M371 286L288 277Q240 273 208 263Q171 252 147 229T123 164Q123 69 227 69Q270 69 305 88T371 134V286ZM371 58Q360 50 341 35T305 11Q293 5 282 0T258 -8T230 -13T194 -15Q125 -15 77 33Q55 56 42 89T28 158Q28 215 52 254T128 318Q174 339 236 347T371 359V376Q371 409 362 428T334 459Q316 470 291 474T239 478Q207 478 164 468T78 440H73V534Q85 537 104 541T145 550T192 556T239 559Q296 559 334 550T403 518Q462 475 462 373V0H371V58ZM305 637H201V732H305V637Z"  />
<glyph unicode="&#x228;" horiz-adv-x="561" d="M528 0H399Q400 -14 400 -24T401 -43Q401 -116 363 -160Q322 -207 250 -207Q203 -207 164 -195V-117H168Q204 -133 238 -133Q327 -133 327 -52Q327 -43 327 -30T325 0H74V727H528V641H170V442H504V356H170V86H528V0Z"  />
<glyph unicode="&#x229;" horiz-adv-x="526" d="M500 263H122Q122 173 167 122Q213 67 302 67Q404 67 484 133H490V33L424 8Q389 -3 356 -8Q357 -19 357 -27T357 -43Q357 -116 319 -160Q278 -207 207 -207Q159 -207 120 -195V-117H125Q160 -133 194 -133Q283 -133 283 -52Q283 -49 283 -39T281 -12Q156 -4 91 71Q29 145 29 270Q29 394 92 474Q159 561 281 561Q390 561 447 492Q500 427 500 313V263ZM411 333Q406 485 276 485Q207 485 167 442Q128 402 122 333H411Z"  />
<glyph unicode="&#x22A;" horiz-adv-x="708" d="M588 644Q630 596 652 525T675 363Q675 275 653 204T588 84Q543 33 485 9T354 -15Q206 -15 119 84Q77 132 55 202T32 363Q32 456 55 524T120 644Q206 742 354 742Q429 742 487 716T588 644ZM575 363Q575 436 559 491T515 583Q457 659 354 659Q300 659 262 641T192 583Q164 546 149 491T133 363Q133 219 192 144T354 68Q456 68 515 143T575 363ZM535 940H167V1000H535V940ZM501 785H403V875H501V785ZM300 785H202V875H300V785Z"  />
<glyph unicode="&#x22B;" horiz-adv-x="543" d="M515 272Q515 134 448 60Q382 -15 272 -15Q158 -15 93 62Q28 141 28 272Q28 409 95 485Q162 561 272 561Q382 561 448 485Q515 411 515 272ZM420 272Q420 378 382 429T272 481Q200 481 162 430T123 272Q123 169 161 117T272 64Q344 64 382 115T420 272ZM423 652H325V747H423V652ZM222 652H124V747H222V652ZM457 836H89V911H457V836Z"  />
<glyph unicode="&#x22C;" horiz-adv-x="708" d="M588 644Q630 596 652 525T675 363Q675 275 653 204T588 84Q543 33 485 9T354 -15Q206 -15 119 84Q77 132 55 202T32 363Q32 456 55 524T120 644Q206 742 354 742Q429 742 487 716T588 644ZM575 363Q575 436 559 491T515 583Q457 659 354 659Q300 659 262 641T192 583Q164 546 149 491T133 363Q133 219 192 144T354 68Q456 68 515 143T575 363ZM535 940H167V1000H535V940ZM512 877Q507 838 480 812T413 785Q383 785 345 804Q307 823 292 823Q261 823 256 785H190Q195 825 222 851T289 877Q318 877 356 858Q396 840 410 840Q443 840 447 877H512Z"  />
<glyph unicode="&#x22D;" horiz-adv-x="543" d="M515 272Q515 134 448 60Q382 -15 272 -15Q158 -15 93 62Q28 141 28 272Q28 409 95 485Q162 561 272 561Q382 561 448 485Q515 411 515 272ZM420 272Q420 378 382 429T272 481Q200 481 162 430T123 272Q123 169 161 117T272 64Q344 64 382 115T420 272ZM469 840H79V916H469V840ZM469 797Q458 645 349 645Q301 645 260 683Q216 724 192 724Q151 724 147 643H79Q82 705 108 746Q139 794 198 794Q245 794 286 757Q329 718 355 718Q397 718 400 797H469Z"  />
<glyph unicode="&#x22E;" horiz-adv-x="708" d="M588 644Q630 596 652 525T675 363Q675 275 653 204T588 84Q543 33 485 9T354 -15Q206 -15 119 84Q77 132 55 202T32 363Q32 456 55 524T120 644Q206 742 354 742Q429 742 487 716T588 644ZM575 363Q575 436 559 491T515 583Q457 659 354 659Q300 659 262 641T192 583Q164 546 149 491T133 363Q133 219 192 144T354 68Q456 68 515 143T575 363ZM403 819H299V914H403V819Z"  />
<glyph unicode="&#x22F;" horiz-adv-x="543" d="M515 272Q515 134 448 60Q382 -15 272 -15Q158 -15 93 62Q28 141 28 272Q28 409 95 485Q162 561 272 561Q382 561 448 485Q515 411 515 272ZM420 272Q420 378 382 429T272 481Q200 481 162 430T123 272Q123 169 161 117T272 64Q344 64 382 115T420 272ZM325 637H221V732H325V637Z"  />
<glyph unicode="&#x230;" horiz-adv-x="708" d="M588 644Q630 596 652 525T675 363Q675 275 653 204T588 84Q543 33 485 9T354 -15Q206 -15 119 84Q77 132 55 202T32 363Q32 456 55 524T120 644Q206 742 354 742Q429 742 487 716T588 644ZM575 363Q575 436 559 491T515 583Q457 659 354 659Q300 659 262 641T192 583Q164 546 149 491T133 363Q133 219 192 144T354 68Q456 68 515 143T575 363ZM535 940H167V1000H535V940ZM403 785H305V875H403V785Z"  />
<glyph unicode="&#x231;" horiz-adv-x="543" d="M515 272Q515 134 448 60Q382 -15 272 -15Q158 -15 93 62Q28 141 28 272Q28 409 95 485Q162 561 272 561Q382 561 448 485Q515 411 515 272ZM420 272Q420 378 382 429T272 481Q200 481 162 430T123 272Q123 169 161 117T272 64Q344 64 382 115T420 272ZM317 652H219V747H317V652ZM452 836H84V911H452V836Z"  />
<glyph unicode="&#x232;" horiz-adv-x="576" d="M583 727L337 322V0H240V312L-5 727H102L290 406L480 727H583ZM477 829H109V904H477V829Z"  />
<glyph unicode="&#x233;" horiz-adv-x="498" d="M495 545L202 -201H104L201 26L3 545H102L251 142L399 545H495ZM442 652H74V727H442V652Z"  />
<glyph unicode="&#x234;" horiz-adv-x="425" d="M420 -73Q420 -207 274 -207Q199 -207 149 -145Q125 -168 110 -183T88 -207L40 -145Q54 -129 69 -113T102 -81Q68 -14 68 79V760H160V79Q160 33 178 -19Q201 1 213 12T227 25Q257 46 295 46Q353 46 386 16T420 -73ZM340 -73Q340 -33 296 -33Q270 -33 218 -87Q246 -127 282 -127Q340 -127 340 -73Z"  />
<glyph unicode="&#x235;" horiz-adv-x="760" d="M755 -73Q755 -207 609 -207Q534 -207 484 -145Q460 -168 445 -183T423 -207L375 -145Q389 -129 404 -113T437 -81Q403 -14 403 79V311Q403 399 386 433Q364 473 300 473Q236 473 158 407V0H66V545H158V485Q243 561 324 561Q413 561 456 500Q495 446 495 354V79Q495 33 513 -19Q536 1 548 12T562 25Q592 46 630 46Q688 46 721 16T755 -73ZM677 -73Q677 -33 633 -33Q607 -33 555 -87Q583 -127 619 -127Q677 -127 677 -73Z"  />
<glyph unicode="&#x236;" horiz-adv-x="429" d="M424 123Q424 -11 278 -11Q203 -11 153 51Q128 27 113 12T92 -11L43 51Q57 67 73 83T106 115Q72 182 72 275V469H10V545H72V702H164V545H333V469H164V274Q164 229 182 177Q205 197 217 208T231 221Q261 242 299 242Q357 242 390 212T424 123ZM345 123Q345 163 301 163Q275 163 223 108Q250 69 287 69Q345 69 345 123Z"  />
<glyph unicode="&#x237;" horiz-adv-x="282" d="M215 -16Q215 -110 165 -158T27 -207Q12 -207 -6 -206T-44 -201V-119H-39Q-28 -121 -15 -123T10 -125Q83 -125 105 -88Q116 -70 120 -44T124 22V469H25V545H215V-16Z"  />
<glyph unicode="&#x238;" horiz-adv-x="881" d="M486 0H395V56Q373 38 358 26T321 4Q301 -5 280 -10T231 -15Q186 -15 149 3T85 58Q58 94 44 147T29 269Q29 341 47 393T99 484Q128 520 170 540T259 561Q301 561 331 552T395 523V760H486V488Q521 520 561 540T653 561Q747 561 799 488T852 282Q852 149 787 66Q722 -15 625 -15Q580 -15 549 -4T486 25V0ZM757 274Q757 373 728 423T632 473Q594 473 556 456T486 411V99Q521 82 548 75T607 67Q677 67 717 116T757 274ZM395 447Q360 464 333 470T274 477Q204 477 164 424T124 271Q124 174 154 123T253 72Q289 72 325 88T395 133V447Z"  />
<glyph unicode="&#x239;" horiz-adv-x="881" d="M852 287Q852 152 787 70Q722 -11 622 -11Q582 -11 551 -2T486 27V-201H395V60Q353 23 316 6T232 -11Q138 -11 84 63T29 271Q29 341 48 395T99 486Q129 521 171 541T259 561Q301 561 331 551T395 522V545H486V488Q521 519 562 540T653 561Q746 561 799 486Q852 412 852 287ZM395 447Q360 464 333 471T274 478Q202 478 163 427T124 275Q124 179 155 128T252 77Q291 77 327 93T395 137V447ZM757 277Q757 371 728 422T631 473Q592 473 556 456T486 411V102Q522 84 548 78T607 72Q679 72 718 123T757 277Z"  />
<glyph unicode="&#x23A;" horiz-adv-x="600" d="M617 800L435 499L604 0H502L437 203H257L91 -73H11L55 0H-5L240 727H359L407 584L537 800H617ZM227 286L345 481L297 628L186 286H227ZM373 396L307 286H410L373 396ZM137 137L177 203H159L137 137Z"  />
<glyph unicode="&#x23B;" horiz-adv-x="601" d="M641 800L572 685L584 679V562H576Q566 570 553 581T523 605L228 115Q256 92 289 81T358 70Q400 70 436 80T500 106Q526 122 545 137T577 165H584V49Q560 38 539 28T487 8Q456 -2 429 -7T358 -13Q256 -13 180 34L115 -73H35L126 79L124 82Q79 130 56 200T32 363Q32 454 55 521T123 640Q168 689 227 714T359 740Q396 740 428 735T487 721Q492 719 497 718T509 714L561 800H641ZM133 363Q133 300 145 252T181 169L463 638Q440 647 415 652T358 658Q312 658 271 639T198 583Q167 545 150 489T133 363Z"  />
<glyph unicode="&#x23C;" horiz-adv-x="461" d="M491 654L424 526L444 516V413H439Q430 421 417 430T384 450L196 92Q231 67 282 67Q327 67 367 85T439 134H444V31Q431 24 411 15T373 2Q350 -5 331 -8T283 -12Q211 -12 156 15L110 -73H30L99 59Q65 94 47 147T29 272Q29 344 48 396T100 484Q132 520 180 539T283 558Q320 558 356 549L411 654H491ZM124 272Q124 200 147 151L317 475Q308 477 299 478T282 479Q210 479 167 426T124 272Z"  />
<glyph unicode="&#x23D;" horiz-adv-x="498" d="M309 348H170V86H495V0H74V348H-59V423H74V727H170V423H309V348Z"  />
<glyph unicode="&#x23E;" horiz-adv-x="584" d="M598 800L554 727H584V641H502L340 372V0H244V212L72 -73H-8L244 345V641H0V727H474L518 800H598ZM340 504L422 641H340V504Z"  />
<glyph unicode="&#x23F;" horiz-adv-x="446" d="M111 1Q104 4 83 11T33 33V136H38Q49 126 65 115T107 92Q131 81 159 73T217 64Q239 64 264 69T301 83Q318 94 325 106T333 145Q333 177 316 193T252 222Q235 226 207 232T154 245Q91 263 63 300T35 392Q35 466 90 512Q146 559 239 559Q284 559 330 548T407 519V421H402Q367 449 325 465T237 481Q191 481 160 462T129 404Q129 370 147 353T207 326Q228 320 253 315T306 303Q366 288 396 253T427 157Q427 122 413 91T373 37Q344 12 306 0Q295 -4 282 -6T254 -11Q273 -25 284 -42Q317 -94 331 -105Q345 -116 365 -116Q396 -116 433 -94V-168Q396 -193 349 -193Q311 -193 283 -172Q255 -151 220 -86Q188 -27 111 1Z"  />
<glyph unicode="&#x240;" horiz-adv-x="444" d="M425 -168Q388 -193 341 -193Q303 -193 275 -172Q247 -151 211 -75Q175 0 107 0H24V68L309 470H36V545H419V480L133 77Q229 72 266 -3Q305 -80 321 -97Q337 -116 357 -116Q388 -116 425 -94V-168Z"  />
<glyph unicode="&#x241;" horiz-adv-x="541" d="M512 480Q512 369 447 293Q379 214 258 198V0H167V274H220Q320 274 373 339Q417 395 417 480Q417 569 374 621Q323 685 220 685Q112 685 24 619H17V722Q125 765 209 765Q362 765 440 683Q512 608 512 480Z"  />
<glyph unicode="&#x242;" horiz-adv-x="461" d="M384 48H15V121H137V236H180Q261 236 302 302Q337 358 337 443Q337 531 303 583Q263 647 180 647Q92 647 22 581H17V684Q109 727 178 727Q307 727 373 645Q433 571 433 443Q433 329 381 255Q327 178 229 161V121H384V48Z"  />
<glyph unicode="&#x243;" horiz-adv-x="589" d="M567 223Q567 169 547 128T491 59Q450 27 403 14T282 0H74V186H14V254H74V727H267Q305 727 334 726T383 722Q422 717 458 698Q497 677 515 643T533 563Q533 512 506 472T431 408V404Q497 386 532 340T567 223ZM466 219Q466 261 455 287T407 332Q384 344 357 347T280 351H170V254H297V186H170V83H249Q312 83 349 88T414 113Q441 132 453 156T466 219ZM432 549Q432 576 424 595T395 625Q372 639 343 642T263 645H170V432H280Q328 432 347 436Q368 440 392 456Q414 470 423 493T432 549Z"  />
<glyph unicode="&#x244;" horiz-adv-x="656" d="M328 -15Q203 -15 134 52Q96 90 81 142T65 273V324H15V393H65V727H162V393H494V727H591V393H641V324H591V273Q591 198 576 144T521 52Q487 18 441 2T328 -15ZM168 188Q174 153 193 127Q231 67 328 67Q373 67 408 82T463 127Q481 155 487 188T494 271V324H162V273Q162 222 168 188Z"  />
<glyph unicode="&#x245;" horiz-adv-x="597" d="M602 0H498L298 604L94 0H-5L248 727H353L602 0Z"  />
<glyph unicode="&#x246;" horiz-adv-x="561" d="M477 806L452 727H528V641H426L364 442H504V356H337L253 86H528V0H227L192 -112H109L143 0H74V727H368L393 806H477ZM170 442H280L342 641H170V442ZM170 86L253 356H170V86Z"  />
<glyph unicode="&#x247;" horiz-adv-x="526" d="M462 715L404 529Q414 523 422 516T439 500Q469 469 484 424T500 313V263H321L261 70Q280 67 302 67Q333 67 362 74T414 92Q439 103 456 113T484 133H490V33Q474 27 450 18T407 2Q380 -5 358 -9T303 -13Q268 -13 237 -7L177 -203H94L162 16Q97 48 63 112T29 270Q29 402 98 482Q168 561 281 561Q294 561 306 560T329 557L378 715H462ZM259 333L306 483Q298 484 291 484T276 485Q239 485 214 474T167 442Q146 420 136 394T122 333H259ZM122 263Q122 150 188 101L238 263H122ZM379 443Q378 443 378 444L343 333H411Q410 371 402 397T379 443Z"  />
<glyph unicode="&#x248;" horiz-adv-x="417" d="M348 189Q348 92 290 41T133 -10Q121 -10 105 -9T70 -6T35 -2T4 4V96H10Q30 89 59 81T120 73Q165 73 191 83T230 112Q244 132 247 160T251 226V318H119V386H251V650H97V727H348V386H402V318H348V189Z"  />
<glyph unicode="&#x249;" horiz-adv-x="282" d="M215 -16Q215 -110 165 -158T27 -207Q12 -207 -6 -206T-44 -201V-119H-39Q-28 -121 -15 -123T10 -125Q83 -125 105 -88Q116 -70 120 -44T124 22V209H14V275H124V469H25V545H215V275H267V209H215V-16ZM216 637H111V732H216V637Z"  />
<glyph unicode="&#x24A;" horiz-adv-x="724" d="M650 727V-12Q650 -69 672 -97T759 -125Q771 -125 783 -123T807 -119H812V-201Q794 -204 775 -205T741 -207Q653 -207 603 -159T553 -16V71Q479 -15 344 -15Q272 -15 215 10T117 83T54 202T32 363Q32 454 54 524T116 643T214 717T344 742Q481 742 553 658V727H650ZM354 659Q251 659 192 584T133 363Q133 220 193 144T354 68Q415 68 467 95T553 176V553Q519 607 467 633T354 659Z"  />
<glyph unicode="&#x24B;" horiz-adv-x="555" d="M655 -201Q617 -207 584 -207Q493 -207 445 -157T396 -16V56Q357 20 319 3T233 -15Q186 -15 149 4T85 60T44 150T29 269Q29 404 100 484Q129 520 171 540T261 561Q302 561 332 552T396 522H398V545H488V-7Q488 -58 506 -88Q528 -125 602 -125Q620 -125 650 -119H655V-201ZM396 447Q362 464 335 470T276 477Q238 477 210 462T162 420T134 355T124 271Q124 174 155 123T254 72Q291 72 327 88T396 133V447Z"  />
<glyph unicode="&#x24C;" horiz-adv-x="621" d="M637 0H511L281 289H170V0H74V295H14V363H74V727H261Q324 727 366 720T446 688Q484 664 506 626T529 530Q529 449 489 396T378 316L637 0ZM428 522Q428 589 382 619Q361 633 335 638T266 644H170V370H255Q297 370 330 377T387 407Q428 448 428 522Z"  />
<glyph unicode="&#x24D;" horiz-adv-x="360" d="M355 447H351Q340 450 329 450T301 451Q264 451 228 435T158 387V234H272V168H158V0H66V168H14V234H66V545H158V464Q208 509 245 527T318 545Q333 545 340 545T355 542V447Z"  />
<glyph unicode="&#x24E;" horiz-adv-x="576" d="M583 727L504 598H562V530H463L337 322V0H240V312L111 530H14V598H71L-5 727H102L177 598H403L480 727H583ZM290 406L363 530H217L290 406Z"  />
<glyph unicode="&#x24F;" horiz-adv-x="498" d="M495 545L410 330H483V264H385L202 -201H104L201 26L110 264H14V330H85L3 545H102L182 330H320L399 545H495ZM251 142L296 264H206L251 142Z"  />
<glyph unicode="&#x250;" horiz-adv-x="525" d="M497 387Q497 273 397 228Q327 196 154 187V169Q154 108 191 86Q221 68 286 68Q360 68 447 105H452V12Q368 -13 286 -13Q175 -13 122 27Q62 72 62 172V545H154V487Q165 495 181 507T220 534Q272 561 331 561Q400 561 448 512Q497 463 497 387ZM402 381Q402 476 298 476Q228 476 154 411V260Q190 263 211 265T237 268Q263 270 283 273T317 282Q402 307 402 381Z"  />
<glyph unicode="&#x251;" horiz-adv-x="555" d="M488 0H396V56Q357 20 319 3T233 -15Q186 -15 149 4T85 60T44 150T29 269Q29 404 100 484Q129 520 171 540T261 561Q302 561 332 552T396 522H398V545H488V0ZM396 447Q362 464 335 470T276 477Q238 477 210 462T162 420T134 355T124 271Q124 174 155 123T254 72Q291 72 327 88T396 133V447Z"  />
<glyph unicode="&#x252;" horiz-adv-x="555" d="M526 277Q526 146 455 61Q391 -15 294 -15Q226 -15 158 23H156V0H66V545H158V490Q235 561 322 561Q429 561 482 468Q526 391 526 277ZM431 275Q431 473 300 473Q228 473 158 413V98Q221 69 279 69Q358 69 399 135Q431 188 431 275Z"  />
<glyph unicode="&#x253;" horiz-adv-x="553" d="M524 282Q524 164 470 82Q407 -15 296 -15Q225 -15 158 25L152 0H66V563Q66 765 250 765Q291 765 344 756V672H339Q306 685 263 685Q206 685 180 659Q158 636 158 564V488Q237 561 325 561Q429 561 482 469Q524 395 524 282ZM429 274Q429 473 304 473Q231 473 158 411V99Q224 67 279 67Q429 67 429 274Z"  />
<glyph unicode="&#x254;" horiz-adv-x="461" d="M433 274Q433 141 362 62Q294 -12 178 -12Q99 -12 17 30V133H22Q50 109 85 92Q132 67 180 67Q261 67 302 133Q337 189 337 274Q337 362 303 415Q263 479 180 479Q92 479 22 412H17V515Q28 520 46 527T88 544Q141 558 178 558Q295 558 362 488Q433 414 433 274Z"  />
<glyph unicode="&#x255;" horiz-adv-x="461" d="M444 122Q444 64 408 28Q367 -12 283 -12Q173 -12 109 48Q76 18 49 -12L0 50Q12 64 62 112Q29 179 29 272Q29 405 100 484Q168 558 283 558Q361 558 444 516V413H439Q410 437 376 454Q330 479 282 479Q201 479 159 413Q124 357 124 272Q124 217 139 174Q233 241 309 241Q375 241 411 208Q444 176 444 122ZM365 122Q365 161 311 161Q255 161 179 106Q218 67 282 67Q323 67 345 86Q365 103 365 122Z"  />
<glyph unicode="&#x256;" horiz-adv-x="553" d="M654 -201Q616 -207 583 -207Q492 -207 444 -157T395 -16V56Q348 17 321 4Q280 -15 231 -15Q139 -15 85 58Q29 134 29 269Q29 376 75 452Q112 512 171 541Q213 561 259 561Q328 561 395 523V760H486V22Q486 -34 493 -58Q503 -102 540 -116Q564 -125 600 -125Q618 -125 648 -119H654V-201ZM395 447Q333 477 274 477Q192 477 155 411Q124 358 124 271Q124 72 253 72Q325 72 395 133V447Z"  />
<glyph unicode="&#x257;" horiz-adv-x="553" d="M672 672H667Q634 685 591 685Q562 685 543 680T510 660T492 623T486 563V0H395V56Q348 17 321 4Q280 -15 231 -15Q139 -15 85 58Q29 134 29 269Q29 377 76 454Q114 513 171 541Q213 561 259 561Q328 561 395 523V564Q395 765 578 765Q621 765 672 756V672ZM395 447Q333 477 274 477Q192 477 155 411Q124 358 124 271Q124 72 253 72Q325 72 395 133V447Z"  />
<glyph unicode="&#x258;" horiz-adv-x="526" d="M498 270Q498 136 427 62Q356 -13 223 -13Q152 -13 77 18Q64 22 37 33V133H42Q68 112 112 92Q165 67 224 67Q314 67 360 122Q404 174 404 263H26V313Q26 436 87 500Q144 561 245 561Q366 561 435 474Q498 394 498 270ZM404 333Q398 401 359 442Q317 485 250 485Q180 485 147 443Q117 404 116 333H404Z"  />
<glyph unicode="&#x259;" horiz-adv-x="526" d="M498 278Q498 153 435 74Q366 -13 245 -13Q144 -13 87 48Q26 112 26 235V285H404Q404 374 360 426Q313 480 224 480Q166 480 112 456Q68 436 42 415H37V515L120 545Q172 561 223 561Q356 561 428 486Q498 413 498 278ZM116 214Q117 144 147 105Q180 63 250 63Q317 63 359 106Q398 146 404 214H116Z"  />
<glyph unicode="&#x25A;" horiz-adv-x="719" d="M719 201Q682 184 641 176Q624 173 612 173Q590 173 572 179T539 200T514 240T497 305Q498 297 498 290T498 278Q498 153 435 74Q366 -13 245 -13Q132 -13 77 59Q26 123 26 235V285L396 356Q360 480 224 480Q122 480 42 415H37V515Q151 561 223 561Q440 561 487 373L561 387L572 323Q578 286 585 273Q597 252 621 252Q628 252 632 253Q673 261 700 282H705L719 201ZM116 231Q116 63 250 63Q331 63 373 121Q408 171 408 245Q408 269 404 288L116 231Z"  />
<glyph unicode="&#x25B;" horiz-adv-x="455" d="M441 31Q392 8 347 -2T245 -13Q208 -13 170 -5T101 22Q69 42 49 73T29 149Q29 195 55 231T138 285V289Q96 300 72 332T47 410Q47 452 67 481T119 527Q149 543 187 551T259 559Q304 559 341 551T420 529V429H415Q385 454 341 467T252 480Q231 480 214 478T178 465Q163 457 152 442T141 403Q141 374 153 357T187 333Q207 326 231 326T278 325H321V244H257Q229 244 207 242T164 231Q146 223 135 205T123 158Q123 130 135 113T165 85Q182 76 205 71T252 66Q300 66 351 84T436 133H441V31Z"  />
<glyph unicode="&#x25C;" horiz-adv-x="458" d="M428 151Q428 105 408 74T356 23Q327 5 289 -4T212 -13Q158 -13 111 -3T16 31V133H21Q55 102 104 84T205 66Q226 66 250 71T292 85Q315 99 324 114T334 158Q334 187 323 205T293 231Q274 240 251 242T200 245H136V324H185Q194 324 206 324T231 325T255 328T276 333Q297 340 309 354T322 403Q322 427 312 442T285 465Q268 474 249 477T211 480Q165 480 122 467T48 429H42V528Q78 540 120 549T206 559Q241 559 276 552T345 527Q375 511 395 482T416 411Q416 366 391 333T324 289V285Q370 270 399 238T428 151Z"  />
<glyph unicode="&#x25D;" horiz-adv-x="636" d="M636 289Q599 272 558 264Q541 261 529 261Q485 261 456 287T415 389Q401 308 324 289V285Q428 250 428 151Q428 66 356 23Q297 -13 212 -13Q107 -13 16 31V133H21Q92 66 205 66Q261 66 292 85Q334 110 334 158Q334 211 293 231Q263 245 200 245H136V324H185Q252 324 276 333Q322 349 322 403Q322 446 285 465Q256 480 211 480Q109 480 48 429H42V528Q129 559 206 559Q286 559 345 527Q389 503 407 461L478 475L489 411Q495 373 502 361Q514 340 538 340Q545 340 549 341Q590 349 617 370H622L636 289Z"  />
<glyph unicode="&#x25E;" horiz-adv-x="531" d="M501 151Q501 67 431 24Q373 -13 286 -13Q157 -13 91 67Q29 143 29 272Q29 394 91 473Q159 559 279 559Q363 559 419 526Q489 487 489 411Q489 366 464 333T397 289V285Q501 250 501 151ZM407 158Q407 213 364 232Q337 245 273 245H209V324H258Q327 324 351 333Q396 349 396 403Q396 479 283 479Q202 479 160 414Q124 358 124 272Q124 186 159 131Q199 67 282 67Q407 67 407 158Z"  />
<glyph unicode="&#x25F;" horiz-adv-x="318" d="M304 62H242V-5Q242 -207 59 -207Q16 -207 -35 -198V-114H-30Q4 -126 46 -126Q106 -126 132 -96Q153 -71 153 -6V62H1V138H150V545H242V138H304V62Z"  />
<glyph unicode="&#x260;" horiz-adv-x="553" d="M672 672H667Q634 685 591 685Q534 685 508 659Q486 636 486 564V62Q486 -207 241 -207Q160 -207 81 -183V-87H86Q103 -95 120 -100T154 -110Q209 -125 248 -125Q332 -125 366 -82Q395 -47 395 24V72Q321 9 232 9Q125 9 73 94Q29 165 29 278Q29 408 99 487Q164 561 259 561Q330 561 395 522V563Q395 765 578 765Q621 765 672 756V672ZM395 447Q332 478 273 478Q195 478 156 416Q124 363 124 280Q124 94 253 94Q330 94 395 148V447Z"  />
<glyph unicode="&#x261;" horiz-adv-x="553" d="M395 447Q360 464 331 471T273 478Q204 478 164 427T124 280Q124 189 154 142T253 94Q289 94 326 108T395 148V447ZM86 -87Q95 -91 113 -97T154 -110Q180 -117 201 -121T248 -125Q291 -125 320 -114T366 -82Q382 -62 388 -36T395 24V72Q376 56 358 44T321 25T281 13T232 9Q138 9 84 78T29 278Q29 347 48 399T99 487Q130 522 172 541T259 561Q301 561 332 551T395 522L400 545H486V62Q486 -77 426 -142T241 -207Q201 -207 159 -201T81 -183V-87H86Z"  />
<glyph unicode="&#x262;" horiz-adv-x="538" d="M476 33Q369 -15 292 -15Q160 -15 91 67Q28 143 28 273Q28 402 97 480Q167 561 292 561Q378 561 474 513V424H467Q372 482 283 482Q123 482 123 276Q123 178 155 126Q195 63 289 63Q342 63 384 81V198H274V275H476V33Z"  />
<glyph unicode="&#x263;" horiz-adv-x="498" d="M492 545L295 83L327 7Q355 -62 355 -90Q355 -199 249 -199Q143 -199 143 -90Q143 -62 171 7L203 83L6 545H102L249 192L396 545H492ZM273 -88Q273 -81 256 -41L249 -24L242 -41Q225 -81 225 -88Q225 -119 250 -119Q273 -119 273 -88Z"  />
<glyph unicode="&#x264;" horiz-adv-x="609" d="M559 413H553Q542 438 522 459Q498 483 473 483Q441 483 428 449L351 267L383 191Q412 121 412 94Q412 -15 305 -15Q199 -15 199 94Q199 119 228 191L258 267L182 449Q167 483 137 483Q112 483 87 459Q66 438 56 413H51L2 469Q61 561 139 561Q181 561 213 542Q250 520 265 481L305 376L344 481Q357 519 396 542Q428 561 470 561Q548 561 607 469L559 413ZM329 93Q329 103 312 143L305 160L298 143Q281 103 281 93Q281 65 305 65Q329 65 329 93Z"  />
<glyph unicode="&#x265;" horiz-adv-x="558" d="M491 -201H399V61Q314 -15 234 -15Q145 -15 102 46Q62 99 62 191V545H154V235Q154 146 172 113Q195 72 258 72Q321 72 399 138V545H491V-201Z"  />
<glyph unicode="&#x266;" horiz-adv-x="558" d="M495 0H403V311Q403 399 386 433Q364 473 300 473Q236 473 158 407V0H66V563Q66 765 250 765Q291 765 344 756V672H339Q306 685 263 685Q200 685 178 655Q158 629 158 564V485Q243 561 324 561Q413 561 456 500Q495 446 495 354V0Z"  />
<glyph unicode="&#x267;" horiz-adv-x="558" d="M495 -15Q495 -106 447 -156T307 -207Q273 -207 236 -201V-119H241Q271 -125 290 -125Q324 -125 350 -116Q387 -102 397 -58Q403 -33 403 22V311Q403 399 386 433Q364 473 300 473Q236 473 158 407V0H66V563Q66 765 250 765Q291 765 344 756V672H339Q306 685 263 685Q200 685 178 655Q158 629 158 564V485Q243 561 324 561Q413 561 456 500Q495 446 495 354V-15Z"  />
<glyph unicode="&#x268;" horiz-adv-x="229" d="M167 637H62V732H167V637ZM229 266H160V0H68V266H0V344H68V545H160V344H229V266Z"  />
<glyph unicode="&#x269;" horiz-adv-x="229" d="M160 0H68V545H160V0Z"  />
<glyph unicode="&#x26A;" horiz-adv-x="373" d="M325 0H48V74H141V471H48V545H325V471H232V74H325V0Z"  />
<glyph unicode="&#x26B;" horiz-adv-x="390" d="M390 504Q379 352 270 352Q254 352 241 355V0H149V417L144 420Q128 431 113 431Q72 431 68 350H0Q3 412 29 453Q60 501 120 501Q135 501 149 498V760H241V437L246 435Q262 425 276 425Q318 425 322 504H390Z"  />
<glyph unicode="&#x26C;" horiz-adv-x="274" d="M263 300H183V0H91V300H84Q-25 300 -25 407Q-25 513 84 513H91V760H183V358H263V300ZM91 358V455H84Q34 455 34 405Q34 358 84 358H91Z"  />
<glyph unicode="&#x26D;" horiz-adv-x="229" d="M328 -201Q290 -207 256 -207Q165 -207 117 -157T68 -16V760H160V21Q160 -35 167 -59Q177 -102 214 -116Q238 -125 274 -125Q292 -125 322 -119H328V-201Z"  />
<glyph unicode="&#x26E;" horiz-adv-x="554" d="M530 58Q530 -207 275 -207Q206 -207 114 -164V-61H120Q190 -127 277 -127Q435 -127 435 58Q435 140 392 189Q345 246 262 246V266L414 470H160V0H68V760H160V545H524V480L387 296Q434 275 470 233Q530 162 530 58Z"  />
<glyph unicode="&#x26F;" horiz-adv-x="840" d="M773 0H682V61Q606 -15 532 -15Q426 -15 390 79Q305 -15 223 -15Q148 -15 108 31Q62 83 62 187V545H154V230Q154 140 169 110Q189 72 246 72Q303 72 374 140Q373 157 373 168T372 187V545H464V230Q464 140 479 110Q499 72 556 72Q611 72 682 138V545H773V0Z"  />
<glyph unicode="&#x270;" horiz-adv-x="840" d="M773 -201H682V61Q606 -15 532 -15Q426 -15 390 79Q305 -15 223 -15Q148 -15 108 31Q62 83 62 187V545H154V230Q154 140 169 110Q189 72 246 72Q303 72 374 140Q373 157 373 168T372 187V545H464V230Q464 140 479 110Q499 72 556 72Q611 72 682 138V545H773V-201Z"  />
<glyph unicode="&#x271;" horiz-adv-x="840" d="M777 -15Q777 -106 729 -156T589 -207Q555 -207 518 -201V-119H523Q554 -125 572 -125Q606 -125 632 -116Q669 -102 679 -58Q686 -34 686 22V315Q686 406 670 435Q650 473 594 473Q536 473 466 406Q467 389 467 378T468 359V0H376V315Q376 405 361 435Q341 473 284 473Q228 473 158 407V0H66V545H158V485Q234 561 308 561Q414 561 450 466Q536 561 617 561Q690 561 731 514Q777 462 777 359V-15Z"  />
<glyph unicode="&#x272;" horiz-adv-x="558" d="M495 0H403V311Q403 399 386 433Q364 473 300 473Q236 473 158 407V-15Q158 -106 110 -156T-30 -207Q-64 -207 -101 -201V-119H-96Q-65 -125 -47 -125Q-13 -125 13 -116Q50 -102 60 -58Q66 -33 66 22V545H158V485Q243 561 324 561Q413 561 456 500Q495 446 495 354V0Z"  />
<glyph unicode="&#x273;" horiz-adv-x="558" d="M663 -201Q625 -207 591 -207Q500 -207 452 -157T403 -15V311Q403 399 386 433Q364 473 300 473Q236 473 158 407V0H66V545H158V485Q243 561 324 561Q413 561 456 500Q495 446 495 354V22Q495 -33 501 -58Q513 -102 549 -116Q573 -125 609 -125Q627 -125 657 -119H663V-201Z"  />
<glyph unicode="&#x274;" horiz-adv-x="563" d="M497 0H411L157 400V0H66V545H149L406 139V545H497V0Z"  />
<glyph unicode="&#x275;" horiz-adv-x="543" d="M515 272Q515 146 458 70Q394 -15 272 -15Q151 -15 86 71Q28 147 28 272Q28 398 86 475Q152 561 272 561Q393 561 458 475Q515 398 515 272ZM417 333Q396 481 272 481Q145 481 126 333H417ZM123 263Q126 64 272 64Q417 64 420 263H123Z"  />
<glyph unicode="&#x276;" horiz-adv-x="786" d="M723 0H339Q28 0 28 273Q28 415 118 484Q197 545 338 545H723V469H472V333H705V256H472V77H723V0ZM380 75V471H336Q219 471 172 428Q123 383 123 272Q123 160 177 115Q226 75 335 75H380Z"  />
<glyph unicode="&#x277;" horiz-adv-x="725" d="M693 250Q693 142 650 71Q599 -15 501 -15Q459 -15 422 7T365 66H359Q339 30 302 8T223 -15Q125 -15 73 73Q31 145 31 250Q31 401 135 487Q227 561 363 561Q499 561 590 487Q693 402 693 250ZM600 250Q600 362 520 419Q456 465 363 465Q270 465 206 419Q125 360 125 250Q125 179 144 132Q170 64 229 64Q299 64 317 122V280H408V122Q424 89 443 77T496 64Q554 64 581 131Q600 179 600 250Z"  />
<glyph unicode="&#x278;" horiz-adv-x="543" d="M515 272Q515 135 449 60Q397 0 316 -12V-201H225V-11Q144 3 93 62Q28 141 28 272Q28 381 73 455Q126 541 225 557V760H316V557Q397 543 449 485Q515 410 515 272ZM420 272Q420 444 316 476V70Q357 82 382 116Q420 169 420 272ZM225 475Q123 443 123 272Q123 102 225 71V475Z"  />
<glyph unicode="&#x279;" horiz-adv-x="360" d="M294 0H202V81Q152 37 115 19T42 0Q21 0 5 3V99H10Q27 94 59 94Q137 94 202 158V545H294V0Z"  />
<glyph unicode="&#x27A;" horiz-adv-x="360" d="M294 0H202V81Q152 37 115 19T42 0Q21 0 5 3V99H10Q27 94 59 94Q137 94 202 158V760H294V0Z"  />
<glyph unicode="&#x27B;" horiz-adv-x="360" d="M461 -201Q423 -207 390 -207Q299 -207 251 -157T202 -15V81Q152 37 115 19T42 0Q21 0 5 3V99H10Q27 94 59 94Q137 94 202 158V545H294V22Q294 -33 300 -58Q312 -102 348 -116Q372 -125 408 -125Q426 -125 456 -119H461V-201Z"  />
<glyph unicode="&#x27C;" horiz-adv-x="360" d="M355 447H351Q336 451 301 451Q223 451 158 387V-201H66V545H158V464Q249 545 318 545Q338 545 355 542V447Z"  />
<glyph unicode="&#x27D;" horiz-adv-x="360" d="M355 447H351Q336 451 301 451Q223 451 158 387V21Q158 -35 165 -59Q175 -102 212 -116Q236 -125 272 -125Q290 -125 320 -119H326V-201Q288 -207 254 -207Q163 -207 115 -157T66 -15V545H158V464Q249 545 318 545Q338 545 355 542V447Z"  />
<glyph unicode="&#x27E;" horiz-adv-x="349" d="M344 453H339Q304 465 263 465Q206 465 180 439Q158 417 158 343V0H66V344Q66 545 250 545Q271 545 294 543T344 537V453Z"  />
<glyph unicode="&#x27F;" horiz-adv-x="349" d="M282 0H190V343Q190 417 168 439Q144 465 86 465Q44 465 10 453H5V537Q31 541 54 543T99 545Q282 545 282 344V0Z"  />
<glyph unicode="&#x280;" horiz-adv-x="514" d="M509 0H399L223 216H154V0H66V545H223Q427 545 427 395Q427 279 312 237L509 0ZM335 389Q335 439 304 458Q279 472 227 472H154V287H218Q280 287 306 307Q335 330 335 389Z"  />
<glyph unicode="&#x281;" horiz-adv-x="514" d="M509 545L312 309Q427 266 427 151Q427 0 223 0H66V545H154V330H223L399 545H509ZM335 156Q335 216 306 239Q281 258 218 258H154V73H227Q280 73 304 88Q335 106 335 156Z"  />
<glyph unicode="&#x282;" horiz-adv-x="446" d="M427 157Q427 82 373 37Q312 -13 214 -13Q170 -13 124 -2Q124 -69 149 -97T238 -125Q255 -125 287 -119H292V-201Q254 -207 221 -207Q130 -207 82 -157T33 -16V136H38Q92 92 159 73Q187 64 217 64Q273 64 301 83Q333 104 333 145Q333 181 310 199Q293 211 252 222Q236 226 212 231T154 245Q35 280 35 392Q35 473 99 519Q154 559 239 559Q336 559 407 519V421H402Q327 481 237 481Q193 481 165 465Q129 444 129 404Q129 369 151 350Q167 337 207 326L306 303Q427 273 427 157Z"  />
<glyph unicode="&#x283;" horiz-adv-x="546" d="M512 668H507Q500 671 490 673T468 678T446 681T428 682Q397 682 376 676T343 653T325 612T319 549V1Q319 -102 268 -154T129 -207Q83 -207 36 -197V-110H41Q60 -116 81 -120T118 -124Q180 -124 203 -95T227 9V557Q227 660 278 712T417 765Q445 765 468 762T512 755V668Z"  />
<glyph unicode="&#x284;" horiz-adv-x="318" d="M431 672H426Q393 685 350 685Q289 685 264 655Q242 629 242 565V138H304V62H242V-5Q242 -207 59 -207Q16 -207 -35 -198V-114H-30Q4 -126 46 -126Q106 -126 132 -97Q153 -70 153 -6V62H1V138H150V564Q150 659 201 713Q247 765 336 765Q378 765 431 756V672Z"  />
<glyph unicode="&#x285;" horiz-adv-x="546" d="M512 -6Q465 -15 419 -15Q325 -15 276 43Q229 98 229 192V549Q229 618 209 647Q186 682 120 682Q80 682 41 668H36V755Q83 765 131 765Q225 765 274 707Q321 652 321 557V200Q321 132 341 103Q365 68 430 68Q462 68 507 81H512V-6Z"  />
<glyph unicode="&#x286;" horiz-adv-x="579" d="M545 668H540Q501 682 461 682Q396 682 372 647Q352 618 352 549V79Q352 -14 318 -81Q336 -97 351 -113T381 -145L332 -207Q326 -199 311 -184T271 -145Q221 -207 146 -207Q0 -207 0 -73Q0 -18 31 13Q64 46 125 46Q163 46 193 25Q201 20 243 -19Q260 35 260 78V557Q260 652 307 707Q356 765 450 765Q498 765 545 755V668ZM202 -87Q149 -33 124 -33Q80 -33 80 -73Q80 -127 138 -127Q174 -127 202 -87Z"  />
<glyph unicode="&#x287;" horiz-adv-x="334" d="M324 157H262V0H170V157H1V233H170V492Q170 572 158 598Q142 632 81 632Q46 632 7 615H1V697Q55 713 103 713Q262 713 262 535V233H324V157Z"  />
<glyph unicode="&#x288;" horiz-adv-x="334" d="M333 -191Q279 -207 231 -207Q72 -207 72 -29V469H10V545H72V702H164V545H333V469H164V14Q164 -67 177 -92Q193 -126 254 -126Q290 -126 328 -108H333V-191Z"  />
<glyph unicode="&#x289;" horiz-adv-x="558" d="M558 266H491V0H399V61Q314 -15 234 -15Q157 -15 112 34Q62 87 62 191V266H0V344H62V545H154V344H399V545H491V344H558V266ZM399 266H154V235Q154 146 172 113Q193 72 258 72Q324 72 399 138V266Z"  />
<glyph unicode="&#x28A;" horiz-adv-x="632" d="M569 469H433V434Q554 364 554 218Q554 114 489 49Q425 -15 316 -15Q214 -15 146 47Q78 112 78 218Q78 362 199 434V469H62V545H271V396Q211 356 191 326Q165 286 165 218Q165 143 205 101T316 59Q388 59 427 99T467 218Q467 286 444 324Q423 358 361 396V545H569V469Z"  />
<glyph unicode="&#x28B;" horiz-adv-x="557" d="M494 409Q494 215 451 119Q392 -15 249 -15Q168 -15 118 38Q62 96 62 196V545H154V228Q154 64 249 64Q343 64 379 177Q402 251 402 388Q402 487 336 487Q294 487 263 471H259V549Q301 561 360 561Q417 561 455 520Q494 476 494 409Z"  />
<glyph unicode="&#x28C;" horiz-adv-x="498" d="M495 0H399L251 421L102 0H3L207 545H290L495 0Z"  />
<glyph unicode="&#x28D;" horiz-adv-x="742" d="M728 0H635L544 422L412 0H336L207 422L110 0H15L154 545H239L371 125L504 545H589L728 0Z"  />
<glyph unicode="&#x28E;" horiz-adv-x="498" d="M495 0H396L247 404L99 0H3L296 747H395L297 519L495 0Z"  />
<glyph unicode="&#x28F;" horiz-adv-x="454" d="M451 545L273 228V0H181V228L3 545H97L227 304L357 545H451Z"  />
<glyph unicode="&#x290;" horiz-adv-x="444" d="M592 -201Q554 -207 521 -207Q430 -207 382 -157T333 -15V0H24V68L309 470H36V545H419V480L133 77H425V0Q425 -66 442 -92Q464 -125 539 -125Q557 -125 587 -119H592V-201Z"  />
<glyph unicode="&#x291;" horiz-adv-x="549" d="M544 116Q544 64 514 33Q481 0 425 0H280Q269 -20 259 -40T240 -80L172 -50Q174 -45 179 -33T195 0H24V68L309 470H36V545H419V480L133 77H236Q332 232 425 232Q482 232 514 199Q544 167 544 116ZM464 116Q464 155 425 155Q383 155 328 77H425Q464 77 464 116Z"  />
<glyph unicode="&#x292;" horiz-adv-x="444" d="M420 58Q420 -207 166 -207Q97 -207 5 -164V-61H10Q80 -127 167 -127Q325 -127 325 58Q325 139 283 189Q236 246 153 246V266L305 470H31V545H415V480L277 296Q324 275 360 233Q420 162 420 58Z"  />
<glyph unicode="&#x293;" horiz-adv-x="444" d="M400 -207Q394 -200 379 -185T340 -146Q276 -207 166 -207Q83 -207 42 -166Q5 -130 5 -73Q5 -18 39 13Q73 46 140 46Q215 46 311 -20Q325 25 325 63Q325 142 283 192Q236 246 153 246V266L305 470H31V545H415V480L277 296Q325 276 360 236Q420 167 420 63Q420 -16 387 -82Q404 -98 419 -113T449 -145L400 -207ZM270 -88Q194 -33 139 -33Q84 -33 84 -73Q84 -93 104 -108Q126 -127 167 -127Q231 -127 270 -88Z"  />
<glyph unicode="&#x294;" horiz-adv-x="461" d="M433 480Q433 367 381 293Q327 215 229 198V0H137V274H180Q261 274 302 339Q337 395 337 480Q337 569 303 621Q263 685 180 685Q92 685 22 619H17V722Q109 765 178 765Q307 765 373 683Q433 608 433 480Z"  />
<glyph unicode="&#x295;" horiz-adv-x="461" d="M444 619H439Q368 685 282 685Q198 685 158 621Q124 569 124 480Q124 395 159 339Q201 274 282 274H325V0H233V198Q135 215 81 293Q29 367 29 480Q29 608 89 683Q155 765 283 765Q354 765 444 722V619Z"  />
<glyph unicode="&#x296;" horiz-adv-x="461" d="M433 272Q433 143 373 70Q307 -12 178 -12Q109 -12 17 31V134H22Q92 67 180 67Q263 67 303 131Q337 184 337 272Q337 357 302 413Q261 479 180 479H137V760H229V554Q328 537 381 459Q433 386 433 272Z"  />
<glyph unicode="&#x297;" horiz-adv-x="461" d="M444 -164Q354 -207 283 -207Q155 -207 89 -125Q29 -50 29 78V272Q29 400 93 476Q162 558 283 558Q361 558 444 516V413H439Q362 479 282 479Q201 479 159 413Q124 357 124 272V78Q124 -8 159 -63Q199 -127 282 -127Q368 -127 439 -61H444V-164Z"  />
<glyph unicode="&#x298;" horiz-adv-x="708" d="M675 363Q675 184 588 84Q501 -15 354 -15Q205 -15 118 85Q32 186 32 363Q32 543 120 644Q204 742 354 742Q502 742 588 644Q675 543 675 363ZM575 363Q575 506 515 583Q457 659 354 659Q251 659 192 584T133 363Q133 240 181 162Q238 68 354 68Q470 68 527 162Q575 240 575 363ZM410 363Q410 340 394 324T354 308Q332 308 315 324T298 363Q298 386 314 402T354 418Q377 418 393 403T410 363Z"  />
<glyph unicode="&#x299;" horiz-adv-x="524" d="M494 165Q494 125 479 95T437 44Q404 18 368 9T281 0H66V545H267Q297 545 318 544T354 541Q381 538 410 523Q466 491 466 420Q466 381 445 350T387 302L390 298Q435 287 464 253T494 165ZM372 406Q372 424 366 438T344 459Q327 469 305 470T245 472H157V323H263Q279 323 290 323T310 326T326 331T342 339Q372 358 372 406ZM399 165Q399 192 391 209T356 239Q339 248 320 249T265 251H157V73H237Q286 73 313 77T360 93Q381 105 390 122T399 165Z"  />
<glyph unicode="&#x29A;" horiz-adv-x="531" d="M502 272Q502 143 440 67Q374 -13 245 -13Q158 -13 100 24Q30 67 30 151Q30 251 133 285V289Q91 299 67 332T42 411Q42 487 111 526Q168 559 251 559Q372 559 440 473Q502 394 502 272ZM407 272Q407 358 371 414Q329 479 248 479Q135 479 135 403Q135 349 180 333Q204 324 272 324H322V245H257Q193 245 167 232Q124 213 124 158Q124 67 249 67Q332 67 372 131Q407 186 407 272Z"  />
<glyph unicode="&#x29B;" horiz-adv-x="538" d="M618 584H613Q581 601 540 601Q474 601 474 519V424H467Q372 482 283 482Q123 482 123 276Q123 178 155 126Q195 63 289 63Q342 63 384 81V198H274V275H476V33Q369 -15 292 -15Q160 -15 91 67Q28 143 28 273Q28 402 97 480Q167 561 292 561Q353 561 412 537Q412 600 447 637T536 674Q556 674 576 671T618 663V584Z"  />
<glyph unicode="&#x29C;" horiz-adv-x="563" d="M497 0H405V246H158V0H66V545H158V325H405V545H497V0Z"  />
<glyph unicode="&#x29D;" horiz-adv-x="399" d="M333 637H229V732H333V637ZM399 -28H332Q329 -113 282 -160T156 -207Q0 -207 0 -73Q0 -18 34 16Q71 51 135 51H241V469H142V545H333V51H399V-28ZM134 -28Q110 -28 95 -41T80 -73Q80 -94 97 -108Q117 -127 158 -127Q228 -127 239 -28H134Z"  />
<glyph unicode="&#x29E;" horiz-adv-x="498" d="M432 -201H340V230L124 0H10L234 228L-21 545H100L304 282L340 317V545H432V-201Z"  />
<glyph unicode="&#x29F;" horiz-adv-x="415" d="M413 0H66V545H158V81H413V0Z"  />
<glyph unicode="&#x2A0;" horiz-adv-x="553" d="M672 672H667Q634 685 591 685Q562 685 543 680T510 660T492 622T486 562V-201H395V60Q318 -11 232 -11Q126 -11 72 82Q29 156 29 271Q29 404 99 486Q163 561 259 561Q329 561 395 522V564Q395 765 578 765Q621 765 672 756V672ZM395 447Q333 478 274 478Q192 478 155 414Q124 362 124 275Q124 77 252 77Q326 77 395 137V447Z"  />
<glyph unicode="&#x2A1;" horiz-adv-x="461" d="M433 480Q433 367 381 293Q327 215 229 198V153H348V76H229V0H137V76H17V153H137V274H180Q261 274 302 339Q337 395 337 480Q337 569 303 621Q263 685 180 685Q92 685 22 619H17V722Q109 765 178 765Q307 765 373 683Q433 608 433 480Z"  />
<glyph unicode="&#x2A2;" horiz-adv-x="461" d="M444 76H325V0H233V76H113V153H233V198Q135 215 81 293Q29 367 29 480Q29 608 89 683Q155 765 283 765Q354 765 444 722V619H439Q368 685 282 685Q198 685 158 621Q124 569 124 480Q124 395 159 339Q201 274 282 274H325V153H444V76Z"  />
<glyph unicode="&#x2A3;" horiz-adv-x="883" d="M863 0H395V56Q348 17 321 4Q280 -15 231 -15Q139 -15 85 58Q29 134 29 269Q29 378 77 455Q114 512 171 541Q213 561 259 561Q328 561 395 523V760H486V545H858V480L571 77H863V0ZM748 470H486V102L748 470ZM395 447Q333 477 274 477Q192 477 155 411Q124 358 124 271Q124 72 253 72Q325 72 395 133V447Z"  />
<glyph unicode="&#x2A4;" horiz-adv-x="874" d="M850 58Q850 -207 596 -207Q525 -207 435 -164V-61H440Q510 -127 597 -127Q755 -127 755 58Q755 140 712 189Q665 246 583 246V266L734 470H486V0H395V56Q348 17 321 4Q280 -15 231 -15Q139 -15 85 58Q29 134 29 269Q29 378 77 455Q114 512 171 541Q213 561 259 561Q328 561 395 523V760H486V545H845V480L707 296Q754 275 790 233Q850 162 850 58ZM395 447Q333 477 274 477Q192 477 155 411Q124 358 124 271Q124 72 253 72Q325 72 395 133V447Z"  />
<glyph unicode="&#x2A5;" horiz-adv-x="988" d="M983 116Q983 64 953 33Q921 0 864 0H720Q709 -20 699 -40T680 -80L612 -50L634 0H395V56Q348 17 321 4Q280 -15 231 -15Q139 -15 85 58Q29 134 29 269Q29 378 77 455Q114 512 171 541Q213 561 259 561Q328 561 395 523V760H486V545H859V480L572 77H676Q771 232 865 232Q921 232 954 199Q983 167 983 116ZM904 116Q904 155 865 155Q823 155 768 77H864Q904 77 904 116ZM749 470H486V100L749 470ZM395 447Q333 477 274 477Q192 477 155 411Q124 358 124 271Q124 72 253 72Q325 72 395 133V447Z"  />
<glyph unicode="&#x2A6;" horiz-adv-x="662" d="M643 162Q643 78 577 36Q521 0 429 0H231Q72 0 72 177V469H10V545H72V702H164V545H366Q406 559 454 559Q550 559 623 519V421H618Q541 481 452 481Q408 481 380 465Q344 444 344 404Q344 370 367 350Q384 336 422 326L521 303Q643 273 643 162ZM549 149Q549 184 525 201Q511 211 468 222Q451 226 427 231T370 245Q250 279 250 392Q250 435 270 469H164V220Q164 146 172 124Q188 81 254 81H433Q487 81 511 90Q549 105 549 149Z"  />
<glyph unicode="&#x2A7;" horiz-adv-x="545" d="M580 668H575Q536 682 497 682Q431 682 407 647Q387 618 387 549V1Q387 -96 341 -149Q292 -207 197 -207Q148 -207 104 -197V-110H109Q157 -124 186 -124Q248 -124 272 -94Q294 -66 295 -4Q278 -8 262 -9T231 -11Q72 -11 72 167V469H10V545H72V702H164V545H295V557Q295 652 342 707Q391 765 485 765Q533 765 580 755V668ZM295 469H164V210Q164 129 177 104Q193 70 254 70Q275 70 295 76V469Z"  />
<glyph unicode="&#x2A8;" horiz-adv-x="735" d="M718 122Q718 64 681 28Q640 -12 557 -12Q446 -12 382 48Q317 -11 231 -11Q72 -11 72 167V469H10V545H72V702H164V545H302V469H164V210Q164 137 174 113Q190 70 249 70Q282 70 335 112Q302 179 302 272Q302 405 373 484Q441 558 557 558Q635 558 718 516V413H712Q686 436 650 454Q603 479 555 479Q473 479 433 413Q397 357 397 272Q397 217 412 174Q506 241 583 241Q648 241 684 208Q718 177 718 122ZM638 122Q638 161 584 161Q529 161 453 106Q492 67 555 67Q597 67 619 86Q638 102 638 122Z"  />
<glyph unicode="&#x2A9;" horiz-adv-x="808" d="M745 -16Q745 -107 697 -157T558 -207Q524 -207 487 -201V-119H492Q522 -125 540 -125Q614 -125 636 -88Q653 -59 653 24V311Q653 399 636 433Q614 473 550 473Q486 473 408 407V0H316V469H168V0H76V469H14V545H76V563Q76 765 259 765Q301 765 354 756V672H349Q314 685 272 685Q211 685 187 655Q165 629 165 564V545H408V485Q493 561 574 561Q663 561 706 500Q745 446 745 354V-16Z"  />
<glyph unicode="&#x2AA;" horiz-adv-x="628" d="M609 157Q609 72 539 26Q479 -13 391 -13Q256 -13 160 33V0H68V760H160V127Q262 64 394 64Q515 64 515 145Q515 181 492 199Q475 211 434 222Q417 226 393 231T336 245Q217 280 217 392Q217 472 280 519Q335 559 420 559Q518 559 589 519V421H584Q507 481 418 481Q374 481 346 465Q311 444 311 404Q311 369 333 350Q349 337 389 326L487 303Q609 273 609 157Z"  />
<glyph unicode="&#x2AB;" horiz-adv-x="556" d="M536 0H68V760H160V545H531V480L244 77H536V0ZM420 470H160V103L420 470Z"  />
<glyph unicode="&#x2AC;" horiz-adv-x="485" d="M471 727L384 386H321L243 634L165 386H102L15 727H80L140 468L221 727H268L351 468L408 727H471ZM471 341L384 0H321L243 249L165 0H102L15 341H80L140 82L221 341H268L351 82L408 341H471Z"  />
<glyph unicode="&#x2AD;" horiz-adv-x="563" d="M497 489H405V648H158V489H66V727H497V489ZM497 0H405V159H158V0H66V238H497V0Z"  />
<glyph unicode="&#x2AE;" horiz-adv-x="667" d="M601 -201H509V61Q424 -15 344 -15Q254 -15 211 46Q172 100 172 191V332Q172 386 166 412Q150 479 59 479Q41 479 10 473H5V555Q42 561 76 561Q167 561 215 511T264 370V235Q264 146 282 113Q305 72 368 72Q431 72 509 138V545H601V-201Z"  />
<glyph unicode="&#x2AF;" horiz-adv-x="773" d="M769 -201Q731 -207 697 -207Q606 -207 558 -157T509 -16V61Q424 -15 344 -15Q254 -15 211 46Q172 100 172 191V332Q172 386 166 412Q150 479 59 479Q41 479 10 473H5V555Q42 561 76 561Q167 561 215 511T264 370V235Q264 146 282 113Q305 72 368 72Q431 72 509 138V545H601V22Q601 -33 607 -58Q625 -125 715 -125Q733 -125 763 -119H769V-201Z"  />
<glyph unicode="&#x2B0;" horiz-adv-x="385" d="M336 218H274V426Q274 484 263 508Q248 535 205 535Q163 535 110 491V218H49V727H110V543Q167 594 221 594Q275 594 305 559T336 455V218Z"  />
<glyph unicode="&#x2B1;" horiz-adv-x="385" d="M336 219H274V427Q274 485 263 509Q248 536 205 536Q163 536 110 492V219H49V597Q49 731 171 731Q185 731 201 730T234 726V669H231Q207 678 180 678Q139 678 124 657Q110 640 110 597V544Q167 595 221 595Q336 595 336 456V219Z"  />
<glyph unicode="&#x2B2;" horiz-adv-x="232" d="M184 645H114V709H184V645ZM184 208Q184 147 151 114T58 80Q33 80 10 84V139H13Q24 137 32 136T45 134Q70 134 89 142Q115 153 120 189Q121 199 121 209T122 233V533H56V584H184V208Z"  />
<glyph unicode="&#x2B3;" horiz-adv-x="252" d="M242 518H239Q225 521 206 521Q153 521 110 478V218H49V584H110V529Q171 584 217 584Q224 584 230 584T242 582V518Z"  />
<glyph unicode="&#x2B4;" horiz-adv-x="252" d="M203 218H142V273Q81 218 35 218Q28 218 22 218T10 220V285H13Q23 282 46 282Q98 282 142 324V584H203V218Z"  />
<glyph unicode="&#x2B5;" horiz-adv-x="252" d="M316 84Q293 80 268 80Q208 80 175 114T142 208V273Q80 219 35 219Q28 219 22 219T10 221V285H13Q23 282 46 282Q99 282 142 325V584H204V233Q204 195 208 180Q220 134 280 134Q289 134 312 139H316V84Z"  />
<glyph unicode="&#x2B6;" horiz-adv-x="350" d="M345 584L213 425Q291 396 291 319Q291 218 154 218H49V584H107V439H154L271 584H345ZM229 323Q229 363 209 378Q192 392 150 392H107V268H156Q229 268 229 323Z"  />
<glyph unicode="&#x2B7;" horiz-adv-x="487" d="M482 584L390 218H333L244 500L155 218H99L5 584H69L133 301L220 584H271L360 301L420 584H482Z"  />
<glyph unicode="&#x2B8;" horiz-adv-x="340" d="M335 584L138 83H72L138 236L5 584H71L171 313L271 584H335Z"  />
<glyph unicode="&#x2B9;" horiz-adv-x="294" d="M279 727L133 425H67L162 727H279Z"  />
<glyph unicode="&#x2BA;" horiz-adv-x="475" d="M277 727L131 425H67L162 727H277ZM469 727L324 425H259L354 727H469Z"  />
<glyph unicode="&#x2BB;" horiz-adv-x="211" d="M164 760L87 487H-31L96 760H164Z"  />
<glyph unicode="&#x2BC;" horiz-adv-x="211" d="M242 760L115 487H47L124 760H242Z"  />
<glyph unicode="&#x2BD;" horiz-adv-x="211" d="M164 487H96L-31 760H87L164 487Z"  />
<glyph unicode="&#x2BE;" horiz-adv-x="546" d="M348 694Q348 631 304 589Q260 547 198 547V610Q233 610 254 634T276 693Q276 729 255 753T198 778V841Q260 841 304 799Q348 757 348 694Z"  />
<glyph unicode="&#x2BF;" horiz-adv-x="546" d="M348 547Q284 547 241 589Q198 631 198 694Q198 757 241 799Q284 841 348 841V778Q313 778 292 754T270 693Q270 658 291 634T348 610V547Z"  />
<glyph unicode="&#x2C0;" horiz-adv-x="376" d="M328 541Q328 467 295 418Q259 363 191 351V218H129V402H158Q213 402 240 446Q264 483 264 541Q264 677 158 677Q100 677 53 633H49V702Q112 731 157 731Q244 731 287 676Q328 624 328 541Z"  />
<glyph unicode="&#x2C1;" horiz-adv-x="376" d="M328 633H324Q275 677 218 677Q113 677 113 541Q113 484 136 446Q165 402 218 402H247V218H186V351Q117 363 81 418Q49 468 49 541Q49 626 89 676Q134 731 219 731Q265 731 328 702V633Z"  />
<glyph unicode="&#x2C2;" horiz-adv-x="728" d="M623 39L98 289V348L623 598V511L216 318L623 125V39Z"  />
<glyph unicode="&#x2C3;" horiz-adv-x="728" d="M629 289L105 39V125L512 318L105 511V598L629 348V289Z"  />
<glyph unicode="&#x2C4;" horiz-adv-x="728" d="M647 56H560L367 463L174 56H87L338 581H396L647 56Z"  />
<glyph unicode="&#x2C5;" horiz-adv-x="728" d="M647 581L396 56H338L87 581H174L367 174L560 581H647Z"  />
<glyph unicode="&#x2C6;" horiz-adv-x="546" d="M440 633H362L272 758L182 633H106L218 818H329L440 633Z"  />
<glyph unicode="&#x2C7;" horiz-adv-x="546" d="M438 818L327 633H216L104 818H182L272 693L362 818H438Z"  />
<glyph unicode="&#x2C8;" horiz-adv-x="546" d="M305 637H241V820H305V637Z"  />
<glyph unicode="&#x2C9;" horiz-adv-x="546" d="M457 652H89V727H457V652Z"  />
<glyph unicode="&#x2CA;" horiz-adv-x="546" d="M425 818L292 636H219L307 818H425Z"  />
<glyph unicode="&#x2CB;" horiz-adv-x="546" d="M327 636H254L121 818H240L327 636Z"  />
<glyph unicode="&#x2CC;" horiz-adv-x="546" d="M305 -205H241V-21H305V-205Z"  />
<glyph unicode="&#x2CD;" horiz-adv-x="546" d="M457 -195H89V-120H457V-195Z"  />
<glyph unicode="&#x2CE;" horiz-adv-x="546" d="M327 -206H254L121 -23H240L327 -206Z"  />
<glyph unicode="&#x2CF;" horiz-adv-x="546" d="M425 -23L292 -206H219L307 -23H425Z"  />
<glyph unicode="&#x2D0;" horiz-adv-x="354" d="M187 406H167L119 545H235L187 406ZM235 0H119L167 139H187L235 0Z"  />
<glyph unicode="&#x2D1;" horiz-adv-x="354" d="M235 362L187 223H167L119 362H235Z"  />
<glyph unicode="&#x2D2;" horiz-adv-x="546" d="M348 293Q348 230 304 188Q260 146 198 146V209Q233 209 254 233T276 293Q276 328 255 352T198 377V440Q260 440 304 398Q348 356 348 293Z"  />
<glyph unicode="&#x2D3;" horiz-adv-x="546" d="M348 146Q284 146 241 188Q198 230 198 293Q198 356 241 398Q284 440 348 440V377Q313 377 292 353T270 293Q270 258 291 234T348 209V146Z"  />
<glyph unicode="&#x2D4;" horiz-adv-x="333" d="M258 98H75V161H135V281H198V161H258V98Z"  />
<glyph unicode="&#x2D5;" horiz-adv-x="333" d="M258 218H198V98H135V218H75V281H258V218Z"  />
<glyph unicode="&#x2D6;" horiz-adv-x="333" d="M258 158H198V98H135V158H75V221H135V281H198V221H258V158Z"  />
<glyph unicode="&#x2D7;" horiz-adv-x="546" d="M457 146H89V222H457V146Z"  />
<glyph unicode="&#x2D8;" horiz-adv-x="546" d="M434 799Q434 713 395 665Q373 639 346 626T273 613Q233 613 203 626T153 665Q112 714 112 799H191Q191 733 211 704T273 675Q312 675 333 703T355 799H434Z"  />
<glyph unicode="&#x2D9;" horiz-adv-x="546" d="M325 637H221V732H325V637Z"  />
<glyph unicode="&#x2DA;" horiz-adv-x="546" d="M422 694Q422 631 379 589Q335 547 273 547Q210 547 167 589Q124 631 124 694Q124 756 167 798Q210 841 273 841Q335 841 379 799Q422 757 422 694ZM351 693Q351 729 329 753T273 778Q239 778 217 754T195 693Q195 658 217 634T273 610Q307 610 329 634T351 693Z"  />
<glyph unicode="&#x2DB;" horiz-adv-x="546" d="M290 0Q268 -18 252 -44T236 -93Q236 -109 245 -119T273 -129Q293 -129 307 -122H312V-190Q298 -196 283 -199T254 -202Q209 -202 185 -179T161 -116Q161 -84 178 -53T217 0H290Z"  />
<glyph unicode="&#x2DC;" horiz-adv-x="546" d="M469 797Q464 721 433 683T349 645Q323 645 302 654T260 683Q238 703 223 713T192 724Q168 724 159 702T147 643H79Q82 718 115 756T198 794Q223 794 244 785T286 757Q307 738 324 728T355 718Q378 718 388 740T400 797H469Z"  />
<glyph unicode="&#x2DD;" horiz-adv-x="546" d="M513 818L387 636H319L402 818H513ZM316 818L190 636H122L205 818H316Z"  />
<glyph unicode="&#x2DE;" horiz-adv-x="333" d="M283 203Q227 175 176 175Q128 175 103 202Q77 230 65 309L0 296L-11 362L125 389L136 325Q140 306 143 294T150 275Q160 254 185 254Q193 254 197 255Q238 263 265 284H269L283 203Z"  />
<glyph unicode="&#x2DF;" horiz-adv-x="382" d="M360 436L313 389L191 512L69 389L22 436L145 558L22 680L69 727L191 604L313 727L360 680L237 558L360 436Z"  />
<glyph unicode="&#x2E0;" horiz-adv-x="336" d="M331 584L199 274L220 223Q239 179 239 158Q239 85 167 85Q97 85 97 158Q97 179 116 223L137 274L5 584H69L168 348L267 584H331ZM184 160Q184 164 173 191L168 203L163 191Q152 164 152 160Q152 139 168 139Q184 139 184 160Z"  />
<glyph unicode="&#x2E1;" horiz-adv-x="159" d="M110 218H49V727H110V218Z"  />
<glyph unicode="&#x2E2;" horiz-adv-x="362" d="M313 325Q313 275 277 244Q237 210 170 210Q107 210 49 241V311H52Q65 301 76 294T99 281Q138 263 173 263Q209 263 229 275Q250 288 250 316Q250 354 196 368L130 383Q51 405 51 482Q51 535 93 567Q130 594 187 594Q250 594 300 567V501H297Q245 542 186 542Q113 542 113 490Q113 451 166 437L232 422Q313 402 313 325Z"  />
<glyph unicode="&#x2E3;" horiz-adv-x="335" d="M330 218H254L166 356L75 218H5L132 399L6 584H82L170 447L260 584H330L204 404L330 218Z"  />
<glyph unicode="&#x2E4;" horiz-adv-x="376" d="M328 633H324Q275 677 218 677Q113 677 113 541Q113 484 136 446Q165 402 218 402H247V218H186V351Q117 363 81 418Q49 468 49 541Q49 626 89 676Q134 731 219 731Q265 731 328 702V633Z"  />
<glyph unicode="&#x2E5;" horiz-adv-x="383" d="M310 0H233V640H73V716H310V0Z"  />
<glyph unicode="&#x2E6;" horiz-adv-x="383" d="M310 0H233V479H73V556H233V716H310V0Z"  />
<glyph unicode="&#x2E7;" horiz-adv-x="383" d="M310 0H233V320H73V396H233V716H310V0Z"  />
<glyph unicode="&#x2E8;" horiz-adv-x="383" d="M310 0H233V160H73V236H233V716H310V0Z"  />
<glyph unicode="&#x2E9;" horiz-adv-x="383" d="M310 0H73V76H233V716H310V0Z"  />
<glyph unicode="&#x2EA;" horiz-adv-x="333" d="M286 0H48V430H94V46H286V0Z"  />
<glyph unicode="&#x2EB;" horiz-adv-x="333" d="M286 192H94V0H48V430H94V238H286V192Z"  />
<glyph unicode="&#x2EC;" horiz-adv-x="546" d="M440 -20L329 -205H218L106 -20H184L274 -145L364 -20H440Z"  />
<glyph unicode="&#x2ED;" horiz-adv-x="546" d="M419 677H127V727H419V677ZM419 577H127V627H419V577Z"  />
<glyph unicode="&#x2EE;" horiz-adv-x="401" d="M437 760L310 487H245L321 760H437ZM245 760L118 487H52L129 760H245Z"  />
<glyph unicode="&#x2EF;" horiz-adv-x="546" d="M373 -35L285 -172H259L171 -35H227L272 -118L317 -35H373Z"  />
<glyph unicode="&#x2F0;" horiz-adv-x="546" d="M373 -172H317L272 -89L227 -172H171L259 -35H285L373 -172Z"  />
<glyph unicode="&#x2F1;" horiz-adv-x="546" d="M340 -205L203 -117V-91L340 -3V-59L257 -104L340 -149V-205Z"  />
<glyph unicode="&#x2F2;" horiz-adv-x="546" d="M340 -117L203 -205V-149L286 -104L203 -59V-3L340 -91V-117Z"  />
<glyph unicode="&#x2F3;" horiz-adv-x="546" d="M364 -116Q364 -155 338 -180T273 -205Q235 -205 209 -180T183 -116Q183 -77 208 -52T273 -27Q312 -27 338 -52T364 -116ZM320 -117Q320 -95 308 -80T273 -65Q252 -65 240 -80T227 -117Q227 -138 239 -152T273 -167Q294 -167 307 -153T320 -117Z"  />
<glyph unicode="&#x2F4;" horiz-adv-x="546" d="M327 146H254L121 329H240L327 146Z"  />
<glyph unicode="&#x2F5;" horiz-adv-x="546" d="M424 146H356L230 329H341L424 146ZM227 146H159L33 329H144L227 146Z"  />
<glyph unicode="&#x2F6;" horiz-adv-x="546" d="M513 329L387 146H319L402 329H513ZM316 329L190 146H122L205 329H316Z"  />
<glyph unicode="&#x2F7;" horiz-adv-x="546" d="M469 -51Q458 -203 349 -203Q301 -203 260 -165Q216 -124 192 -124Q151 -124 147 -205H79Q82 -143 108 -102Q139 -53 198 -53Q243 -53 286 -91Q329 -130 355 -130Q397 -130 400 -51H469Z"  />
<glyph unicode="&#x2F8;" horiz-adv-x="354" d="M235 588H119V727H235V588ZM235 182H119V321H235V182Z"  />
<glyph unicode="&#x2F9;" horiz-adv-x="546" d="M365 664H245V543H181V727H365V664Z"  />
<glyph unicode="&#x2FA;" horiz-adv-x="546" d="M365 543H301V664H181V727H365V543Z"  />
<glyph unicode="&#x2FB;" horiz-adv-x="546" d="M365 0H181V184H245V63H365V0Z"  />
<glyph unicode="&#x2FC;" horiz-adv-x="546" d="M365 0H181V63H301V184H365V0Z"  />
<glyph unicode="&#x2FD;" horiz-adv-x="546" d="M457 -205H89V-21H164V-130H382V-21H457V-205Z"  />
<glyph unicode="&#x2FE;" horiz-adv-x="546" d="M457 -205H89V-21H164V-130H457V-205Z"  />
<glyph unicode="&#x2FF;" horiz-adv-x="333" d="M305 -86H91L172 -205H126L28 -67V-60L126 78H172L91 -41H305V-86Z"  />
<glyph unicode="&#x300;" horiz-adv-x="0" d="M-170 636H-243L-376 818H-257L-170 636Z"  />
<glyph unicode="&#x301;" horiz-adv-x="0" d="M-107 818L-240 636H-313L-225 818H-107Z"  />
<glyph unicode="&#x302;" horiz-adv-x="0" d="M167 633H89L-1 758L-91 633H-167L-56 818H55L167 633Z"  />
<glyph unicode="&#x303;" horiz-adv-x="0" d="M-85 1001Q-90 925 -121 887T-205 849Q-231 849 -252 858T-294 887Q-316 907 -331 917T-362 928Q-386 928 -395 906T-407 847H-475Q-472 922 -439 960T-356 998Q-331 998 -310 989T-268 961Q-247 942 -230 932T-199 922Q-176 922 -166 944T-154 1001H-85Z"  />
<glyph unicode="&#x304;" horiz-adv-x="0" d="M184 652H-184V727H184V652Z"  />
<glyph unicode="&#x305;" horiz-adv-x="0" d="M281 810H-281V874H281V810Z"  />
<glyph unicode="&#x306;" horiz-adv-x="0" d="M161 799Q161 757 151 723T121 665Q99 639 71 626T0 613Q-40 613 -70 626T-121 665Q-141 689 -151 723T-161 799H-82Q-82 733 -62 704T0 675Q39 675 60 703T82 799H161Z"  />
<glyph unicode="&#x307;" horiz-adv-x="0" d="M52 637H-52V732H52V637Z"  />
<glyph unicode="&#x308;" horiz-adv-x="0" d="M150 637H52V732H150V637ZM-52 637H-150V732H-52V637Z"  />
<glyph unicode="&#x309;" horiz-adv-x="0" d="M362 746Q362 686 298 667V633H244V692Q267 698 279 707T291 736Q291 748 282 757T256 767Q241 767 232 765T211 758H209V810Q219 812 236 815T273 818Q312 818 337 797T362 746Z"  />
<glyph unicode="&#x30A;" horiz-adv-x="0" d="M149 694Q149 631 106 589Q62 547 0 547Q-63 547 -106 589Q-149 631 -149 694Q-149 756 -106 798Q-63 841 0 841Q62 841 106 799Q149 757 149 694ZM78 693Q78 729 56 753T0 778Q-34 778 -56 754T-78 693Q-78 658 -56 634T0 610Q34 610 56 634T78 693Z"  />
<glyph unicode="&#x30B;" horiz-adv-x="0" d="M196 818L70 636H2L84 818H196ZM-1 818L-127 636H-195L-113 818H-1Z"  />
<glyph unicode="&#x30C;" horiz-adv-x="0" d="M167 818L55 633H-56L-167 818H-89L1 693L91 818H167Z"  />
<glyph unicode="&#x30D;" horiz-adv-x="0" d="M32 637H-32V820H32V637Z"  />
<glyph unicode="&#x30E;" horiz-adv-x="0" d="M95 637H32V820H95V637ZM-32 637H-95V820H-32V637Z"  />
<glyph unicode="&#x30F;" horiz-adv-x="0" d="M113 818L196 636H128L2 818H113ZM-84 818L-1 636H-69L-195 818H-84Z"  />
<glyph unicode="&#x310;" horiz-adv-x="0" d="M161 799Q161 757 151 723T121 665Q99 639 71 626T0 613Q-40 613 -70 626T-121 665Q-141 689 -151 723T-161 799H-82Q-82 733 -62 704T0 675Q39 675 60 703T82 799H161ZM40 870V799H-40V870H40Z"  />
<glyph unicode="&#x311;" horiz-adv-x="0" d="M82 613Q82 737 0 737Q-82 737 -82 613H-161Q-161 697 -120 747Q-78 799 0 799Q79 799 122 747Q161 700 161 613H82Z"  />
<glyph unicode="&#x312;" horiz-adv-x="0" d="M47 604H-46V688Q-46 732 -22 770Q3 807 46 818V764Q0 758 0 693H47V604Z"  />
<glyph unicode="&#x313;" horiz-adv-x="0" d="M47 733Q47 688 22 653Q-3 614 -45 604V658Q0 664 0 729H-46V818H47V733Z"  />
<glyph unicode="&#x314;" horiz-adv-x="0" d="M47 729H0Q0 664 46 658V604Q3 615 -22 653Q-46 689 -46 733V818H47V729Z"  />
<glyph unicode="&#x315;" horiz-adv-x="0" d="M142 733Q142 689 118 653Q93 615 50 604V658Q95 664 95 729H49V818H142V733Z"  />
<glyph unicode="&#x316;" horiz-adv-x="0" d="M103 -206H30L-103 -23H16L103 -206Z"  />
<glyph unicode="&#x317;" horiz-adv-x="0" d="M103 -23L-30 -206H-103L-16 -23H103Z"  />
<glyph unicode="&#x318;" horiz-adv-x="0" d="M92 -205H28V-145H-92V-82H28V-21H92V-205Z"  />
<glyph unicode="&#x319;" horiz-adv-x="0" d="M-92 -21H-28V-82H92V-145H-28V-205H-92V-21Z"  />
<glyph unicode="&#x31A;" horiz-adv-x="0" d="M184 652H109V802H-184V877H184V652Z"  />
<glyph unicode="&#x31B;" horiz-adv-x="0" d="M0 727Q53 727 71 743T89 793Q89 811 84 833T72 867V871H150Q157 848 159 831T162 790Q162 726 120 694T0 661V727Z"  />
<glyph unicode="&#x31C;" horiz-adv-x="0" d="M45 -205Q6 -205 -19 -180T-45 -116Q-45 -78 -20 -53T45 -27V-65Q24 -65 11 -80T-2 -117Q-2 -138 11 -152T45 -167V-205Z"  />
<glyph unicode="&#x31D;" horiz-adv-x="0" d="M32 -142H92V-205H-92V-142H-32V-21H32V-142Z"  />
<glyph unicode="&#x31E;" horiz-adv-x="0" d="M32 -205H-32V-85H-92V-21H92V-85H32V-205Z"  />
<glyph unicode="&#x31F;" horiz-adv-x="0" d="M32 -205H-32V-145H-92V-82H-32V-21H32V-82H92V-145H32V-205Z"  />
<glyph unicode="&#x320;" horiz-adv-x="0" d="M184 -195H-184V-120H184V-195Z"  />
<glyph unicode="&#x321;" horiz-adv-x="0" d="M92 -16Q92 -110 42 -158T-96 -207Q-111 -207 -130 -206T-167 -201V-119H-162Q-151 -121 -138 -123T-114 -125Q-42 -125 -18 -88Q-7 -70 -4 -46T0 -7V62H92V-16Z"  />
<glyph unicode="&#x322;" horiz-adv-x="0" d="M259 -201Q221 -207 188 -207Q97 -207 49 -157T0 -16V62H92V-7Q92 -58 110 -88Q132 -125 206 -125Q224 -125 254 -119H259V-201Z"  />
<glyph unicode="&#x323;" horiz-adv-x="0" d="M325 -187H221V-91H325V-187Z"  />
<glyph unicode="&#x324;" horiz-adv-x="0" d="M150 -195H52V-100H150V-195ZM-52 -195H-150V-100H-52V-195Z"  />
<glyph unicode="&#x325;" horiz-adv-x="0" d="M90 -116Q90 -155 65 -180T0 -205Q-39 -205 -64 -180T-90 -116Q-90 -78 -65 -53T0 -27Q39 -27 64 -52T90 -116ZM47 -117Q47 -95 34 -80T0 -65Q-21 -65 -34 -80T-47 -117Q-47 -138 -34 -152T0 -167Q21 -167 34 -153T47 -117Z"  />
<glyph unicode="&#x326;" horiz-adv-x="0" d="M47 -95Q47 -130 22 -161Q-4 -196 -45 -206V-151Q0 -147 0 -100H-46V-25H47V-95Z"  />
</font>
</defs>
</svg>
